<svg width="36" height="36" viewBox="0 0 36 36" fill="none" xmlns="http://www.w3.org/2000/svg">
<rect width="36" height="36" rx="12" fill="#F3F3F3"/>
<path d="M18.5 9C17.938 10.543 16.6481 11.3676 15 10.8411" stroke="#505C64" stroke-width="1.2" stroke-linecap="round" stroke-linejoin="round"/>
<path d="M23.9995 14.5C22.9997 13.8577 21.6584 12.3836 21.9995 10.5" stroke="#505C64" stroke-width="1.2" stroke-linecap="round" stroke-linejoin="round"/>
<path d="M16 17C16 15.9027 17.1283 15 18.5 15C19.8717 15 21 15.9027 21 17" stroke="#505C64" stroke-width="1.2" stroke-linecap="round" stroke-linejoin="round"/>
<path d="M13 17L15.2318 9.98539C15.5765 8.90226 16.7533 8.32371 17.8215 8.7123L23.1834 10.663C24.1965 11.0316 24.7352 12.1368 24.4012 13.1619L23.1509 17" stroke="#505C64" stroke-width="1.2" stroke-linecap="round" stroke-linejoin="round"/>
<path d="M25 22V24C25 25.1046 24.1046 26 23 26H12C10.8954 26 10 25.1046 10 24L10 16.76V16.76C10 15.788 10.788 15 11.76 15H13.5294" stroke="#505C64" stroke-width="1.2" stroke-linecap="round" stroke-linejoin="round"/>
<path d="M10 17H23C24.1046 17 25 17.8954 25 19V21" stroke="#505C64" stroke-width="1.2" stroke-linecap="round" stroke-linejoin="round"/>
<path fill-rule="evenodd" clip-rule="evenodd" d="M22 21.5C22 22.052 22.42 22.5 22.9375 22.5H25V20.5H22.9375C22.42 20.5 22 20.948 22 21.5Z" stroke="#505C64" stroke-width="1.2" stroke-linecap="round" stroke-linejoin="round"/>
</svg>
