<svg width="36" height="36" viewBox="0 0 36 36" fill="none" xmlns="http://www.w3.org/2000/svg">
<rect width="36" height="36" rx="12" fill="#E9EFF0"/>
<path d="M12.3914 21.6804H9.95898C9.4067 21.6804 8.95898 21.2327 8.95898 20.6804V11.7773C8.95898 11.2251 9.4067 10.7773 9.95898 10.7773H23.405C23.9573 10.7773 24.405 11.2251 24.405 11.7773V14.866" stroke="#505C64" stroke-width="1.3"/>
<rect x="12.3355" y="15.0602" width="15.0546" height="10.5116" rx="1.35" stroke="#505C64" stroke-width="1.3"/>
<path fill-rule="evenodd" clip-rule="evenodd" d="M23.0433 23.1479C22.8022 23.3639 22.4836 23.4953 22.1344 23.4953C21.3817 23.4953 20.7715 22.8851 20.7715 22.1324C20.7715 21.3797 21.3817 20.7695 22.1344 20.7695C22.4836 20.7695 22.8022 20.9009 23.0433 21.1169C23.2845 20.9009 23.6031 20.7695 23.9523 20.7695C24.705 20.7695 25.3152 21.3797 25.3152 22.1324C25.3152 22.8851 24.705 23.4953 23.9523 23.4953C23.6031 23.4953 23.2845 23.3639 23.0433 23.1479Z" fill="#505C64"/>
<path d="M8.95898 13.5039H24.405V15.0039H8.95898V13.5039Z" fill="#505C64"/>
</svg>
