<svg width="36" height="36" viewBox="0 0 36 36" fill="none" xmlns="http://www.w3.org/2000/svg">
<rect width="36" height="36" rx="12" fill="#D0D6D8"/>
<path d="M5.89609 25H10.4161C10.6561 25 11.5361 25 12.1961 24.92C15.5761 24.48 17.3761 21.48 17.3761 17.8C17.3761 14.14 15.5761 11.12 12.1961 10.68C11.5161 10.6 10.6761 10.6 10.4161 10.6H5.89609V25ZM8.03609 23.02V12.58H10.4161C10.8561 12.58 11.5561 12.6 12.0361 12.7C14.1961 13.1 15.1561 15.26 15.1561 17.8C15.1561 20.26 14.2361 22.5 12.0361 22.9C11.5561 23 10.8561 23.02 10.4161 23.02H8.03609ZM19.7242 25H21.8242V18.78H29.0242V25H31.1042V10.6H29.0242V16.8H21.8242V10.6H19.7242V25Z" fill="white"/>
</svg>
