<svg width="36" height="36" viewBox="0 0 36 36" fill="none" xmlns="http://www.w3.org/2000/svg">
<path fill-rule="evenodd" clip-rule="evenodd" d="M4.00232 8.52513V27.4865C4.00232 29.7223 6.17796 32 8.41396 32H27.8205C29.634 32 32 29.8107 32 27.7122V8.40183C32 6.16369 29.7477 4 27.4862 4H8.51381C6.21279 4 4 6.21255 4 8.51583L4.00232 8.52513ZM24.0985 8.50187C24.6555 8.32014 25.2613 8.36394 25.7865 8.6239C26.3116 8.88386 26.7145 9.33935 26.9088 9.89301C27.1032 10.4467 27.0738 11.0545 26.8267 11.5867C26.5797 12.1189 26.1347 12.5331 25.5869 12.7408C22.6636 13.7273 21.3238 9.43249 24.0985 8.50187ZM8.96426 14.7324C10.2947 13.7203 15.0012 13.483 16.6591 14.3671C19.118 15.6862 17.9547 18.983 18.3309 21.812H19.7124L19.8703 24.1712C18.8603 24.5806 16.3665 25.2577 15.259 24.5737C15.0769 24.459 14.9192 24.3096 14.7946 24.1339C14.711 24.0153 14.7087 23.9827 14.6274 23.8478L14.4927 23.643C12.4657 25.4112 8.28394 25.4857 7.8567 22.168C7.30873 17.9244 12.8744 18.755 14.2768 18.2268C14.5438 15.7305 10.9797 17.1217 9.55635 17.2218L8.96426 14.7324ZM14.2745 21.7632V20.1555C13.2064 20.2626 12.064 20.216 12.1476 21.3747C12.2428 22.7706 13.6661 22.0889 14.2745 21.7632ZM19.9957 13.6668H22.2805C22.9422 13.6668 26.9429 15.9515 27.2052 16.1934V22.2936H28.4962L28.4614 24.7365H21.2704L21.2449 22.2913H22.5312C22.5312 21.0722 22.6125 17.2869 22.4871 16.347H20.0003L19.9957 13.6668Z" fill="#ED2F24"/>
</svg>
