<svg width="36" height="36" viewBox="0 0 36 36" fill="none" xmlns="http://www.w3.org/2000/svg">
<rect width="36" height="36" rx="12" fill="#D9B681"/>
<path d="M16.414 24.0257H18.1317L14.41 12.5745H12.0244L8.30273 24.0257H10.0204L10.8633 21.4492H15.571L16.414 24.0257ZM11.3723 19.8906L13.2013 14.2445L15.0621 19.8906H11.3723Z" fill="white"/>
<path d="M27.3351 20.7653C27.3351 19.1749 26.5399 18.2683 24.5995 17.6958L22.5001 17.0755C21.3232 16.7256 20.8143 16.2644 20.8143 15.5487C20.8143 14.5944 21.7685 13.8946 23.025 13.9105C24.345 13.9423 25.347 14.7693 25.5697 16.0099L27.2715 15.6918C26.8898 13.8946 25.681 12.7336 23.9315 12.4314V11H22.2616V12.3996C20.353 12.6382 19.1602 13.8628 19.1602 15.6282C19.1602 17.0278 19.9713 18.0138 21.53 18.491L24.2178 19.3339C25.2675 19.652 25.6969 20.0973 25.6969 20.8607C25.6969 21.9263 24.6949 22.6897 23.2636 22.6897C21.8003 22.6897 20.687 21.8468 20.369 20.479L18.7308 20.7494C19.033 22.6102 20.369 23.8826 22.2616 24.2006V25.6002H23.9315V24.2166C25.9991 23.9621 27.3351 22.642 27.3351 20.7653Z" fill="white"/>
</svg>
