<svg width="16" height="16" viewBox="0 0 16 16" fill="none" xmlns="http://www.w3.org/2000/svg">
<path fill-rule="evenodd" clip-rule="evenodd" d="M6.2837 4.19671C6.2837 3.55116 6.94287 2.58203 8.06729 2.58203C9.1917 2.58203 9.85087 3.55116 9.85087 4.19671V6.05487H6.2837V4.19671ZM4.7837 6.06643V4.19671C4.7837 2.81539 6.02472 1.08203 8.06729 1.08203C10.1098 1.08203 11.3509 2.81539 11.3509 4.19671V6.06646C12.3536 6.17441 13.1343 7.02346 13.1343 8.05487V13.3447C13.1343 14.4492 12.2389 15.3447 11.1343 15.3447H5C3.89543 15.3447 3 14.4492 3 13.3447V8.05487C3 7.02338 3.78086 6.17427 4.7837 6.06643ZM9.75638 10.2774C9.75638 11.2102 9.00016 11.9665 8.06733 11.9665C7.13449 11.9665 6.37827 11.2102 6.37827 10.2774C6.37827 9.34456 7.13449 8.58834 8.06733 8.58834C9.00016 8.58834 9.75638 9.34456 9.75638 10.2774Z" fill="#FF5721"/>
</svg>
