<svg width="36" height="36" viewBox="0 0 36 36" fill="none" xmlns="http://www.w3.org/2000/svg">
<mask id="mask0_16119_272717" style="mask-type:alpha" maskUnits="userSpaceOnUse" x="0" y="0" width="36" height="36">
<rect width="36" height="36" rx="12" fill="#E0E6EF"/>
</mask>
<g mask="url(#mask0_16119_272717)">
<path fill-rule="evenodd" clip-rule="evenodd" d="M-0.183594 0H71.8241V23.9133H-0.183594V0Z" fill="#B20000"/>
<path fill-rule="evenodd" clip-rule="evenodd" d="M-0.183594 23.9141H71.8241V36.0008H-0.183594V23.9141Z" fill="#429F00"/>
<path fill-rule="evenodd" clip-rule="evenodd" d="M-0.183594 0H7.79069V36H-0.183594V0Z" fill="white"/>
<path fill-rule="evenodd" clip-rule="evenodd" d="M0.197266 0.611719H0.576994V1.22344H0.197266V0.611719ZM1.33645 0.611719H2.47563V1.22344H1.33645V0.611719ZM1.71618 0H2.09591V0.611719H1.71618V0ZM3.61482 0H3.99455V0.611719H3.61482V0ZM5.13373 0.611719H6.27291V1.22344H5.13373V0.611719ZM5.51346 0H5.89319V0.611719H5.51346V0ZM0.956722 1.22344H1.71618V1.82813H0.956722V1.22344ZM2.09591 1.22344H2.85536V1.82813H2.09591V1.22344ZM4.754 1.22344H5.51346V1.82813H4.754V1.22344ZM5.89319 1.22344H6.65264V1.82813H5.89319V1.22344ZM0.576994 1.82813H1.33645V2.43984H0.576994V1.82813ZM2.47563 1.82813H3.23509V2.43984H2.47563V1.82813ZM4.37427 1.82813H5.13373V2.43984H4.37427V1.82813ZM6.27291 1.82813H7.03237V2.43984H6.27291V1.82813ZM7.03237 0.611719H7.4121V1.22344H7.03237V0.611719ZM0.197266 2.43984H0.956722V3.05156H0.197266V2.43984ZM2.85536 2.43984H3.61482V3.05156H2.85536V2.43984ZM6.65264 2.43984H7.4121V3.05156H6.65264V2.43984ZM0.576994 4.26797H1.33645V4.87969H0.576994V4.26797ZM0.956722 4.87969H1.71618V5.49141H0.956722V4.87969ZM2.47563 4.275H3.23509V4.87969H2.47563V4.275ZM2.09591 4.87969H2.85536V5.49141H2.09591V4.87969ZM1.33645 5.49141H2.47563V6.10313H1.33645V5.49141Z" fill="#B20000"/>
<path fill-rule="evenodd" clip-rule="evenodd" d="M1.71505 6.10254H2.09477V6.71426H1.71505V6.10254ZM4.37314 4.27441H5.1326V4.8791H4.37314V4.27441ZM4.75287 4.8791H5.51233V5.49082H4.75287V4.8791ZM6.27178 4.27441H7.03124V4.8791H6.27178V4.27441ZM5.89206 4.8791H6.65151V5.49082H5.89206V4.8791ZM5.1326 5.49082H6.27178V6.10254H5.1326V5.49082ZM5.51233 6.10254H5.89206V6.71426H5.51233V6.10254ZM3.61369 5.48379H3.99341V6.09551H3.61369V5.48379ZM-0.183594 5.48379H0.196134V6.09551H-0.183594V5.48379ZM7.41097 5.48379H7.79069V6.09551H7.41097V5.48379ZM1.71505 8.53535H2.09477V9.14707H1.71505V8.53535ZM1.33532 9.1541H2.4745V9.75879H1.33532V9.1541ZM0.95559 9.75879H2.85423V10.3705H0.95559V9.75879ZM5.51233 8.54238H5.89206V9.1541H5.51233V8.54238ZM5.1326 9.1541H6.27178V9.75879H5.1326V9.1541ZM4.75287 9.75879H6.65151V10.3705H4.75287V9.75879ZM5.1326 12.8104H7.03124V13.4221H5.1326V12.8104ZM4.37314 10.3705H7.03124V10.9822H4.37314V10.3705ZM0.575862 10.3705H3.23396V10.9822H0.575862V10.3705ZM0.95559 13.4221H2.09477V14.0338H0.95559V13.4221ZM0.575862 12.8104H2.4745V13.4221H0.575862V12.8104ZM5.89206 11.601H7.79069V12.2127H5.89206V11.601ZM5.51233 13.4291H6.65151V14.0408H5.51233V13.4291Z" fill="#B20000"/>
<path fill-rule="evenodd" clip-rule="evenodd" d="M1.33532 14.035H1.71505V14.6467H1.33532V14.035ZM5.89206 14.035H6.27178V14.6467H5.89206V14.035ZM-0.183594 11.5951H1.71505V12.2068H-0.183594V11.5951ZM3.23396 12.8115H4.37314V13.4232H3.23396V12.8115ZM3.61369 13.4303H3.99341V14.042H3.61369V13.4303ZM2.4745 11.6021H5.1326V12.2139H2.4745V11.6021ZM3.99341 2.44043H4.75287V3.05215H3.99341V2.44043ZM3.23396 3.05215H4.37314V3.66387H3.23396V3.05215ZM2.85423 3.66387H3.61369V4.26855H2.85423V3.66387ZM3.99341 3.66387H4.75287V4.26855H3.99341V3.66387ZM-0.183594 3.05215H0.575862V3.66387H-0.183594V3.05215ZM0.196134 3.66387H0.95559V4.26855H0.196134V3.66387ZM7.03124 3.05215H7.79069V3.65684H7.03124V3.05215ZM6.65151 3.65684H7.41097V4.26152H6.65151V3.65684ZM-0.183594 9.14121H0.196134V9.75293H-0.183594V9.14121ZM7.41097 9.14121H7.79069V9.75293H7.41097V9.14121ZM3.23396 14.0279H4.37314V14.6396H3.23396V14.0279ZM2.85423 14.6396H3.61369V15.2443H2.85423V14.6396ZM3.99341 14.6396H4.75287V15.2443H3.99341V14.6396ZM2.4745 15.2443H3.23396V15.8561H2.4745V15.2443ZM4.37314 15.2443H5.1326V15.8561H4.37314V15.2443ZM2.09477 15.8561H2.85423V16.4678H2.09477V15.8561ZM4.75287 15.8561H5.51233V16.4678H4.75287V15.8561ZM1.71505 16.4748H2.4745V17.0865H1.71505V16.4748ZM5.1326 16.4748H5.89206V17.0865H5.1326V16.4748ZM0.95559 17.0865H2.09477V17.6982H0.95559V17.0865ZM5.51233 17.0865H6.65151V17.6982H5.51233V17.0865ZM6.27178 16.4748H7.03124V17.0865H6.27178V16.4748ZM6.65151 15.8631H7.41097V16.4748H6.65151V15.8631ZM7.03124 15.2514H7.79069V15.8631H7.03124V15.2514ZM0.575862 16.4748H1.33532V17.0865H0.575862V16.4748ZM0.196134 15.8631H0.95559V16.4748H0.196134V15.8631ZM-0.183594 15.2584H0.575862V15.8701H-0.183594V15.2584ZM1.33532 17.7053H1.71505V18.31H1.33532V17.7053ZM5.89206 17.7053H6.27178V18.31H5.89206V17.7053ZM3.61369 15.8771H3.99341V16.4818H3.61369V15.8771ZM2.4745 17.7053H2.85423V18.31H2.4745V17.7053ZM4.75287 17.7053H5.1326V18.31H4.75287V17.7053ZM3.61369 17.7053H3.99341V18.31H3.61369V17.7053ZM-0.183594 17.7053H0.196134V18.31H-0.183594L-0.183594 17.7053ZM7.41097 17.7053H7.79069V18.31H7.41097V17.7053ZM3.61369 9.15527H3.99341V9.75996H3.61369V9.15527ZM1.71505 3.05215H2.09477V3.66387H1.71505V3.05215ZM5.51233 3.05215H5.89206V3.66387H5.51233V3.05215ZM3.23396 7.32012H4.37314V7.93184H3.23396V7.32012ZM2.4745 7.93184H3.61369V8.54355H2.4745V7.93184ZM2.85423 8.54355H3.23396V9.15527H2.85423V8.54355ZM2.09477 7.32012H2.85423V7.93184H2.09477V7.32012ZM2.4745 6.71543H3.61369V7.32012H2.4745V6.71543ZM2.85423 6.10371H3.23396V6.71543H2.85423V6.10371ZM3.99341 6.71543H5.1326V7.32012H3.99341V6.71543ZM4.37314 6.10371H4.75287V6.71543H4.37314V6.10371ZM4.75287 7.32012H5.51233V7.93184H4.75287V7.32012ZM3.99341 7.93184H5.1326V8.54355H3.99341V7.93184ZM4.37314 8.54355H4.75287V9.15527H4.37314V8.54355ZM5.89206 7.32012H6.65151V7.93184H5.89206V7.32012ZM6.27178 6.71543H7.41097V7.32012H6.27178V6.71543ZM7.03124 7.32012H7.79069V7.93184H7.03124V7.32012ZM6.27178 7.93184H7.41097V8.54355H6.27178V7.93184ZM6.65151 8.54355H7.03124V9.15527H6.65151V8.54355ZM6.65151 6.10371H7.03124V6.71543H6.65151V6.10371ZM-0.183594 7.31309H0.575862V7.9248H-0.183594V7.31309ZM0.196134 6.7084H1.33532V7.31309H0.196134V6.7084ZM0.95559 7.31309H1.71505V7.9248H0.95559V7.31309ZM0.196134 7.9248H1.33532V8.53652H0.196134V7.9248Z" fill="#B20000"/>
<path fill-rule="evenodd" clip-rule="evenodd" d="M0.575862 8.54336H0.95559V9.15508H0.575862V8.54336ZM0.575862 6.10352H0.95559V6.71523H0.575862V6.10352ZM0.196134 10.9832H1.71505V11.5949H0.196134V10.9832ZM2.09477 10.9832H3.61369V11.5949H2.09477V10.9832ZM3.99341 10.9832H5.51233V11.5949H3.99341V10.9832ZM5.89206 10.9832H7.41097V11.5949H5.89206V10.9832ZM2.85423 12.2066H4.75287V12.8113H2.85423V12.2066ZM0.196134 12.2066H2.09477V12.8113H0.196134V12.2066ZM5.51233 12.2066H7.41097V12.8113H5.51233V12.2066ZM7.41097 14.6465H7.79069V15.2512H7.41097V14.6465ZM-0.183594 14.6465H0.196134V15.2512H-0.183594V14.6465ZM0.196134 35.3887H0.575862V34.784H0.196134V35.3887ZM1.33532 35.3887H2.4745V34.784H1.33532V35.3887ZM1.71505 36.0004H2.09477V35.3887H1.71505V36.0004ZM3.61369 36.0004H3.99341V35.3887H3.61369V36.0004ZM5.1326 35.3887H6.27178V34.777H5.1326V35.3887ZM5.51233 36.0004H5.89206V35.3887H5.51233V36.0004ZM0.95559 34.777H1.71505V34.1723H0.95559V34.777ZM2.09477 34.777H2.85423V34.1723H2.09477V34.777ZM4.75287 34.777H5.51233V34.1723H4.75287V34.777ZM5.89206 34.777H6.65151V34.1723H5.89206V34.777ZM2.4745 34.1723H3.23396V33.5606H2.4745V34.1723ZM4.37314 34.1723H5.1326V33.5606H4.37314V34.1723ZM6.27178 34.1723H7.03124V33.5606H6.27178V34.1723ZM7.03124 35.3887H7.41097V34.777H7.03124V35.3887ZM0.196134 33.5606H0.95559V32.9488H0.196134V33.5606ZM2.85423 33.5606H3.61369V32.9488H2.85423V33.5606ZM6.65151 33.5606H7.41097V32.9488H6.65151V33.5606ZM0.575862 31.7324H1.33532V31.1207H0.575862V31.7324ZM0.95559 31.1207H1.71505V30.509H0.95559V31.1207ZM2.4745 31.7324H3.23396V31.1207H2.4745V31.7324ZM2.09477 31.1207H2.85423V30.509H2.09477V31.1207ZM1.33532 30.509H2.4745V29.8973H1.33532V30.509ZM1.71505 29.8973H2.09477V29.2926H1.71505V29.8973ZM4.37314 31.7254H5.1326V31.1207H4.37314V31.7254ZM4.75287 31.1207H5.51233V30.509H4.75287V31.1207ZM6.27178 31.7324H7.03124V31.1207H6.27178V31.7324ZM5.89206 31.1207H6.65151V30.509H5.89206V31.1207ZM5.1326 30.509H6.27178V29.8973H5.1326V30.509ZM5.51233 29.8973H5.89206V29.2926H5.51233V29.8973ZM3.61369 30.516H3.99341V29.9043H3.61369V30.516ZM-0.183594 30.516H0.196134V29.9043H-0.183594V30.516ZM7.41097 30.516H7.79069V29.9043H7.41097V30.516ZM1.71505 27.4645H2.09477V26.8527H1.71505V27.4645ZM1.33532 26.8457H2.4745V26.241H1.33532V26.8457ZM0.95559 26.241H2.85423V25.6293H0.95559V26.241ZM5.51233 27.4574H5.89206V26.8457H5.51233V27.4574Z" fill="#B20000"/>
<path fill-rule="evenodd" clip-rule="evenodd" d="M5.1326 26.8451H6.27178V26.2404H5.1326V26.8451ZM4.75287 26.2404H6.65151V25.6287H4.75287V26.2404ZM5.1326 23.1889H7.03124V22.5701H5.1326V23.1889ZM4.37314 25.6287H7.03124V25.017H4.37314V25.6287ZM0.575862 25.6287H3.23396V25.017H0.575862V25.6287ZM0.95559 22.5771H2.09477V21.9654H0.95559V22.5771ZM0.575862 23.1889H2.4745V22.5701H0.575862V23.1889ZM5.89206 24.3982H7.79069V23.7865H5.89206V24.3982ZM5.51233 22.5701H6.65151V21.9584H5.51233V22.5701ZM-0.183594 24.3982H1.71505V23.7865H-0.183594V24.3982ZM3.23396 23.1818H4.37314V22.5701H3.23396V23.1818ZM3.61369 22.5701H3.99341V21.9584H3.61369V22.5701ZM2.4745 24.3982H5.1326V23.7865H2.4745V24.3982ZM3.99341 33.5529H4.75287V32.9412H3.99341V33.5529ZM3.23396 32.9412H4.37314V32.3436H3.23396V32.9412ZM2.85423 32.3295H3.61369V31.7178H2.85423V32.3295ZM3.99341 32.3295H4.75287V31.7178H3.99341V32.3295ZM-0.183594 32.9482H0.575862V32.3436H-0.183594V32.9482ZM0.196134 32.3365H0.95559V31.7318H0.196134V32.3365ZM7.03124 32.9482H7.79069V32.3436H7.03124V32.9482ZM6.65151 32.3365H7.41097V31.7318H6.65151V32.3365ZM-0.183594 26.8592H0.196134V26.2475H-0.183594V26.8592ZM7.41097 26.8592H7.79069V26.2475H7.41097V26.8592ZM2.85423 21.3607H3.61369V20.7561H2.85423V21.3607ZM3.99341 21.3607H4.75287V20.7561H3.99341V21.3607ZM2.4745 20.7561H3.23396V20.1443H2.4745V20.7561ZM4.37314 20.7561H5.1326V20.1443H4.37314V20.7561ZM2.09477 20.1443H2.85423V19.5326H2.09477V20.1443ZM4.75287 20.1443H5.51233V19.5326H4.75287V20.1443ZM1.71505 19.5256H2.4745V18.9139H1.71505V19.5256ZM5.1326 19.5256H5.89206V18.9139H5.1326V19.5256ZM0.95559 18.9139H2.09477V18.3021H0.95559V18.9139ZM5.51233 18.9139H6.65151V18.3021H5.51233V18.9139ZM6.27178 19.5256H7.03124V18.9139H6.27178V19.5256ZM6.65151 20.1373H7.41097V19.5256H6.65151V20.1373ZM7.03124 20.749H7.79069V20.1373H7.03124V20.749ZM0.575862 19.5256H1.33532V18.9139H0.575862V19.5256ZM0.196134 20.1373H0.95559V19.5256H0.196134V20.1373ZM-0.183594 20.742H0.575862V20.1303H-0.183594V20.742ZM1.33532 18.2951H1.71505V17.6904H1.33532V18.2951ZM3.61369 20.1232H3.99341V19.5186H3.61369V20.1232ZM3.61369 26.8381H3.99341V26.2334H3.61369V26.8381ZM1.71505 32.9412H2.09477V32.3436H1.71505V32.9412ZM5.51233 32.9412H5.89206V32.3436H5.51233V32.9412ZM3.23396 28.6873H4.37314V28.0756H3.23396V28.6873ZM2.4745 28.0756H3.61369V27.4639H2.4745V28.0756ZM2.85423 27.4639H3.23396V26.8521H2.85423V27.4639ZM2.09477 28.6873H2.85423V28.0756H2.09477V28.6873ZM2.4745 29.285H3.61369V28.6873H2.4745V29.285ZM2.85423 29.8967H3.23396V29.292H2.85423V29.8967ZM3.99341 29.285H5.1326V28.6873H3.99341V29.285ZM4.37314 29.8967H4.75287V29.292H4.37314V29.8967ZM4.75287 28.6803H5.51233V28.0686H4.75287V28.6803ZM3.99341 28.0686H5.1326V27.4568H3.99341V28.0686ZM4.37314 27.4568H4.75287V26.8451H4.37314V27.4568ZM5.89206 28.6873H6.65151V28.0756H5.89206V28.6873ZM6.27178 29.285H7.41097V28.6873H6.27178V29.285ZM7.03124 28.6803H7.79069V28.0686H7.03124V28.6803ZM6.27178 28.0686H7.41097V27.4568H6.27178V28.0686ZM6.65151 27.4568H7.03124V26.8451H6.65151V27.4568ZM6.65151 29.8967H7.03124V29.292H6.65151V29.8967ZM-0.183594 28.6873H0.575862V28.0756H-0.183594V28.6873ZM0.196134 29.285H1.33532V28.6873H0.196134V29.285Z" fill="#B20000"/>
<path fill-rule="evenodd" clip-rule="evenodd" d="M0.95559 28.6805H1.71505V28.0688H0.95559V28.6805ZM0.196134 28.0688H1.33532V27.457H0.196134V28.0688ZM0.575862 27.457H0.95559V26.8453H0.575862V27.457ZM0.575862 29.8969H0.95559V29.2922H0.575862V29.8969ZM0.196134 25.0172H1.71505V24.4055H0.196134V25.0172ZM2.09477 25.0172H3.61369V24.4055H2.09477V25.0172ZM3.99341 25.0172H5.51233V24.4055H3.99341V25.0172ZM5.89206 25.0172H7.41097V24.4055H5.89206V25.0172ZM2.85423 23.7938H4.75287V23.1891H2.85423V23.7938ZM0.196134 23.7938H2.09477V23.1891H0.196134V23.7938ZM5.51233 23.7938H7.41097V23.1891H5.51233V23.7938ZM7.41097 21.3609H7.79069V20.7422H7.41097V21.3609ZM-0.183594 21.3609H0.196134V20.7422H-0.183594V21.3609ZM3.23396 18.3023H3.61369V18.9141H3.23396V18.3023ZM3.99341 18.3023H4.37314V18.9141H3.99341V18.3023ZM3.99341 17.0859H4.37314V17.6977H3.99341V17.0859ZM3.23396 17.0859H3.61369V17.6977H3.23396V17.0859ZM0.575862 33.5602H1.33532V34.1719H0.575862V33.5602ZM5.89206 21.9656H6.27178V21.3539H5.89206V21.9656ZM1.33532 21.9656H1.71505V21.3539H1.33532V21.9656ZM3.23396 21.3539H4.37314V21.9656H3.23396V21.3539Z" fill="#B20000"/>
</g>
</svg>
