<svg width="36" height="36" viewBox="0 0 36 36" fill="none" xmlns="http://www.w3.org/2000/svg">
<rect width="36" height="36" rx="12" fill="#D0D6D8"/>
<path d="M11.6305 25.3C14.9505 25.3 17.1905 23.5 18.0505 20.66L15.9305 20.08C15.3505 22.08 13.9305 23.32 11.6305 23.32C8.57047 23.32 7.03047 21.1 7.03047 17.8C7.05047 14.5 8.57047 12.28 11.6305 12.28C13.9305 12.28 15.3505 13.52 15.9305 15.52L18.0505 14.94C17.1905 12.1 14.9505 10.3 11.6305 10.3C7.33047 10.3 4.83047 13.34 4.83047 17.8C4.83047 22.26 7.33047 25.3 11.6305 25.3ZM31.0248 20.9C31.0248 18.9 30.0248 17.76 27.5848 17.04L24.9448 16.26C23.4648 15.82 22.8248 15.24 22.8248 14.34C22.8248 13.14 24.0248 12.26 25.6048 12.28C27.2648 12.32 28.5248 13.36 28.8048 14.92L30.9448 14.52C30.4648 12.26 28.9448 10.8 26.7448 10.42V8.62H24.6448V10.38C22.2448 10.68 20.7448 12.22 20.7448 14.44C20.7448 16.2 21.7648 17.44 23.7248 18.04L27.1048 19.1C28.4248 19.5 28.9648 20.06 28.9648 21.02C28.9648 22.36 27.7048 23.32 25.9048 23.32C24.0648 23.32 22.6648 22.26 22.2648 20.54L20.2048 20.88C20.5848 23.22 22.2648 24.82 24.6448 25.22V26.98H26.7448V25.24C29.3448 24.92 31.0248 23.26 31.0248 20.9Z" fill="white"/>
</svg>
