<svg width="36" height="36" viewBox="0 0 36 36" fill="none" xmlns="http://www.w3.org/2000/svg">
<g clip-path="url(#clip0_6799_342998)">
<path d="M10.0337 29.3992C11.495 23.3373 9.76028 23.1299 9.76028 20.1884C9.76028 19.208 10.5333 16.8605 10.6465 15.7197C10.9105 13.0989 10.2599 13.7965 12.1738 11.8544L12.2869 9.15812C13.2485 8.23421 13.7293 7.40458 14.9078 7.69683C15.6243 9.82748 14.2667 9.15812 14.1347 11.647C14.9361 12.7123 15.4734 12.816 16.0768 14.1548C16.8404 15.8517 16.2936 15.8329 17.7361 17.2565C19.8573 17.5016 21.1394 17.511 22.6573 15.9837C22.8176 14.3527 21.8748 14.4942 22.8364 12.9952C23.4963 11.9676 24.1468 11.4113 25.3819 11.8261C25.7873 13.4288 23.9677 13.7588 24.5334 15.5406C26.9751 15.7857 27.5408 12.4201 29.4075 12.2504C29.4075 15.8423 25.6553 16.3137 25.5704 19.2363C25.5139 21.0652 27.1354 26.0996 28.7758 27.1743C30.2182 24.9588 31.7738 22.5454 31.9529 19.8679C33.2068 1.59716 9.03436 -1.7308 4.4431 14.2679C4.20741 15.0881 4.06599 15.9177 4 16.7474V18.8686C4.40539 24.1292 7.64849 28.7487 10.0337 29.3992Z" fill="#EF4635"/>
<path d="M17.1058 31.8502C23.6391 32.6233 22.9509 30.6058 21.6593 23.1674C21.1503 20.2354 20.5563 18.6892 17.0775 18.9626C14.9092 21.5364 16.0028 26.5519 16.0782 28.7485C16.1348 30.4832 15.8425 30.5963 17.1058 31.8502ZM24.6196 30.059C25.7132 29.927 25.9018 29.7007 26.788 28.9936C26.9294 27.4946 25.9018 25.0812 24.2991 24.6004C23.5449 26.0522 23.7617 28.6354 24.6196 30.059ZM13.8533 31.3034C13.8533 29.4744 14.0795 25.694 13.1368 24.393C11.8829 24.7606 12.2694 25.8354 12.26 28.1263C12.2506 29.8044 11.9395 31.1337 13.8533 31.3034Z" fill="#EF4635"/>
</g>
<defs>
<clipPath id="clip0_6799_342998">
<rect width="28" height="28.0047" fill="white" transform="translate(4 4)"/>
</clipPath>
</defs>
</svg>
