<svg width="36" height="36" viewBox="0 0 36 36" fill="none" xmlns="http://www.w3.org/2000/svg">
<rect width="36" height="36" rx="12" fill="#F3F3F3"/>
<path d="M25.75 14.9592C25.75 14.5449 25.4142 14.2092 25 14.2092C24.5858 14.2092 24.25 14.5449 24.25 14.9592H25.75ZM20 10.75C20.4142 10.75 20.75 10.4142 20.75 10C20.75 9.58579 20.4142 9.25 20 9.25V10.75ZM24.25 14.9592V23.2H25.75V14.9592H24.25ZM22.2 25.25H13.8V26.75H22.2V25.25ZM11.75 23.2V12.8H10.25V23.2H11.75ZM13.8 10.75H20V9.25H13.8V10.75ZM13.8 25.25C12.6678 25.25 11.75 24.3322 11.75 23.2H10.25C10.25 25.1606 11.8394 26.75 13.8 26.75V25.25ZM24.25 23.2C24.25 24.3322 23.3322 25.25 22.2 25.25V26.75C24.1606 26.75 25.75 25.1606 25.75 23.2H24.25ZM11.75 12.8C11.75 11.6678 12.6678 10.75 13.8 10.75V9.25C11.8394 9.25 10.25 10.8394 10.25 12.8H11.75Z" fill="#505C64"/>
<path d="M25.4337 13.9101L21.0899 9.56633L20.0292 10.627L24.373 14.9708L25.4337 13.9101ZM19.25 10.3284V14.6722H20.75V10.3284H19.25ZM20.3278 15.75H24.6716V14.25H20.3278V15.75ZM19.25 14.6722C19.25 15.2675 19.7325 15.75 20.3278 15.75V14.25C20.561 14.25 20.75 14.439 20.75 14.6722H19.25ZM21.0899 9.56633C20.4109 8.88737 19.25 9.36824 19.25 10.3284H20.75C20.75 10.7046 20.2952 10.893 20.0292 10.627L21.0899 9.56633ZM24.373 14.9708C24.107 14.7048 24.2954 14.25 24.6716 14.25V15.75C25.6318 15.75 26.1126 14.5891 25.4337 13.9101L24.373 14.9708Z" fill="#505C64"/>
</svg>
