<svg width="36" height="36" viewBox="0 0 36 36" fill="none" xmlns="http://www.w3.org/2000/svg">
<path d="M12.5258 23.5721L12.4757 23.6206C11.6685 24.443 10.7341 24.879 9.7713 24.879C7.76161 24.879 6.30279 23.3713 6.30279 21.2911C6.30279 19.2146 7.76161 17.7049 9.7713 17.7049C10.7341 17.7049 11.6685 18.1426 12.4757 18.9672L12.5258 19.0171L13.8183 17.4543L13.7837 17.4119C12.7089 16.1418 11.4192 15.5234 9.83369 15.5234C8.24269 15.5234 6.78831 16.0589 5.74015 17.0245C4.60129 18.0702 4 19.5449 4 21.2911C4 23.0364 4.60129 24.5148 5.74015 25.5608C6.78831 26.5308 8.24269 27.0633 9.83369 27.0633C11.4192 27.0633 12.7089 26.4453 13.7837 25.1747L13.8183 25.1352L12.5258 23.5721Z" fill="#003B70"/>
<path d="M15.125 26.8507H17.4083V15.7046H15.125V26.8507Z" fill="#003B70"/>
<path d="M26.3505 24.427C25.7414 24.7979 25.1744 24.9844 24.6653 24.9844C23.9277 24.9844 23.5943 24.5951 23.5943 23.7278V17.8137H25.9197V15.7147H23.5943V12.2466L21.3564 13.4442V15.7147H19.4258V17.8137H21.3564V24.1051C21.3564 25.8192 22.3717 26.9902 23.8874 27.0206C24.9166 27.0408 25.537 26.7342 25.9138 26.5101L25.9359 26.4937L26.4856 24.3445L26.3505 24.427L26.3505 24.427Z" fill="#003B70"/>
<path d="M28.2422 26.8507H30.527V15.7046H28.2422V26.8507Z" fill="#003B70"/>
<path fill-rule="evenodd" clip-rule="evenodd" d="M31.8936 13.7268C29.8036 10.7663 26.3325 9 22.801 9C19.2709 9 15.7991 10.7663 13.7125 13.7268L13.6055 13.8792H16.2372L16.2663 13.8476C18.0576 11.9988 20.3958 11.0211 22.801 11.0211C25.2064 11.0211 27.5442 11.9988 29.3389 13.8476L29.368 13.8792H31.9989L31.8936 13.7268Z" fill="#D9261C"/>
</svg>
