<svg width="36" height="36" viewBox="0 0 36 36" fill="none" xmlns="http://www.w3.org/2000/svg">
<mask id="mask0_1179_107292" style="mask-type:alpha" maskUnits="userSpaceOnUse" x="0" y="0" width="36" height="36">
<rect width="36" height="36" rx="12" fill="#E0E6EF"/>
</mask>
<g mask="url(#mask0_1179_107292)">
<path d="M67.9994 0H0.046875V35.8544H67.9994V0Z" fill="#DE2910"/>
<path d="M10.0298 5.37891L11.2731 9.2061H15.296L12.0414 11.5711L13.2844 15.3983L10.0298 13.0333L6.77527 15.3983L8.01856 11.5711L4.76367 9.2061H8.78653L10.0298 5.37891Z" fill="#FFDE00"/>
<path d="M19.7124 3.92383L19.5857 5.20161L20.7618 5.71689L19.5079 5.99143L19.3812 7.26921L18.7327 6.16114L17.4785 6.43568L18.3319 5.47649L17.6831 4.36808L18.8591 4.88336L19.7124 3.92383Z" fill="#FFDE00"/>
<path d="M23.8846 7.92818L23.2873 9.06493L24.1834 9.98417L22.9182 9.76734L22.321 10.9037L22.1362 9.63314L20.8711 9.41631L22.0218 8.84776L21.8371 7.57715L22.7335 8.49639L23.8846 7.92818Z" fill="#FFDE00"/>
<path d="M22.5739 12.7861L23.012 13.9973L24.299 13.955L23.2828 14.7458L23.7209 15.9574L22.6548 15.2348L21.6382 16.026L21.9958 14.7882L20.9297 14.066L22.2167 14.0236L22.5739 12.7861Z" fill="#FFDE00"/>
<path d="M19.642 16.4688L19.5723 17.7551L20.7736 18.2191L19.5289 18.55L19.4593 19.8363L18.7599 18.7546L17.5156 19.0858L18.3276 18.0863L17.6287 17.0045L18.8296 17.4682L19.642 16.4688Z" fill="#FFDE00"/>
</g>
</svg>
