<svg width="36" height="36" viewBox="0 0 36 36" fill="none" xmlns="http://www.w3.org/2000/svg">
<rect width="36" height="36" rx="12" fill="#F22A46"/>
<path fill-rule="evenodd" clip-rule="evenodd" d="M18.2151 22.6011C20.7793 22.6011 22.858 20.5225 22.858 17.9583C22.858 15.3941 20.7793 13.3154 18.2151 13.3154C15.6509 13.3154 13.5723 15.3941 13.5723 17.9583C13.5723 20.5225 15.6509 22.6011 18.2151 22.6011Z" fill="#FFF04D"/>
<path fill-rule="evenodd" clip-rule="evenodd" d="M15.9414 27.9164L18.2143 24.5236L20.4872 27.9164L21.0629 23.8734L24.5828 25.944L23.3473 22.0516L27.417 22.39L24.6151 19.4191L28.4286 17.9582L24.6151 16.4973L27.417 13.5264L23.3473 13.8647L24.5828 9.97234L21.0629 12.043L20.4872 8L18.2143 11.3928L15.9414 8L15.3657 12.043L11.8458 9.97234L13.0813 13.8647L9.01153 13.5264L11.8135 16.4973L8 17.9582L11.8135 19.4191L9.01153 22.39L13.0813 22.0516L11.8458 25.944L15.3657 23.8734L15.9414 27.9164ZM24.7148 17.9578C24.7148 21.5476 21.8047 24.4578 18.2148 24.4578C14.625 24.4578 11.7148 21.5476 11.7148 17.9578C11.7148 14.3679 14.625 11.4578 18.2148 11.4578C21.8047 11.4578 24.7148 14.3679 24.7148 17.9578Z" fill="#FFF04D"/>
</svg>
