<svg width="108" height="32" viewBox="0 0 108 32" fill="none" xmlns="http://www.w3.org/2000/svg">
<path d="M0 16C0 7.16344 7.16344 0 16 0H92C100.837 0 108 7.16344 108 16C108 24.8366 100.837 32 92 32H16C7.16344 32 0 24.8366 0 16Z" fill="#E6F8F3" fill-opacity="0.5"/>
<path d="M12 17.2L15.2143 20L21 13" stroke="#11BB91" stroke-width="1.5" stroke-linecap="round" stroke-linejoin="round"/>
<path d="M39.638 11.86V20.5H38.366V14.074L34.112 20.5H32.84V11.86H34.112V18.28L38.366 11.86H39.638ZM44.2164 20.68C43.5684 20.68 43.0084 20.534 42.5364 20.242C42.0684 19.95 41.7104 19.546 41.4624 19.03C41.2144 18.514 41.0884 17.924 41.0844 17.26C41.0884 16.592 41.2164 16 41.4684 15.484C41.7244 14.964 42.0884 14.56 42.5604 14.272C43.0364 13.984 43.5944 13.84 44.2344 13.84C44.7024 13.84 45.1284 13.92 45.5124 14.08C45.9004 14.24 46.2244 14.468 46.4844 14.764C46.7484 15.06 46.9344 15.41 47.0424 15.814L45.7944 16.174C45.6704 15.814 45.4664 15.532 45.1824 15.328C44.9024 15.124 44.5804 15.022 44.2164 15.022C43.6244 15.022 43.1764 15.226 42.8724 15.634C42.5724 16.038 42.4204 16.58 42.4164 17.26C42.4204 17.948 42.5764 18.494 42.8844 18.898C43.1924 19.298 43.6364 19.498 44.2164 19.498C44.6084 19.498 44.9304 19.408 45.1824 19.228C45.4384 19.044 45.6344 18.774 45.7704 18.418L47.0424 18.718C46.8304 19.354 46.4804 19.84 45.9924 20.176C45.5044 20.512 44.9124 20.68 44.2164 20.68ZM49.6327 20.5H48.3787V14.02H53.8447V20.5H52.5907V15.202H49.6327V20.5ZM58.4554 20.68C57.8194 20.68 57.2614 20.536 56.7814 20.248C56.3014 19.956 55.9314 19.552 55.6714 19.036C55.4114 18.516 55.2814 17.922 55.2814 17.254C55.2814 16.582 55.4134 15.988 55.6774 15.472C55.9414 14.956 56.3134 14.556 56.7934 14.272C57.2734 13.984 57.8274 13.84 58.4554 13.84C59.0914 13.84 59.6494 13.984 60.1294 14.272C60.6134 14.56 60.9854 14.964 61.2454 15.484C61.5054 16 61.6354 16.59 61.6354 17.254C61.6354 17.926 61.5034 18.522 61.2394 19.042C60.9794 19.558 60.6094 19.96 60.1294 20.248C59.6494 20.536 59.0914 20.68 58.4554 20.68ZM58.4554 19.498C59.0554 19.498 59.5134 19.296 59.8294 18.892C60.1454 18.484 60.3034 17.938 60.3034 17.254C60.3034 16.562 60.1454 16.018 59.8294 15.622C59.5134 15.222 59.0554 15.022 58.4554 15.022C57.8474 15.022 57.3874 15.222 57.0754 15.622C56.7674 16.022 56.6134 16.566 56.6134 17.254C56.6134 17.95 56.7714 18.498 57.0874 18.898C57.4034 19.298 57.8594 19.498 58.4554 19.498ZM62.4739 19.438C62.5859 19.458 62.6759 19.468 62.7439 19.468C62.8999 19.468 63.0239 19.432 63.1159 19.36C63.2079 19.288 63.2779 19.184 63.3259 19.048C63.3739 18.912 63.4199 18.726 63.4639 18.49C63.5559 17.978 63.6339 17.356 63.6979 16.624C63.7659 15.892 63.8279 15.024 63.8839 14.02H68.5399V20.5H67.2799V15.202H65.0119C64.8719 17.038 64.7319 18.31 64.5919 19.018C64.4879 19.566 64.3299 19.964 64.1179 20.212C63.9059 20.46 63.5919 20.584 63.1759 20.584C62.9559 20.584 62.7219 20.556 62.4739 20.5V19.438ZM71.5903 20.5H70.3363V14.02H71.5903V16.666H74.7523V14.02H76.0063V20.5H74.7523V17.848H71.5903V20.5ZM78.794 17.614C78.846 18.218 79.028 18.684 79.34 19.012C79.652 19.336 80.08 19.498 80.624 19.498C81.012 19.498 81.35 19.41 81.638 19.234C81.926 19.058 82.15 18.802 82.31 18.466L83.54 18.856C83.292 19.428 82.912 19.876 82.4 20.2C81.888 20.52 81.316 20.68 80.684 20.68C80.044 20.68 79.48 20.54 78.992 20.26C78.504 19.976 78.124 19.58 77.852 19.072C77.584 18.56 77.45 17.974 77.45 17.314C77.45 16.614 77.582 16.002 77.846 15.478C78.11 14.954 78.482 14.55 78.962 14.266C79.442 13.982 79.996 13.84 80.624 13.84C81.244 13.84 81.78 13.978 82.232 14.254C82.684 14.53 83.03 14.926 83.27 15.442C83.514 15.954 83.636 16.56 83.636 17.26C83.636 17.336 83.632 17.454 83.624 17.614H78.794ZM80.672 14.95C80.14 14.95 79.718 15.094 79.406 15.382C79.098 15.666 78.904 16.084 78.824 16.636H82.34C82.272 16.064 82.1 15.64 81.824 15.364C81.552 15.088 81.168 14.95 80.672 14.95ZM86.3382 20.5H85.0842V14.02H86.3382V16.666H89.5002V14.02H90.7542V20.5H89.5002V17.848H86.3382V20.5ZM95.3718 20.68C94.7358 20.68 94.1778 20.536 93.6978 20.248C93.2178 19.956 92.8478 19.552 92.5878 19.036C92.3278 18.516 92.1978 17.922 92.1978 17.254C92.1978 16.582 92.3298 15.988 92.5938 15.472C92.8578 14.956 93.2298 14.556 93.7098 14.272C94.1898 13.984 94.7438 13.84 95.3718 13.84C96.0078 13.84 96.5658 13.984 97.0458 14.272C97.5298 14.56 97.9018 14.964 98.1618 15.484C98.4218 16 98.5518 16.59 98.5518 17.254C98.5518 17.926 98.4198 18.522 98.1558 19.042C97.8958 19.558 97.5258 19.96 97.0458 20.248C96.5658 20.536 96.0078 20.68 95.3718 20.68ZM95.3718 19.498C95.9718 19.498 96.4298 19.296 96.7458 18.892C97.0618 18.484 97.2198 17.938 97.2198 17.254C97.2198 16.562 97.0618 16.018 96.7458 15.622C96.4298 15.222 95.9718 15.022 95.3718 15.022C94.7638 15.022 94.3038 15.222 93.9918 15.622C93.6838 16.022 93.5298 16.566 93.5298 17.254C93.5298 17.95 93.6878 18.498 94.0038 18.898C94.3198 19.298 94.7758 19.498 95.3718 19.498Z" fill="#11BB91"/>
</svg>
