<svg width="36" height="36" viewBox="0 0 36 36" fill="none" xmlns="http://www.w3.org/2000/svg">
<rect width="36" height="36" rx="12" fill="#E9EFF0"/>
<path d="M12 12L11.25 12L12 12ZM13.5 10L13.5 9.25L13.5 10ZM15.5 13.75C15.0858 13.75 14.75 14.0858 14.75 14.5C14.75 14.9142 15.0858 15.25 15.5 15.25V13.75ZM18.5 15.25C18.9142 15.25 19.25 14.9142 19.25 14.5C19.25 14.0858 18.9142 13.75 18.5 13.75V15.25ZM15.5 16.75C15.0858 16.75 14.75 17.0858 14.75 17.5C14.75 17.9142 15.0858 18.25 15.5 18.25V16.75ZM21 18.25C21.4142 18.25 21.75 17.9142 21.75 17.5C21.75 17.0858 21.4142 16.75 21 16.75V18.25ZM15.5 19.75C15.0858 19.75 14.75 20.0858 14.75 20.5C14.75 20.9142 15.0858 21.25 15.5 21.25V19.75ZM21 21.25C21.4142 21.25 21.75 20.9142 21.75 20.5C21.75 20.0858 21.4142 19.75 21 19.75V21.25ZM14.12 24.59L13.67 25.19L14.12 24.59ZM13.88 24.59L13.43 23.99L13.88 24.59ZM16.12 25.91L15.67 25.31L16.12 25.91ZM15.88 25.91L16.33 25.31L15.88 25.91ZM18.12 24.59L17.67 25.19L18.12 24.59ZM17.88 24.59L18.33 25.19L17.88 24.59ZM20.12 25.91L19.67 25.31L20.12 25.91ZM19.88 25.91L20.33 25.31L19.88 25.91ZM22.1153 24.5692L21.7294 25.2123L22.1153 24.5692ZM21.8924 24.5807L21.4424 23.9807L21.8924 24.5807ZM24.1971 25.8183L23.8112 26.4614L24.1971 25.8183ZM12.32 25.76L12.77 26.36L12.32 25.76ZM12.75 25.602C12.75 23.858 12.75 16.7649 12.75 12L11.25 12C11.25 16.7649 11.25 23.858 11.25 25.602L12.75 25.602ZM12.75 12C12.75 11.618 12.8523 11.2718 13.0056 11.0444C13.1468 10.8351 13.3068 10.75 13.5 10.75L13.5 9.25C12.7169 9.25 12.1269 9.66486 11.7621 10.2056C11.4096 10.7282 11.25 11.382 11.25 12L12.75 12ZM13.5 10.75C17 10.75 19 10.75 22.5 10.75V9.25C19 9.25 17 9.25 13.5 9.25L13.5 10.75ZM22.5 10.75C22.7561 10.75 23.0749 10.8856 23.3447 11.1553C23.6144 11.4251 23.75 11.7439 23.75 12H25.25C25.25 11.2561 24.8856 10.5749 24.4053 10.0947C23.9251 9.61441 23.2439 9.25 22.5 9.25V10.75ZM23.75 12C23.75 12.0094 23.75 12.0188 23.75 12.0282C23.75 12.0376 23.75 12.047 23.75 12.0565C23.75 12.0659 23.75 12.0753 23.75 12.0848C23.75 12.0942 23.75 12.1037 23.75 12.1131C23.75 12.1226 23.75 12.1321 23.75 12.1416C23.75 12.1511 23.75 12.1605 23.75 12.17C23.75 12.1795 23.75 12.1891 23.75 12.1986C23.75 12.2081 23.75 12.2176 23.75 12.2271C23.75 12.2367 23.75 12.2462 23.75 12.2558C23.75 12.2653 23.75 12.2749 23.75 12.2845C23.75 12.294 23.75 12.3036 23.75 12.3132C23.75 12.3228 23.75 12.3324 23.75 12.342C23.75 12.3516 23.75 12.3612 23.75 12.3708C23.75 12.3804 23.75 12.39 23.75 12.3997C23.75 12.4093 23.75 12.419 23.75 12.4286C23.75 12.4383 23.75 12.4479 23.75 12.4576C23.75 12.4673 23.75 12.4769 23.75 12.4866C23.75 12.4963 23.75 12.506 23.75 12.5157C23.75 12.5254 23.75 12.5351 23.75 12.5448C23.75 12.5545 23.75 12.5642 23.75 12.574C23.75 12.5837 23.75 12.5935 23.75 12.6032C23.75 12.6129 23.75 12.6227 23.75 12.6325C23.75 12.6422 23.75 12.652 23.75 12.6618C23.75 12.6716 23.75 12.6813 23.75 12.6911C23.75 12.7009 23.75 12.7107 23.75 12.7205C23.75 12.7303 23.75 12.7402 23.75 12.75C23.75 12.7598 23.75 12.7696 23.75 12.7795C23.75 12.7893 23.75 12.7992 23.75 12.809C23.75 12.8189 23.75 12.8287 23.75 12.8386C23.75 12.8485 23.75 12.8583 23.75 12.8682C23.75 12.8781 23.75 12.888 23.75 12.8979C23.75 12.9078 23.75 12.9177 23.75 12.9276C23.75 12.9375 23.75 12.9474 23.75 12.9574C23.75 12.9673 23.75 12.9772 23.75 12.9872C23.75 12.9971 23.75 13.0071 23.75 13.017C23.75 13.027 23.75 13.0369 23.75 13.0469C23.75 13.0569 23.75 13.0668 23.75 13.0768C23.75 13.0868 23.75 13.0968 23.75 13.1068C23.75 13.1168 23.75 13.1268 23.75 13.1368C23.75 13.1468 23.75 13.1568 23.75 13.1669C23.75 13.1769 23.75 13.1869 23.75 13.1969C23.75 13.207 23.75 13.217 23.75 13.2271C23.75 13.2371 23.75 13.2472 23.75 13.2572C23.75 13.2673 23.75 13.2774 23.75 13.2874C23.75 13.2975 23.75 13.3076 23.75 13.3177C23.75 13.3278 23.75 13.3379 23.75 13.348C23.75 13.3581 23.75 13.3682 23.75 13.3783C23.75 13.3884 23.75 13.3985 23.75 13.4087C23.75 13.4188 23.75 13.4289 23.75 13.4391C23.75 13.4492 23.75 13.4593 23.75 13.4695C23.75 13.4796 23.75 13.4898 23.75 13.5C23.75 13.5101 23.75 13.5203 23.75 13.5305C23.75 13.5406 23.75 13.5508 23.75 13.561C23.75 13.5712 23.75 13.5814 23.75 13.5916C23.75 13.6018 23.75 13.612 23.75 13.6222C23.75 13.6324 23.75 13.6426 23.75 13.6529C23.75 13.6631 23.75 13.6733 23.75 13.6835C23.75 13.6938 23.75 13.704 23.75 13.7143C23.75 13.7245 23.75 13.7348 23.75 13.745C23.75 13.7553 23.75 13.7655 23.75 13.7758C23.75 13.7861 23.75 13.7963 23.75 13.8066C23.75 13.8169 23.75 13.8272 23.75 13.8375C23.75 13.8478 23.75 13.858 23.75 13.8683C23.75 13.8786 23.75 13.889 23.75 13.8993C23.75 13.9096 23.75 13.9199 23.75 13.9302C23.75 13.9405 23.75 13.9509 23.75 13.9612C23.75 13.9715 23.75 13.9819 23.75 13.9922C23.75 14.0025 23.75 14.0129 23.75 14.0232C23.75 14.0336 23.75 14.0439 23.75 14.0543C23.75 14.0647 23.75 14.075 23.75 14.0854C23.75 14.0958 23.75 14.1062 23.75 14.1165C23.75 14.1269 23.75 14.1373 23.75 14.1477C23.75 14.1581 23.75 14.1685 23.75 14.1789C23.75 14.1893 23.75 14.1997 23.75 14.2101C23.75 14.2205 23.75 14.2309 23.75 14.2413C23.75 14.2518 23.75 14.2622 23.75 14.2726C23.75 14.2831 23.75 14.2935 23.75 14.3039C23.75 14.3144 23.75 14.3248 23.75 14.3352C23.75 14.3457 23.75 14.3561 23.75 14.3666C23.75 14.3771 23.75 14.3875 23.75 14.398C23.75 14.4084 23.75 14.4189 23.75 14.4294C23.75 14.4399 23.75 14.4503 23.75 14.4608C23.75 14.4713 23.75 14.4818 23.75 14.4923C23.75 14.5028 23.75 14.5133 23.75 14.5238C23.75 14.5343 23.75 14.5448 23.75 14.5553C23.75 14.5658 23.75 14.5763 23.75 14.5868C23.75 14.5973 23.75 14.6078 23.75 14.6184C23.75 14.6289 23.75 14.6394 23.75 14.6499C23.75 14.6605 23.75 14.671 23.75 14.6815C23.75 14.6921 23.75 14.7026 23.75 14.7132C23.75 14.7237 23.75 14.7343 23.75 14.7448C23.75 14.7554 23.75 14.7659 23.75 14.7765C23.75 14.787 23.75 14.7976 23.75 14.8082C23.75 14.8187 23.75 14.8293 23.75 14.8399C23.75 14.8505 23.75 14.861 23.75 14.8716C23.75 14.8822 23.75 14.8928 23.75 14.9034C23.75 14.914 23.75 14.9246 23.75 14.9351C23.75 14.9457 23.75 14.9563 23.75 14.9669C23.75 14.9775 23.75 14.9882 23.75 14.9988C23.75 15.0094 23.75 15.02 23.75 15.0306C23.75 15.0412 23.75 15.0518 23.75 15.0624C23.75 15.0731 23.75 15.0837 23.75 15.0943C23.75 15.1049 23.75 15.1156 23.75 15.1262C23.75 15.1368 23.75 15.1475 23.75 15.1581C23.75 15.1688 23.75 15.1794 23.75 15.19C23.75 15.2007 23.75 15.2113 23.75 15.222C23.75 15.2326 23.75 15.2433 23.75 15.2539C23.75 15.2646 23.75 15.2753 23.75 15.2859C23.75 15.2966 23.75 15.3072 23.75 15.3179C23.75 15.3286 23.75 15.3393 23.75 15.3499C23.75 15.3606 23.75 15.3713 23.75 15.3819C23.75 15.3926 23.75 15.4033 23.75 15.414C23.75 15.4247 23.75 15.4354 23.75 15.446C23.75 15.4567 23.75 15.4674 23.75 15.4781C23.75 15.4888 23.75 15.4995 23.75 15.5102C23.75 15.5209 23.75 15.5316 23.75 15.5423C23.75 15.553 23.75 15.5637 23.75 15.5744C23.75 15.5851 23.75 15.5958 23.75 15.6065C23.75 15.6172 23.75 15.6279 23.75 15.6387C23.75 15.6494 23.75 15.6601 23.75 15.6708C23.75 15.6815 23.75 15.6922 23.75 15.703C23.75 15.7137 23.75 15.7244 23.75 15.7351C23.75 15.7459 23.75 15.7566 23.75 15.7673C23.75 15.778 23.75 15.7888 23.75 15.7995C23.75 15.8102 23.75 15.821 23.75 15.8317C23.75 15.8424 23.75 15.8532 23.75 15.8639C23.75 15.8747 23.75 15.8854 23.75 15.8961C23.75 15.9069 23.75 15.9176 23.75 15.9284C23.75 15.9391 23.75 15.9499 23.75 15.9606C23.75 15.9714 23.75 15.9821 23.75 15.9929C23.75 16.0036 23.75 16.0144 23.75 16.0251C23.75 16.0359 23.75 16.0466 23.75 16.0574C23.75 16.0682 23.75 16.0789 23.75 16.0897C23.75 16.1004 23.75 16.1112 23.75 16.122C23.75 16.1327 23.75 16.1435 23.75 16.1542C23.75 16.165 23.75 16.1758 23.75 16.1865C23.75 16.1973 23.75 16.2081 23.75 16.2188C23.75 16.2296 23.75 16.2404 23.75 16.2512C23.75 16.2619 23.75 16.2727 23.75 16.2835C23.75 16.2942 23.75 16.305 23.75 16.3158C23.75 16.3266 23.75 16.3373 23.75 16.3481C23.75 16.3589 23.75 16.3697 23.75 16.3804C23.75 16.3912 23.75 16.402 23.75 16.4128C23.75 16.4236 23.75 16.4343 23.75 16.4451C23.75 16.4559 23.75 16.4667 23.75 16.4774C23.75 16.4882 23.75 16.499 23.75 16.5098C23.75 16.5206 23.75 16.5314 23.75 16.5421C23.75 16.5529 23.75 16.5637 23.75 16.5745C23.75 16.5853 23.75 16.5961 23.75 16.6068C23.75 16.6176 23.75 16.6284 23.75 16.6392C23.75 16.65 23.75 16.6608 23.75 16.6715C23.75 16.6823 23.75 16.6931 23.75 16.7039C23.75 16.7147 23.75 16.7255 23.75 16.7363C23.75 16.747 23.75 16.7578 23.75 16.7686C23.75 16.7794 23.75 16.7902 23.75 16.801C23.75 16.8117 23.75 16.8225 23.75 16.8333C23.75 16.8441 23.75 16.8549 23.75 16.8657C23.75 16.8765 23.75 16.8872 23.75 16.898C23.75 16.9088 23.75 16.9196 23.75 16.9304C23.75 16.9412 23.75 16.9519 23.75 16.9627C23.75 16.9735 23.75 16.9843 23.75 16.9951C23.75 17.0059 23.75 17.0166 23.75 17.0274C23.75 17.0382 23.75 17.049 23.75 17.0598C23.75 17.0705 23.75 17.0813 23.75 17.0921C23.75 17.1029 23.75 17.1137 23.75 17.1244C23.75 17.1352 23.75 17.146 23.75 17.1568C23.75 17.1675 23.75 17.1783 23.75 17.1891C23.75 17.1999 23.75 17.2106 23.75 17.2214C23.75 17.2322 23.75 17.243 23.75 17.2537C23.75 17.2645 23.75 17.2753 23.75 17.286C23.75 17.2968 23.75 17.3076 23.75 17.3184C23.75 17.3291 23.75 17.3399 23.75 17.3507C23.75 17.3614 23.75 17.3722 23.75 17.3829C23.75 17.3937 23.75 17.4045 23.75 17.4152C23.75 17.426 23.75 17.4368 23.75 17.4475C23.75 17.4583 23.75 17.469 23.75 17.4798C23.75 17.4905 23.75 17.5013 23.75 17.512C23.75 17.5228 23.75 17.5336 23.75 17.5443C23.75 17.5551 23.75 17.5658 23.75 17.5766C23.75 17.5873 23.75 17.598 23.75 17.6088C23.75 17.6195 23.75 17.6303 23.75 17.641C23.75 17.6518 23.75 17.6625 23.75 17.6732C23.75 17.684 23.75 17.6947 23.75 17.7055C23.75 17.7162 23.75 17.7269 23.75 17.7377C23.75 17.7484 23.75 17.7591 23.75 17.7698C23.75 17.7806 23.75 17.7913 23.75 17.802C23.75 17.8127 23.75 17.8235 23.75 17.8342C23.75 17.8449 23.75 17.8556 23.75 17.8663C23.75 17.8771 23.75 17.8878 23.75 17.8985C23.75 17.9092 23.75 17.9199 23.75 17.9306C23.75 17.9413 23.75 17.952 23.75 17.9627C23.75 17.9734 23.75 17.9841 23.75 17.9948C23.75 18.0055 23.75 18.0162 23.75 18.0269C23.75 18.0376 23.75 18.0483 23.75 18.059C23.75 18.0697 23.75 18.0804 23.75 18.0911C23.75 18.1018 23.75 18.1124 23.75 18.1231C23.75 18.1338 23.75 18.1445 23.75 18.1552C23.75 18.1658 23.75 18.1765 23.75 18.1872C23.75 18.1978 23.75 18.2085 23.75 18.2192C23.75 18.2298 23.75 18.2405 23.75 18.2512C23.75 18.2618 23.75 18.2725 23.75 18.2831C23.75 18.2938 23.75 18.3044 23.75 18.3151C23.75 18.3257 23.75 18.3364 23.75 18.347C23.75 18.3577 23.75 18.3683 23.75 18.379C23.75 18.3896 23.75 18.4002 23.75 18.4109C23.75 18.4215 23.75 18.4321 23.75 18.4427C23.75 18.4534 23.75 18.464 23.75 18.4746C23.75 18.4852 23.75 18.4958 23.75 18.5065C23.75 18.5171 23.75 18.5277 23.75 18.5383C23.75 18.5489 23.75 18.5595 23.75 18.5701C23.75 18.5807 23.75 18.5913 23.75 18.6019C23.75 18.6125 23.75 18.6231 23.75 18.6336C23.75 18.6442 23.75 18.6548 23.75 18.6654C23.75 18.676 23.75 18.6865 23.75 18.6971C23.75 18.7077 23.75 18.7183 23.75 18.7288C23.75 18.7394 23.75 18.75 23.75 18.7605C23.75 18.7711 23.75 18.7816 23.75 18.7922C23.75 18.8027 23.75 18.8133 23.75 18.8238C23.75 18.8344 23.75 18.8449 23.75 18.8554C23.75 18.866 23.75 18.8765 23.75 18.887C23.75 18.8976 23.75 18.9081 23.75 18.9186C23.75 18.9291 23.75 18.9396 23.75 18.9501C23.75 18.9607 23.75 18.9712 23.75 18.9817C23.75 18.9922 23.75 19.0027 23.75 19.0132C23.75 19.0237 23.75 19.0342 23.75 19.0446C23.75 19.0551 23.75 19.0656 23.75 19.0761C23.75 19.0866 23.75 19.097 23.75 19.1075C23.75 19.118 23.75 19.1285 23.75 19.1389C23.75 19.1494 23.75 19.1598 23.75 19.1703C23.75 19.1807 23.75 19.1912 23.75 19.2016C23.75 19.2121 23.75 19.2225 23.75 19.2329C23.75 19.2434 23.75 19.2538 23.75 19.2642C23.75 19.2747 23.75 19.2851 23.75 19.2955C23.75 19.3059 23.75 19.3163 23.75 19.3267C23.75 19.3371 23.75 19.3475 23.75 19.3579C23.75 19.3683 23.75 19.3787 23.75 19.3891C23.75 19.3995 23.75 19.4099 23.75 19.4203C23.75 19.4307 23.75 19.441 23.75 19.4514C23.75 19.4618 23.75 19.4721 23.75 19.4825C23.75 19.4928 23.75 19.5032 23.75 19.5135C23.75 19.5239 23.75 19.5342 23.75 19.5446C23.75 19.5549 23.75 19.5652 23.75 19.5756C23.75 19.5859 23.75 19.5962 23.75 19.6065C23.75 19.6169 23.75 19.6272 23.75 19.6375C23.75 19.6478 23.75 19.6581 23.75 19.6684C23.75 19.6787 23.75 19.689 23.75 19.6993C23.75 19.7095 23.75 19.7198 23.75 19.7301C23.75 19.7404 23.75 19.7506 23.75 19.7609C23.75 19.7712 23.75 19.7814 23.75 19.7917C23.75 19.8019 23.75 19.8122 23.75 19.8224C23.75 19.8327 23.75 19.8429 23.75 19.8531C23.75 19.8634 23.75 19.8736 23.75 19.8838C23.75 19.894 23.75 19.9042 23.75 19.9144C23.75 19.9246 23.75 19.9348 23.75 19.945C23.75 19.9552 23.75 19.9654 23.75 19.9756C23.75 19.9858 23.75 19.996 23.75 20.0061C23.75 20.0163 23.75 20.0265 23.75 20.0366C23.75 20.0468 23.75 20.0569 23.75 20.0671C23.75 20.0772 23.75 20.0874 23.75 20.0975C23.75 20.1076 23.75 20.1178 23.75 20.1279C23.75 20.138 23.75 20.1481 23.75 20.1582C23.75 20.1684 23.75 20.1785 23.75 20.1886C23.75 20.1987 23.75 20.2087 23.75 20.2188C23.75 20.2289 23.75 20.239 23.75 20.2491C23.75 20.2591 23.75 20.2692 23.75 20.2793C23.75 20.2893 23.75 20.2994 23.75 20.3094C23.75 20.3195 23.75 20.3295 23.75 20.3395C23.75 20.3496 23.75 20.3596 23.75 20.3696C23.75 20.3796 23.75 20.3896 23.75 20.3996C23.75 20.4096 23.75 20.4196 23.75 20.4296C23.75 20.4396 23.75 20.4496 23.75 20.4596C23.75 20.4696 23.75 20.4795 23.75 20.4895C23.75 20.4995 23.75 20.5094 23.75 20.5194C23.75 20.5293 23.75 20.5393 23.75 20.5492C23.75 20.5591 23.75 20.5691 23.75 20.579C23.75 20.5889 23.75 20.5988 23.75 20.6087C23.75 20.6186 23.75 20.6285 23.75 20.6384C23.75 20.6483 23.75 20.6582 23.75 20.6681C23.75 20.678 23.75 20.6878 23.75 20.6977C23.75 20.7076 23.75 20.7174 23.75 20.7273C23.75 20.7371 23.75 20.747 23.75 20.7568C23.75 20.7666 23.75 20.7765 23.75 20.7863C23.75 20.7961 23.75 20.8059 23.75 20.8157C23.75 20.8255 23.75 20.8353 23.75 20.8451C23.75 20.8549 23.75 20.8647 23.75 20.8744C23.75 20.8842 23.75 20.894 23.75 20.9037C23.75 20.9135 23.75 20.9232 23.75 20.933C23.75 20.9427 23.75 20.9525 23.75 20.9622C23.75 20.9719 23.75 20.9816 23.75 20.9913C23.75 21.0011 23.75 21.0108 23.75 21.0204C23.75 21.0301 23.75 21.0398 23.75 21.0495C23.75 21.0592 23.75 21.0689 23.75 21.0785C23.75 21.0882 23.75 21.0978 23.75 21.1075C23.75 21.1171 23.75 21.1268 23.75 21.1364C23.75 21.146 23.75 21.1556 23.75 21.1653C23.75 21.1749 23.75 21.1845 23.75 21.1941C23.75 21.2037 23.75 21.2133 23.75 21.2228C23.75 21.2324 23.75 21.242 23.75 21.2516C23.75 21.2611 23.75 21.2707 23.75 21.2802C23.75 21.2898 23.75 21.2993 23.75 21.3088C23.75 21.3184 23.75 21.3279 23.75 21.3374C23.75 21.3469 23.75 21.3564 23.75 21.3659C23.75 21.3754 23.75 21.3849 23.75 21.3944C23.75 21.4038 23.75 21.4133 23.75 21.4228C23.75 21.4322 23.75 21.4417 23.75 21.4511C23.75 21.4605 23.75 21.47 23.75 21.4794C23.75 21.4888 23.75 21.4982 23.75 21.5076C23.75 21.517 23.75 21.5264 23.75 21.5358C23.75 21.5452 23.75 21.5546 23.75 21.564C23.75 21.5733 23.75 21.5827 23.75 21.592C23.75 21.6014 23.75 21.6107 23.75 21.6201C23.75 21.6294 23.75 21.6387 23.75 21.648C23.75 21.6574 23.75 21.6667 23.75 21.676C23.75 21.6852 23.75 21.6945 23.75 21.7038C23.75 21.7131 23.75 21.7224 23.75 21.7316C23.75 21.7409 23.75 21.7501 23.75 21.7594C23.75 21.7686 23.75 21.7778 23.75 21.787C23.75 21.7963 23.75 21.8055 23.75 21.8147C23.75 21.8239 23.75 21.8331 23.75 21.8422C23.75 21.8514 23.75 21.8606 23.75 21.8698C23.75 21.8789 23.75 21.8881 23.75 21.8972C23.75 21.9063 23.75 21.9155 23.75 21.9246C23.75 21.9337 23.75 21.9428 23.75 21.9519C23.75 21.961 23.75 21.9701 23.75 21.9792C23.75 21.9883 23.75 21.9974 23.75 22.0064C23.75 22.0155 23.75 22.0245 23.75 22.0336C23.75 22.0426 23.75 22.0517 23.75 22.0607C23.75 22.0697 23.75 22.0787 23.75 22.0877C23.75 22.0967 23.75 22.1057 23.75 22.1147C23.75 22.1237 23.75 22.1326 23.75 22.1416C23.75 22.1506 23.75 22.1595 23.75 22.1684C23.75 22.1774 23.75 22.1863 23.75 22.1952C23.75 22.2041 23.75 22.2131 23.75 22.222C23.75 22.2309 23.75 22.2397 23.75 22.2486C23.75 22.2575 23.75 22.2664 23.75 22.2752C23.75 22.2841 23.75 22.2929 23.75 22.3017C23.75 22.3106 23.75 22.3194 23.75 22.3282C23.75 22.337 23.75 22.3458 23.75 22.3546C23.75 22.3634 23.75 22.3722 23.75 22.381C23.75 22.3897 23.75 22.3985 23.75 22.4072C23.75 22.416 23.75 22.4247 23.75 22.4334C23.75 22.4422 23.75 22.4509 23.75 22.4596C23.75 22.4683 23.75 22.477 23.75 22.4856C23.75 22.4943 23.75 22.503 23.75 22.5117C23.75 22.5203 23.75 22.529 23.75 22.5376C23.75 22.5462 23.75 22.5549 23.75 22.5635C23.75 22.5721 23.75 22.5807 23.75 22.5893C23.75 22.5979 23.75 22.6064 23.75 22.615C23.75 22.6236 23.75 22.6321 23.75 22.6407C23.75 22.6492 23.75 22.6578 23.75 22.6663C23.75 22.6748 23.75 22.6833 23.75 22.6918C23.75 22.7003 23.75 22.7088 23.75 22.7173C23.75 22.7257 23.75 22.7342 23.75 22.7427C23.75 22.7511 23.75 22.7596 23.75 22.768C23.75 22.7764 23.75 22.7848 23.75 22.7932C23.75 22.8016 23.75 22.81 23.75 22.8184C23.75 22.8268 23.75 22.8352 23.75 22.8435C23.75 22.8519 23.75 22.8602 23.75 22.8686C23.75 22.8769 23.75 22.8852 23.75 22.8935C23.75 22.9018 23.75 22.9101 23.75 22.9184C23.75 22.9267 23.75 22.935 23.75 22.9432C23.75 22.9515 23.75 22.9597 23.75 22.968C23.75 22.9762 23.75 22.9844 23.75 22.9927C23.75 23.0009 23.75 23.0091 23.75 23.0173C23.75 23.0254 23.75 23.0336 23.75 23.0418C23.75 23.0499 23.75 23.0581 23.75 23.0662C23.75 23.0744 23.75 23.0825 23.75 23.0906C23.75 23.0987 23.75 23.1068 23.75 23.1149C23.75 23.123 23.75 23.1311 23.75 23.1391C23.75 23.1472 23.75 23.1552 23.75 23.1633C23.75 23.1713 23.75 23.1793 23.75 23.1873C23.75 23.1954 23.75 23.2034 23.75 23.2113C23.75 23.2193 23.75 23.2273 23.75 23.2353C23.75 23.2432 23.75 23.2512 23.75 23.2591C23.75 23.267 23.75 23.275 23.75 23.2829C23.75 23.2908 23.75 23.2987 23.75 23.3066C23.75 23.3144 23.75 23.3223 23.75 23.3302C23.75 23.338 23.75 23.3459 23.75 23.3537C23.75 23.3615 23.75 23.3693 23.75 23.3771C23.75 23.3849 23.75 23.3927 23.75 23.4005C23.75 23.4083 23.75 23.416 23.75 23.4238C23.75 23.4315 23.75 23.4393 23.75 23.447C23.75 23.4547 23.75 23.4624 23.75 23.4701C23.75 23.4778 23.75 23.4855 23.75 23.4932C23.75 23.5009 23.75 23.5085 23.75 23.5162C23.75 23.5238 23.75 23.5314 23.75 23.539C23.75 23.5467 23.75 23.5543 23.75 23.5618C23.75 23.5694 23.75 23.577 23.75 23.5846C23.75 23.5921 23.75 23.5997 23.75 23.6072C23.75 23.6147 23.75 23.6223 23.75 23.6298C23.75 23.6373 23.75 23.6448 23.75 23.6522C23.75 23.6597 23.75 23.6672 23.75 23.6746C23.75 23.6821 23.75 23.6895 23.75 23.6969C23.75 23.7043 23.75 23.7117 23.75 23.7191C23.75 23.7265 23.75 23.7339 23.75 23.7413C23.75 23.7486 23.75 23.756 23.75 23.7633C23.75 23.7707 23.75 23.778 23.75 23.7853C23.75 23.7926 23.75 23.7999 23.75 23.8072C23.75 23.8145 23.75 23.8217 23.75 23.829C23.75 23.8362 23.75 23.8434 23.75 23.8507C23.75 23.8579 23.75 23.8651 23.75 23.8723C23.75 23.8795 23.75 23.8867 23.75 23.8938C23.75 23.901 23.75 23.9081 23.75 23.9153C23.75 23.9224 23.75 23.9295 23.75 23.9366C23.75 23.9437 23.75 23.9508 23.75 23.9579C23.75 23.965 23.75 23.972 23.75 23.9791C23.75 23.9861 23.75 23.9931 23.75 24.0002C23.75 24.0072 23.75 24.0142 23.75 24.0212C23.75 24.0282 23.75 24.0351 23.75 24.0421C23.75 24.049 23.75 24.056 23.75 24.0629C23.75 24.0698 23.75 24.0767 23.75 24.0836C23.75 24.0905 23.75 24.0974 23.75 24.1043C23.75 24.1111 23.75 24.118 23.75 24.1248C23.75 24.1317 23.75 24.1385 23.75 24.1453C23.75 24.1521 23.75 24.1589 23.75 24.1656C23.75 24.1724 23.75 24.1792 23.75 24.1859C23.75 24.1927 23.75 24.1994 23.75 24.2061C23.75 24.2128 23.75 24.2195 23.75 24.2262C23.75 24.2329 23.75 24.2395 23.75 24.2462C23.75 24.2528 23.75 24.2595 23.75 24.2661C23.75 24.2727 23.75 24.2793 23.75 24.2859C23.75 24.2925 23.75 24.2991 23.75 24.3056C23.75 24.3122 23.75 24.3187 23.75 24.3252C23.75 24.3318 23.75 24.3383 23.75 24.3448C23.75 24.3512 23.75 24.3577 23.75 24.3642C23.75 24.3706 23.75 24.3771 23.75 24.3835C23.75 24.3899 23.75 24.3964 23.75 24.4028C23.75 24.4091 23.75 24.4155 23.75 24.4219C23.75 24.4283 23.75 24.4346 23.75 24.4409C23.75 24.4473 23.75 24.4536 23.75 24.4599C23.75 24.4662 23.75 24.4725 23.75 24.4787C23.75 24.485 23.75 24.4912 23.75 24.4975C23.75 24.5037 23.75 24.5099 23.75 24.5161C23.75 24.5223 23.75 24.5285 23.75 24.5347C23.75 24.5409 23.75 24.547 23.75 24.5531C23.75 24.5593 23.75 24.5654 23.75 24.5715C23.75 24.5776 23.75 24.5837 23.75 24.5898C23.75 24.5958 23.75 24.6019 23.75 24.6079C23.75 24.614 23.75 24.62 23.75 24.626C23.75 24.632 23.75 24.638 23.75 24.6439C23.75 24.6499 23.75 24.6559 23.75 24.6618C23.75 24.6677 23.75 24.6736 23.75 24.6795C23.75 24.6854 23.75 24.6913 23.75 24.6972C23.75 24.7031 23.75 24.7089 23.75 24.7147C23.75 24.7206 23.75 24.7264 23.75 24.7322C23.75 24.738 23.75 24.7438 23.75 24.7495C23.75 24.7553 23.75 24.761 23.75 24.7668C23.75 24.7725 23.75 24.7782 23.75 24.7839C23.75 24.7896 23.75 24.7953 23.75 24.801C23.75 24.8066 23.75 24.8123 23.75 24.8179C23.75 24.8235 23.75 24.8291 23.75 24.8347C23.75 24.8403 23.75 24.8459 23.75 24.8514C23.75 24.857 23.75 24.8625 23.75 24.868C23.75 24.8736 23.75 24.8791 23.75 24.8846C23.75 24.89 23.75 24.8955 23.75 24.901C23.75 24.9064 23.75 24.9118 23.75 24.9173C23.75 24.9227 23.75 24.9281 23.75 24.9334C23.75 24.9388 23.75 24.9442 23.75 24.9495C23.75 24.9549 23.75 24.9602 23.75 24.9655C23.75 24.9708 23.75 24.9761 23.75 24.9814C23.75 24.9867 23.75 24.9919 23.75 24.9971C23.75 25.0024 23.75 25.0076 23.75 25.0128C23.75 25.018 23.75 25.0232 23.75 25.0283C23.75 25.0335 23.75 25.0386 23.75 25.0438C23.75 25.0489 23.75 25.054 23.75 25.0591C23.75 25.0642 23.75 25.0693 23.75 25.0743C23.75 25.0794 23.75 25.0844 23.75 25.0894C23.75 25.0944 23.75 25.0994 23.75 25.1044C23.75 25.1094 23.75 25.1144 23.75 25.1193C23.75 25.1242 23.75 25.1292 23.75 25.1341C23.75 25.139 23.75 25.1439 23.75 25.1487C23.75 25.1536 23.75 25.1585 23.75 25.1633C23.75 25.1681 23.75 25.1729 23.75 25.1777C23.75 25.1825 23.75 25.1873 23.75 25.192C23.75 25.1968 23.75 25.2015 23.75 25.2063C23.75 25.211 23.75 25.2157 23.75 25.2204C23.75 25.225 23.75 25.2297 23.75 25.2343C23.75 25.239 23.75 25.2436 23.75 25.2482C23.75 25.2528 23.75 25.2574 23.75 25.262C23.75 25.2665 23.75 25.2711 23.75 25.2756C23.75 25.2801 23.75 25.2846 23.75 25.2891C23.75 25.2936 23.75 25.2981 23.75 25.3025C23.75 25.307 23.75 25.3114 23.75 25.3158C23.75 25.3203 23.75 25.3246 23.75 25.329C23.75 25.3334 23.75 25.3378 23.75 25.3421C23.75 25.3464 23.75 25.3507 23.75 25.355C23.75 25.3593 23.75 25.3636 23.75 25.3679C23.75 25.3721 23.75 25.3764 23.75 25.3806C23.75 25.3848 23.75 25.389 23.75 25.3932C23.75 25.3973 23.75 25.4015 23.75 25.4056C23.75 25.4098 23.75 25.4139 23.75 25.418C23.75 25.4221 23.75 25.4262 23.75 25.4302C23.75 25.4343 23.75 25.4383 23.75 25.4423C23.75 25.4464 23.75 25.4504 23.75 25.4543C23.75 25.4583 23.75 25.4623 23.75 25.4662C23.75 25.4702 23.75 25.4741 23.75 25.478C23.75 25.4819 23.75 25.4858 23.75 25.4896C23.75 25.4935 23.75 25.4973 23.75 25.5011C23.75 25.505 23.75 25.5087 23.75 25.5125C23.75 25.5163 23.75 25.5201 23.75 25.5238C23.75 25.5275 23.75 25.5313 23.75 25.535C23.75 25.5386 23.75 25.5423 23.75 25.546C23.75 25.5496 23.75 25.5533 23.75 25.5569C23.75 25.5605 23.75 25.5641 23.75 25.5677C23.75 25.5712 23.75 25.5748 23.75 25.5783C23.75 25.5819 23.75 25.5854 23.75 25.5889C23.75 25.5923 23.75 25.5958 23.75 25.5993C23.75 25.6027 23.75 25.6061 23.75 25.6096C23.75 25.613 23.75 25.6163 23.75 25.6197C23.75 25.6231 23.75 25.6264 23.75 25.6297C23.75 25.6331 23.75 25.6364 23.75 25.6397C23.75 25.6429 23.75 25.6462 23.75 25.6494H25.25C25.25 25.6462 25.25 25.6429 25.25 25.6397C25.25 25.6364 25.25 25.6331 25.25 25.6297C25.25 25.6264 25.25 25.6231 25.25 25.6197C25.25 25.6163 25.25 25.613 25.25 25.6096C25.25 25.6061 25.25 25.6027 25.25 25.5993C25.25 25.5958 25.25 25.5923 25.25 25.5889C25.25 25.5854 25.25 25.5819 25.25 25.5783C25.25 25.5748 25.25 25.5712 25.25 25.5677C25.25 25.5641 25.25 25.5605 25.25 25.5569C25.25 25.5533 25.25 25.5496 25.25 25.546C25.25 25.5423 25.25 25.5386 25.25 25.535C25.25 25.5313 25.25 25.5275 25.25 25.5238C25.25 25.5201 25.25 25.5163 25.25 25.5125C25.25 25.5087 25.25 25.505 25.25 25.5011C25.25 25.4973 25.25 25.4935 25.25 25.4896C25.25 25.4858 25.25 25.4819 25.25 25.478C25.25 25.4741 25.25 25.4702 25.25 25.4662C25.25 25.4623 25.25 25.4583 25.25 25.4543C25.25 25.4504 25.25 25.4464 25.25 25.4423C25.25 25.4383 25.25 25.4343 25.25 25.4302C25.25 25.4262 25.25 25.4221 25.25 25.418C25.25 25.4139 25.25 25.4098 25.25 25.4056C25.25 25.4015 25.25 25.3973 25.25 25.3932C25.25 25.389 25.25 25.3848 25.25 25.3806C25.25 25.3764 25.25 25.3721 25.25 25.3679C25.25 25.3636 25.25 25.3593 25.25 25.355C25.25 25.3507 25.25 25.3464 25.25 25.3421C25.25 25.3378 25.25 25.3334 25.25 25.329C25.25 25.3246 25.25 25.3203 25.25 25.3158C25.25 25.3114 25.25 25.307 25.25 25.3025C25.25 25.2981 25.25 25.2936 25.25 25.2891C25.25 25.2846 25.25 25.2801 25.25 25.2756C25.25 25.2711 25.25 25.2665 25.25 25.262C25.25 25.2574 25.25 25.2528 25.25 25.2482C25.25 25.2436 25.25 25.239 25.25 25.2343C25.25 25.2297 25.25 25.225 25.25 25.2204C25.25 25.2157 25.25 25.211 25.25 25.2063C25.25 25.2015 25.25 25.1968 25.25 25.192C25.25 25.1873 25.25 25.1825 25.25 25.1777C25.25 25.1729 25.25 25.1681 25.25 25.1633C25.25 25.1585 25.25 25.1536 25.25 25.1487C25.25 25.1439 25.25 25.139 25.25 25.1341C25.25 25.1292 25.25 25.1242 25.25 25.1193C25.25 25.1144 25.25 25.1094 25.25 25.1044C25.25 25.0994 25.25 25.0944 25.25 25.0894C25.25 25.0844 25.25 25.0794 25.25 25.0743C25.25 25.0693 25.25 25.0642 25.25 25.0591C25.25 25.054 25.25 25.0489 25.25 25.0438C25.25 25.0386 25.25 25.0335 25.25 25.0283C25.25 25.0232 25.25 25.018 25.25 25.0128C25.25 25.0076 25.25 25.0024 25.25 24.9971C25.25 24.9919 25.25 24.9867 25.25 24.9814C25.25 24.9761 25.25 24.9708 25.25 24.9655C25.25 24.9602 25.25 24.9549 25.25 24.9495C25.25 24.9442 25.25 24.9388 25.25 24.9334C25.25 24.9281 25.25 24.9227 25.25 24.9173C25.25 24.9118 25.25 24.9064 25.25 24.901C25.25 24.8955 25.25 24.89 25.25 24.8846C25.25 24.8791 25.25 24.8736 25.25 24.868C25.25 24.8625 25.25 24.857 25.25 24.8514C25.25 24.8459 25.25 24.8403 25.25 24.8347C25.25 24.8291 25.25 24.8235 25.25 24.8179C25.25 24.8123 25.25 24.8066 25.25 24.801C25.25 24.7953 25.25 24.7896 25.25 24.7839C25.25 24.7782 25.25 24.7725 25.25 24.7668C25.25 24.761 25.25 24.7553 25.25 24.7495C25.25 24.7438 25.25 24.738 25.25 24.7322C25.25 24.7264 25.25 24.7206 25.25 24.7147C25.25 24.7089 25.25 24.7031 25.25 24.6972C25.25 24.6913 25.25 24.6854 25.25 24.6795C25.25 24.6736 25.25 24.6677 25.25 24.6618C25.25 24.6559 25.25 24.6499 25.25 24.6439C25.25 24.638 25.25 24.632 25.25 24.626C25.25 24.62 25.25 24.614 25.25 24.6079C25.25 24.6019 25.25 24.5958 25.25 24.5898C25.25 24.5837 25.25 24.5776 25.25 24.5715C25.25 24.5654 25.25 24.5593 25.25 24.5531C25.25 24.547 25.25 24.5409 25.25 24.5347C25.25 24.5285 25.25 24.5223 25.25 24.5161C25.25 24.5099 25.25 24.5037 25.25 24.4975C25.25 24.4912 25.25 24.485 25.25 24.4787C25.25 24.4725 25.25 24.4662 25.25 24.4599C25.25 24.4536 25.25 24.4473 25.25 24.4409C25.25 24.4346 25.25 24.4283 25.25 24.4219C25.25 24.4155 25.25 24.4091 25.25 24.4028C25.25 24.3964 25.25 24.3899 25.25 24.3835C25.25 24.3771 25.25 24.3706 25.25 24.3642C25.25 24.3577 25.25 24.3512 25.25 24.3448C25.25 24.3383 25.25 24.3318 25.25 24.3252C25.25 24.3187 25.25 24.3122 25.25 24.3056C25.25 24.2991 25.25 24.2925 25.25 24.2859C25.25 24.2793 25.25 24.2727 25.25 24.2661C25.25 24.2595 25.25 24.2528 25.25 24.2462C25.25 24.2395 25.25 24.2329 25.25 24.2262C25.25 24.2195 25.25 24.2128 25.25 24.2061C25.25 24.1994 25.25 24.1927 25.25 24.1859C25.25 24.1792 25.25 24.1724 25.25 24.1656C25.25 24.1589 25.25 24.1521 25.25 24.1453C25.25 24.1385 25.25 24.1317 25.25 24.1248C25.25 24.118 25.25 24.1111 25.25 24.1043C25.25 24.0974 25.25 24.0905 25.25 24.0836C25.25 24.0767 25.25 24.0698 25.25 24.0629C25.25 24.056 25.25 24.049 25.25 24.0421C25.25 24.0351 25.25 24.0282 25.25 24.0212C25.25 24.0142 25.25 24.0072 25.25 24.0002C25.25 23.9931 25.25 23.9861 25.25 23.9791C25.25 23.972 25.25 23.965 25.25 23.9579C25.25 23.9508 25.25 23.9437 25.25 23.9366C25.25 23.9295 25.25 23.9224 25.25 23.9153C25.25 23.9081 25.25 23.901 25.25 23.8938C25.25 23.8867 25.25 23.8795 25.25 23.8723C25.25 23.8651 25.25 23.8579 25.25 23.8507C25.25 23.8434 25.25 23.8362 25.25 23.829C25.25 23.8217 25.25 23.8145 25.25 23.8072C25.25 23.7999 25.25 23.7926 25.25 23.7853C25.25 23.778 25.25 23.7707 25.25 23.7633C25.25 23.756 25.25 23.7486 25.25 23.7413C25.25 23.7339 25.25 23.7265 25.25 23.7191C25.25 23.7117 25.25 23.7043 25.25 23.6969C25.25 23.6895 25.25 23.6821 25.25 23.6746C25.25 23.6672 25.25 23.6597 25.25 23.6522C25.25 23.6448 25.25 23.6373 25.25 23.6298C25.25 23.6223 25.25 23.6147 25.25 23.6072C25.25 23.5997 25.25 23.5921 25.25 23.5846C25.25 23.577 25.25 23.5694 25.25 23.5618C25.25 23.5543 25.25 23.5467 25.25 23.539C25.25 23.5314 25.25 23.5238 25.25 23.5162C25.25 23.5085 25.25 23.5009 25.25 23.4932C25.25 23.4855 25.25 23.4778 25.25 23.4701C25.25 23.4624 25.25 23.4547 25.25 23.447C25.25 23.4393 25.25 23.4315 25.25 23.4238C25.25 23.416 25.25 23.4083 25.25 23.4005C25.25 23.3927 25.25 23.3849 25.25 23.3771C25.25 23.3693 25.25 23.3615 25.25 23.3537C25.25 23.3459 25.25 23.338 25.25 23.3302C25.25 23.3223 25.25 23.3144 25.25 23.3066C25.25 23.2987 25.25 23.2908 25.25 23.2829C25.25 23.275 25.25 23.267 25.25 23.2591C25.25 23.2512 25.25 23.2432 25.25 23.2353C25.25 23.2273 25.25 23.2193 25.25 23.2113C25.25 23.2034 25.25 23.1954 25.25 23.1873C25.25 23.1793 25.25 23.1713 25.25 23.1633C25.25 23.1552 25.25 23.1472 25.25 23.1391C25.25 23.1311 25.25 23.123 25.25 23.1149C25.25 23.1068 25.25 23.0987 25.25 23.0906C25.25 23.0825 25.25 23.0744 25.25 23.0662C25.25 23.0581 25.25 23.0499 25.25 23.0418C25.25 23.0336 25.25 23.0254 25.25 23.0173C25.25 23.0091 25.25 23.0009 25.25 22.9927C25.25 22.9844 25.25 22.9762 25.25 22.968C25.25 22.9597 25.25 22.9515 25.25 22.9432C25.25 22.935 25.25 22.9267 25.25 22.9184C25.25 22.9101 25.25 22.9018 25.25 22.8935C25.25 22.8852 25.25 22.8769 25.25 22.8686C25.25 22.8602 25.25 22.8519 25.25 22.8435C25.25 22.8352 25.25 22.8268 25.25 22.8184C25.25 22.81 25.25 22.8016 25.25 22.7932C25.25 22.7848 25.25 22.7764 25.25 22.768C25.25 22.7596 25.25 22.7511 25.25 22.7427C25.25 22.7342 25.25 22.7257 25.25 22.7173C25.25 22.7088 25.25 22.7003 25.25 22.6918C25.25 22.6833 25.25 22.6748 25.25 22.6663C25.25 22.6578 25.25 22.6492 25.25 22.6407C25.25 22.6321 25.25 22.6236 25.25 22.615C25.25 22.6064 25.25 22.5979 25.25 22.5893C25.25 22.5807 25.25 22.5721 25.25 22.5635C25.25 22.5549 25.25 22.5462 25.25 22.5376C25.25 22.529 25.25 22.5203 25.25 22.5117C25.25 22.503 25.25 22.4943 25.25 22.4856C25.25 22.477 25.25 22.4683 25.25 22.4596C25.25 22.4509 25.25 22.4422 25.25 22.4334C25.25 22.4247 25.25 22.416 25.25 22.4072C25.25 22.3985 25.25 22.3897 25.25 22.381C25.25 22.3722 25.25 22.3634 25.25 22.3546C25.25 22.3458 25.25 22.337 25.25 22.3282C25.25 22.3194 25.25 22.3106 25.25 22.3017C25.25 22.2929 25.25 22.2841 25.25 22.2752C25.25 22.2664 25.25 22.2575 25.25 22.2486C25.25 22.2397 25.25 22.2309 25.25 22.222C25.25 22.2131 25.25 22.2041 25.25 22.1952C25.25 22.1863 25.25 22.1774 25.25 22.1684C25.25 22.1595 25.25 22.1506 25.25 22.1416C25.25 22.1326 25.25 22.1237 25.25 22.1147C25.25 22.1057 25.25 22.0967 25.25 22.0877C25.25 22.0787 25.25 22.0697 25.25 22.0607C25.25 22.0517 25.25 22.0426 25.25 22.0336C25.25 22.0245 25.25 22.0155 25.25 22.0064C25.25 21.9974 25.25 21.9883 25.25 21.9792C25.25 21.9701 25.25 21.961 25.25 21.9519C25.25 21.9428 25.25 21.9337 25.25 21.9246C25.25 21.9155 25.25 21.9063 25.25 21.8972C25.25 21.8881 25.25 21.8789 25.25 21.8698C25.25 21.8606 25.25 21.8514 25.25 21.8422C25.25 21.8331 25.25 21.8239 25.25 21.8147C25.25 21.8055 25.25 21.7963 25.25 21.787C25.25 21.7778 25.25 21.7686 25.25 21.7594C25.25 21.7501 25.25 21.7409 25.25 21.7316C25.25 21.7224 25.25 21.7131 25.25 21.7038C25.25 21.6945 25.25 21.6852 25.25 21.676C25.25 21.6667 25.25 21.6574 25.25 21.648C25.25 21.6387 25.25 21.6294 25.25 21.6201C25.25 21.6107 25.25 21.6014 25.25 21.592C25.25 21.5827 25.25 21.5733 25.25 21.564C25.25 21.5546 25.25 21.5452 25.25 21.5358C25.25 21.5264 25.25 21.517 25.25 21.5076C25.25 21.4982 25.25 21.4888 25.25 21.4794C25.25 21.47 25.25 21.4605 25.25 21.4511C25.25 21.4417 25.25 21.4322 25.25 21.4228C25.25 21.4133 25.25 21.4038 25.25 21.3944C25.25 21.3849 25.25 21.3754 25.25 21.3659C25.25 21.3564 25.25 21.3469 25.25 21.3374C25.25 21.3279 25.25 21.3184 25.25 21.3088C25.25 21.2993 25.25 21.2898 25.25 21.2802C25.25 21.2707 25.25 21.2611 25.25 21.2516C25.25 21.242 25.25 21.2324 25.25 21.2228C25.25 21.2133 25.25 21.2037 25.25 21.1941C25.25 21.1845 25.25 21.1749 25.25 21.1653C25.25 21.1556 25.25 21.146 25.25 21.1364C25.25 21.1268 25.25 21.1171 25.25 21.1075C25.25 21.0978 25.25 21.0882 25.25 21.0785C25.25 21.0689 25.25 21.0592 25.25 21.0495C25.25 21.0398 25.25 21.0301 25.25 21.0204C25.25 21.0108 25.25 21.0011 25.25 20.9913C25.25 20.9816 25.25 20.9719 25.25 20.9622C25.25 20.9525 25.25 20.9427 25.25 20.933C25.25 20.9232 25.25 20.9135 25.25 20.9037C25.25 20.894 25.25 20.8842 25.25 20.8744C25.25 20.8647 25.25 20.8549 25.25 20.8451C25.25 20.8353 25.25 20.8255 25.25 20.8157C25.25 20.8059 25.25 20.7961 25.25 20.7863C25.25 20.7765 25.25 20.7666 25.25 20.7568C25.25 20.747 25.25 20.7371 25.25 20.7273C25.25 20.7174 25.25 20.7076 25.25 20.6977C25.25 20.6878 25.25 20.678 25.25 20.6681C25.25 20.6582 25.25 20.6483 25.25 20.6384C25.25 20.6285 25.25 20.6186 25.25 20.6087C25.25 20.5988 25.25 20.5889 25.25 20.579C25.25 20.5691 25.25 20.5591 25.25 20.5492C25.25 20.5393 25.25 20.5293 25.25 20.5194C25.25 20.5094 25.25 20.4995 25.25 20.4895C25.25 20.4795 25.25 20.4696 25.25 20.4596C25.25 20.4496 25.25 20.4396 25.25 20.4296C25.25 20.4196 25.25 20.4096 25.25 20.3996C25.25 20.3896 25.25 20.3796 25.25 20.3696C25.25 20.3596 25.25 20.3496 25.25 20.3395C25.25 20.3295 25.25 20.3195 25.25 20.3094C25.25 20.2994 25.25 20.2893 25.25 20.2793C25.25 20.2692 25.25 20.2591 25.25 20.2491C25.25 20.239 25.25 20.2289 25.25 20.2188C25.25 20.2087 25.25 20.1987 25.25 20.1886C25.25 20.1785 25.25 20.1684 25.25 20.1582C25.25 20.1481 25.25 20.138 25.25 20.1279C25.25 20.1178 25.25 20.1076 25.25 20.0975C25.25 20.0874 25.25 20.0772 25.25 20.0671C25.25 20.0569 25.25 20.0468 25.25 20.0366C25.25 20.0265 25.25 20.0163 25.25 20.0061C25.25 19.996 25.25 19.9858 25.25 19.9756C25.25 19.9654 25.25 19.9552 25.25 19.945C25.25 19.9348 25.25 19.9246 25.25 19.9144C25.25 19.9042 25.25 19.894 25.25 19.8838C25.25 19.8736 25.25 19.8634 25.25 19.8531C25.25 19.8429 25.25 19.8327 25.25 19.8224C25.25 19.8122 25.25 19.8019 25.25 19.7917C25.25 19.7814 25.25 19.7712 25.25 19.7609C25.25 19.7506 25.25 19.7404 25.25 19.7301C25.25 19.7198 25.25 19.7095 25.25 19.6993C25.25 19.689 25.25 19.6787 25.25 19.6684C25.25 19.6581 25.25 19.6478 25.25 19.6375C25.25 19.6272 25.25 19.6169 25.25 19.6065C25.25 19.5962 25.25 19.5859 25.25 19.5756C25.25 19.5652 25.25 19.5549 25.25 19.5446C25.25 19.5342 25.25 19.5239 25.25 19.5135C25.25 19.5032 25.25 19.4928 25.25 19.4825C25.25 19.4721 25.25 19.4618 25.25 19.4514C25.25 19.441 25.25 19.4307 25.25 19.4203C25.25 19.4099 25.25 19.3995 25.25 19.3891C25.25 19.3787 25.25 19.3683 25.25 19.3579C25.25 19.3475 25.25 19.3371 25.25 19.3267C25.25 19.3163 25.25 19.3059 25.25 19.2955C25.25 19.2851 25.25 19.2747 25.25 19.2642C25.25 19.2538 25.25 19.2434 25.25 19.2329C25.25 19.2225 25.25 19.2121 25.25 19.2016C25.25 19.1912 25.25 19.1807 25.25 19.1703C25.25 19.1598 25.25 19.1494 25.25 19.1389C25.25 19.1285 25.25 19.118 25.25 19.1075C25.25 19.097 25.25 19.0866 25.25 19.0761C25.25 19.0656 25.25 19.0551 25.25 19.0446C25.25 19.0342 25.25 19.0237 25.25 19.0132C25.25 19.0027 25.25 18.9922 25.25 18.9817C25.25 18.9712 25.25 18.9607 25.25 18.9501C25.25 18.9396 25.25 18.9291 25.25 18.9186C25.25 18.9081 25.25 18.8976 25.25 18.887C25.25 18.8765 25.25 18.866 25.25 18.8554C25.25 18.8449 25.25 18.8344 25.25 18.8238C25.25 18.8133 25.25 18.8027 25.25 18.7922C25.25 18.7816 25.25 18.7711 25.25 18.7605C25.25 18.75 25.25 18.7394 25.25 18.7288C25.25 18.7183 25.25 18.7077 25.25 18.6971C25.25 18.6865 25.25 18.676 25.25 18.6654C25.25 18.6548 25.25 18.6442 25.25 18.6336C25.25 18.6231 25.25 18.6125 25.25 18.6019C25.25 18.5913 25.25 18.5807 25.25 18.5701C25.25 18.5595 25.25 18.5489 25.25 18.5383C25.25 18.5277 25.25 18.5171 25.25 18.5065C25.25 18.4958 25.25 18.4852 25.25 18.4746C25.25 18.464 25.25 18.4534 25.25 18.4427C25.25 18.4321 25.25 18.4215 25.25 18.4109C25.25 18.4002 25.25 18.3896 25.25 18.379C25.25 18.3683 25.25 18.3577 25.25 18.347C25.25 18.3364 25.25 18.3257 25.25 18.3151C25.25 18.3044 25.25 18.2938 25.25 18.2831C25.25 18.2725 25.25 18.2618 25.25 18.2512C25.25 18.2405 25.25 18.2298 25.25 18.2192C25.25 18.2085 25.25 18.1978 25.25 18.1872C25.25 18.1765 25.25 18.1658 25.25 18.1552C25.25 18.1445 25.25 18.1338 25.25 18.1231C25.25 18.1124 25.25 18.1018 25.25 18.0911C25.25 18.0804 25.25 18.0697 25.25 18.059C25.25 18.0483 25.25 18.0376 25.25 18.0269C25.25 18.0162 25.25 18.0055 25.25 17.9948C25.25 17.9841 25.25 17.9734 25.25 17.9627C25.25 17.952 25.25 17.9413 25.25 17.9306C25.25 17.9199 25.25 17.9092 25.25 17.8985C25.25 17.8878 25.25 17.8771 25.25 17.8663C25.25 17.8556 25.25 17.8449 25.25 17.8342C25.25 17.8235 25.25 17.8127 25.25 17.802C25.25 17.7913 25.25 17.7806 25.25 17.7698C25.25 17.7591 25.25 17.7484 25.25 17.7377C25.25 17.7269 25.25 17.7162 25.25 17.7055C25.25 17.6947 25.25 17.684 25.25 17.6732C25.25 17.6625 25.25 17.6518 25.25 17.641C25.25 17.6303 25.25 17.6195 25.25 17.6088C25.25 17.598 25.25 17.5873 25.25 17.5766C25.25 17.5658 25.25 17.5551 25.25 17.5443C25.25 17.5336 25.25 17.5228 25.25 17.512C25.25 17.5013 25.25 17.4905 25.25 17.4798C25.25 17.469 25.25 17.4583 25.25 17.4475C25.25 17.4368 25.25 17.426 25.25 17.4152C25.25 17.4045 25.25 17.3937 25.25 17.3829C25.25 17.3722 25.25 17.3614 25.25 17.3507C25.25 17.3399 25.25 17.3291 25.25 17.3184C25.25 17.3076 25.25 17.2968 25.25 17.286C25.25 17.2753 25.25 17.2645 25.25 17.2537C25.25 17.243 25.25 17.2322 25.25 17.2214C25.25 17.2106 25.25 17.1999 25.25 17.1891C25.25 17.1783 25.25 17.1675 25.25 17.1568C25.25 17.146 25.25 17.1352 25.25 17.1244C25.25 17.1137 25.25 17.1029 25.25 17.0921C25.25 17.0813 25.25 17.0705 25.25 17.0598C25.25 17.049 25.25 17.0382 25.25 17.0274C25.25 17.0166 25.25 17.0059 25.25 16.9951C25.25 16.9843 25.25 16.9735 25.25 16.9627C25.25 16.9519 25.25 16.9412 25.25 16.9304C25.25 16.9196 25.25 16.9088 25.25 16.898C25.25 16.8872 25.25 16.8765 25.25 16.8657C25.25 16.8549 25.25 16.8441 25.25 16.8333C25.25 16.8225 25.25 16.8117 25.25 16.801C25.25 16.7902 25.25 16.7794 25.25 16.7686C25.25 16.7578 25.25 16.747 25.25 16.7363C25.25 16.7255 25.25 16.7147 25.25 16.7039C25.25 16.6931 25.25 16.6823 25.25 16.6715C25.25 16.6608 25.25 16.65 25.25 16.6392C25.25 16.6284 25.25 16.6176 25.25 16.6068C25.25 16.5961 25.25 16.5853 25.25 16.5745C25.25 16.5637 25.25 16.5529 25.25 16.5421C25.25 16.5314 25.25 16.5206 25.25 16.5098C25.25 16.499 25.25 16.4882 25.25 16.4774C25.25 16.4667 25.25 16.4559 25.25 16.4451C25.25 16.4343 25.25 16.4236 25.25 16.4128C25.25 16.402 25.25 16.3912 25.25 16.3804C25.25 16.3697 25.25 16.3589 25.25 16.3481C25.25 16.3373 25.25 16.3266 25.25 16.3158C25.25 16.305 25.25 16.2942 25.25 16.2835C25.25 16.2727 25.25 16.2619 25.25 16.2512C25.25 16.2404 25.25 16.2296 25.25 16.2188C25.25 16.2081 25.25 16.1973 25.25 16.1865C25.25 16.1758 25.25 16.165 25.25 16.1542C25.25 16.1435 25.25 16.1327 25.25 16.122C25.25 16.1112 25.25 16.1004 25.25 16.0897C25.25 16.0789 25.25 16.0682 25.25 16.0574C25.25 16.0466 25.25 16.0359 25.25 16.0251C25.25 16.0144 25.25 16.0036 25.25 15.9929C25.25 15.9821 25.25 15.9714 25.25 15.9606C25.25 15.9499 25.25 15.9391 25.25 15.9284C25.25 15.9176 25.25 15.9069 25.25 15.8961C25.25 15.8854 25.25 15.8747 25.25 15.8639C25.25 15.8532 25.25 15.8424 25.25 15.8317C25.25 15.821 25.25 15.8102 25.25 15.7995C25.25 15.7888 25.25 15.778 25.25 15.7673C25.25 15.7566 25.25 15.7459 25.25 15.7351C25.25 15.7244 25.25 15.7137 25.25 15.703C25.25 15.6922 25.25 15.6815 25.25 15.6708C25.25 15.6601 25.25 15.6494 25.25 15.6387C25.25 15.6279 25.25 15.6172 25.25 15.6065C25.25 15.5958 25.25 15.5851 25.25 15.5744C25.25 15.5637 25.25 15.553 25.25 15.5423C25.25 15.5316 25.25 15.5209 25.25 15.5102C25.25 15.4995 25.25 15.4888 25.25 15.4781C25.25 15.4674 25.25 15.4567 25.25 15.446C25.25 15.4354 25.25 15.4247 25.25 15.414C25.25 15.4033 25.25 15.3926 25.25 15.3819C25.25 15.3713 25.25 15.3606 25.25 15.3499C25.25 15.3393 25.25 15.3286 25.25 15.3179C25.25 15.3072 25.25 15.2966 25.25 15.2859C25.25 15.2753 25.25 15.2646 25.25 15.2539C25.25 15.2433 25.25 15.2326 25.25 15.222C25.25 15.2113 25.25 15.2007 25.25 15.19C25.25 15.1794 25.25 15.1688 25.25 15.1581C25.25 15.1475 25.25 15.1368 25.25 15.1262C25.25 15.1156 25.25 15.1049 25.25 15.0943C25.25 15.0837 25.25 15.0731 25.25 15.0624C25.25 15.0518 25.25 15.0412 25.25 15.0306C25.25 15.02 25.25 15.0094 25.25 14.9988C25.25 14.9882 25.25 14.9775 25.25 14.9669C25.25 14.9563 25.25 14.9457 25.25 14.9351C25.25 14.9246 25.25 14.914 25.25 14.9034C25.25 14.8928 25.25 14.8822 25.25 14.8716C25.25 14.861 25.25 14.8505 25.25 14.8399C25.25 14.8293 25.25 14.8187 25.25 14.8082C25.25 14.7976 25.25 14.787 25.25 14.7765C25.25 14.7659 25.25 14.7554 25.25 14.7448C25.25 14.7343 25.25 14.7237 25.25 14.7132C25.25 14.7026 25.25 14.6921 25.25 14.6815C25.25 14.671 25.25 14.6605 25.25 14.6499C25.25 14.6394 25.25 14.6289 25.25 14.6184C25.25 14.6078 25.25 14.5973 25.25 14.5868C25.25 14.5763 25.25 14.5658 25.25 14.5553C25.25 14.5448 25.25 14.5343 25.25 14.5238C25.25 14.5133 25.25 14.5028 25.25 14.4923C25.25 14.4818 25.25 14.4713 25.25 14.4608C25.25 14.4503 25.25 14.4399 25.25 14.4294C25.25 14.4189 25.25 14.4084 25.25 14.398C25.25 14.3875 25.25 14.3771 25.25 14.3666C25.25 14.3561 25.25 14.3457 25.25 14.3352C25.25 14.3248 25.25 14.3144 25.25 14.3039C25.25 14.2935 25.25 14.2831 25.25 14.2726C25.25 14.2622 25.25 14.2518 25.25 14.2413C25.25 14.2309 25.25 14.2205 25.25 14.2101C25.25 14.1997 25.25 14.1893 25.25 14.1789C25.25 14.1685 25.25 14.1581 25.25 14.1477C25.25 14.1373 25.25 14.1269 25.25 14.1165C25.25 14.1062 25.25 14.0958 25.25 14.0854C25.25 14.075 25.25 14.0647 25.25 14.0543C25.25 14.0439 25.25 14.0336 25.25 14.0232C25.25 14.0129 25.25 14.0025 25.25 13.9922C25.25 13.9819 25.25 13.9715 25.25 13.9612C25.25 13.9509 25.25 13.9405 25.25 13.9302C25.25 13.9199 25.25 13.9096 25.25 13.8993C25.25 13.889 25.25 13.8786 25.25 13.8683C25.25 13.858 25.25 13.8478 25.25 13.8375C25.25 13.8272 25.25 13.8169 25.25 13.8066C25.25 13.7963 25.25 13.7861 25.25 13.7758C25.25 13.7655 25.25 13.7553 25.25 13.745C25.25 13.7348 25.25 13.7245 25.25 13.7143C25.25 13.704 25.25 13.6938 25.25 13.6835C25.25 13.6733 25.25 13.6631 25.25 13.6529C25.25 13.6426 25.25 13.6324 25.25 13.6222C25.25 13.612 25.25 13.6018 25.25 13.5916C25.25 13.5814 25.25 13.5712 25.25 13.561C25.25 13.5508 25.25 13.5406 25.25 13.5305C25.25 13.5203 25.25 13.5101 25.25 13.5C25.25 13.4898 25.25 13.4796 25.25 13.4695C25.25 13.4593 25.25 13.4492 25.25 13.4391C25.25 13.4289 25.25 13.4188 25.25 13.4087C25.25 13.3985 25.25 13.3884 25.25 13.3783C25.25 13.3682 25.25 13.3581 25.25 13.348C25.25 13.3379 25.25 13.3278 25.25 13.3177C25.25 13.3076 25.25 13.2975 25.25 13.2874C25.25 13.2774 25.25 13.2673 25.25 13.2572C25.25 13.2472 25.25 13.2371 25.25 13.2271C25.25 13.217 25.25 13.207 25.25 13.1969C25.25 13.1869 25.25 13.1769 25.25 13.1669C25.25 13.1568 25.25 13.1468 25.25 13.1368C25.25 13.1268 25.25 13.1168 25.25 13.1068C25.25 13.0968 25.25 13.0868 25.25 13.0768C25.25 13.0668 25.25 13.0569 25.25 13.0469C25.25 13.0369 25.25 13.027 25.25 13.017C25.25 13.0071 25.25 12.9971 25.25 12.9872C25.25 12.9772 25.25 12.9673 25.25 12.9574C25.25 12.9474 25.25 12.9375 25.25 12.9276C25.25 12.9177 25.25 12.9078 25.25 12.8979C25.25 12.888 25.25 12.8781 25.25 12.8682C25.25 12.8583 25.25 12.8485 25.25 12.8386C25.25 12.8287 25.25 12.8189 25.25 12.809C25.25 12.7992 25.25 12.7893 25.25 12.7795C25.25 12.7696 25.25 12.7598 25.25 12.75C25.25 12.7402 25.25 12.7303 25.25 12.7205C25.25 12.7107 25.25 12.7009 25.25 12.6911C25.25 12.6813 25.25 12.6716 25.25 12.6618C25.25 12.652 25.25 12.6422 25.25 12.6325C25.25 12.6227 25.25 12.6129 25.25 12.6032C25.25 12.5935 25.25 12.5837 25.25 12.574C25.25 12.5642 25.25 12.5545 25.25 12.5448C25.25 12.5351 25.25 12.5254 25.25 12.5157C25.25 12.506 25.25 12.4963 25.25 12.4866C25.25 12.4769 25.25 12.4673 25.25 12.4576C25.25 12.4479 25.25 12.4383 25.25 12.4286C25.25 12.419 25.25 12.4093 25.25 12.3997C25.25 12.39 25.25 12.3804 25.25 12.3708C25.25 12.3612 25.25 12.3516 25.25 12.342C25.25 12.3324 25.25 12.3228 25.25 12.3132C25.25 12.3036 25.25 12.294 25.25 12.2845C25.25 12.2749 25.25 12.2653 25.25 12.2558C25.25 12.2462 25.25 12.2367 25.25 12.2271C25.25 12.2176 25.25 12.2081 25.25 12.1986C25.25 12.1891 25.25 12.1795 25.25 12.17C25.25 12.1605 25.25 12.1511 25.25 12.1416C25.25 12.1321 25.25 12.1226 25.25 12.1131C25.25 12.1037 25.25 12.0942 25.25 12.0848C25.25 12.0753 25.25 12.0659 25.25 12.0565C25.25 12.047 25.25 12.0376 25.25 12.0282C25.25 12.0188 25.25 12.0094 25.25 12H23.75ZM24.583 25.1751L22.5012 23.9261L21.7294 25.2123L23.8112 26.4614L24.583 25.1751ZM21.4424 23.9807L19.67 25.31L20.57 26.51L22.3424 25.1807L21.4424 23.9807ZM20.33 25.31L18.57 23.99L17.67 25.19L19.43 26.51L20.33 25.31ZM17.43 23.99L15.67 25.31L16.57 26.51L18.33 25.19L17.43 23.99ZM16.33 25.31L14.57 23.99L13.67 25.19L15.43 26.51L16.33 25.31ZM13.43 23.99L11.87 25.16L12.77 26.36L14.33 25.19L13.43 23.99ZM15.5 15.25H18.5V13.75H15.5V15.25ZM15.5 18.25H21V16.75H15.5V18.25ZM15.5 21.25H21V19.75H15.5V21.25ZM14.57 23.99C14.2322 23.7367 13.7678 23.7367 13.43 23.99L14.33 25.19C14.1344 25.3367 13.8656 25.3367 13.67 25.19L14.57 23.99ZM15.67 25.31C15.8656 25.1633 16.1344 25.1633 16.33 25.31L15.43 26.51C15.7678 26.7633 16.2322 26.7633 16.57 26.51L15.67 25.31ZM18.57 23.99C18.2322 23.7367 17.7678 23.7367 17.43 23.99L18.33 25.19C18.1344 25.3367 17.8656 25.3367 17.67 25.19L18.57 23.99ZM19.67 25.31C19.8656 25.1633 20.1344 25.1633 20.33 25.31L19.43 26.51C19.7678 26.7633 20.2322 26.7633 20.57 26.51L19.67 25.31ZM22.5012 23.9261C22.17 23.7273 21.7514 23.7489 21.4424 23.9807L22.3424 25.1807C22.1635 25.3149 21.9212 25.3274 21.7294 25.2123L22.5012 23.9261ZM23.75 25.6494C23.75 25.2045 24.2314 24.9642 24.583 25.1751L23.8112 26.4614C24.4294 26.8323 25.25 26.4053 25.25 25.6494H23.75ZM11.25 25.602C11.25 26.3991 12.1551 26.8211 12.77 26.36L11.87 25.16C12.2212 24.8966 12.75 25.1346 12.75 25.602L11.25 25.602Z" fill="#829199"/>
</svg>
