<svg width="36" height="36" viewBox="0 0 36 36" fill="none" xmlns="http://www.w3.org/2000/svg">
<rect width="36" height="36" rx="12" fill="#F3F3F3"/>
<path d="M23.5491 15.5447C23.5491 18.4818 20.6035 20.8627 16.9699 20.8627C16.3408 20.8627 15.7323 20.7914 15.1562 20.6581C14.3699 21.2581 12.4548 21.968 10.4309 21.968C11.6787 21.2901 12.2528 20.8627 12.7848 19.6483C11.3226 18.6729 10.3906 17.1967 10.3906 15.5447C10.3906 12.6076 13.3363 10.2266 16.9699 10.2266C20.6035 10.2266 23.5491 12.6076 23.5491 15.5447Z" stroke="#505C64" stroke-width="1.5" stroke-linejoin="round"/>
<path d="M25.0212 18.0273C25.2364 18.4878 25.3535 18.9832 25.3535 19.4994C25.3535 20.8723 24.5248 22.099 23.2246 22.9097C23.6976 23.919 24.2082 24.2741 25.3177 24.8375C23.5179 24.8375 21.815 24.2475 21.1158 23.7489C20.6035 23.8596 20.0624 23.919 19.503 23.919C18.0893 23.919 16.7928 23.5402 15.7814 22.9097" stroke="#505C64" stroke-width="1.5" stroke-linecap="round" stroke-linejoin="round"/>
</svg>
