<svg width="36" height="36" viewBox="0 0 36 36" fill="none" xmlns="http://www.w3.org/2000/svg">
<rect width="36" height="36" rx="12" fill="#F3F3F3"/>
<path d="M14.6416 16.6488C14.1416 15.6488 13.6416 14.6489 12.6416 13.1489C12.1416 12.3991 9.64167 14.649 9.14164 16.149C7.8526 20.0159 15.6417 28.6488 21.1416 28.149C22.1375 28.0585 24.6417 25.8561 24.6416 25.149C24.6416 24.6489 21.1416 22.1489 20.6416 22.1489C20.1416 22.1489 19.7409 23.0994 18.6416 23.649C17.1416 24.399 13.1416 19.6489 13.6416 18.6489C13.9578 18.0164 15.1416 17.6488 14.6416 16.6488Z" stroke="#505C64" stroke-width="1.5"/>
<path d="M21.2803 8.61125C21.2803 9.61133 20.1342 10.8002 19.0007 10.5011" stroke="#505C64" stroke-linecap="round" stroke-linejoin="round"/>
<path d="M21.2822 18.3497C21.2822 17.3496 20.1361 16.1608 19.0026 16.4598" stroke="#505C64" stroke-linecap="round" stroke-linejoin="round"/>
<path d="M24.0078 18.3488C24.0007 17.499 24.8672 16.2 26.0007 16.499" stroke="#505C64" stroke-linecap="round" stroke-linejoin="round"/>
<path d="M24.0053 8.61179C24.0053 9.61187 24.8664 10.8005 25.9999 10.5015" stroke="#505C64" stroke-linecap="round" stroke-linejoin="round"/>
<path d="M24.2763 13.4809C24.2763 14.3765 23.5503 15.1025 22.6548 15.1025C21.7592 15.1025 21.0332 14.3765 21.0332 13.4809C21.0332 12.5854 21.7592 11.8594 22.6548 11.8594C23.5503 11.8594 24.2763 12.5854 24.2763 13.4809Z" stroke="#505C64"/>
<path d="M25 8H20C19.4477 8 19 8.44772 19 9V18C19 18.5523 19.4477 19 20 19H25C25.5523 19 26 18.5523 26 18V9C26 8.44772 25.5523 8 25 8Z" stroke="#505C64" stroke-width="1.1"/>
</svg>
