<svg width="24" height="24" viewBox="0 0 24 24" fill="none" xmlns="http://www.w3.org/2000/svg">
<path d="M9.23468 9.27865C8.78339 8.34798 8.33208 7.41743 7.42948 6.02142C6.97818 5.32354 4.72175 7.41748 4.27043 8.81348C3.10694 12.4123 10.1374 20.4467 15.1016 19.9816C16.0005 19.8973 18.2608 17.8476 18.2607 17.1896C18.2607 16.7242 15.1016 14.3975 14.6503 14.3975C14.199 14.3975 13.8373 15.282 12.8451 15.7935C11.4912 16.4916 7.88078 12.0708 8.33208 11.1401C8.61751 10.5515 9.68598 10.2093 9.23468 9.27865Z" stroke="#263238" stroke-width="1.5"/>
<mask id="path-2-inside-1_16562_40147" fill="white">
<path d="M17.5841 11.633C17.8451 11.7514 18.1557 11.6363 18.2437 11.3636C18.4662 10.6741 18.5221 9.93895 18.4036 9.21915C18.2568 8.32806 17.849 7.50052 17.2319 6.84117C16.6148 6.18182 15.816 5.72027 14.9365 5.5149C14.2262 5.349 13.4889 5.35628 12.7862 5.53272C12.5083 5.6025 12.373 5.90481 12.4738 6.17304C12.5746 6.44126 12.8736 6.57286 13.1537 6.5124C13.6619 6.40273 14.1902 6.40624 14.7006 6.52543C15.3801 6.68413 15.9974 7.04078 16.4742 7.55029C16.9511 8.05979 17.2662 8.69926 17.3796 9.38784C17.4648 9.90497 17.4334 10.4324 17.2904 10.9321C17.2116 11.2076 17.3231 11.5147 17.5841 11.633Z"/>
</mask>
<path d="M17.5841 11.633C17.8451 11.7514 18.1557 11.6363 18.2437 11.3636C18.4662 10.6741 18.5221 9.93895 18.4036 9.21915C18.2568 8.32806 17.849 7.50052 17.2319 6.84117C16.6148 6.18182 15.816 5.72027 14.9365 5.5149C14.2262 5.349 13.4889 5.35628 12.7862 5.53272C12.5083 5.6025 12.373 5.90481 12.4738 6.17304C12.5746 6.44126 12.8736 6.57286 13.1537 6.5124C13.6619 6.40273 14.1902 6.40624 14.7006 6.52543C15.3801 6.68413 15.9974 7.04078 16.4742 7.55029C16.9511 8.05979 17.2662 8.69926 17.3796 9.38784C17.4648 9.90497 17.4334 10.4324 17.2904 10.9321C17.2116 11.2076 17.3231 11.5147 17.5841 11.633Z" stroke="#263238" stroke-width="3" stroke-linecap="round" stroke-linejoin="round" mask="url(#path-2-inside-1_16562_40147)"/>
<mask id="path-3-inside-2_16562_40147" fill="white">
<path d="M15.1072 11.8993C15.3673 11.9555 15.6278 11.7897 15.6431 11.524C15.6611 11.2121 15.632 10.8983 15.5559 10.5933C15.4408 10.132 15.2214 9.70317 14.9145 9.33996C14.6076 8.97676 14.2215 8.68883 13.7858 8.49837C13.4978 8.37247 13.1933 8.29137 12.8827 8.25703C12.6182 8.22777 12.4113 8.45689 12.4232 8.72277C12.4352 8.98866 12.6628 9.18899 12.9247 9.23661C13.0876 9.26624 13.247 9.31473 13.3997 9.38149C13.7003 9.51287 13.9666 9.71148 14.1783 9.96201C14.39 10.2125 14.5413 10.5083 14.6207 10.8266C14.661 10.9883 14.6822 11.1536 14.6843 11.3191C14.6875 11.5853 14.847 11.8432 15.1072 11.8993Z"/>
</mask>
<path d="M15.1072 11.8993C15.3673 11.9555 15.6278 11.7897 15.6431 11.524C15.6611 11.2121 15.632 10.8983 15.5559 10.5933C15.4408 10.132 15.2214 9.70317 14.9145 9.33996C14.6076 8.97676 14.2215 8.68883 13.7858 8.49837C13.4978 8.37247 13.1933 8.29137 12.8827 8.25703C12.6182 8.22777 12.4113 8.45689 12.4232 8.72277C12.4352 8.98866 12.6628 9.18899 12.9247 9.23661C13.0876 9.26624 13.247 9.31473 13.3997 9.38149C13.7003 9.51287 13.9666 9.71148 14.1783 9.96201C14.39 10.2125 14.5413 10.5083 14.6207 10.8266C14.661 10.9883 14.6822 11.1536 14.6843 11.3191C14.6875 11.5853 14.847 11.8432 15.1072 11.8993Z" stroke="#263238" stroke-width="3" stroke-linecap="round" stroke-linejoin="round" mask="url(#path-3-inside-2_16562_40147)"/>
</svg>
