<svg width="24" height="24" viewBox="0 0 24 24" fill="none" xmlns="http://www.w3.org/2000/svg">
<path d="M15.3847 4L13.231 10.7691L20 8.61526C20 7.39122 19.5138 6.21731 18.6482 5.35178C17.7827 4.48625 16.6088 4 15.3847 4Z" stroke="#505C64" stroke-width="1.5" stroke-linecap="round" stroke-linejoin="round"/>
<path d="M12.6152 4.02461L11.9998 4C10.4176 4 8.87091 4.46918 7.55535 5.34821C6.23979 6.22724 5.21444 7.47663 4.60895 8.9384C4.00347 10.4002 3.84504 12.0087 4.15372 13.5605C4.46239 15.1123 5.2243 16.5377 6.34309 17.6565C7.46188 18.7753 8.88731 19.5372 10.4391 19.8459C11.9909 20.1545 13.5994 19.9961 15.0612 19.3906C16.523 18.7851 17.7723 17.7598 18.6514 16.4442C19.5304 15.1287 19.9996 13.582 19.9996 11.9998C19.9996 11.7906 19.9996 11.5936 19.9996 11.3844" stroke="#505C64" stroke-width="1.5" stroke-linecap="round" stroke-linejoin="round"/>
</svg>
