<svg width="24" height="24" viewBox="0 0 24 24" fill="none" xmlns="http://www.w3.org/2000/svg">
<path d="M14.7683 12.6978C18.2097 12.6978 20.9995 11.4588 20.9995 9.93045C20.9995 8.40208 18.2097 7.16309 14.7683 7.16309C11.3269 7.16309 8.53711 8.40208 8.53711 9.93045C8.53711 11.4588 11.3269 12.6978 14.7683 12.6978Z" stroke="#505C64" stroke-width="1.5" stroke-linecap="round" stroke-linejoin="round"/>
<path d="M8.53711 9.93066V18.2328C8.53711 19.7548 11.3065 21.0001 14.7683 21.0001C18.2301 21.0001 20.9995 19.7548 20.9995 18.2328V9.93066" stroke="#505C64" stroke-width="1.5" stroke-linecap="round" stroke-linejoin="round"/>
<path d="M20.9995 14.0811C20.9995 15.6031 18.2301 16.8484 14.7683 16.8484C11.3065 16.8484 8.53711 15.6031 8.53711 14.0811" stroke="#505C64" stroke-width="1.5" stroke-linecap="round" stroke-linejoin="round"/>
<path d="M14.6316 4.39583C13.0135 3.39802 11.1301 2.91545 9.23119 3.01214C5.78327 3.01214 3 4.25746 3 5.77951C3 6.59588 3.80313 7.32924 5.07706 7.85504" stroke="#505C64" stroke-width="1.5" stroke-linecap="round" stroke-linejoin="round"/>
<path d="M5.07706 16.1569C3.80313 15.6311 3 14.8978 3 14.0814V5.7793" stroke="#505C64" stroke-width="1.5" stroke-linecap="round" stroke-linejoin="round"/>
<path d="M5.07706 12.0062C3.80313 11.4804 3 10.747 3 9.93066" stroke="#505C64" stroke-width="1.5" stroke-linecap="round" stroke-linejoin="round"/>
</svg>
