<svg width="36" height="36" viewBox="0 0 36 36" fill="none" xmlns="http://www.w3.org/2000/svg">
<rect width="36" height="36" rx="12" fill="#F3F3F3"/>
<path fill-rule="evenodd" clip-rule="evenodd" d="M9.75 10C8.7835 10 8 10.7835 8 11.75V22.8637V23.6137H8.75H10.8621C10.8244 23.7983 10.8047 23.9894 10.8047 24.1848C10.8047 25.6521 11.9374 26.917 13.4251 26.917C14.9127 26.917 16.0454 25.6521 16.0454 24.1848C16.0454 23.9894 16.0257 23.7983 15.988 23.6137H20.2408C20.1869 23.825 20.1582 24.0463 20.1582 24.2742C20.1582 25.7253 21.323 26.917 22.7786 26.917C24.2342 26.917 25.3989 25.7253 25.3989 24.2742C25.3989 24.0463 25.3703 23.825 25.3163 23.6137H27.4537H28.2037V22.8637V19.8994C28.2037 19.5438 28.0522 19.205 27.7872 18.9679L26.0067 17.3747L25.2129 13.1131C25.0145 12.0477 24.0847 11.2751 23.001 11.2751H21.7258C21.5189 10.5394 20.8429 10 20.041 10H9.75ZM21.6582 24.2742C21.6582 24.0272 21.7344 23.7998 21.864 23.6137H23.6931C23.8227 23.7998 23.8989 24.0272 23.8989 24.2742C23.8989 24.9138 23.3889 25.417 22.7786 25.417C22.1682 25.417 21.6582 24.9138 21.6582 24.2742ZM14.4179 23.6137H12.4322C12.3514 23.7828 12.3047 23.9764 12.3047 24.1848C12.3047 24.907 12.8467 25.417 13.4251 25.417C14.0034 25.417 14.5454 24.907 14.5454 24.1848C14.5454 23.9764 14.4988 23.7828 14.4179 23.6137ZM23.7383 13.3878L24.4135 17.0132H21.791V12.7751H23.001C23.3622 12.7751 23.6721 13.0327 23.7383 13.3878ZM21.791 22.1137V18.5132H25.0296L26.7037 20.0112V22.1137H21.791ZM20.291 17.7632V22.1137H9.5V11.75C9.5 11.6119 9.61193 11.5 9.75 11.5H20.041C20.1791 11.5 20.291 11.6119 20.291 11.75V12.0251V17.7632ZM14.8278 13.5537C14.5517 13.5537 14.3278 13.7776 14.3278 14.0537C14.3278 14.3299 14.5517 14.5537 14.8278 14.5537H18.101C18.3771 14.5537 18.601 14.3299 18.601 14.0537C18.601 13.7776 18.3771 13.5537 18.101 13.5537H14.8278ZM13.1913 15.7562C12.9151 15.7562 12.6913 15.9801 12.6913 16.2562C12.6913 16.5323 12.9151 16.7562 13.1913 16.7562H18.101C18.3771 16.7562 18.601 16.5323 18.601 16.2562C18.601 15.9801 18.3771 15.7562 18.101 15.7562H13.1913ZM11.5547 17.9587C11.2785 17.9587 11.0547 18.1826 11.0547 18.4587C11.0547 18.7348 11.2785 18.9587 11.5547 18.9587H18.101C18.3771 18.9587 18.601 18.7348 18.601 18.4587C18.601 18.1826 18.3771 17.9587 18.101 17.9587H11.5547Z" fill="#505C64"/>
</svg>
