<svg width="36" height="36" viewBox="0 0 36 36" fill="none" xmlns="http://www.w3.org/2000/svg">
<rect width="36" height="36" rx="12" fill="#D9B681"/>
<path d="M20.2706 23.3198C18.0906 23.3198 16.6706 22.1798 16.0506 20.2998H21.2106V18.6198H15.7306C15.7106 18.3598 15.6906 18.0798 15.6906 17.7998C15.6906 17.5198 15.7106 17.2598 15.7306 16.9998H21.2106V15.3198H16.0506C16.6706 13.4398 18.0706 12.2598 20.2706 12.2798C21.1706 12.2798 22.0706 12.5198 22.7906 12.9998L23.9106 11.2598C22.8506 10.6198 21.5906 10.2998 20.2706 10.2998C16.8706 10.2998 14.5906 12.2198 13.7906 15.3198H11.8906V16.9998H13.4906C13.4706 17.2598 13.4506 17.5198 13.4506 17.7998C13.4506 18.0798 13.4706 18.3598 13.4906 18.6198H11.8906V20.2998H13.7706C14.5906 23.3198 16.8906 25.2998 20.2706 25.2998C21.5706 25.2998 22.8506 24.9798 23.9106 24.3198L22.8106 22.5998C22.0706 23.0798 21.1706 23.3398 20.2706 23.3198Z" fill="white"/>
</svg>
