<svg width="36" height="36" viewBox="0 0 36 36" fill="none" xmlns="http://www.w3.org/2000/svg">
<rect width="36" height="36" rx="12" fill="#F3F3F3"/>
<path d="M15.7119 27L23.4004 27C24.505 27 25.4004 26.1046 25.4004 25L25.4004 11C25.4004 9.89543 24.505 9 23.4004 9L13.0004 9C11.8958 9 11.0004 9.89543 11.0004 11L11.0004 21.6M15.7119 27C13.8719 24.8912 12.8404 23.7088 11.0004 21.6M15.7119 27L15.7119 22.96C15.7119 22.2089 15.103 21.6 14.3519 21.6L11.0004 21.6" stroke="#505C64" stroke-width="1.3" stroke-linejoin="round"/>
<path d="M22.6995 12.5996H14.5996" stroke="#505C64" stroke-width="1.3" stroke-linejoin="round"/>
<path d="M22.6995 15.2988H14.5996" stroke="#505C64" stroke-width="1.3" stroke-linejoin="round"/>
<path d="M22.6995 18H14.5996" stroke="#505C64" stroke-width="1.3" stroke-linejoin="round"/>
<circle cx="20.4492" cy="22.9492" r="1.6" stroke="#505C64" stroke-width="1.3"/>
</svg>
