<svg width="36" height="36" viewBox="0 0 36 36" fill="none" xmlns="http://www.w3.org/2000/svg">
<path d="M6.4389 17.8238L17.8233 29.2087L29.2072 17.8238L17.8233 6.43938L6.4389 17.8238ZM9.77282 22.788L8.6229 21.6381L4.81297 17.8262L8.6229 14.0148L9.77282 12.8649V9.77524H12.861L17.8209 4.81296L21.6303 8.62483L22.7803 9.77476H25.869V12.8644L27.0184 14.0148L30.8283 17.8262L27.0184 21.6376L25.869 22.788V25.8781H22.7803L21.6303 27.0286L17.8209 30.8399L14.011 27.0286L12.861 25.8781H9.77282V22.788ZM17.8204 4L13.198 8.62386H8.6229V13.2004L4 17.8233L8.6229 22.4477V27.0237H13.198L17.8209 31.6476L22.4433 27.0237H27.0184V22.4472L31.6413 17.8233L27.0184 13.1994V8.62338H22.4433L17.8204 4Z" fill="#00805F"/>
<path d="M4.8125 17.8219L9.77188 12.861V9.77186H12.8606L17.8199 4.81104L22.7793 9.77186H25.868V12.8615L30.8284 17.8214L25.8685 22.7822V25.8719H22.7798L17.8204 30.8327L12.8611 25.8719H9.77236V22.7822L4.8125 17.8219ZM9.77043 21.1543C11.6908 18.8386 14.586 17.3608 17.8166 17.3603C20.31 17.3603 22.3434 15.3265 22.3434 12.8321C22.3434 11.6541 21.8901 10.5786 21.1491 9.77138L17.8166 6.43745L14.4836 9.77186L9.77092 14.4865L6.43844 17.8209L9.77092 21.1548L9.77043 21.1543ZM25.868 14.4894C23.9476 16.8052 21.0515 18.2829 17.8199 18.2829C15.3255 18.2834 13.2917 20.3177 13.2917 22.8121C13.2917 23.9901 13.7455 25.0652 14.487 25.8723H14.486L17.8199 29.2063L21.1539 25.8723L25.868 21.1572L29.202 17.8233L25.868 14.4894Z" fill="#FAAE17"/>
</svg>
