<svg width="24" height="24" viewBox="0 0 24 24" fill="none" xmlns="http://www.w3.org/2000/svg">
<path d="M12.4741 9.40787L14.5921 11.5249L12.4741 9.40787ZM13.8361 7.54284L8.10902 13.2699C7.8131 13.5654 7.61129 13.9419 7.52901 14.352L7 17L9.64805 16.47C10.0581 16.388 10.4341 16.187 10.7301 15.891L16.4572 10.1639C16.6293 9.99178 16.7658 9.78747 16.8589 9.56261C16.9521 9.33775 17 9.09675 17 8.85336C17 8.60997 16.9521 8.36897 16.8589 8.14411C16.7658 7.91925 16.6293 7.71494 16.4572 7.54284C16.2851 7.37074 16.0808 7.23422 15.8559 7.14108C15.631 7.04794 15.39 7 15.1466 7C14.9033 7 14.6623 7.04794 14.4374 7.14108C14.2125 7.23422 14.0082 7.37074 13.8361 7.54284V7.54284Z" stroke="#FF5721" stroke-width="1.5" stroke-linecap="round" stroke-linejoin="round"/>
</svg>
