<svg width="16" height="16" viewBox="0 0 16 16" fill="none" xmlns="http://www.w3.org/2000/svg">
<circle cx="8" cy="8" r="7" fill="#FF5721"/>
<path fill-rule="evenodd" clip-rule="evenodd" d="M7.00909 5.63345C7.00909 5.07866 6.55934 4.62891 6.00455 4.62891C5.44975 4.62891 5 5.07866 5 5.63345V10.5875C5 11.1423 5.44975 11.592 6.00455 11.592C6.55934 11.592 7.00909 11.1423 7.00909 10.5875V5.63345ZM11.0364 5.63345C11.0364 5.07866 10.5867 4.62891 10.0319 4.62891C9.47709 4.62891 9.02734 5.07866 9.02734 5.63345V10.5875C9.02734 11.1423 9.47709 11.592 10.0319 11.592C10.5867 11.592 11.0364 11.1423 11.0364 10.5875V5.63345Z" fill="white"/>
</svg>
