<svg width="36" height="36" viewBox="0 0 36 36" fill="none" xmlns="http://www.w3.org/2000/svg">
<rect width="36" height="36" rx="12" fill="white"/>
<path d="M15.4102 14.608C14.9307 13.6191 14.4512 12.6305 13.4922 11.1473C13.0127 10.4058 10.6154 12.6305 10.1358 14.1137C8.89967 17.9373 16.3692 26.4736 21.6436 25.9794C22.5986 25.8899 25.0001 23.7122 25 23.013C25 22.5185 21.6435 20.0465 21.164 20.0465C20.6846 20.0465 20.3003 20.9863 19.2461 21.5298C17.8076 22.2714 13.9717 17.5745 14.4512 16.5857C14.7545 15.9603 15.8897 15.5968 15.4102 14.608Z" stroke="#11BB91" stroke-width="1.5"/>
<mask id="path-3-inside-1_4600_170200" fill="white">
<path d="M24.849 17.1821C25.2145 16.2949 25.3088 15.3193 25.1199 14.3786C24.931 13.4379 24.4673 12.5743 23.7876 11.897C23.1079 11.2198 22.2426 10.7594 21.3012 10.5739C20.3598 10.3884 19.3845 10.4863 18.4987 10.8551L18.9225 11.873C19.607 11.588 20.3606 11.5123 21.0881 11.6556C21.8156 11.799 22.4842 12.1548 23.0094 12.6781C23.5347 13.2014 23.8929 13.8687 24.0389 14.5957C24.1849 15.3226 24.1121 16.0765 23.8296 16.762L24.849 17.1821Z"/>
</mask>
<path d="M24.849 17.1821C25.2145 16.2949 25.3088 15.3193 25.1199 14.3786C24.931 13.4379 24.4673 12.5743 23.7876 11.897C23.1079 11.2198 22.2426 10.7594 21.3012 10.5739C20.3598 10.3884 19.3845 10.4863 18.4987 10.8551L18.9225 11.873C19.607 11.588 20.3606 11.5123 21.0881 11.6556C21.8156 11.799 22.4842 12.1548 23.0094 12.6781C23.5347 13.2014 23.8929 13.8687 24.0389 14.5957C24.1849 15.3226 24.1121 16.0765 23.8296 16.762L24.849 17.1821Z" stroke="#11BB91" stroke-width="3" stroke-linecap="round" stroke-linejoin="round" mask="url(#path-3-inside-1_4600_170200)"/>
<mask id="path-4-inside-2_4600_170200" fill="white">
<path d="M22.1503 17.5032C22.2569 17.0094 22.2488 16.4977 22.1266 16.0075C22.0043 15.5173 21.7712 15.0617 21.4451 14.6758C21.1191 14.29 20.7088 13.984 20.2459 13.7817C19.783 13.5793 19.2799 13.4859 18.7752 13.5086L18.8212 14.5316C19.1694 14.5159 19.5164 14.5804 19.8357 14.72C20.155 14.8596 20.438 15.0706 20.6629 15.3367C20.8878 15.6029 21.0487 15.9172 21.133 16.2553C21.2173 16.5934 21.2229 16.9464 21.1493 17.287L22.1503 17.5032Z"/>
</mask>
<path d="M22.1503 17.5032C22.2569 17.0094 22.2488 16.4977 22.1266 16.0075C22.0043 15.5173 21.7712 15.0617 21.4451 14.6758C21.1191 14.29 20.7088 13.984 20.2459 13.7817C19.783 13.5793 19.2799 13.4859 18.7752 13.5086L18.8212 14.5316C19.1694 14.5159 19.5164 14.5804 19.8357 14.72C20.155 14.8596 20.438 15.0706 20.6629 15.3367C20.8878 15.6029 21.0487 15.9172 21.133 16.2553C21.2173 16.5934 21.2229 16.9464 21.1493 17.287L22.1503 17.5032Z" stroke="#11BB91" stroke-width="3" stroke-linecap="round" stroke-linejoin="round" mask="url(#path-4-inside-2_4600_170200)"/>
</svg>
