<svg width="36" height="36" viewBox="0 0 36 36" fill="none" xmlns="http://www.w3.org/2000/svg">
<path d="M12.3431 22C10.8954 22.424 10 23.0098 10 23.6568C10 24.9509 13.5817 26 18 26C22.4183 26 26 24.9509 26 23.6568C26 23.0098 25.1046 22.424 23.6568 22" stroke="#11BB91" stroke-width="1.5" stroke-linecap="round" stroke-linejoin="round"/>
<path d="M18 22C18 22 23 18.7112 23 14.9091C23 12.1979 20.7614 10 18 10C15.2386 10 13 12.1979 13 14.9091C13 18.7112 18 22 18 22Z" stroke="#11BB91" stroke-width="1.5" stroke-linejoin="round"/>
<path d="M18 17C19.1046 17 20 16.1046 20 15C20 13.8954 19.1046 13 18 13C16.8954 13 16 13.8954 16 15C16 16.1046 16.8954 17 18 17Z" stroke="#11BB91" stroke-width="1.5" stroke-linejoin="round"/>
</svg>
