<svg width="18" height="18" viewBox="0 0 18 18" fill="none" xmlns="http://www.w3.org/2000/svg">
<path d="M6.71352 16.3793C5.37308 15.9802 4.17992 15.2393 3.23515 14.2576C3.5876 13.8398 3.8 13.3001 3.8 12.7108C3.8 11.3853 2.72548 10.3108 1.4 10.3108C1.31982 10.3108 1.24056 10.3147 1.1624 10.3224C1.05592 9.80183 1 9.26283 1 8.71079C1 7.87455 1.12831 7.06827 1.36632 6.31055C1.37752 6.31071 1.38875 6.31079 1.4 6.31079C2.72548 6.31079 3.8 5.23627 3.8 3.91079C3.8 3.53027 3.71144 3.17043 3.55384 2.85079C4.479 1.99054 5.6082 1.34675 6.86084 1C7.25776 1.77802 8.06668 2.3108 9 2.3108C9.93332 2.3108 10.7422 1.77802 11.1392 1C12.3918 1.34675 13.521 1.99054 14.4462 2.85079C14.2886 3.17043 14.2 3.53027 14.2 3.91079C14.2 5.23627 15.2745 6.31079 16.6 6.31079C16.6112 6.31079 16.6225 6.31071 16.6337 6.31055C16.8717 7.06827 17 7.87455 17 8.71079C17 9.26283 16.9441 9.80183 16.8376 10.3224C16.7594 10.3147 16.6802 10.3108 16.6 10.3108C15.2745 10.3108 14.2 11.3853 14.2 12.7108C14.2 13.3001 14.4124 13.8398 14.7648 14.2576C13.8201 15.2393 12.6269 15.9802 11.2865 16.3793C10.9771 15.4115 10.0704 14.7108 9 14.7108C7.9296 14.7108 7.02288 15.4115 6.71352 16.3793Z" stroke="#88999C" stroke-width="1.5" stroke-linejoin="round"/>
<path d="M8.99995 11.5111C10.5464 11.5111 11.8 10.2575 11.8 8.71113C11.8 7.16473 10.5464 5.91113 8.99995 5.91113C7.45355 5.91113 6.19995 7.16473 6.19995 8.71113C6.19995 10.2575 7.45355 11.5111 8.99995 11.5111Z" stroke="#88999C" stroke-width="1.5" stroke-linejoin="round"/>
</svg>
