<svg width="160" height="160" viewBox="0 0 160 160" fill="none" xmlns="http://www.w3.org/2000/svg">
<circle cx="79.9998" cy="80.0003" r="57.1429" fill="#F2F7F7"/>
<path d="M63.6489 54.4525L90.6599 47.2149C91.8602 46.8933 93.094 47.6056 93.4156 48.8059L104.418 89.8675C106.598 98.0029 101.77 106.365 93.6347 108.545L66.6237 115.782C65.4234 116.104 64.1896 115.392 63.868 114.191L52.8656 73.1298C50.6857 64.9945 55.5136 56.6323 63.6489 54.4525Z" fill="#ACBBBE" stroke="#505C64" stroke-width="1.5"/>
<path d="M71.1597 51.4932H99.1235C100.366 51.4932 101.373 52.5005 101.373 53.7432V96.2533C101.373 104.676 94.5458 111.503 86.1235 111.503H58.1597C56.917 111.503 55.9097 110.496 55.9097 109.253V66.7432C55.9097 58.3208 62.7373 51.4932 71.1597 51.4932Z" fill="white" stroke="#505C64" stroke-width="1.5"/>
<path fill-rule="evenodd" clip-rule="evenodd" d="M66.1823 64C65.6085 64 65.1433 64.4652 65.1433 65.039C65.1433 65.6129 65.6085 66.078 66.1823 66.078H80.6032C81.1771 66.078 81.6423 65.6129 81.6423 65.039C81.6423 64.4652 81.1771 64 80.6032 64H66.1823ZM66.1821 70.6495C65.6083 70.6495 65.1431 71.1147 65.1431 71.6885C65.1431 72.2623 65.6083 72.7275 66.1821 72.7275H92.6755C93.2493 72.7275 93.7145 72.2623 93.7145 71.6885C93.7145 71.1147 93.2493 70.6495 92.6755 70.6495H66.1821ZM65.1431 78.338C65.1431 77.7642 65.6083 77.299 66.1821 77.299H92.6755C93.2493 77.299 93.7145 77.7642 93.7145 78.338C93.7145 78.9118 93.2493 79.377 92.6755 79.377H66.1821C65.6083 79.377 65.1431 78.9118 65.1431 78.338ZM66.1821 83.9484C65.6083 83.9484 65.1431 84.4136 65.1431 84.9875C65.1431 85.5613 65.6083 86.0265 66.1821 86.0265H92.6755C93.2493 86.0265 93.7145 85.5613 93.7145 84.9875C93.7145 84.4136 93.2493 83.9484 92.6755 83.9484H66.1821Z" fill="#ACBBBE"/>
<path d="M79.5538 106.517C79.155 106.655 78.7567 106.687 78.3764 106.517C77.7877 106.253 77.7156 106.019 77.4933 105.634L77.4341 105.488C77.3042 105.166 77.4351 104.798 77.7389 104.631L77.7636 104.617C78.0784 104.444 78.4741 104.556 78.6514 104.868V104.868C78.7382 105.016 78.8134 105.078 78.8348 105.089C78.9151 105.114 79.0058 105.118 79.1015 105.085C79.3832 104.97 79.5995 104.718 79.7835 104.424C79.5209 104.284 79.2846 104.117 79.0748 103.923C77.6225 102.615 76.5918 100.506 76.9046 98.5695C77.0109 97.947 77.1982 97.4837 77.4933 97.0977C77.9096 96.5456 78.7921 96.0772 79.4112 96.1117C79.9769 96.1469 80.9417 96.5717 81.3199 97.0977C81.6279 97.5238 81.8035 98.1621 81.9086 98.5695C82.2464 99.9083 82.1785 101.301 81.9086 102.69C81.8682 102.935 81.6806 103.249 81.6143 103.574C81.9931 103.585 82.2181 103.511 82.4983 103.237C82.7416 103.011 82.8667 102.701 83.0174 102.259C83.1839 101.811 83.2338 101.438 83.193 101.062C83.1417 100.707 83.3179 100.094 83.6748 100.041C83.9305 100.006 84.4278 100.114 84.5578 100.336C84.7358 100.54 85.5474 101.383 85.7353 101.513C86.1594 101.81 86.4593 101.916 86.6183 101.807C86.7874 101.692 86.832 101.312 86.9055 101.062C87.0451 100.588 87.2329 100.235 87.207 99.7469C87.1886 99.487 87.2516 98.9521 87.5014 98.8481C87.7456 98.7281 88.1961 98.6805 88.3845 98.8638L88.9732 99.4526C89.4845 99.9503 89.8432 100.397 90.3242 100.497C90.6342 100.568 90.9631 100.381 91.0336 100.336C91.1042 100.29 91.328 99.7469 91.328 99.7469L91.3722 99.6595C91.5214 99.3639 91.8495 99.2044 92.1741 99.2696L92.264 99.2877C92.611 99.3574 92.8367 99.6943 92.769 100.042V100.042C92.6618 100.558 92.5446 101.149 91.9189 101.56C91.3676 101.928 90.6807 102.059 90.0287 101.93C89.3608 101.806 88.829 101.404 88.3934 101.022C88.363 101.192 88.3271 101.346 88.2752 101.506C88.1146 102.023 87.8713 102.817 87.1659 103.256C86.2695 103.815 85.4427 103.231 84.9543 102.903L84.8307 102.803C84.8307 102.803 84.5889 102.621 84.3093 102.38C84.2729 102.481 84.2365 102.583 84.2056 102.7C84.0391 103.148 83.8361 103.697 83.371 104.16C82.7259 104.773 81.9309 105.04 81.087 104.924C80.7833 105.544 80.3245 106.215 79.6336 106.49C79.6176 106.495 79.5857 106.506 79.5538 106.517ZM79.2248 97.6409C79.0812 97.6905 78.9382 97.7932 78.8434 97.9325C78.6854 98.1468 78.5762 98.4508 78.5053 98.8658C78.2683 100.35 78.8433 101.962 79.9622 102.977C80.0429 103.056 80.1396 103.129 80.2523 103.197C80.3191 102.925 80.3595 102.68 80.4004 102.489C80.6239 101.275 80.6017 100.023 80.3028 98.8481C80.236 98.5516 80.1369 98.2131 79.9425 97.9608C79.802 97.7609 79.5981 97.6361 79.4112 97.612C79.3579 97.6126 79.2886 97.6188 79.2248 97.6409Z" fill="#505C64"/>
<path d="M111.6 86.3998V78.7998L116 82.3998L111.6 86.3998Z" fill="#F2F7F7"/>
<path d="M103.614 84.1058C107.18 80.7769 111.135 77.9089 115.509 75.6904C118.048 74.4073 120.91 73.6913 123.786 73.2465L123.872 73.2332L123.953 73.2007L124.018 73.1741L123.659 71.7329C122.852 71.8183 122.084 71.9588 121.336 72.0955C121.101 72.1385 120.868 72.1811 120.637 72.2215C114.949 73.1781 110.424 75.9 105.88 79.1189L105.88 79.1189L105.873 79.1243C102.643 81.4733 99.7316 84.5797 97.196 87.6969C97.2745 86.819 97.3797 85.9034 97.5351 85.0077C97.7835 83.5756 98.152 82.2456 98.7101 81.2222L98.7102 81.2222L98.7151 81.2129C102.783 73.4975 109.393 69.6677 117.979 68.958C119.788 68.8238 121.628 68.8629 123.388 69.081L123.388 69.0811L123.401 69.0825C126.139 69.3723 129.02 70.3429 130.762 71.0059C130.08 71.5359 129.391 72.2416 128.86 72.8214C128.536 73.1738 128.258 73.4941 128.061 73.7214L127.741 74.0731C127.183 74.6863 126.649 75.4529 126.157 76.1603C125.996 76.3904 125.84 76.6143 125.689 76.8246C125.646 76.8718 125.613 76.9153 125.592 76.9446C125.558 76.9915 125.527 77.04 125.509 77.0689L125.506 77.0738C125.496 77.0886 125.489 77.0994 125.484 77.1077L125.463 77.1254L125.413 77.1932C125.254 77.4053 124.86 77.6416 124.163 77.8294C123.499 78.0081 122.697 78.1077 121.902 78.1571C121.112 78.2062 120.356 78.2043 119.796 78.1898C119.516 78.1826 119.287 78.1723 119.129 78.1638C119.05 78.1596 118.988 78.1559 118.947 78.1532L118.901 78.1501L118.89 78.1494L118.888 78.1492L118.888 78.1492L118.888 78.1492C118.888 78.1492 118.888 78.1492 118.888 78.1501L118.579 79.603L122.546 81.0264C121.951 81.7284 121.343 82.3816 120.788 82.9597L120.624 83.0261L120.577 83.1353L120.494 83.218C118.838 84.8594 117.325 86.0103 116.201 86.7609C115.639 87.1361 115.175 87.4109 114.839 87.5965C114.671 87.6893 114.536 87.7595 114.437 87.8084C114.388 87.833 114.349 87.8518 114.32 87.8652C114.292 87.8782 114.278 87.884 114.276 87.8848L114.276 87.8849L114.234 87.902L114.194 87.924C111.705 89.3006 109.028 90.2347 106.161 90.8308L106.161 90.8308C104.709 91.1333 103.237 91.3422 101.748 91.5533C101.054 91.6518 100.356 91.7508 99.6548 91.8601L99.643 91.8619L99.6312 91.8641C99.6053 91.869 99.5841 91.8727 99.5592 91.877C99.5468 91.8792 99.5335 91.8815 99.5182 91.8842C99.4793 91.8911 99.4249 91.9009 99.3684 91.9149C99.2496 91.9442 99.0751 92.0018 98.9088 92.1434L98.9085 92.1437C98.9052 92.1465 98.9018 92.1495 98.8651 92.1735L98.8604 92.1766C98.8237 92.2008 98.7585 92.2435 98.6849 92.3049L98.6793 92.3092L98.6361 92.3433L98.4712 92.4733C98.3287 92.5855 98.1243 92.7464 97.8766 92.9411C97.3812 93.3305 96.7129 93.8547 96.0211 94.3943C95.5139 94.79 95.0013 95.1882 94.5371 95.5462C97.0723 91.327 100.01 87.4415 103.611 84.1079L103.614 84.1058ZM125.467 77.1329C125.467 77.133 125.468 77.1319 125.469 77.1298L125.469 77.1307C125.468 77.1321 125.467 77.1328 125.467 77.1329Z" fill="#505C64" stroke="#505C64" stroke-width="1.5"/>
<path d="M122.824 72.0775C125.473 71.7832 125.178 72.3719 125.178 72.3719C125.178 72.3719 124.59 72.9606 122.235 73.255" stroke="#505C64" stroke-width="2.3"/>
<path d="M118.997 78.2588C118.703 78.2588 116.348 78.5531 119.292 79.7306" stroke="#505C64" stroke-width="2"/>
</svg>
