<svg width="114" height="32" viewBox="0 0 114 32" fill="none" xmlns="http://www.w3.org/2000/svg">
<path d="M0 16C0 7.16344 7.16344 0 16 0H98C106.837 0 114 7.16344 114 16C114 24.8366 106.837 32 98 32H16C7.16344 32 0 24.8366 0 16Z" fill="#FFF6E5" fill-opacity="0.5"/>
<path d="M16.6667 11.9993C16.6667 11.6312 16.3683 11.3327 16.0001 11.3327C15.6319 11.3327 15.3334 11.6312 15.3334 11.9993V15.9993C15.3334 16.2519 15.4761 16.4827 15.7019 16.5956L18.3686 17.929C18.6979 18.0936 19.0984 17.9601 19.263 17.6308C19.4277 17.3015 19.2942 16.9011 18.9649 16.7364L16.6667 15.5873V11.9993Z" fill="#FFB421"/>
<path fill-rule="evenodd" clip-rule="evenodd" d="M16.0001 8.66602C11.95 8.66602 8.66673 11.9493 8.66673 15.9993C8.66673 20.0494 11.95 23.3327 16.0001 23.3327C20.0502 23.3327 23.3334 20.0494 23.3334 15.9993C23.3334 11.9493 20.0502 8.66602 16.0001 8.66602ZM10.0001 15.9993C10.0001 12.6856 12.6864 9.99935 16.0001 9.99935C19.3138 9.99935 22.0001 12.6856 22.0001 15.9993C22.0001 19.3131 19.3138 21.9993 16.0001 21.9993C12.6864 21.9993 10.0001 19.3131 10.0001 15.9993Z" fill="#FFB421"/>
<path d="M37.82 15.934C38.244 16.114 38.57 16.384 38.798 16.744C39.03 17.104 39.146 17.516 39.146 17.98C39.146 18.488 39.044 18.932 38.84 19.312C38.636 19.692 38.34 19.986 37.952 20.194C37.564 20.398 37.1 20.5 36.56 20.5H32.84V11.86H36.236C36.764 11.86 37.216 11.97 37.592 12.19C37.972 12.406 38.258 12.692 38.45 13.048C38.642 13.4 38.738 13.778 38.738 14.182C38.738 14.574 38.656 14.922 38.492 15.226C38.332 15.53 38.108 15.766 37.82 15.934ZM34.112 13.042V15.388H36.218C36.45 15.388 36.66 15.34 36.848 15.244C37.036 15.148 37.184 15.01 37.292 14.83C37.4 14.65 37.454 14.438 37.454 14.194C37.454 13.97 37.402 13.772 37.298 13.6C37.198 13.424 37.054 13.288 36.866 13.192C36.678 13.092 36.462 13.042 36.218 13.042H34.112ZM36.368 19.306C36.656 19.306 36.912 19.252 37.136 19.144C37.364 19.032 37.542 18.876 37.67 18.676C37.798 18.472 37.862 18.232 37.862 17.956C37.862 17.696 37.804 17.46 37.688 17.248C37.572 17.036 37.406 16.87 37.19 16.75C36.974 16.63 36.726 16.57 36.446 16.57H34.112V19.306H36.368ZM45.7963 20.68C45.1603 20.68 44.6023 20.536 44.1223 20.248C43.6423 19.956 43.2723 19.552 43.0123 19.036C42.7523 18.516 42.6223 17.922 42.6223 17.254C42.6223 16.582 42.7543 15.988 43.0183 15.472C43.2823 14.956 43.6543 14.556 44.1343 14.272C44.6143 13.984 45.1683 13.84 45.7963 13.84C46.4323 13.84 46.9903 13.984 47.4703 14.272C47.9543 14.56 48.3263 14.964 48.5863 15.484C48.8463 16 48.9763 16.59 48.9763 17.254C48.9763 17.926 48.8443 18.522 48.5803 19.042C48.3203 19.558 47.9503 19.96 47.4703 20.248C46.9903 20.536 46.4323 20.68 45.7963 20.68ZM45.7963 19.498C46.3963 19.498 46.8543 19.296 47.1703 18.892C47.4863 18.484 47.6443 17.938 47.6443 17.254C47.6443 16.562 47.4863 16.018 47.1703 15.622C46.8543 15.222 46.3963 15.022 45.7963 15.022C45.1883 15.022 44.7283 15.222 44.4163 15.622C44.1083 16.022 43.9543 16.566 43.9543 17.254C43.9543 17.95 44.1123 18.498 44.4283 18.898C44.7443 19.298 45.2003 19.498 45.7963 19.498ZM53.1208 20.686C52.1928 20.686 51.4668 20.396 50.9428 19.816C50.4228 19.236 50.1328 18.41 50.0728 17.338C50.0648 17.234 50.0608 17.068 50.0608 16.84C50.0608 16.328 50.0968 15.812 50.1688 15.292C50.2408 14.772 50.3408 14.352 50.4688 14.032C50.5808 13.752 50.7348 13.49 50.9308 13.246C51.1308 13.002 51.3548 12.796 51.6028 12.628C51.8348 12.468 52.0948 12.34 52.3828 12.244C52.6748 12.144 52.9668 12.068 53.2588 12.016C53.5508 11.964 53.9168 11.91 54.3568 11.854C54.4288 11.842 54.5868 11.82 54.8308 11.788C55.0748 11.756 55.2968 11.72 55.4968 11.68L55.6168 12.802C55.4888 12.83 55.3288 12.858 55.1368 12.886C54.9488 12.91 54.7568 12.934 54.5608 12.958C54.0088 13.018 53.5488 13.086 53.1808 13.162C52.8168 13.238 52.5088 13.354 52.2568 13.51C51.9688 13.69 51.7428 13.952 51.5788 14.296C51.4148 14.64 51.3168 15.028 51.2848 15.46C51.5208 15.1 51.8268 14.834 52.2028 14.662C52.5788 14.486 52.9868 14.398 53.4268 14.398C53.9908 14.398 54.4828 14.534 54.9028 14.806C55.3268 15.074 55.6508 15.444 55.8748 15.916C56.1028 16.384 56.2168 16.914 56.2168 17.506C56.2168 18.134 56.0868 18.69 55.8268 19.174C55.5708 19.654 55.2088 20.026 54.7408 20.29C54.2728 20.554 53.7328 20.686 53.1208 20.686ZM53.1448 19.504C53.7088 19.504 54.1408 19.33 54.4408 18.982C54.7408 18.63 54.8908 18.152 54.8908 17.548C54.8908 16.94 54.7368 16.462 54.4288 16.114C54.1248 15.766 53.6968 15.592 53.1448 15.592C52.5888 15.592 52.1588 15.766 51.8548 16.114C51.5548 16.458 51.4048 16.936 51.4048 17.548C51.4048 18.168 51.5548 18.65 51.8548 18.994C52.1588 19.334 52.5888 19.504 53.1448 19.504ZM60.6778 13.84C61.2738 13.84 61.7938 13.988 62.2378 14.284C62.6858 14.576 63.0298 14.982 63.2698 15.502C63.5138 16.018 63.6358 16.602 63.6358 17.254C63.6358 17.902 63.5158 18.486 63.2758 19.006C63.0358 19.526 62.6938 19.936 62.2498 20.236C61.8058 20.532 61.2898 20.68 60.7018 20.68C59.9898 20.68 59.3938 20.468 58.9138 20.044V23.38H57.6538V14.02H58.7698V14.602C59.0058 14.358 59.2838 14.17 59.6038 14.038C59.9238 13.906 60.2818 13.84 60.6778 13.84ZM60.5278 19.546C60.9158 19.546 61.2418 19.446 61.5058 19.246C61.7738 19.046 61.9738 18.774 62.1058 18.43C62.2378 18.086 62.3038 17.694 62.3038 17.254C62.3038 16.818 62.2378 16.428 62.1058 16.084C61.9738 15.74 61.7718 15.47 61.4998 15.274C61.2278 15.074 60.8898 14.974 60.4858 14.974C59.9138 14.974 59.4838 15.18 59.1958 15.592C58.9118 16 58.7698 16.554 58.7698 17.254C58.7698 17.962 58.9138 18.522 59.2018 18.934C59.4938 19.342 59.9358 19.546 60.5278 19.546ZM70.1266 15.076C70.2186 15.272 70.2786 15.482 70.3066 15.706C70.3386 15.926 70.3546 16.194 70.3546 16.51V20.5H69.2446V19.558C68.9766 19.938 68.6506 20.22 68.2666 20.404C67.8866 20.588 67.4346 20.68 66.9106 20.68C66.4466 20.68 66.0506 20.594 65.7226 20.422C65.3946 20.246 65.1446 20.012 64.9726 19.72C64.8046 19.424 64.7206 19.096 64.7206 18.736C64.7206 17.78 65.2306 17.14 66.2506 16.816C66.5586 16.724 66.9066 16.646 67.2946 16.582C67.6866 16.514 68.2286 16.432 68.9206 16.336L69.1186 16.312C69.0986 15.856 68.9746 15.524 68.7466 15.316C68.5186 15.104 68.1546 14.998 67.6546 14.998C67.2906 14.998 66.9706 15.082 66.6946 15.25C66.4186 15.418 66.2286 15.674 66.1246 16.018L64.9546 15.658C65.1146 15.086 65.4226 14.64 65.8786 14.32C66.3386 14 66.9346 13.84 67.6666 13.84C68.2626 13.84 68.7726 13.942 69.1966 14.146C69.6206 14.35 69.9306 14.66 70.1266 15.076ZM67.1326 19.654C67.4726 19.654 67.7726 19.594 68.0326 19.474C68.2926 19.35 68.5006 19.19 68.6566 18.994C68.8166 18.798 68.9226 18.59 68.9746 18.37C69.0546 18.138 69.0986 17.8 69.1066 17.356L68.9506 17.38C68.3666 17.464 67.9286 17.532 67.6366 17.584C67.3486 17.636 67.0886 17.696 66.8566 17.764C66.5766 17.86 66.3566 17.984 66.1966 18.136C66.0406 18.288 65.9626 18.484 65.9626 18.724C65.9626 18.992 66.0606 19.214 66.2566 19.39C66.4566 19.566 66.7486 19.654 67.1326 19.654ZM74.7387 20.686C73.8107 20.686 73.0847 20.396 72.5607 19.816C72.0407 19.236 71.7507 18.41 71.6907 17.338C71.6827 17.234 71.6787 17.068 71.6787 16.84C71.6787 16.328 71.7147 15.812 71.7867 15.292C71.8587 14.772 71.9587 14.352 72.0867 14.032C72.1987 13.752 72.3527 13.49 72.5487 13.246C72.7487 13.002 72.9727 12.796 73.2207 12.628C73.4527 12.468 73.7127 12.34 74.0007 12.244C74.2927 12.144 74.5847 12.068 74.8767 12.016C75.1687 11.964 75.5347 11.91 75.9747 11.854C76.0467 11.842 76.2047 11.82 76.4487 11.788C76.6927 11.756 76.9147 11.72 77.1147 11.68L77.2347 12.802C77.1067 12.83 76.9467 12.858 76.7547 12.886C76.5667 12.91 76.3747 12.934 76.1787 12.958C75.6267 13.018 75.1667 13.086 74.7987 13.162C74.4347 13.238 74.1267 13.354 73.8747 13.51C73.5867 13.69 73.3607 13.952 73.1967 14.296C73.0327 14.64 72.9347 15.028 72.9027 15.46C73.1387 15.1 73.4447 14.834 73.8207 14.662C74.1967 14.486 74.6047 14.398 75.0447 14.398C75.6087 14.398 76.1007 14.534 76.5207 14.806C76.9447 15.074 77.2687 15.444 77.4927 15.916C77.7207 16.384 77.8347 16.914 77.8347 17.506C77.8347 18.134 77.7047 18.69 77.4447 19.174C77.1887 19.654 76.8267 20.026 76.3587 20.29C75.8907 20.554 75.3507 20.686 74.7387 20.686ZM74.7627 19.504C75.3267 19.504 75.7587 19.33 76.0587 18.982C76.3587 18.63 76.5087 18.152 76.5087 17.548C76.5087 16.94 76.3547 16.462 76.0467 16.114C75.7427 15.766 75.3147 15.592 74.7627 15.592C74.2067 15.592 73.7767 15.766 73.4727 16.114C73.1727 16.458 73.0227 16.936 73.0227 17.548C73.0227 18.168 73.1727 18.65 73.4727 18.994C73.7767 19.334 74.2067 19.504 74.7627 19.504ZM82.0917 20.68C81.4557 20.68 80.8977 20.536 80.4177 20.248C79.9377 19.956 79.5677 19.552 79.3077 19.036C79.0477 18.516 78.9177 17.922 78.9177 17.254C78.9177 16.582 79.0497 15.988 79.3137 15.472C79.5777 14.956 79.9497 14.556 80.4297 14.272C80.9097 13.984 81.4637 13.84 82.0917 13.84C82.7277 13.84 83.2857 13.984 83.7657 14.272C84.2497 14.56 84.6217 14.964 84.8817 15.484C85.1417 16 85.2717 16.59 85.2717 17.254C85.2717 17.926 85.1397 18.522 84.8757 19.042C84.6157 19.558 84.2457 19.96 83.7657 20.248C83.2857 20.536 82.7277 20.68 82.0917 20.68ZM82.0917 19.498C82.6917 19.498 83.1497 19.296 83.4657 18.892C83.7817 18.484 83.9397 17.938 83.9397 17.254C83.9397 16.562 83.7817 16.018 83.4657 15.622C83.1497 15.222 82.6917 15.022 82.0917 15.022C81.4837 15.022 81.0237 15.222 80.7117 15.622C80.4037 16.022 80.2497 16.566 80.2497 17.254C80.2497 17.95 80.4077 18.498 80.7237 18.898C81.0397 19.298 81.4957 19.498 82.0917 19.498ZM89.4975 20.5H88.2435V15.148H86.0295V14.02H91.7115V15.148H89.4975V20.5ZM94.2428 20.5H92.9648L92.9708 14.02H94.2428V17.14L96.7868 14.02H98.3828L95.6948 17.26L98.6588 20.5H96.9548L94.2428 17.38V20.5ZM100.133 17.614C100.185 18.218 100.367 18.684 100.679 19.012C100.991 19.336 101.419 19.498 101.963 19.498C102.351 19.498 102.689 19.41 102.977 19.234C103.265 19.058 103.489 18.802 103.649 18.466L104.879 18.856C104.631 19.428 104.251 19.876 103.739 20.2C103.227 20.52 102.655 20.68 102.023 20.68C101.383 20.68 100.819 20.54 100.331 20.26C99.8434 19.976 99.4634 19.58 99.1914 19.072C98.9234 18.56 98.7894 17.974 98.7894 17.314C98.7894 16.614 98.9214 16.002 99.1854 15.478C99.4494 14.954 99.8214 14.55 100.301 14.266C100.781 13.982 101.335 13.84 101.963 13.84C102.583 13.84 103.119 13.978 103.571 14.254C104.023 14.53 104.369 14.926 104.609 15.442C104.853 15.954 104.975 16.56 104.975 17.26C104.975 17.336 104.971 17.454 104.963 17.614H100.133ZM102.011 14.95C101.479 14.95 101.057 15.094 100.745 15.382C100.437 15.666 100.243 16.084 100.163 16.636H103.679C103.611 16.064 103.439 15.64 103.163 15.364C102.891 15.088 102.507 14.95 102.011 14.95Z" fill="#F0A616"/>
</svg>
