<svg width="24" height="24" viewBox="0 0 24 24" fill="none" xmlns="http://www.w3.org/2000/svg">
<circle cx="12" cy="12" r="12" fill="#FBB100"/>
<path d="M12.5455 8.72727C12.5455 8.42603 12.3012 8.18182 12 8.18182C11.6988 8.18182 11.4545 8.42603 11.4545 8.72727V12C11.4545 12.2066 11.5713 12.3955 11.7561 12.4879L13.9379 13.5788C14.2073 13.7135 14.535 13.6043 14.6697 13.3348C14.8044 13.0654 14.6952 12.7378 14.4258 12.603L12.5455 11.6629V8.72727Z" fill="white"/>
<path fill-rule="evenodd" clip-rule="evenodd" d="M12 6C8.68629 6 6 8.68629 6 12C6 15.3137 8.68629 18 12 18C15.3137 18 18 15.3137 18 12C18 8.68629 15.3137 6 12 6ZM7.09091 12C7.09091 9.28878 9.28878 7.09091 12 7.09091C14.7112 7.09091 16.9091 9.28878 16.9091 12C16.9091 14.7112 14.7112 16.9091 12 16.9091C9.28878 16.9091 7.09091 14.7112 7.09091 12Z" fill="white"/>
</svg>
