<svg width="36" height="36" viewBox="0 0 36 36" fill="none" xmlns="http://www.w3.org/2000/svg">
<rect width="36" height="36" rx="12" fill="#F3F3F3"/>
<path d="M14.1597 14.441L14.0387 15.1812L14.1597 14.441ZM22.0529 14.4447L22.1729 15.1851L22.0529 14.4447ZM25.1507 17.604L25.8798 17.7801L25.1507 17.604ZM23.5828 24.0951L24.3118 24.2712L23.5828 24.0951ZM12.6425 24.0951L13.3715 23.919L12.6425 24.0951ZM11.0715 17.5915L11.8006 17.4154L11.0715 17.5915ZM14.0387 15.1812C16.841 15.6393 19.2872 15.6531 22.1729 15.1851L21.9328 13.7044C19.2088 14.1462 16.9255 14.1332 14.2807 13.7009L14.0387 15.1812ZM24.4217 17.4279L22.8538 23.919L24.3118 24.2712L25.8798 17.7801L24.4217 17.4279ZM21.1585 25.2507H15.0668V26.7507H21.1585V25.2507ZM13.3715 23.919L11.8006 17.4154L10.3425 17.7676L11.9134 24.2712L13.3715 23.919ZM15.0668 25.2507C14.2601 25.2507 13.56 24.6993 13.3715 23.919L11.9134 24.2712C12.265 25.7267 13.5692 26.7507 15.0668 26.7507V25.2507ZM22.8538 23.919C22.6653 24.6993 21.9652 25.2507 21.1585 25.2507V26.7507C22.6561 26.7507 23.9603 25.7267 24.3118 24.2712L22.8538 23.919ZM22.1729 15.1851C23.5716 14.9582 24.7225 16.1824 24.4217 17.4279L25.8798 17.7801C26.463 15.3653 24.2578 13.3274 21.9328 13.7044L22.1729 15.1851ZM14.2807 13.7009C11.9569 13.321 9.76024 15.357 10.3425 17.7676L11.8006 17.4154C11.5001 16.1715 12.6455 14.9535 14.0387 15.1812L14.2807 13.7009Z" fill="#505C64"/>
<path d="M13.793 16.962C13.793 17.3763 14.1288 17.712 14.543 17.712C14.9572 17.7121 15.293 17.3763 15.293 16.9621L13.793 16.962ZM14.543 13.1111L15.293 13.1111L14.543 13.1111ZM20.9041 17.1111C20.9041 17.5253 21.2399 17.8611 21.6541 17.8611C22.0683 17.8611 22.4041 17.5253 22.4041 17.1111H20.9041ZM15.293 16.9621L15.293 13.1111L13.793 13.1111L13.793 16.962L15.293 16.9621ZM17.6541 10.75H18.543V9.25H17.6541V10.75ZM18.543 10.75C19.847 10.75 20.9041 11.8071 20.9041 13.1111H22.4041C22.4041 10.9787 20.6754 9.25 18.543 9.25V10.75ZM15.293 13.1111C15.293 11.8071 16.3501 10.75 17.6541 10.75V9.25C15.5217 9.25 13.793 10.9787 13.793 13.1111L15.293 13.1111ZM20.9041 13.1111V17.1111H22.4041V13.1111H20.9041Z" fill="#505C64"/>
</svg>
