<svg width="36" height="36" viewBox="0 0 36 36" fill="none" xmlns="http://www.w3.org/2000/svg">
<path d="M31.9124 16.7978C31.7645 16.4794 31.4687 16.2884 31.1305 16.2884H28.7215C28.4891 16.2884 28.2777 16.3733 28.1298 16.5219C26.6506 17.8593 24.96 18.4749 22.9736 18.3687C19.508 18.1352 16.9088 15.5029 16.951 12.255C16.9722 9.81377 18.9586 7.83954 21.4521 7.83954C22.4453 7.83954 23.4597 8.30656 24.0936 9.07078C24.1993 9.19815 24.3683 9.43166 24.474 9.66517C24.5374 9.85622 24.5374 10.0473 24.474 10.2383C24.3049 10.6629 23.8189 10.9176 23.3751 10.7903V10.769C23.0793 10.6629 22.7834 10.6204 22.4876 10.6204C21.431 10.6204 20.4801 11.2997 20.0997 12.2975C19.7404 13.2952 20.0363 14.3991 20.8393 15.0996C20.8816 15.142 20.9238 15.1845 20.9661 15.2057L21.0295 15.2482C21.0295 15.2482 21.0295 15.2482 21.0506 15.2694C21.0718 15.2906 21.114 15.3331 21.1563 15.3543C22.4242 16.0549 23.9668 16.1185 25.277 15.4817C26.7774 14.7387 27.8551 13.2103 28.1298 11.3847C28.3834 9.75008 27.8974 8.09428 26.7774 6.77813C25.4883 5.22847 23.5019 4.31566 21.4944 4.29443H21.3887C17.0356 4.29443 13.4643 7.83954 13.422 12.2126C13.4009 13.0829 13.5065 13.932 13.7178 14.7175C13.5699 14.7175 13.422 14.6963 13.2741 14.675C9.72392 14.4415 6.55413 15.9063 4.20849 18.8358C3.97604 19.1117 3.93377 19.4726 4.10283 19.791C4.25075 20.0882 4.5466 20.3005 4.88471 20.3005H7.29375C7.5262 20.3005 7.73752 20.2156 7.88544 20.067C9.36467 18.7084 11.0764 18.0928 13.0416 18.2201C16.5073 18.4324 19.1065 21.0647 19.0642 24.3339C19.0431 26.7751 17.0567 28.7493 14.5631 28.7493C13.5699 28.7281 12.5556 28.2611 11.9216 27.5181C11.816 27.3907 11.6469 27.1572 11.5413 26.9025C11.4779 26.7114 11.4779 26.5204 11.5413 26.3505C11.7103 25.926 12.1964 25.6712 12.6401 25.7986C12.936 25.9047 13.2318 25.9684 13.5277 25.9684C14.5843 25.9684 15.5352 25.2891 15.9156 24.2914C16.2748 23.2937 15.979 22.1686 15.176 21.4681C15.1337 21.4256 15.1126 21.4044 15.0492 21.3831L14.9858 21.3407C14.9858 21.3195 14.9858 21.3195 14.9646 21.3195C14.9435 21.277 14.9012 21.2558 14.859 21.2345C13.5911 20.5128 12.0484 20.4703 10.7382 21.1072C9.23788 21.8502 8.16016 23.3786 7.88544 25.2042C7.63186 26.8388 8.11789 28.4734 9.23788 29.8107C10.5269 31.3392 12.5133 32.2732 14.5209 32.2944H14.6265C18.9797 32.2944 22.551 28.7281 22.5933 24.3763C22.6144 23.506 22.4876 22.6568 22.2974 21.8502C22.4453 21.8714 22.5933 21.8926 22.7412 21.8926C22.9948 21.9138 23.2272 21.9138 23.4597 21.9138C26.7351 21.9138 29.609 20.4703 31.8068 17.7319C32.0181 17.4771 32.0603 17.1163 31.9124 16.7978Z" fill="#0DB4C4"/>
</svg>
