<svg width="36" height="36" viewBox="0 0 36 36" fill="none" xmlns="http://www.w3.org/2000/svg">
<path d="M27.2683 13.9877V8.28359H21.6122L17.6649 4.29443L13.7177 8.22946H8.00136V13.9275L4 17.9167L8.06159 21.9058V27.61H13.7177L17.6649 31.5991L21.6122 27.61H27.3224V21.966L31.3298 17.9769L27.2683 13.9877ZM7.49018 19.1144L6.5757 18.206C6.46135 18.0916 6.40112 17.8629 6.5757 17.6883L7.54431 16.7197C7.65867 16.6054 7.88738 16.7197 7.83325 16.8943L7.88738 18.9463C7.88738 19.175 7.65867 19.2291 7.49018 19.1147V19.1144ZM23.8924 9.93872H25.2102C25.3787 9.93872 25.6074 10.0531 25.5533 10.2818V11.6476C25.5533 11.8222 25.3246 11.8763 25.2643 11.762L23.7781 10.2818C23.6096 10.1674 23.7239 9.93872 23.8924 9.93872ZM16.5759 7.82693L17.4903 6.91817C17.6649 6.80381 17.8936 6.74358 18.008 6.91817L18.9766 7.82693C19.091 8.00151 18.9766 8.17 18.8081 8.17H16.7504C16.5217 8.17 16.4676 7.94128 16.5759 7.82693ZM9.60198 11.5935V10.3359C9.66221 10.1072 9.77656 9.93872 10.0053 9.93872H11.317C11.5457 9.93872 11.6059 10.1674 11.4915 10.2818L10.0053 11.762C9.83069 11.8763 9.60198 11.762 9.60198 11.5935ZM11.4313 26.0162H10.1196C9.94505 26.0162 9.77656 25.9018 9.77656 25.6731L9.71633 24.3615C9.71633 24.1327 9.94505 24.0725 10.0594 24.193L11.6059 25.6731C11.7203 25.7875 11.6059 26.0162 11.4313 26.0162ZM18.8081 28.0079L17.8936 28.9224C17.7191 29.0909 17.4903 29.0909 17.376 28.9224L16.4074 28.0079C16.293 27.8394 16.4074 27.6709 16.5217 27.6709H18.6335C18.8622 27.6709 18.9225 27.8936 18.8081 28.0079ZM19.8369 25.7276H15.2642C14.6326 25.7879 14.121 25.6133 13.6636 25.1017L10.3483 21.7983C9.83107 21.3409 9.60236 20.7695 9.66259 20.0292V15.5224C9.66259 14.8965 9.8913 14.3251 10.2885 13.9279L13.7783 10.4499C14.1214 10.1068 14.5784 9.93834 15.2043 9.93834H19.8915C20.5231 9.87811 21.0346 10.0527 21.4379 10.5101L24.8134 13.8738C25.2647 14.271 25.4934 14.7821 25.4934 15.408V20.3121C25.5537 20.938 25.3249 21.4553 24.8134 21.7983L21.6122 25.0476C21.0945 25.5592 20.5231 25.7879 19.8369 25.7276ZM25.6074 25.4989C25.5533 25.6735 25.4389 25.9022 25.2102 25.9022H23.8924C23.6637 25.9022 23.6096 25.6735 23.7239 25.5592L25.2102 24.0729C25.3787 23.9044 25.6074 24.0188 25.6074 24.1933V25.4989ZM27.6712 19.1147C27.5568 19.2291 27.322 19.1147 27.3822 19.0004V16.8943C27.322 16.6656 27.6109 16.6054 27.7253 16.7197L28.6398 17.6342C28.7541 17.8027 28.8083 18.0314 28.6398 18.1458L27.6712 19.1144V19.1147Z" fill="#BB994F"/>
<path d="M23.6089 21.2866L17.8327 11.19C17.604 10.7928 17.2609 10.7928 16.9785 11.19L11.3765 21.2264C11.2621 21.5092 11.3765 21.8523 11.8881 21.8523H23.1519C23.5491 21.8523 23.7778 21.6838 23.6093 21.2866H23.6089ZM22.0689 20.655H13.8317C13.4887 20.655 13.3743 20.3721 13.4887 20.1434L17.6044 12.8447C17.779 12.5619 18.0618 12.616 18.236 12.8447L22.4059 20.1975C22.5202 20.4865 22.3517 20.655 22.0689 20.655Z" fill="#BB994F"/>
<path d="M21.4932 19.5173L18.4666 14.1021C18.3522 13.9275 18.1235 13.9275 18.0091 14.1021L14.9764 19.4575C14.9223 19.6321 14.9764 19.8005 15.2051 19.8547H21.2641C21.4928 19.8005 21.6072 19.7403 21.4928 19.5177L21.4932 19.5173ZM20.1812 18.543H17.0344C16.9201 18.543 16.866 18.4889 16.9201 18.3745L18.4666 15.6429C18.5809 15.5224 18.6351 15.5224 18.6953 15.6429L20.2959 18.3745C20.3561 18.4889 20.2959 18.543 20.1816 18.543" fill="#BB994F"/>
</svg>
