<svg width="36" height="36" viewBox="0 0 36 36" fill="none" xmlns="http://www.w3.org/2000/svg">
<rect x="0.5" y="0.5" width="35" height="35" rx="11.5" fill="#D0D6D8" stroke="#FF5721"/>
<path d="M18.3364 25.3C20.6564 25.3 22.3364 24.14 23.0564 22.04L20.9164 21.52C20.4964 22.7 19.6764 23.32 18.3364 23.32C16.3564 23.32 15.3564 21.84 15.3364 19.6C15.3564 17.44 16.2764 15.88 18.3364 15.88C19.5364 15.88 20.5564 16.58 20.9764 17.78L23.0564 17.2C22.5164 15.16 20.7164 13.9 18.3564 13.9C15.0964 13.9 13.1364 16.26 13.1164 19.6C13.1364 22.88 15.0164 25.3 18.3364 25.3Z" fill="white"/>
<path d="M12.3164 27H23.6764V28H12.3164V27Z" fill="white"/>
</svg>
