<svg width="36" height="36" viewBox="0 0 36 36" fill="none" xmlns="http://www.w3.org/2000/svg">
<rect width="36" height="36" rx="12" fill="#D9B681"/>
<path d="M18.415 24.3133C21.2756 24.3133 23.3471 22.883 24.2349 20.2937L21.5962 19.6525C21.0783 21.1075 20.0673 21.872 18.415 21.872C15.9736 21.872 14.7406 20.0471 14.7159 17.2851C14.7406 14.6218 15.875 12.6982 18.415 12.6982C19.8946 12.6982 21.1523 13.5613 21.6702 15.041L24.2349 14.3258C23.5691 11.8105 21.3496 10.2568 18.4397 10.2568C14.42 10.2568 12.0033 13.1668 11.9786 17.2851C12.0033 21.3294 14.3214 24.3133 18.415 24.3133Z" fill="white"/>
<path d="M10.9922 26.4095H24.9994V27.6425H10.9922V26.4095Z" fill="white"/>
</svg>
