<svg width="36" height="36" viewBox="0 0 36 36" fill="none" xmlns="http://www.w3.org/2000/svg">
<mask id="mask0_9277_394308" style="mask-type:alpha" maskUnits="userSpaceOnUse" x="0" y="0" width="36" height="36">
<rect width="36" height="36" rx="12" fill="#E0E6EF"/>
</mask>
<g mask="url(#mask0_9277_394308)">
<rect x="-7" y="0.0507812" width="49.9999" height="35.8974" rx="2.99145" fill="white"/>
<mask id="mask1_9277_394308" style="mask-type:alpha" maskUnits="userSpaceOnUse" x="-7" y="0" width="50" height="36">
<rect x="-7" y="0.0507812" width="49.9999" height="35.8974" rx="2.99145" fill="white"/>
</mask>
<g mask="url(#mask1_9277_394308)">
<rect x="-7" y="0.0507812" width="49.9999" height="35.8974" fill="#30C6E0"/>
<path fill-rule="evenodd" clip-rule="evenodd" d="M18.0003 25.1793C21.9451 25.1793 25.1431 21.9649 25.1431 17.9998C25.1431 14.0347 21.9451 10.8203 18.0003 10.8203C14.0554 10.8203 10.8574 14.0347 10.8574 17.9998C10.8574 21.9649 14.0554 25.1793 18.0003 25.1793Z" fill="#FFCD4B"/>
<path fill-rule="evenodd" clip-rule="evenodd" d="M15.0856 30.8317L17.9995 26.4597L20.9135 30.8317L21.6516 25.6218L26.1642 28.2901L24.5803 23.2743L29.7979 23.7103L26.2056 19.8819L31.0947 17.9994L26.2056 16.1168L29.7979 12.2884L24.5803 12.7244L26.1642 7.7086L21.6516 10.3769L20.9135 5.16699L17.9995 9.53904L15.0856 5.16699L14.3474 10.3769L9.83478 7.7086L11.4187 12.7244L6.20113 12.2884L9.7934 16.1168L4.9043 17.9994L9.7934 19.8819L6.20113 23.7103L11.4187 23.2743L9.83478 28.2901L14.3474 25.6218L15.0856 30.8317ZM26.3326 17.9991C26.3326 22.6251 22.6017 26.3751 17.9993 26.3751C13.397 26.3751 9.66602 22.6251 9.66602 17.9991C9.66602 13.3731 13.397 9.62305 17.9993 9.62305C22.6017 9.62305 26.3326 13.3731 26.3326 17.9991Z" fill="#FFCD4B"/>
<path fill-rule="evenodd" clip-rule="evenodd" d="M-4.61914 2.94291C-4.61914 2.66756 -4.39592 2.44434 -4.12057 2.44434H-2.73677C-2.46141 2.44434 -2.23819 2.66756 -2.23819 2.94291V4.33892C-2.23819 4.61427 -2.46141 4.83749 -2.73677 4.83749H-4.12057C-4.39592 4.83749 -4.61914 4.61427 -4.61914 4.33892V2.94291ZM-4.61914 7.72904C-4.61914 7.45369 -4.39592 7.23047 -4.12057 7.23047H-2.73677C-2.46141 7.23047 -2.23819 7.45369 -2.23819 7.72904V9.12505C-2.23819 9.40041 -2.46141 9.62363 -2.73677 9.62363H-4.12057C-4.39592 9.62363 -4.61914 9.40041 -4.61914 9.12505V7.72904ZM-4.12057 12.0176C-4.39592 12.0176 -4.61914 12.2408 -4.61914 12.5162V13.9122C-4.61914 14.1875 -4.39592 14.4107 -4.12057 14.4107H-2.73677C-2.46141 14.4107 -2.23819 14.1875 -2.23819 13.9122V12.5162C-2.23819 12.2408 -2.46141 12.0176 -2.73677 12.0176H-4.12057ZM-4.61914 17.3023C-4.61914 17.0269 -4.39592 16.8037 -4.12057 16.8037H-2.73677C-2.46141 16.8037 -2.23819 17.0269 -2.23819 17.3023V18.6983C-2.23819 18.9736 -2.46141 19.1969 -2.73677 19.1969H-4.12057C-4.39592 19.1969 -4.61914 18.9736 -4.61914 18.6983V17.3023ZM-4.12057 21.5898C-4.39592 21.5898 -4.61914 21.8131 -4.61914 22.0884V23.4844C-4.61914 23.7598 -4.39592 23.983 -4.12057 23.983H-2.73677C-2.46141 23.983 -2.23819 23.7598 -2.23819 23.4844V22.0884C-2.23819 21.8131 -2.46141 21.5898 -2.73677 21.5898H-4.12057ZM-4.61914 26.8745C-4.61914 26.5992 -4.39592 26.376 -4.12056 26.376H-2.73677C-2.46141 26.376 -2.23819 26.5992 -2.23819 26.8745V28.2705C-2.23819 28.5459 -2.46141 28.7691 -2.73677 28.7691H-4.12057C-4.39592 28.7691 -4.61914 28.5459 -4.61914 28.2705V26.8745ZM-4.12056 31.1622C-4.39592 31.1622 -4.61914 31.3854 -4.61914 31.6608V33.0568C-4.61914 33.3321 -4.39592 33.5553 -4.12057 33.5553H-2.73677C-2.46141 33.5553 -2.23819 33.3321 -2.23819 33.0568V31.6608C-2.23819 31.3854 -2.46141 31.1622 -2.73677 31.1622H-4.12056ZM-2.23828 29.2681C-2.23828 28.9928 -2.01506 28.7695 -1.73971 28.7695H-0.355907C-0.0805521 28.7695 0.142667 28.9928 0.142667 29.2681V30.6641C0.142667 30.9395 -0.0805531 31.1627 -0.355908 31.1627H-1.73971C-2.01506 31.1627 -2.23828 30.9395 -2.23828 30.6641V29.2681ZM-1.73971 23.9824C-2.01506 23.9824 -2.23828 24.2056 -2.23828 24.481V25.877C-2.23828 26.1524 -2.01506 26.3756 -1.73971 26.3756H-0.355908C-0.0805531 26.3756 0.142667 26.1524 0.142667 25.877V24.481C0.142667 24.2056 -0.0805521 23.9824 -0.355907 23.9824H-1.73971ZM-2.23828 19.6949C-2.23828 19.4195 -2.01506 19.1963 -1.73971 19.1963H-0.355907C-0.0805521 19.1963 0.142667 19.4195 0.142667 19.6949V21.0909C0.142667 21.3662 -0.0805531 21.5894 -0.355908 21.5894H-1.73971C-2.01506 21.5894 -2.23828 21.3662 -2.23828 21.0909V19.6949ZM-1.73961 14.4102C-2.01496 14.4102 -2.23818 14.6334 -2.23818 14.9087V16.3047C-2.23818 16.5801 -2.01496 16.8033 -1.73961 16.8033H-0.355809C-0.0804539 16.8033 0.142765 16.5801 0.142765 16.3047V14.9087C0.142765 14.6334 -0.0804534 14.4102 -0.355809 14.4102H-1.73961ZM-2.23828 10.1226C-2.23828 9.84724 -2.01506 9.62402 -1.73971 9.62402H-0.355907C-0.0805521 9.62402 0.142667 9.84724 0.142667 10.1226V11.5186C0.142667 11.794 -0.0805531 12.0172 -0.355908 12.0172H-1.73971C-2.01506 12.0172 -2.23828 11.794 -2.23828 11.5186V10.1226ZM-1.73971 4.83789C-2.01506 4.83789 -2.23828 5.06111 -2.23828 5.33647V6.73247C-2.23828 7.00783 -2.01506 7.23105 -1.73971 7.23105H-0.355908C-0.0805531 7.23105 0.142667 7.00783 0.142667 6.73247V5.33647C0.142667 5.06111 -0.0805521 4.83789 -0.355907 4.83789H-1.73971Z" fill="#FFCD4B"/>
</g>
</g>
</svg>
