<svg width="152" height="16" viewBox="0 0 152 16" fill="none" xmlns="http://www.w3.org/2000/svg">
<path fill-rule="evenodd" clip-rule="evenodd" d="M16.4378 8C16.4378 3.52542 12.904 0 8.20749 0C3.53378 0 0 3.52542 0 8C0 12.4746 3.53378 16 8.20749 16C12.904 16 16.4378 12.4746 16.4378 8ZM12.5164 7.9998C12.5164 10.4179 10.7153 12.4518 8.2075 12.4518C5.69965 12.4518 3.89857 10.4179 3.89857 7.9998C3.89857 5.58172 5.69965 3.54782 8.2075 3.54782C10.7153 3.54782 12.5164 5.58172 12.5164 7.9998Z" fill="#FBB100"/>
<path fill-rule="evenodd" clip-rule="evenodd" d="M112.328 13.0394H105.762L104.736 15.6835H100.633L107.221 0.22583H110.892L117.458 15.6835H113.377L112.328 13.0394ZM33.0576 15.6832V0.315976H29.2046V8.97134L21.7267 0.315976H18.7856V15.6832H22.6386V7.25383L30.0709 15.6832H33.0576ZM47.2839 15.6832V12.316H39.6235V0.315976H35.7706V15.6832H47.2839ZM52.9608 0.315976V15.6832H49.1078V0.315976H52.9608ZM69.9684 15.6832V0.315976H66.1155V8.97134L58.6375 0.315976H55.6965V15.6832H59.5495V7.25383L66.9818 15.6832H69.9684ZM76.5344 3.63801V6.44027H83.3968V9.69451H76.5344V12.3612H84.3999V15.6832H72.6814V0.315976H84.3999V3.63801H76.5344ZM100.268 11.412C100.268 9.7623 99.3103 8.18038 97.418 7.7736C98.7859 7.29903 99.5839 5.8301 99.5839 4.40637C99.5839 1.8979 97.6004 0.315976 94.249 0.315976H86.5887V15.6832H94.705C98.1932 15.6832 100.268 13.9657 100.268 11.412ZM90.4415 3.43502V6.57626H93.6561C95.0924 6.57626 95.8904 5.92089 95.8904 4.92654C95.8904 3.95479 95.138 3.43502 93.6561 3.43502H90.4415ZM94.2033 12.5195H90.4415V9.49124H94.2717C95.6852 9.49124 96.4832 9.96582 96.4832 10.915C96.4832 11.8189 95.7764 12.5195 94.2033 12.5195ZM109.045 4.67746L111.051 9.7848H107.039L109.045 4.67746ZM133.394 0.315976V15.6832H130.407L122.975 7.25383V15.6832H119.122V0.315976H122.063L129.541 8.97134V0.315976H133.394ZM139.96 12.5646L142.172 10.0335L146.503 15.6832H151.2L144.793 7.05044L150.698 0.315976H146.138L139.96 7.29903V0.315976H136.107V15.6832H139.96V12.5646Z" fill="#2A353D"/>
</svg>
