<svg width="48" height="20" viewBox="0 0 48 20" fill="none" xmlns="http://www.w3.org/2000/svg">
<rect x="19.2422" y="2.1377" width="9.52095" height="15.722" fill="#F78643"/>
<path d="M20.2225 9.99978C20.2201 6.93232 21.6129 4.03409 23.9996 2.14018C19.945 -1.08141 14.1225 -0.612161 10.6239 3.21816C7.12536 7.04847 7.12536 12.9539 10.6239 16.7842C14.1225 20.6145 19.945 21.0838 23.9996 17.8622C21.6121 15.9677 20.2193 13.0682 20.2225 9.99978Z" fill="#F2485B"/>
<path d="M39.9991 10.0007C39.999 13.8287 37.837 17.3206 34.4315 18.9934C31.0259 20.6662 26.9745 20.2262 23.998 17.8603C26.3837 15.9648 27.7766 13.067 27.7766 9.99932C27.7766 6.93169 26.3837 4.03385 23.998 2.13833C26.9745 -0.227577 31.0259 -0.66756 34.4315 1.00524C37.837 2.67805 39.999 6.16995 39.9991 9.99794V10.0007Z" fill="#FFBD5B"/>
</svg>
