<svg width="140" height="140" viewBox="0 0 140 140" fill="none" xmlns="http://www.w3.org/2000/svg">
<circle opacity="0.2" cx="70" cy="70" r="50" fill="#F1B042"/>
<circle cx="70" cy="70" r="29.25" fill="white" stroke="#505C64" stroke-width="1.5"/>
<circle cx="70.2002" cy="80.4424" r="3.25883" fill="#F2AA1A"/>
<path d="M67.1168 58.9821C67.0217 57.3642 68.308 56 69.9287 56C71.5493 56 72.8357 57.3642 72.7405 58.9821L71.8296 74.4667H68.0277L67.1168 58.9821Z" fill="#F2AA1A"/>
<circle cx="70" cy="70" r="27.5" stroke="#FFD3A6" stroke-width="5"/>
<path d="M93 50.7375C97.3692 55.949 100 62.6673 100 70C100 86.5685 86.5685 100 70 100C53.4315 100 40 86.5685 40 70C40 53.4315 53.4315 40 70 40C74.3311 40 78.4479 40.9178 82.1664 42.5696" stroke="#505C64" stroke-width="1.5" stroke-linecap="round"/>
<circle cx="88.5" cy="46.5" r="1.5" fill="#505C64"/>
</svg>
