<svg width="24" height="24" viewBox="0 0 24 24" fill="none" xmlns="http://www.w3.org/2000/svg">
<path d="M12 7C8.86631 7 6.46146 8.8546 4.44641 11.4136C4.17532 11.7578 4.17532 12.2422 4.44641 12.5864C6.46146 15.1454 8.86631 17 12 17C15.1337 17 17.5385 15.1454 19.5536 12.5864C19.8247 12.2422 19.8247 11.7578 19.5536 11.4136C17.5385 8.8546 15.1337 7 12 7Z" stroke="#829199" stroke-width="1.5" stroke-linecap="round" stroke-linejoin="round"/>
<path d="M14 12C14 13.1046 13.1046 14 12 14C10.8954 14 10 13.1046 10 12C10 10.8954 10.8954 10 12 10C13.1046 10 14 10.8954 14 12Z" stroke="#829199" stroke-width="1.5" stroke-linecap="round" stroke-linejoin="round"/>
</svg>
