<svg width="24" height="24" viewBox="0 0 24 24" fill="none" xmlns="http://www.w3.org/2000/svg">
<path d="M13.276 10.4097C13.4838 10.6176 13.6523 10.8607 13.7718 11.1253C13.8913 11.3899 13.9595 11.6708 13.9724 11.9518C13.9853 12.2328 13.9428 12.5086 13.8472 12.7633C13.7516 13.018 13.6048 13.2466 13.4152 13.4362C13.2256 13.6258 12.9969 13.7726 12.7422 13.8682C12.4875 13.9637 12.2118 14.0063 11.9308 13.9934C11.6497 13.9804 11.3689 13.9122 11.1043 13.7927C10.8397 13.6732 10.5965 13.5047 10.3887 13.2969" stroke="#829199" stroke-width="1.5" stroke-linecap="round"/>
<path d="M11.9996 7C8.72359 7.07066 6.65776 8.8067 4.49357 11.3252C4.18023 11.6899 4.18209 12.2273 4.47036 12.6121C4.87606 13.1536 5.15268 13.553 5.80075 14.0872M8.15051 15.9929C9.31514 16.5052 10.6005 17 11.9996 17C15.473 17 17.5366 14.957 19.5422 12.6386C19.8601 12.2711 19.8637 11.7263 19.5529 11.3527C18.3953 9.96121 17.3604 8.80565 15.7819 8.02777" stroke="#829199" stroke-width="1.5" stroke-linecap="round" stroke-linejoin="round"/>
<path d="M17.1732 5.65737L5.42278 18.0963" stroke="#829199" stroke-width="1.5" stroke-linecap="round" stroke-linejoin="round"/>
</svg>
