<svg width="24" height="24" viewBox="0 0 24 24" fill="none" xmlns="http://www.w3.org/2000/svg">
<path d="M14.3896 4L6 4C4.89543 4 4 4.89543 4 6L4 19C4 20.1046 4.89543 21 6 21L17 21C18.1046 21 19 20.1046 19 19V9.1M14.3896 4L19 9.1M14.3896 4V7.1C14.3896 8.20457 15.285 9.1 16.3896 9.1H19" stroke="#505C64" stroke-width="1.5"/>
<path d="M13.7598 10.8438L7.75977 15.8438" stroke="#505C64" stroke-width="1.3"/>
<ellipse cx="8.74981" cy="10.6366" rx="1.51452" ry="1.5" transform="rotate(52.81 8.74981 10.6366)" stroke="#505C64" stroke-width="1.3"/>
<path d="M13.6651 17.5308C13.0051 18.0316 12.0642 17.9026 11.5636 17.2427C11.0629 16.5828 11.192 15.6419 11.8519 15.1412C12.5119 14.6404 13.4528 14.7694 13.9535 15.4293C14.4542 16.0892 14.325 17.0301 13.6651 17.5308Z" stroke="#505C64" stroke-width="1.3"/>
</svg>
