<svg width="24" height="24" viewBox="0 0 24 24" fill="none" xmlns="http://www.w3.org/2000/svg">
<path d="M12.5 5.35872C12.9665 4.26792 14.0817 3.5 15.3833 3.5C17.1046 3.5 18.5 4.84315 18.5 6.5C18.5 8.15685 17.1046 9.5 15.3833 9.5C14.5619 9.5 13.8148 9.19419 13.258 8.69441" stroke="#505C64" stroke-width="1.3"/>
<circle cx="10" cy="8" r="3.5" stroke="#505C64" stroke-width="1.3"/>
<path d="M16.5 18.75C16.5 20.15 11.7333 20.5 10 20.5C8.26667 20.5 3.5 20.15 3.5 18.75C3.5 15.8505 6.41015 13.5 10 13.5C13.5899 13.5 16.5 15.8505 16.5 18.75Z" stroke="#505C64" stroke-width="1.5"/>
<path d="M11 13.5C12.0016 12.5 13.8334 11.5 15.4194 11.5C18.2254 11.5 20.5 13.5295 20.5 16.033C20.5 16.9922 17.6458 17.3805 16 17.5" stroke="#505C64" stroke-width="1.5"/>
</svg>
