<svg width="140" height="140" viewBox="0 0 140 140" fill="none" xmlns="http://www.w3.org/2000/svg">
<circle cx="70" cy="70" r="50" fill="#FCEFD9"/>
<path d="M46.8655 65.8935C44.6857 57.7581 49.5136 49.396 57.6489 47.2162L78.9895 41.498C80.1898 41.1764 81.4235 41.8887 81.7451 43.089L90.7576 76.7238C92.9374 84.8592 88.1096 93.2213 79.9742 95.4012L58.6337 101.119C57.4334 101.441 56.1996 100.729 55.878 99.5284L46.8655 65.8935Z" fill="#ACBBBE" stroke="#505C64" stroke-width="1.5"/>
<path d="M49.0156 60.3984C49.0156 51.9761 55.8433 45.1484 64.2656 45.1484H86.359C87.6016 45.1484 88.609 46.1558 88.609 47.3984V82.2198C88.609 90.6422 81.7813 97.4698 73.359 97.4698H51.2656C50.023 97.4698 49.0156 96.4624 49.0156 95.2198V60.3984Z" fill="white" stroke="#505C64" stroke-width="1.5"/>
<path fill-rule="evenodd" clip-rule="evenodd" d="M57.9093 56C57.4072 56 57.0002 56.407 57.0002 56.9091C57.0002 57.4113 57.4072 57.8183 57.9093 57.8183H70.5277C71.0298 57.8183 71.4368 57.4113 71.4368 56.9091C71.4368 56.407 71.0298 56 70.5277 56H57.9093ZM57.9091 61.8183C57.407 61.8183 57 62.2253 57 62.7274C57 63.2296 57.407 63.6366 57.9091 63.6366H81.0909C81.593 63.6366 82 63.2296 82 62.7274C82 62.2253 81.593 61.8183 81.0909 61.8183H57.9091ZM57 68.5457C57 68.0436 57.407 67.6366 57.9091 67.6366H81.0909C81.593 67.6366 82 68.0436 82 68.5457C82 69.0479 81.593 69.4549 81.0909 69.4549H57.9091C57.407 69.4549 57 69.0479 57 68.5457ZM57.9091 73.4549C57.407 73.4549 57 73.8619 57 74.364C57 74.8662 57.407 75.2732 57.9091 75.2732H81.0909C81.593 75.2732 82 74.8662 82 74.364C82 73.8619 81.593 73.4549 81.0909 73.4549H57.9091Z" fill="#ACBBBE"/>
<path d="M69.6102 93.1999C69.2612 93.3205 68.9127 93.3489 68.5799 93.1999C68.0648 92.9692 68.0017 92.7638 67.8073 92.4272L67.7555 92.299C67.6418 92.0176 67.7563 91.6957 68.0221 91.5493L68.0438 91.5374C68.3192 91.3856 68.6655 91.4836 68.8206 91.7571C68.8965 91.8862 68.9623 91.9411 68.9811 91.9501C69.0513 91.9725 69.1307 91.9761 69.2144 91.9472C69.4609 91.8464 69.6502 91.6257 69.8112 91.3681C69.5814 91.2457 69.3746 91.0997 69.191 90.9302C67.9203 89.7852 67.0184 87.9401 67.2921 86.2457C67.3851 85.7011 67.549 85.2957 67.8073 84.9579C68.1715 84.4748 68.9437 84.065 69.4854 84.0952C69.9804 84.126 70.8246 84.4977 71.1555 84.9579C71.425 85.3307 71.5787 85.8892 71.6707 86.2457C71.9662 87.4172 71.9068 88.6362 71.6707 89.8516C71.6353 90.0657 71.4712 90.3402 71.4131 90.6243C71.7446 90.634 71.9415 90.5697 72.1866 90.3296C72.3995 90.1318 72.509 89.861 72.6408 89.4737C72.7865 89.0817 72.8302 88.7559 72.7945 88.4266C72.7496 88.1159 72.9037 87.5794 73.216 87.5335C73.4398 87.5028 73.8749 87.5975 73.9887 87.7911C74.1444 87.9703 74.8545 88.7073 75.019 88.8214C75.3901 89.0814 75.6525 89.1736 75.7916 89.0789C75.9396 88.9782 75.9786 88.6451 76.0429 88.4266C76.1651 88.0116 76.3294 87.7031 76.3068 87.276C76.2907 87.0486 76.3458 86.5806 76.5643 86.4895C76.7781 86.3846 77.1722 86.3428 77.337 86.5033L77.8521 87.0184C78.2995 87.454 78.6134 87.8451 79.0343 87.9326C79.3055 87.9941 79.5933 87.8312 79.6551 87.7911C79.7168 87.751 79.9126 87.276 79.9126 87.276L79.9512 87.1995C80.0818 86.9409 80.3689 86.8013 80.6529 86.8584L80.7316 86.8742C81.0353 86.9352 81.2327 87.2299 81.1735 87.534C81.0797 87.9857 80.9771 88.5027 80.4297 88.8627C79.9472 89.1848 79.3462 89.2994 78.7757 89.1859C78.1913 89.0773 77.726 88.7256 77.3448 88.3914C77.3182 88.5404 77.2868 88.6755 77.2414 88.8154C77.1009 89.2678 76.888 89.9627 76.2707 90.3469C75.4865 90.8354 74.763 90.3244 74.3356 90.0373L74.2274 89.9504C74.2274 89.9504 74.0159 89.7905 73.7713 89.58C73.7394 89.6687 73.7076 89.7573 73.6805 89.8599C73.5348 90.2519 73.3572 90.7327 72.9502 91.1374C72.3857 91.6742 71.6901 91.9079 70.9517 91.8059C70.686 92.3481 70.2845 92.9357 69.68 93.1758C69.666 93.1806 69.6381 93.1902 69.6102 93.1999ZM69.3223 85.4332C69.1967 85.4766 69.0715 85.5665 68.9886 85.6883C68.8503 85.8759 68.7548 86.1419 68.6928 86.505C68.4854 87.8037 68.9885 89.214 69.9675 90.1026C70.0382 90.1714 70.1228 90.2354 70.2213 90.2945C70.2798 90.0568 70.3152 89.8427 70.351 89.675C70.5465 88.6134 70.5271 87.5174 70.2655 86.4895C70.2071 86.2301 70.1204 85.9339 69.9503 85.7132C69.8274 85.5382 69.649 85.429 69.4854 85.4079C69.4388 85.4085 69.3781 85.4139 69.3223 85.4332Z" fill="#505C64"/>
<path d="M97.6504 75.6031V68.9531L101.5 72.1031L97.6504 75.6031Z" fill="#FCEFD9"/>
<path d="M90.7236 73.6645L90.7259 73.6623C93.8406 70.7548 97.294 68.2507 101.113 66.314C103.322 65.1975 105.816 64.573 108.327 64.1845L108.413 64.1713L108.494 64.1388L108.551 64.1155L108.191 62.6743C107.482 62.7494 106.805 62.8732 106.15 62.993C105.945 63.0305 105.742 63.0675 105.541 63.1026C100.543 63.9433 96.5694 66.3352 92.591 69.1538L92.591 69.1537L92.5834 69.1592C89.8307 71.1613 87.3437 73.7883 85.1683 76.4388C85.2334 75.7671 85.3181 75.0763 85.4355 74.399C85.6522 73.15 85.9724 71.9979 86.4537 71.1155L86.4537 71.1156L86.4587 71.1062C90.001 64.3871 95.7544 61.0517 103.239 60.4329C104.816 60.316 106.42 60.3501 107.953 60.5401L107.953 60.5402L107.966 60.5416C110.271 60.7856 112.696 61.5846 114.229 62.1608C113.669 62.6155 113.115 63.1856 112.683 63.6566C112.4 63.9655 112.156 64.2462 111.983 64.4452L111.704 64.7521C111.211 65.2935 110.739 65.9723 110.307 66.5926C110.169 66.791 110.035 66.9834 109.905 67.1635C109.865 67.2071 109.836 67.2467 109.817 67.2729C109.786 67.3163 109.757 67.3609 109.741 67.3861L109.738 67.3905C109.734 67.3973 109.73 67.403 109.727 67.408L109.711 67.4215L109.661 67.4892C109.542 67.6483 109.224 67.8483 108.618 68.0114C108.046 68.1655 107.351 68.2521 106.658 68.2951C105.971 68.3379 105.312 68.3362 104.824 68.3236C104.58 68.3173 104.38 68.3083 104.243 68.301C104.174 68.2973 104.12 68.294 104.085 68.2917L104.045 68.2891L104.036 68.2884L104.034 68.2883L104.034 68.2883L104.034 68.2883C104.034 68.2883 104.034 68.2883 104.034 68.2893L103.725 69.7421L107.068 70.9418C106.574 71.5189 106.072 72.0569 105.612 72.5362L105.456 72.6205L105.426 72.691L105.366 72.7504C103.922 74.1819 102.603 75.1853 101.624 75.839C101.134 76.1659 100.73 76.4049 100.439 76.5661C100.293 76.6467 100.176 76.7075 100.091 76.7497C100.048 76.7708 100.015 76.7869 99.9903 76.7982C99.9767 76.8045 99.9674 76.8087 99.962 76.8111C99.957 76.8133 99.9552 76.814 99.9561 76.8137L99.9141 76.8306L99.8742 76.8527C97.7057 78.052 95.3722 78.8664 92.8719 79.3864L92.8716 79.3864C91.6044 79.6505 90.3211 79.8325 89.0204 80.017C88.412 80.1033 87.7997 80.1901 87.1835 80.2862L87.1717 80.288L87.16 80.2902C87.1266 80.2965 87.1035 80.3003 87.0621 80.3076C87.0278 80.3136 86.9776 80.3227 86.9249 80.3357C86.8137 80.3632 86.6453 80.4183 86.4844 80.5554C86.4864 80.5537 86.4887 80.5529 86.4555 80.5747L86.4511 80.5776C86.4188 80.5988 86.3584 80.6384 86.2902 80.6951L86.2864 80.6982L86.2486 80.728L86.1043 80.8417C85.9797 80.9399 85.8008 81.0807 85.5841 81.251C85.1506 81.5917 84.566 82.0503 83.9608 82.5223C83.658 82.7586 83.3534 82.9955 83.0617 83.2215C85.2167 79.7017 87.703 76.4602 90.7236 73.6645ZM105.427 72.8007C105.425 72.8055 105.424 72.8072 105.425 72.8065L105.427 72.8007Z" fill="#0DA882" stroke="#505C64" stroke-width="1.5"/>
<path d="M107.47 63.0721C109.788 62.8146 109.531 63.3297 109.531 63.3297C109.531 63.3297 109.016 63.8448 106.955 64.1024" stroke="#505C64" stroke-width="2.3"/>
<path d="M104.121 68.4766C103.864 68.4766 101.803 68.7341 104.379 69.7644" stroke="#505C64" stroke-width="2"/>
</svg>
