<svg width="24" height="24" viewBox="0 0 24 24" fill="none" xmlns="http://www.w3.org/2000/svg">
<g clip-path="url(#clip0_11481_17985)">
<path fill-rule="evenodd" clip-rule="evenodd" d="M20.7955 12.9929C21.8392 11.8693 22.3039 10.2502 21.7893 8.80482C21.7321 8.64482 21.6649 8.48755 21.5887 8.33301C20.3027 5.75671 16.8747 5.20036 14.8409 7.23667L13.0166 9.06481L11.1915 7.23667C9.15853 5.20036 5.73061 5.75671 4.44458 8.33301C3.63411 9.95752 3.95176 11.9193 5.23417 13.2038L6.50115 14.4738L13.0166 21L16.5453 17.4655L17.9466 16.0619L20.7955 12.9929Z" stroke="#505C64" stroke-width="1.3" stroke-linecap="round" stroke-linejoin="round"/>
<path d="M2 13.4H7.6L9.46667 11L10.4 15L12.2667 12.6H16" stroke="#505C64" stroke-width="1.3" stroke-linecap="round" stroke-linejoin="round"/>
</g>
<defs>
<clipPath id="clip0_11481_17985">
<rect width="24" height="24" fill="white"/>
</clipPath>
</defs>
</svg>
