<svg width="24" height="24" viewBox="0 0 24 24" fill="none" xmlns="http://www.w3.org/2000/svg">
<g clip-path="url(#clip0_11481_70617)">
<path d="M12.5 3C11.938 4.54295 10.6481 5.36757 9 4.84112" stroke="#505C64" stroke-width="1.2" stroke-linecap="round" stroke-linejoin="round"/>
<path d="M17.9995 8.5C16.9997 7.85774 15.6584 6.38355 15.9995 4.5" stroke="#505C64" stroke-width="1.2" stroke-linecap="round" stroke-linejoin="round"/>
<path d="M10 11C10 9.90267 11.1283 9 12.5 9C13.8717 9 15 9.90267 15 11" stroke="#505C64" stroke-width="1.2" stroke-linecap="round" stroke-linejoin="round"/>
<path d="M7 11L9.23184 3.98539C9.57646 2.90226 10.7533 2.32371 11.8215 2.7123L17.1834 4.66297C18.1965 5.03155 18.7352 6.13685 18.4012 7.16193L17.1509 11" stroke="#505C64" stroke-width="1.2" stroke-linecap="round" stroke-linejoin="round"/>
<path d="M19 16V18C19 19.1046 18.1046 20 17 20H6C4.89543 20 4 19.1046 4 18L4 10.76V10.76C4 9.78798 4.78798 9 5.76 9H7.52941" stroke="#505C64" stroke-width="1.2" stroke-linecap="round" stroke-linejoin="round"/>
<path d="M4 11L17 11C18.1046 11 19 11.8954 19 13V15" stroke="#505C64" stroke-width="1.2" stroke-linecap="round" stroke-linejoin="round"/>
<path fill-rule="evenodd" clip-rule="evenodd" d="M16 15.5C16 16.052 16.42 16.5 16.9375 16.5H19V14.5H16.9375C16.42 14.5 16 14.948 16 15.5Z" stroke="#505C64" stroke-width="1.2" stroke-linecap="round" stroke-linejoin="round"/>
</g>
<defs>
<clipPath id="clip0_11481_70617">
<rect width="24" height="24" fill="white"/>
</clipPath>
</defs>
</svg>
