<svg width="36" height="36" viewBox="0 0 36 36" fill="none" xmlns="http://www.w3.org/2000/svg">
<rect width="36" height="36" rx="12" fill="#F3F3F3"/>
<path d="M20.6136 18.6589C23.8638 18.6589 26.4986 17.4888 26.4986 16.0453C26.4986 14.6018 23.8638 13.4316 20.6136 13.4316C17.3633 13.4316 14.7285 14.6018 14.7285 16.0453C14.7285 17.4888 17.3633 18.6589 20.6136 18.6589Z" stroke="#505C64" stroke-width="1.5" stroke-linecap="round" stroke-linejoin="round"/>
<path d="M14.7285 16.0449V23.8859C14.7285 25.3234 17.3441 26.4995 20.6136 26.4995C23.8831 26.4995 26.4986 25.3234 26.4986 23.8859V16.0449" stroke="#505C64" stroke-width="1.5" stroke-linecap="round" stroke-linejoin="round"/>
<path d="M26.4986 19.9648C26.4986 21.4023 23.8831 22.5785 20.6136 22.5785C17.3441 22.5785 14.7285 21.4023 14.7285 19.9648" stroke="#505C64" stroke-width="1.5" stroke-linecap="round" stroke-linejoin="round"/>
<path d="M20.4855 10.8183C18.9573 9.87591 17.1785 9.42014 15.3851 9.51147C12.1287 9.51147 9.5 10.6876 9.5 12.1251C9.5 12.8961 10.2585 13.5888 11.4617 14.0853" stroke="#505C64" stroke-width="1.5" stroke-linecap="round" stroke-linejoin="round"/>
<path d="M11.4617 21.9262C10.2585 21.4296 9.5 20.737 9.5 19.9659V12.125" stroke="#505C64" stroke-width="1.5" stroke-linecap="round" stroke-linejoin="round"/>
<path d="M11.4617 18.0052C10.2585 17.5086 9.5 16.8159 9.5 16.0449" stroke="#505C64" stroke-width="1.5" stroke-linecap="round" stroke-linejoin="round"/>
</svg>
