<svg width="24" height="24" viewBox="0 0 24 24" fill="none" xmlns="http://www.w3.org/2000/svg">
<path d="M15.1716 3.28125H6.41259C5.87784 3.28125 5.44434 3.71475 5.44434 4.2495V19.7416C5.44434 20.2763 5.87784 20.7098 6.41259 20.7098H18.0316C18.5664 20.7098 18.9999 20.2763 18.9999 19.7416V7.51807C18.9999 7.28354 18.9148 7.05698 18.7603 6.88047L15.9003 3.6119C15.7165 3.40178 15.4508 3.28125 15.1716 3.28125Z" stroke="#11BB91" stroke-width="1.5"/>
<path d="M7.47705 17.6153C7.47705 17.795 7.54846 17.9674 7.67557 18.0945C7.80268 18.2216 7.97507 18.2931 8.15483 18.2931H16.2882C16.4679 18.2931 16.6403 18.2216 16.7674 18.0945C16.8945 17.9674 16.9659 17.795 16.9659 17.6153C16.9659 17.4355 16.8945 17.2631 16.7674 17.136C16.6403 17.0089 16.4679 16.9375 16.2882 16.9375H8.15483C7.97507 16.9375 7.80268 17.0089 7.67557 17.136C7.54846 17.2631 7.47705 17.4355 7.47705 17.6153Z" fill="#11BB91"/>
<path d="M8.75586 14.9016H9.54595V12.9961L11.2133 14.9016H12.2125L10.3535 12.7811L12.1021 10.7188H11.1378L9.54595 12.6475V10.7188H8.75586V14.9016Z" fill="#11BB91"/>
<path d="M12.6194 14.9016H15.9308V14.158H14.0137L15.9889 10.8175V10.7188H12.7937V11.4566H14.6063L12.6194 14.8028V14.9016Z" fill="#11BB91"/>
</svg>
