<svg width="16" height="16" viewBox="0 0 16 16" fill="none" xmlns="http://www.w3.org/2000/svg">
<path d="M13.75 7.85714C13.75 7.44293 13.4142 7.10714 13 7.10714C12.5858 7.10714 12.25 7.44293 12.25 7.85714H13.75ZM11.0933 3.81633L11.3651 4.51534C11.7439 4.36803 11.9365 3.94576 11.7993 3.56316L11.0933 3.81633ZM12.25 7.85714C12.25 10.3033 10.3274 12.25 8 12.25V13.75C11.1954 13.75 13.75 11.0916 13.75 7.85714H12.25ZM8 12.25C5.67257 12.25 3.75 10.3033 3.75 7.85714H2.25C2.25 11.0916 4.80459 13.75 8 13.75V12.25ZM3.75 7.85714C3.75 5.41098 5.67257 3.46429 8 3.46429V1.96429C4.80459 1.96429 2.25 4.62266 2.25 7.85714H3.75ZM8 3.46429C8.98775 3.46429 9.89699 3.81178 10.6209 4.39884L11.5657 3.23381C10.5875 2.44048 9.348 1.96429 8 1.96429V3.46429ZM11.7993 3.56316L10.7893 0.746832L9.37735 1.25317L10.3873 4.06949L11.7993 3.56316ZM10.8215 3.11731L8.14485 4.15813L8.68848 5.55615L11.3651 4.51534L10.8215 3.11731Z" fill="#FBB100"/>
</svg>
