<svg width="24" height="24" viewBox="0 0 24 24" fill="none" xmlns="http://www.w3.org/2000/svg">
<path d="M24 0H0V24H24V0Z" fill="white" fill-opacity="0.01"/>
<circle cx="7.97991" cy="10.2748" r="5.05999" stroke="#829199" stroke-width="1.5"/>
<path d="M11.3164 14.4961L15.6054 18.7851" stroke="#829199" stroke-width="1.5" stroke-linecap="round" stroke-linejoin="round"/>
<path d="M15.8926 4.46484C15.4784 4.46484 15.1426 4.80063 15.1426 5.21484C15.1426 5.62906 15.4784 5.96484 15.8926 5.96484V4.46484ZM21.219 5.96484C21.6332 5.96484 21.969 5.62906 21.969 5.21484C21.969 4.80063 21.6332 4.46484 21.219 4.46484V5.96484ZM15.8926 5.96484H21.219V4.46484H15.8926V5.96484Z" fill="#829199"/>
<path d="M16.9512 8.55859C16.537 8.55859 16.2012 8.89438 16.2012 9.30859C16.2012 9.72281 16.537 10.0586 16.9512 10.0586L16.9512 8.55859ZM21.2178 10.0586C21.6321 10.0586 21.9678 9.72281 21.9678 9.30859C21.9678 8.89438 21.6321 8.55859 21.2178 8.55859L21.2178 10.0586ZM16.9512 10.0586L21.2178 10.0586L21.2178 8.55859L16.9512 8.55859L16.9512 10.0586Z" fill="#829199"/>
<path d="M19.0859 12.6523C18.6717 12.6523 18.3359 12.9881 18.3359 13.4023C18.3359 13.8166 18.6717 14.1523 19.0859 14.1523L19.0859 12.6523ZM21.2188 14.1523C21.633 14.1523 21.9688 13.8166 21.9688 13.4023C21.9688 12.9881 21.633 12.6523 21.2188 12.6523L21.2188 14.1523ZM19.0859 14.1523L21.2188 14.1523L21.2188 12.6523L19.0859 12.6523L19.0859 14.1523Z" fill="#829199"/>
</svg>
