<svg width="36" height="36" viewBox="0 0 36 36" fill="none" xmlns="http://www.w3.org/2000/svg">
<rect width="36" height="36" rx="12" fill="#D9B681"/>
<path d="M10.7784 23.9996H12.9184V18.7996L17.4384 23.9996H20.2784L15.3384 18.5996L19.8184 13.1996H17.1584L12.9184 18.3996V9.59961H10.7984L10.7784 23.9996Z" fill="white"/>
<path d="M24.1467 13.8196C23.7467 14.0796 23.4067 14.4796 23.1467 14.9196V13.1996H21.2867V23.9996H23.3867V18.5396C23.3867 17.2796 23.7467 16.1396 24.7667 15.4996C25.4667 15.0196 26.4067 14.9796 27.1067 15.1596V13.1996C26.1467 13.0196 24.9667 13.1996 24.1467 13.8196Z" fill="white"/>
<path d="M9.39844 25.9996H27.6067V26.9996H9.39844V25.9996Z" fill="white"/>
</svg>
