<svg width="36" height="36" viewBox="0 0 36 36" fill="none" xmlns="http://www.w3.org/2000/svg">
<path d="M0 12C0 5.37258 5.37258 0 12 0H24C30.6274 0 36 5.37258 36 12V24C36 30.6274 30.6274 36 24 36H12C5.37258 36 0 30.6274 0 24V12Z" fill="#E9EFF0"/>
<path fill-rule="evenodd" clip-rule="evenodd" d="M18.24 13.84C19.3004 13.84 20.16 12.9804 20.16 11.92C20.16 10.8596 19.3004 10 18.24 10C17.1796 10 16.32 10.8596 16.32 11.92C16.32 12.9804 17.1796 13.84 18.24 13.84ZM17.28 17.68C16.5731 17.68 16 17.1069 16 16.4C16 15.6931 16.5731 15.12 17.28 15.12H18.56C19.2227 15.12 19.7678 15.6237 19.8334 16.2691C19.8378 16.3122 19.84 16.3558 19.84 16.4V23.44C20.5469 23.44 21.12 24.0131 21.12 24.72C21.12 25.4269 20.5469 26 19.84 26H17.28C16.5731 26 16 25.4269 16 24.72C16 24.0131 16.5731 23.44 17.28 23.44L17.28 17.68Z" fill="#88999C"/>
</svg>
