<svg width="36" height="36" viewBox="0 0 36 36" fill="none" xmlns="http://www.w3.org/2000/svg">
<rect width="36" height="36" rx="12" fill="#E9EFF0"/>
<path d="M21.1304 10.6357C20.1689 10.2264 19.1109 10 18 10C13.5817 10 10 13.5817 10 18C10 22.4183 13.5817 26 18 26C22.4183 26 26 22.4183 26 18C26 17.1201 25.858 16.2734 25.5955 15.4816" stroke="#88999C" stroke-width="1.5"/>
<path d="M23.4852 12.5345C23.312 12.3567 23.1054 12.2988 22.9951 12.2764C22.87 12.251 22.7469 12.2476 22.6427 12.2512C22.4323 12.2586 22.1923 12.2992 21.9443 12.3584C21.4418 12.4784 20.8046 12.6998 20.1059 13.0162C18.7086 13.649 16.9924 14.6951 15.5459 16.1791L16.62 17.2261C17.9079 15.9049 19.4567 14.9568 20.7247 14.3826C21.3585 14.0956 21.904 13.9102 22.2928 13.8174C22.4905 13.7702 22.6233 13.7528 22.6952 13.7503C22.7322 13.749 22.7277 13.7527 22.6963 13.7463C22.6798 13.743 22.5421 13.7161 22.4107 13.5812L23.4852 12.5345ZM15.5459 16.1791C13.9841 17.7814 13.8766 19.763 14.9852 20.9402C15.5256 21.5141 16.3071 21.8181 17.1672 21.7371C18.0206 21.6566 18.8955 21.206 19.6976 20.3827L18.6233 19.3359C18.0053 19.9702 17.4436 20.2044 17.0265 20.2437C16.616 20.2823 16.2929 20.1409 16.0772 19.9119C15.6736 19.4833 15.4475 18.429 16.62 17.2261L15.5459 16.1791ZM19.6976 20.3827C21.1808 18.8604 22.2549 17.178 22.9183 15.8244C23.2494 15.1488 23.4866 14.538 23.6198 14.0551C23.6855 13.817 23.7332 13.5838 23.7463 13.3765C23.7528 13.2737 23.7527 13.1507 23.7296 13.0243C23.7086 12.9094 23.654 12.7078 23.4852 12.5345L22.4107 13.5812C22.2838 13.4509 22.2583 13.3173 22.254 13.2935C22.2475 13.2581 22.2514 13.2494 22.2493 13.2819C22.2453 13.3455 22.2256 13.4683 22.1738 13.6563C22.072 14.0253 21.874 14.5468 21.5714 15.1643C20.9674 16.3967 19.9803 17.9431 18.6233 19.3359L19.6976 20.3827Z" fill="#88999C"/>
</svg>
