<svg width="120" height="120" viewBox="0 0 120 120" fill="none" xmlns="http://www.w3.org/2000/svg">
<path d="M3.63619 0H0V3.63619H3.63619V0Z" fill="#2A353D"/>
<path d="M3.6368 3.63281H0.000610352V7.26901H3.6368V3.63281Z" fill="#2A353D"/>
<path d="M3.6368 7.27734H0.000610352V10.9135H3.6368V7.27734Z" fill="#2A353D"/>
<path d="M3.6368 10.9062H0.000610352V14.5424H3.6368V10.9062Z" fill="#2A353D"/>
<path d="M3.63619 14.5469H0V18.1831H3.63619V14.5469Z" fill="#2A353D"/>
<path d="M3.6368 18.1797H0.000610352V21.8159H3.6368V18.1797Z" fill="#2A353D"/>
<path d="M3.63619 21.8203H0V25.4565H3.63619V21.8203Z" fill="#2A353D"/>
<path d="M3.6368 29.0938H0.000610352V32.7299H3.6368V29.0938Z" fill="#2A353D"/>
<path d="M3.63619 32.7266H0V36.3628H3.63619V32.7266Z" fill="#2A353D"/>
<path d="M3.6368 47.2695H0.000610352V50.9057H3.6368V47.2695Z" fill="#2A353D"/>
<path d="M3.63619 61.8125H0V65.4487H3.63619V61.8125Z" fill="#2A353D"/>
<path d="M3.63619 69.0859H0V72.7221H3.63619V69.0859Z" fill="#2A353D"/>
<path d="M3.63619 76.3594H0V79.9956H3.63619V76.3594Z" fill="#2A353D"/>
<path d="M3.6368 83.6328H0.000610352V87.269H3.6368V83.6328Z" fill="#2A353D"/>
<path d="M3.63619 94.5469H0V98.1831H3.63619V94.5469Z" fill="#2A353D"/>
<path d="M3.63619 98.1758H0V101.812H3.63619V98.1758Z" fill="#2A353D"/>
<path d="M3.6368 101.816H0.000610352V105.453H3.6368V101.816Z" fill="#2A353D"/>
<path d="M3.63619 105.449H0V109.085H3.63619V105.449Z" fill="#2A353D"/>
<path d="M3.6368 109.094H0.000610352V112.73H3.6368V109.094Z" fill="#2A353D"/>
<path d="M3.6368 112.723H0.000610352V116.359H3.6368V112.723Z" fill="#2A353D"/>
<path d="M3.63619 116.363H0V119.999H3.63619V116.363Z" fill="#2A353D"/>
<path d="M7.26901 0H3.63281V3.63619H7.26901V0Z" fill="#2A353D"/>
<path d="M7.26901 21.8203H3.63281V25.4565H7.26901V21.8203Z" fill="#2A353D"/>
<path d="M7.26901 29.0938H3.63281V32.7299H7.26901V29.0938Z" fill="#2A353D"/>
<path d="M7.26901 32.7266H3.63281V36.3628H7.26901V32.7266Z" fill="#2A353D"/>
<path d="M7.26901 36.3633H3.63281V39.9995H7.26901V36.3633Z" fill="#2A353D"/>
<path d="M7.26901 50.9062H3.63281V54.5424H7.26901V50.9062Z" fill="#2A353D"/>
<path d="M7.26901 76.3594H3.63281V79.9956H7.26901V76.3594Z" fill="#2A353D"/>
<path d="M7.26901 87.2734H3.63281V90.9096H7.26901V87.2734Z" fill="#2A353D"/>
<path d="M7.26901 94.5469H3.63281V98.1831H7.26901V94.5469Z" fill="#2A353D"/>
<path d="M7.26901 116.363H3.63281V119.999H7.26901V116.363Z" fill="#2A353D"/>
<path d="M10.9105 0H7.27429V3.63619H10.9105V0Z" fill="#2A353D"/>
<path d="M10.9105 7.27734H7.27429V10.9135H10.9105V7.27734Z" fill="#2A353D"/>
<path d="M10.9105 10.9062H7.27429V14.5424H10.9105V10.9062Z" fill="#2A353D"/>
<path d="M10.9105 14.5469H7.27429V18.1831H10.9105V14.5469Z" fill="#2A353D"/>
<path d="M10.9105 21.8203H7.27429V25.4565H10.9105V21.8203Z" fill="#2A353D"/>
<path d="M10.9105 32.7266H7.27429V36.3628H10.9105V32.7266Z" fill="#2A353D"/>
<path d="M10.9105 36.3633H7.27429V39.9995H10.9105V36.3633Z" fill="#2A353D"/>
<path d="M10.9105 43.6367H7.27429V47.2729H10.9105V43.6367Z" fill="#2A353D"/>
<path d="M10.9105 47.2695H7.27429V50.9057H10.9105V47.2695Z" fill="#2A353D"/>
<path d="M10.9105 58.1836H7.27429V61.8198H10.9105V58.1836Z" fill="#2A353D"/>
<path d="M10.9105 65.4531H7.27429V69.0893H10.9105V65.4531Z" fill="#2A353D"/>
<path d="M10.9105 72.7266H7.27429V76.3628H10.9105V72.7266Z" fill="#2A353D"/>
<path d="M10.9105 76.3594H7.27429V79.9956H10.9105V76.3594Z" fill="#2A353D"/>
<path d="M10.9105 80H7.27429V83.6362H10.9105V80Z" fill="#2A353D"/>
<path d="M10.9105 94.5469H7.27429V98.1831H10.9105V94.5469Z" fill="#2A353D"/>
<path d="M10.9105 101.816H7.27429V105.453H10.9105V101.816Z" fill="#2A353D"/>
<path d="M10.9105 105.449H7.27429V109.085H10.9105V105.449Z" fill="#2A353D"/>
<path d="M10.9105 109.094H7.27429V112.73H10.9105V109.094Z" fill="#2A353D"/>
<path d="M10.9105 116.363H7.27429V119.999H10.9105V116.363Z" fill="#2A353D"/>
<path d="M14.5424 0H10.9062V3.63619H14.5424V0Z" fill="#2A353D"/>
<path d="M14.5424 7.27734H10.9062V10.9135H14.5424V7.27734Z" fill="#2A353D"/>
<path d="M14.5424 10.9141H10.9062V14.5503H14.5424V10.9141Z" fill="#2A353D"/>
<path d="M14.5424 14.5469H10.9062V18.1831H14.5424V14.5469Z" fill="#2A353D"/>
<path d="M14.5423 21.8203H10.9061V25.4565H14.5423V21.8203Z" fill="#2A353D"/>
<path d="M14.5423 29.0938H10.9061V32.7299H14.5423V29.0938Z" fill="#2A353D"/>
<path d="M14.5423 32.7266H10.9061V36.3628H14.5423V32.7266Z" fill="#2A353D"/>
<path d="M14.5423 40H10.9061V43.6362H14.5423V40Z" fill="#2A353D"/>
<path d="M14.5423 50.9062H10.9061V54.5424H14.5423V50.9062Z" fill="#2A353D"/>
<path d="M14.5423 54.5391H10.9061V58.1753H14.5423V54.5391Z" fill="#2A353D"/>
<path d="M14.5423 61.8125H10.9061V65.4487H14.5423V61.8125Z" fill="#2A353D"/>
<path d="M14.5423 69.0859H10.9061V72.7221H14.5423V69.0859Z" fill="#2A353D"/>
<path d="M14.5423 72.7266H10.9061V76.3628H14.5423V72.7266Z" fill="#2A353D"/>
<path d="M14.5423 94.5469H10.9061V98.1831H14.5423V94.5469Z" fill="#2A353D"/>
<path d="M14.5423 101.816H10.9061V105.453H14.5423V101.816Z" fill="#2A353D"/>
<path d="M14.5423 105.449H10.9061V109.085H14.5423V105.449Z" fill="#2A353D"/>
<path d="M14.5423 109.082H10.9061V112.718H14.5423V109.082Z" fill="#2A353D"/>
<path d="M14.5423 116.363H10.9061V119.999H14.5423V116.363Z" fill="#2A353D"/>
<path d="M18.1827 0H14.5465V3.63619H18.1827V0Z" fill="#2A353D"/>
<path d="M18.1827 7.27734H14.5465V10.9135H18.1827V7.27734Z" fill="#2A353D"/>
<path d="M18.1827 10.9141H14.5465V14.5503H18.1827V10.9141Z" fill="#2A353D"/>
<path d="M18.1827 14.5469H14.5465V18.1831H18.1827V14.5469Z" fill="#2A353D"/>
<path d="M18.1826 21.8203H14.5464V25.4565H18.1826V21.8203Z" fill="#2A353D"/>
<path d="M18.1826 40H14.5464V43.6362H18.1826V40Z" fill="#2A353D"/>
<path d="M18.1826 65.4531H14.5464V69.0893H18.1826V65.4531Z" fill="#2A353D"/>
<path d="M18.1826 72.7266H14.5464V76.3628H18.1826V72.7266Z" fill="#2A353D"/>
<path d="M18.1826 80H14.5464V83.6362H18.1826V80Z" fill="#2A353D"/>
<path d="M18.1826 87.2734H14.5464V90.9096H18.1826V87.2734Z" fill="#2A353D"/>
<path d="M18.1826 94.5469H14.5464V98.1831H18.1826V94.5469Z" fill="#2A353D"/>
<path d="M18.1826 101.816H14.5464V105.453H18.1826V101.816Z" fill="#2A353D"/>
<path d="M18.1826 105.449H14.5464V109.085H18.1826V105.449Z" fill="#2A353D"/>
<path d="M18.1826 109.082H14.5464V112.718H18.1826V109.082Z" fill="#2A353D"/>
<path d="M18.1826 116.363H14.5464V119.999H18.1826V116.363Z" fill="#2A353D"/>
<path d="M21.822 0H18.1858V3.63619H21.822V0Z" fill="#2A353D"/>
<path d="M21.8213 21.8203H18.1851V25.4565H21.8213V21.8203Z" fill="#2A353D"/>
<path d="M21.8219 36.3633H18.1857V39.9995H21.8219V36.3633Z" fill="#2A353D"/>
<path d="M21.8219 47.2695H18.1857V50.9057H21.8219V47.2695Z" fill="#2A353D"/>
<path d="M21.8219 54.5391H18.1857V58.1753H21.8219V54.5391Z" fill="#2A353D"/>
<path d="M21.8213 58.1836H18.1851V61.8198H21.8213V58.1836Z" fill="#2A353D"/>
<path d="M21.8213 61.8125H18.1851V65.4487H21.8213V61.8125Z" fill="#2A353D"/>
<path d="M21.8219 65.4531H18.1857V69.0893H21.8219V65.4531Z" fill="#2A353D"/>
<path d="M21.8219 83.6328H18.1857V87.269H21.8219V83.6328Z" fill="#2A353D"/>
<path d="M21.8213 87.2734H18.1851V90.9096H21.8213V87.2734Z" fill="#2A353D"/>
<path d="M21.8213 94.5469H18.1851V98.1831H21.8213V94.5469Z" fill="#2A353D"/>
<path d="M21.8213 116.363H18.1851V119.999H21.8213V116.363Z" fill="#2A353D"/>
<path d="M25.4563 0H21.8201V3.63619H25.4563V0Z" fill="#2A353D"/>
<path d="M25.4563 3.63281H21.8201V7.26901H25.4563V3.63281Z" fill="#2A353D"/>
<path d="M25.4563 7.27734H21.8201V10.9135H25.4563V7.27734Z" fill="#2A353D"/>
<path d="M25.4563 10.9062H21.8201V14.5424H25.4563V10.9062Z" fill="#2A353D"/>
<path d="M25.4563 14.5469H21.8201V18.1831H25.4563V14.5469Z" fill="#2A353D"/>
<path d="M25.4563 18.1797H21.8201V21.8159H25.4563V18.1797Z" fill="#2A353D"/>
<path d="M25.4563 21.8203H21.8201V25.4565H25.4563V21.8203Z" fill="#2A353D"/>
<path d="M25.4563 29.0938H21.8201V32.7299H25.4563V29.0938Z" fill="#2A353D"/>
<path d="M25.4563 36.3633H21.8201V39.9995H25.4563V36.3633Z" fill="#2A353D"/>
<path d="M25.4563 43.6367H21.8201V47.2729H25.4563V43.6367Z" fill="#2A353D"/>
<path d="M25.4563 50.9062H21.8201V54.5424H25.4563V50.9062Z" fill="#2A353D"/>
<path d="M25.4563 58.1836H21.8201V61.8198H25.4563V58.1836Z" fill="#2A353D"/>
<path d="M25.4563 65.4531H21.8201V69.0893H25.4563V65.4531Z" fill="#2A353D"/>
<path d="M25.4563 72.7266H21.8201V76.3628H25.4563V72.7266Z" fill="#2A353D"/>
<path d="M25.4563 80H21.8201V83.6362H25.4563V80Z" fill="#2A353D"/>
<path d="M25.4563 87.2734H21.8201V90.9096H25.4563V87.2734Z" fill="#2A353D"/>
<path d="M25.4563 94.5469H21.8201V98.1831H25.4563V94.5469Z" fill="#2A353D"/>
<path d="M25.4563 98.1758H21.8201V101.812H25.4563V98.1758Z" fill="#2A353D"/>
<path d="M25.4563 101.816H21.8201V105.453H25.4563V101.816Z" fill="#2A353D"/>
<path d="M25.4563 105.449H21.8201V109.085H25.4563V105.449Z" fill="#2A353D"/>
<path d="M25.4563 109.094H21.8201V112.73H25.4563V109.094Z" fill="#2A353D"/>
<path d="M25.4563 112.723H21.8201V116.359H25.4563V112.723Z" fill="#2A353D"/>
<path d="M25.4563 116.363H21.8201V119.999H25.4563V116.363Z" fill="#2A353D"/>
<path d="M29.0938 29.0938H25.4576V32.7299H29.0938V29.0938Z" fill="#2A353D"/>
<path d="M29.0938 32.7266H25.4576V36.3628H29.0938V32.7266Z" fill="#2A353D"/>
<path d="M29.0938 50.9062H25.4576V54.5424H29.0938V50.9062Z" fill="#2A353D"/>
<path d="M29.0938 54.5391H25.4576V58.1753H29.0938V54.5391Z" fill="#2A353D"/>
<path d="M29.0938 61.8125H25.4576V65.4487H29.0938V61.8125Z" fill="#2A353D"/>
<path d="M29.0938 65.4531H25.4576V69.0893H29.0938V65.4531Z" fill="#2A353D"/>
<path d="M29.0938 69.0859H25.4576V72.7221H29.0938V69.0859Z" fill="#2A353D"/>
<path d="M32.729 3.63281H29.0928V7.26901H32.729V3.63281Z" fill="#2A353D"/>
<path d="M32.729 7.27734H29.0928V10.9135H32.729V7.27734Z" fill="#2A353D"/>
<path d="M32.729 14.5469H29.0928V18.1831H32.729V14.5469Z" fill="#2A353D"/>
<path d="M32.729 18.1797H29.0928V21.8159H32.729V18.1797Z" fill="#2A353D"/>
<path d="M32.729 21.8203H29.0928V25.4565H32.729V21.8203Z" fill="#2A353D"/>
<path d="M32.729 25.4492H29.0928V29.0854H32.729V25.4492Z" fill="#2A353D"/>
<path d="M32.729 47.2695H29.0928V50.9057H32.729V47.2695Z" fill="#2A353D"/>
<path d="M32.729 50.9062H29.0928V54.5424H32.729V50.9062Z" fill="#2A353D"/>
<path d="M32.729 54.5391H29.0928V58.1753H32.729V54.5391Z" fill="#2A353D"/>
<path d="M32.729 61.8125H29.0928V65.4487H32.729V61.8125Z" fill="#2A353D"/>
<path d="M32.729 65.4531H29.0928V69.0893H32.729V65.4531Z" fill="#2A353D"/>
<path d="M32.729 76.3594H29.0928V79.9956H32.729V76.3594Z" fill="#2A353D"/>
<path d="M32.729 87.2734H29.0928V90.9096H32.729V87.2734Z" fill="#2A353D"/>
<path d="M32.729 90.9062H29.0928V94.5424H32.729V90.9062Z" fill="#2A353D"/>
<path d="M32.729 94.5469H29.0928V98.1831H32.729V94.5469Z" fill="#2A353D"/>
<path d="M32.729 105.449H29.0928V109.085H32.729V105.449Z" fill="#2A353D"/>
<path d="M32.729 112.723H29.0928V116.359H32.729V112.723Z" fill="#2A353D"/>
<path d="M32.729 116.363H29.0928V119.999H32.729V116.363Z" fill="#2A353D"/>
<path d="M36.3607 0H32.7245V3.63619H36.3607V0Z" fill="#2A353D"/>
<path d="M36.3607 7.27734H32.7245V10.9135H36.3607V7.27734Z" fill="#2A353D"/>
<path d="M36.3607 10.9062H32.7245V14.5424H36.3607V10.9062Z" fill="#2A353D"/>
<path d="M36.3607 18.1797H32.7245V21.8159H36.3607V18.1797Z" fill="#2A353D"/>
<path d="M36.3607 25.4492H32.7245V29.0854H36.3607V25.4492Z" fill="#2A353D"/>
<path d="M36.3607 36.3633H32.7245V39.9995H36.3607V36.3633Z" fill="#2A353D"/>
<path d="M36.3607 58.1836H32.7245V61.8198H36.3607V58.1836Z" fill="#2A353D"/>
<path d="M36.3607 80H32.7245V83.6362H36.3607V80Z" fill="#2A353D"/>
<path d="M36.3607 90.9062H32.7245V94.5424H36.3607V90.9062Z" fill="#2A353D"/>
<path d="M36.3607 98.1758H32.7245V101.812H36.3607V98.1758Z" fill="#2A353D"/>
<path d="M36.3607 105.449H32.7245V109.085H36.3607V105.449Z" fill="#2A353D"/>
<path d="M36.3607 112.723H32.7245V116.359H36.3607V112.723Z" fill="#2A353D"/>
<path d="M36.3607 116.363H32.7245V119.999H36.3607V116.363Z" fill="#2A353D"/>
<path d="M39.9994 7.27734H36.3632V10.9135H39.9994V7.27734Z" fill="#2A353D"/>
<path d="M39.9994 10.9062H36.3632V14.5424H39.9994V10.9062Z" fill="#2A353D"/>
<path d="M39.9994 21.8203H36.3632V25.4565H39.9994V21.8203Z" fill="#2A353D"/>
<path d="M39.9994 29.0938H36.3632V32.7299H39.9994V29.0938Z" fill="#2A353D"/>
<path d="M39.9994 32.7266H36.3632V36.3628H39.9994V32.7266Z" fill="#2A353D"/>
<path d="M39.9994 36.3633H36.3632V39.9995H39.9994V36.3633Z" fill="#2A353D"/>
<path d="M39.9994 47.2695H36.3632V50.9057H39.9994V47.2695Z" fill="#2A353D"/>
<path d="M39.9994 54.5391H36.3632V58.1753H39.9994V54.5391Z" fill="#2A353D"/>
<path d="M39.9994 58.1836H36.3632V61.8198H39.9994V58.1836Z" fill="#2A353D"/>
<path d="M39.9994 61.8125H36.3632V65.4487H39.9994V61.8125Z" fill="#2A353D"/>
<path d="M39.9994 65.4531H36.3632V69.0893H39.9994V65.4531Z" fill="#2A353D"/>
<path d="M39.9994 80H36.3632V83.6362H39.9994V80Z" fill="#2A353D"/>
<path d="M39.9994 87.2734H36.3632V90.9096H39.9994V87.2734Z" fill="#2A353D"/>
<path d="M39.9994 94.5469H36.3632V98.1831H39.9994V94.5469Z" fill="#2A353D"/>
<path d="M39.9994 116.363H36.3632V119.999H39.9994V116.363Z" fill="#2A353D"/>
<path d="M43.6347 3.63281H39.9985V7.26901H43.6347V3.63281Z" fill="#2A353D"/>
<path d="M43.6347 7.27734H39.9985V10.9135H43.6347V7.27734Z" fill="#2A353D"/>
<path d="M43.6347 10.9141H39.9985V14.5503H43.6347V10.9141Z" fill="#2A353D"/>
<path d="M43.6347 18.1797H39.9985V21.8159H43.6347V18.1797Z" fill="#2A353D"/>
<path d="M43.6347 32.7266H39.9985V36.3628H43.6347V32.7266Z" fill="#2A353D"/>
<path d="M43.6347 47.2695H39.9985V50.9057H43.6347V47.2695Z" fill="#2A353D"/>
<path d="M43.6347 58.1836H39.9985V61.8198H43.6347V58.1836Z" fill="#2A353D"/>
<path d="M43.6347 69.0859H39.9985V72.7221H43.6347V69.0859Z" fill="#2A353D"/>
<path d="M43.6347 72.7266H39.9985V76.3628H43.6347V72.7266Z" fill="#2A353D"/>
<path d="M43.6347 83.6328H39.9985V87.269H43.6347V83.6328Z" fill="#2A353D"/>
<path d="M43.6347 94.5469H39.9985V98.1831H43.6347V94.5469Z" fill="#2A353D"/>
<path d="M43.6347 98.1758H39.9985V101.812H43.6347V98.1758Z" fill="#2A353D"/>
<path d="M43.6347 101.816H39.9985V105.453H43.6347V101.816Z" fill="#2A353D"/>
<path d="M43.6347 105.449H39.9985V109.085H43.6347V105.449Z" fill="#2A353D"/>
<path d="M43.6347 112.723H39.9985V116.359H43.6347V112.723Z" fill="#2A353D"/>
<path d="M47.2721 0H43.6359V3.63619H47.2721V0Z" fill="#2A353D"/>
<path d="M47.2721 3.63281H43.6359V7.26901H47.2721V3.63281Z" fill="#2A353D"/>
<path d="M47.2721 7.27734H43.6359V10.9135H47.2721V7.27734Z" fill="#2A353D"/>
<path d="M47.2721 21.8203H43.6359V25.4565H47.2721V21.8203Z" fill="#2A353D"/>
<path d="M47.2721 25.4492H43.6359V29.0854H47.2721V25.4492Z" fill="#2A353D"/>
<path d="M47.2721 43.6367H43.6359V47.2729H47.2721V43.6367Z" fill="#2A353D"/>
<path d="M47.2721 47.2695H43.6359V50.9057H47.2721V47.2695Z" fill="#2A353D"/>
<path d="M47.2721 50.9062H43.6359V54.5424H47.2721V50.9062Z" fill="#2A353D"/>
<path d="M47.2721 54.5391H43.6359V58.1753H47.2721V54.5391Z" fill="#2A353D"/>
<path d="M47.2721 58.1836H43.6359V61.8198H47.2721V58.1836Z" fill="#2A353D"/>
<path d="M47.2721 69.0859H43.6359V72.7221H47.2721V69.0859Z" fill="#2A353D"/>
<path d="M47.2721 76.3594H43.6359V79.9956H47.2721V76.3594Z" fill="#2A353D"/>
<path d="M47.2721 80H43.6359V83.6362H47.2721V80Z" fill="#2A353D"/>
<path d="M47.2721 90.9062H43.6359V94.5424H47.2721V90.9062Z" fill="#2A353D"/>
<path d="M47.2721 98.1758H43.6359V101.812H47.2721V98.1758Z" fill="#2A353D"/>
<path d="M47.2721 109.082H43.6359V112.718H47.2721V109.082Z" fill="#2A353D"/>
<path d="M47.2721 112.723H43.6359V116.359H47.2721V112.723Z" fill="#2A353D"/>
<path d="M47.2721 116.363H43.6359V119.999H47.2721V116.363Z" fill="#2A353D"/>
<path d="M50.9143 0H47.2781V3.63619H50.9143V0Z" fill="#2A353D"/>
<path d="M50.9143 3.63281H47.2781V7.26901H50.9143V3.63281Z" fill="#2A353D"/>
<path d="M50.9143 14.5469H47.2781V18.1831H50.9143V14.5469Z" fill="#2A353D"/>
<path d="M50.9143 18.1797H47.2781V21.8159H50.9143V18.1797Z" fill="#2A353D"/>
<path d="M50.9143 29.0938H47.2781V32.7299H50.9143V29.0938Z" fill="#2A353D"/>
<path d="M50.9143 32.7266H47.2781V36.3628H50.9143V32.7266Z" fill="#2A353D"/>
<path d="M50.9143 40H47.2781V43.6362H50.9143V40Z" fill="#2A353D"/>
<path d="M50.9143 43.6367H47.2781V47.2729H50.9143V43.6367Z" fill="#2A353D"/>
<path d="M50.9143 54.5391H47.2781V58.1753H50.9143V54.5391Z" fill="#2A353D"/>
<path d="M50.9143 65.4531H47.2781V69.0893H50.9143V65.4531Z" fill="#2A353D"/>
<path d="M50.9143 72.7266H47.2781V76.3628H50.9143V72.7266Z" fill="#2A353D"/>
<path d="M50.9143 83.6328H47.2781V87.269H50.9143V83.6328Z" fill="#2A353D"/>
<path d="M50.9143 87.2734H47.2781V90.9096H50.9143V87.2734Z" fill="#2A353D"/>
<path d="M50.9143 94.5469H47.2781V98.1831H50.9143V94.5469Z" fill="#2A353D"/>
<path d="M50.9143 98.1758H47.2781V101.812H50.9143V98.1758Z" fill="#2A353D"/>
<path d="M50.9143 116.363H47.2781V119.999H50.9143V116.363Z" fill="#2A353D"/>
<path d="M54.5442 0H50.908V3.63619H54.5442V0Z" fill="#2A353D"/>
<path d="M54.5442 3.63281H50.908V7.26901H54.5442V3.63281Z" fill="#2A353D"/>
<path d="M54.5442 10.9141H50.908V14.5503H54.5442V10.9141Z" fill="#2A353D"/>
<path d="M54.5442 14.5469H50.908V18.1831H54.5442V14.5469Z" fill="#2A353D"/>
<path d="M54.5442 21.8203H50.908V25.4565H54.5442V21.8203Z" fill="#2A353D"/>
<path d="M54.5442 25.4492H50.908V29.0854H54.5442V25.4492Z" fill="#2A353D"/>
<path d="M54.5442 29.0938H50.908V32.7299H54.5442V29.0938Z" fill="#2A353D"/>
<path d="M54.5442 36.3633H50.908V39.9995H54.5442V36.3633Z" fill="#2A353D"/>
<path d="M54.5442 40H50.908V43.6362H54.5442V40Z" fill="#2A353D"/>
<path d="M54.5442 54.5391H50.908V58.1753H54.5442V54.5391Z" fill="#2A353D"/>
<path d="M54.5442 61.8125H50.908V65.4487H54.5442V61.8125Z" fill="#2A353D"/>
<path d="M54.5442 72.7266H50.908V76.3628H54.5442V72.7266Z" fill="#2A353D"/>
<path d="M54.5442 80H50.908V83.6362H54.5442V80Z" fill="#2A353D"/>
<path d="M54.5442 87.2734H50.908V90.9096H54.5442V87.2734Z" fill="#2A353D"/>
<path d="M54.5442 94.5469H50.908V98.1831H54.5442V94.5469Z" fill="#2A353D"/>
<path d="M54.5442 105.449H50.908V109.085H54.5442V105.449Z" fill="#2A353D"/>
<path d="M54.5442 109.082H50.908V112.718H54.5442V109.082Z" fill="#2A353D"/>
<path d="M54.5442 116.363H50.908V119.999H54.5442V116.363Z" fill="#2A353D"/>
<path d="M58.1775 0H54.5413V3.63619H58.1775V0Z" fill="#2A353D"/>
<path d="M58.1775 3.63281H54.5413V7.26901H58.1775V3.63281Z" fill="#2A353D"/>
<path d="M58.1775 14.5469H54.5413V18.1831H58.1775V14.5469Z" fill="#2A353D"/>
<path d="M58.1775 18.1797H54.5413V21.8159H58.1775V18.1797Z" fill="#2A353D"/>
<path d="M58.1775 25.4492H54.5413V29.0854H58.1775V25.4492Z" fill="#2A353D"/>
<path d="M58.1775 29.0938H54.5413V32.7299H58.1775V29.0938Z" fill="#2A353D"/>
<path d="M58.1775 43.6367H54.5413V47.2729H58.1775V43.6367Z" fill="#2A353D"/>
<path d="M58.1775 58.1836H54.5413V61.8198H58.1775V58.1836Z" fill="#2A353D"/>
<path d="M58.1775 72.7266H54.5413V76.3628H58.1775V72.7266Z" fill="#2A353D"/>
<path d="M58.1775 87.2734H54.5413V90.9096H58.1775V87.2734Z" fill="#2A353D"/>
<path d="M58.1775 98.1758H54.5413V101.812H58.1775V98.1758Z" fill="#2A353D"/>
<path d="M58.1775 101.816H54.5413V105.453H58.1775V101.816Z" fill="#2A353D"/>
<path d="M58.1775 112.723H54.5413V116.359H58.1775V112.723Z" fill="#2A353D"/>
<path d="M58.1775 116.363H54.5413V119.999H58.1775V116.363Z" fill="#2A353D"/>
<path d="M61.8197 7.27734H58.1835V10.9135H61.8197V7.27734Z" fill="#2A353D"/>
<path d="M61.8197 14.5469H58.1835V18.1831H61.8197V14.5469Z" fill="#2A353D"/>
<path d="M61.8197 21.8203H58.1835V25.4565H61.8197V21.8203Z" fill="#2A353D"/>
<path d="M61.8197 29.0938H58.1835V32.7299H61.8197V29.0938Z" fill="#2A353D"/>
<path d="M61.8197 32.7266H58.1835V36.3628H61.8197V32.7266Z" fill="#2A353D"/>
<path d="M61.8197 40H58.1835V43.6362H61.8197V40Z" fill="#2A353D"/>
<path d="M61.8197 43.6367H58.1835V47.2729H61.8197V43.6367Z" fill="#2A353D"/>
<path d="M61.8197 54.5391H58.1835V58.1753H61.8197V54.5391Z" fill="#2A353D"/>
<path d="M61.8197 61.8125H58.1835V65.4487H61.8197V61.8125Z" fill="#2A353D"/>
<path d="M61.8197 65.4531H58.1835V69.0893H61.8197V65.4531Z" fill="#2A353D"/>
<path d="M61.8197 72.7266H58.1835V76.3628H61.8197V72.7266Z" fill="#2A353D"/>
<path d="M61.8197 80H58.1835V83.6362H61.8197V80Z" fill="#2A353D"/>
<path d="M61.8197 87.2734H58.1835V90.9096H61.8197V87.2734Z" fill="#2A353D"/>
<path d="M61.8197 101.816H58.1835V105.453H61.8197V101.816Z" fill="#2A353D"/>
<path d="M61.8197 105.449H58.1835V109.085H61.8197V105.449Z" fill="#2A353D"/>
<path d="M61.8197 109.094H58.1835V112.73H61.8197V109.094Z" fill="#2A353D"/>
<path d="M61.8197 116.363H58.1835V119.999H61.8197V116.363Z" fill="#2A353D"/>
<path d="M65.4495 0H61.8134V3.63619H65.4495V0Z" fill="#2A353D"/>
<path d="M65.4495 3.63281H61.8134V7.26901H65.4495V3.63281Z" fill="#2A353D"/>
<path d="M65.4495 7.27734H61.8134V10.9135H65.4495V7.27734Z" fill="#2A353D"/>
<path d="M65.4495 25.4492H61.8134V29.0854H65.4495V25.4492Z" fill="#2A353D"/>
<path d="M65.4495 43.6367H61.8134V47.2729H65.4495V43.6367Z" fill="#2A353D"/>
<path d="M65.4495 54.5391H61.8134V58.1753H65.4495V54.5391Z" fill="#2A353D"/>
<path d="M65.4495 58.1836H61.8134V61.8198H65.4495V58.1836Z" fill="#2A353D"/>
<path d="M65.4495 61.8125H61.8134V65.4487H65.4495V61.8125Z" fill="#2A353D"/>
<path d="M65.4495 65.4531H61.8134V69.0893H65.4495V65.4531Z" fill="#2A353D"/>
<path d="M65.4495 69.0859H61.8134V72.7221H65.4495V69.0859Z" fill="#2A353D"/>
<path d="M65.4495 80H61.8134V83.6362H65.4495V80Z" fill="#2A353D"/>
<path d="M65.4495 87.2734H61.8134V90.9096H65.4495V87.2734Z" fill="#2A353D"/>
<path d="M65.4495 94.5469H61.8134V98.1831H65.4495V94.5469Z" fill="#2A353D"/>
<path d="M65.4495 98.1758H61.8134V101.812H65.4495V98.1758Z" fill="#2A353D"/>
<path d="M65.4495 101.816H61.8134V105.453H65.4495V101.816Z" fill="#2A353D"/>
<path d="M65.4495 112.723H61.8134V116.359H65.4495V112.723Z" fill="#2A353D"/>
<path d="M69.0916 0H65.4554V3.63619H69.0916V0Z" fill="#2A353D"/>
<path d="M69.0918 10.9062H65.4556V14.5424H69.0918V10.9062Z" fill="#2A353D"/>
<path d="M69.0916 14.5469H65.4554V18.1831H69.0916V14.5469Z" fill="#2A353D"/>
<path d="M69.0918 18.1797H65.4556V21.8159H69.0918V18.1797Z" fill="#2A353D"/>
<path d="M69.0918 21.8203H65.4556V25.4565H69.0918V21.8203Z" fill="#2A353D"/>
<path d="M69.0918 29.0938H65.4556V32.7299H69.0918V29.0938Z" fill="#2A353D"/>
<path d="M69.0918 32.7266H65.4556V36.3628H69.0918V32.7266Z" fill="#2A353D"/>
<path d="M69.0918 40H65.4556V43.6362H69.0918V40Z" fill="#2A353D"/>
<path d="M69.0918 50.9062H65.4556V54.5424H69.0918V50.9062Z" fill="#2A353D"/>
<path d="M69.0918 54.5391H65.4556V58.1753H69.0918V54.5391Z" fill="#2A353D"/>
<path d="M69.0918 61.8125H65.4556V65.4487H69.0918V61.8125Z" fill="#2A353D"/>
<path d="M69.0918 65.4531H65.4556V69.0893H69.0918V65.4531Z" fill="#2A353D"/>
<path d="M69.0918 72.7266H65.4556V76.3628H69.0918V72.7266Z" fill="#2A353D"/>
<path d="M69.0918 94.5469H65.4556V98.1831H69.0918V94.5469Z" fill="#2A353D"/>
<path d="M69.0918 109.094H65.4556V112.73H69.0918V109.094Z" fill="#2A353D"/>
<path d="M69.0918 112.723H65.4556V116.359H69.0918V112.723Z" fill="#2A353D"/>
<path d="M72.7246 0H69.0884V3.63619H72.7246V0Z" fill="#2A353D"/>
<path d="M72.7246 7.27734H69.0884V10.9135H72.7246V7.27734Z" fill="#2A353D"/>
<path d="M72.7246 18.1797H69.0884V21.8159H72.7246V18.1797Z" fill="#2A353D"/>
<path d="M72.7238 25.4492H69.0876V29.0854H72.7238V25.4492Z" fill="#2A353D"/>
<path d="M72.7246 36.3633H69.0884V39.9995H72.7246V36.3633Z" fill="#2A353D"/>
<path d="M72.7238 40H69.0876V43.6362H72.7238V40Z" fill="#2A353D"/>
<path d="M72.7246 43.6367H69.0884V47.2729H72.7246V43.6367Z" fill="#2A353D"/>
<path d="M72.7246 47.2695H69.0884V50.9057H72.7246V47.2695Z" fill="#2A353D"/>
<path d="M72.7246 54.5391H69.0884V58.1753H72.7246V54.5391Z" fill="#2A353D"/>
<path d="M72.7246 80H69.0884V83.6362H72.7246V80Z" fill="#2A353D"/>
<path d="M72.7246 83.6328H69.0884V87.269H72.7246V83.6328Z" fill="#2A353D"/>
<path d="M72.7246 90.9062H69.0884V94.5424H72.7246V90.9062Z" fill="#2A353D"/>
<path d="M72.7238 98.1758H69.0876V101.812H72.7238V98.1758Z" fill="#2A353D"/>
<path d="M72.7246 101.816H69.0884V105.453H72.7246V101.816Z" fill="#2A353D"/>
<path d="M76.3551 3.63281H72.7189V7.26901H76.3551V3.63281Z" fill="#2A353D"/>
<path d="M76.3551 7.27734H72.7189V10.9135H76.3551V7.27734Z" fill="#2A353D"/>
<path d="M76.3557 10.9141H72.7195V14.5503H76.3557V10.9141Z" fill="#2A353D"/>
<path d="M76.3557 14.5469H72.7195V18.1831H76.3557V14.5469Z" fill="#2A353D"/>
<path d="M76.3557 21.8203H72.7195V25.4565H76.3557V21.8203Z" fill="#2A353D"/>
<path d="M76.3551 29.0938H72.7189V32.7299H76.3551V29.0938Z" fill="#2A353D"/>
<path d="M76.3557 32.7266H72.7195V36.3628H76.3557V32.7266Z" fill="#2A353D"/>
<path d="M76.3551 36.3633H72.7189V39.9995H76.3551V36.3633Z" fill="#2A353D"/>
<path d="M76.3551 43.6367H72.7189V47.2729H76.3551V43.6367Z" fill="#2A353D"/>
<path d="M76.3551 47.2695H72.7189V50.9057H76.3551V47.2695Z" fill="#2A353D"/>
<path d="M76.3557 50.9062H72.7195V54.5424H76.3557V50.9062Z" fill="#2A353D"/>
<path d="M76.3557 58.1836H72.7195V61.8198H76.3557V58.1836Z" fill="#2A353D"/>
<path d="M76.3557 76.3594H72.7195V79.9956H76.3557V76.3594Z" fill="#2A353D"/>
<path d="M76.3551 80H72.7189V83.6362H76.3551V80Z" fill="#2A353D"/>
<path d="M76.3551 90.9062H72.7189V94.5424H76.3551V90.9062Z" fill="#2A353D"/>
<path d="M76.3557 94.5469H72.7195V98.1831H76.3557V94.5469Z" fill="#2A353D"/>
<path d="M76.3557 98.1758H72.7195V101.812H76.3557V98.1758Z" fill="#2A353D"/>
<path d="M76.3551 101.816H72.7189V105.453H76.3551V101.816Z" fill="#2A353D"/>
<path d="M76.3557 109.082H72.7195V112.718H76.3557V109.082Z" fill="#2A353D"/>
<path d="M76.3551 112.723H72.7189V116.359H76.3551V112.723Z" fill="#2A353D"/>
<path d="M79.9973 18.1797H76.3611V21.8159H79.9973V18.1797Z" fill="#2A353D"/>
<path d="M79.9965 25.4492H76.3604V29.0854H79.9965V25.4492Z" fill="#2A353D"/>
<path d="M79.9973 29.0938H76.3611V32.7299H79.9973V29.0938Z" fill="#2A353D"/>
<path d="M79.9973 36.3633H76.3611V39.9995H79.9973V36.3633Z" fill="#2A353D"/>
<path d="M79.9965 40H76.3604V43.6362H79.9965V40Z" fill="#2A353D"/>
<path d="M79.9973 43.6367H76.3611V47.2729H79.9973V43.6367Z" fill="#2A353D"/>
<path d="M79.9973 47.2695H76.3611V50.9057H79.9973V47.2695Z" fill="#2A353D"/>
<path d="M79.9973 54.5391H76.3611V58.1753H79.9973V54.5391Z" fill="#2A353D"/>
<path d="M79.9965 58.1836H76.3604V61.8198H79.9965V58.1836Z" fill="#2A353D"/>
<path d="M79.9965 61.8125H76.3604V65.4487H79.9965V61.8125Z" fill="#2A353D"/>
<path d="M79.9965 69.0859H76.3604V72.7221H79.9965V69.0859Z" fill="#2A353D"/>
<path d="M79.9973 72.7266H76.3611V76.3628H79.9973V72.7266Z" fill="#2A353D"/>
<path d="M79.9965 76.3594H76.3604V79.9956H79.9965V76.3594Z" fill="#2A353D"/>
<path d="M79.9973 83.6328H76.3611V87.269H79.9973V83.6328Z" fill="#2A353D"/>
<path d="M79.9965 87.2734H76.3604V90.9096H79.9965V87.2734Z" fill="#2A353D"/>
<path d="M79.9973 90.9062H76.3611V94.5424H79.9973V90.9062Z" fill="#2A353D"/>
<path d="M79.9965 94.5469H76.3604V98.1831H79.9965V94.5469Z" fill="#2A353D"/>
<path d="M79.9965 98.1758H76.3604V101.812H79.9965V98.1758Z" fill="#2A353D"/>
<path d="M79.9973 101.816H76.3611V105.453H79.9973V101.816Z" fill="#2A353D"/>
<path d="M79.9965 109.082H76.3604V112.718H79.9965V109.082Z" fill="#2A353D"/>
<path d="M79.9973 112.723H76.3611V116.359H79.9973V112.723Z" fill="#2A353D"/>
<path d="M79.9965 116.363H76.3604V119.999H79.9965V116.363Z" fill="#2A353D"/>
<path d="M83.6352 3.63281H79.999V7.26901H83.6352V3.63281Z" fill="#2A353D"/>
<path d="M83.6352 7.27734H79.999V10.9135H83.6352V7.27734Z" fill="#2A353D"/>
<path d="M83.6352 10.9141H79.999V14.5503H83.6352V10.9141Z" fill="#2A353D"/>
<path d="M83.6352 18.1797H79.999V21.8159H83.6352V18.1797Z" fill="#2A353D"/>
<path d="M83.6352 21.8203H79.999V25.4565H83.6352V21.8203Z" fill="#2A353D"/>
<path d="M83.6352 29.0938H79.999V32.7299H83.6352V29.0938Z" fill="#2A353D"/>
<path d="M83.6352 36.3633H79.999V39.9995H83.6352V36.3633Z" fill="#2A353D"/>
<path d="M83.6352 40H79.999V43.6362H83.6352V40Z" fill="#2A353D"/>
<path d="M83.6352 47.2695H79.999V50.9057H83.6352V47.2695Z" fill="#2A353D"/>
<path d="M83.6352 50.9062H79.999V54.5424H83.6352V50.9062Z" fill="#2A353D"/>
<path d="M83.6352 54.5391H79.999V58.1753H83.6352V54.5391Z" fill="#2A353D"/>
<path d="M83.6352 58.1836H79.999V61.8198H83.6352V58.1836Z" fill="#2A353D"/>
<path d="M83.6352 61.8125H79.999V65.4487H83.6352V61.8125Z" fill="#2A353D"/>
<path d="M83.6352 65.4531H79.999V69.0893H83.6352V65.4531Z" fill="#2A353D"/>
<path d="M83.6352 69.0859H79.999V72.7221H83.6352V69.0859Z" fill="#2A353D"/>
<path d="M83.6352 76.3594H79.999V79.9956H83.6352V76.3594Z" fill="#2A353D"/>
<path d="M83.6352 94.5469H79.999V98.1831H83.6352V94.5469Z" fill="#2A353D"/>
<path d="M83.6352 98.1758H79.999V101.812H83.6352V98.1758Z" fill="#2A353D"/>
<path d="M87.27 0H83.6338V3.63619H87.27V0Z" fill="#2A353D"/>
<path d="M87.27 3.63281H83.6338V7.26901H87.27V3.63281Z" fill="#2A353D"/>
<path d="M87.27 14.5469H83.6338V18.1831H87.27V14.5469Z" fill="#2A353D"/>
<path d="M87.27 25.4492H83.6338V29.0854H87.27V25.4492Z" fill="#2A353D"/>
<path d="M87.27 29.0938H83.6338V32.7299H87.27V29.0938Z" fill="#2A353D"/>
<path d="M87.27 40H83.6338V43.6362H87.27V40Z" fill="#2A353D"/>
<path d="M87.27 50.9062H83.6338V54.5424H87.27V50.9062Z" fill="#2A353D"/>
<path d="M87.27 58.1836H83.6338V61.8198H87.27V58.1836Z" fill="#2A353D"/>
<path d="M87.27 61.8125H83.6338V65.4487H87.27V61.8125Z" fill="#2A353D"/>
<path d="M87.27 69.0859H83.6338V72.7221H87.27V69.0859Z" fill="#2A353D"/>
<path d="M87.27 83.6328H83.6338V87.269H87.27V83.6328Z" fill="#2A353D"/>
<path d="M87.27 87.2734H83.6338V90.9096H87.27V87.2734Z" fill="#2A353D"/>
<path d="M87.27 90.9062H83.6338V94.5424H87.27V90.9062Z" fill="#2A353D"/>
<path d="M87.27 105.449H83.6338V109.085H87.27V105.449Z" fill="#2A353D"/>
<path d="M87.27 112.723H83.6338V116.359H87.27V112.723Z" fill="#2A353D"/>
<path d="M90.9073 3.63281H87.2711V7.26901H90.9073V3.63281Z" fill="#2A353D"/>
<path d="M90.9079 21.8203H87.2717V25.4565H90.9079V21.8203Z" fill="#2A353D"/>
<path d="M90.9079 25.4492H87.2717V29.0854H90.9079V25.4492Z" fill="#2A353D"/>
<path d="M90.9079 32.7266H87.2717V36.3628H90.9079V32.7266Z" fill="#2A353D"/>
<path d="M90.9073 47.2695H87.2711V50.9057H90.9073V47.2695Z" fill="#2A353D"/>
<path d="M90.9073 54.5391H87.2711V58.1753H90.9073V54.5391Z" fill="#2A353D"/>
<path d="M90.9079 58.1836H87.2717V61.8198H90.9079V58.1836Z" fill="#2A353D"/>
<path d="M90.9079 69.0859H87.2717V72.7221H90.9079V69.0859Z" fill="#2A353D"/>
<path d="M90.9073 72.7266H87.2711V76.3628H90.9073V72.7266Z" fill="#2A353D"/>
<path d="M90.9079 76.3594H87.2717V79.9956H90.9079V76.3594Z" fill="#2A353D"/>
<path d="M90.9073 83.6328H87.2711V87.269H90.9073V83.6328Z" fill="#2A353D"/>
<path d="M90.9079 87.2734H87.2717V90.9096H90.9079V87.2734Z" fill="#2A353D"/>
<path d="M90.9073 90.9062H87.2711V94.5424H90.9073V90.9062Z" fill="#2A353D"/>
<path d="M90.9079 94.5469H87.2717V98.1831H90.9079V94.5469Z" fill="#2A353D"/>
<path d="M90.9079 98.1758H87.2717V101.812H90.9079V98.1758Z" fill="#2A353D"/>
<path d="M90.9073 101.816H87.2711V105.453H90.9073V101.816Z" fill="#2A353D"/>
<path d="M90.9079 105.449H87.2717V109.085H90.9079V105.449Z" fill="#2A353D"/>
<path d="M90.9073 109.094H87.2711V112.73H90.9073V109.094Z" fill="#2A353D"/>
<path d="M90.9073 112.723H87.2711V116.359H90.9073V112.723Z" fill="#2A353D"/>
<path d="M90.9079 116.363H87.2717V119.999H90.9079V116.363Z" fill="#2A353D"/>
<path d="M94.542 32.7266H90.9058V36.3628H94.542V32.7266Z" fill="#2A353D"/>
<path d="M94.542 43.6367H90.9058V47.2729H94.542V43.6367Z" fill="#2A353D"/>
<path d="M94.542 50.9062H90.9058V54.5424H94.542V50.9062Z" fill="#2A353D"/>
<path d="M94.542 61.8125H90.9058V65.4487H94.542V61.8125Z" fill="#2A353D"/>
<path d="M94.542 65.4531H90.9058V69.0893H94.542V65.4531Z" fill="#2A353D"/>
<path d="M94.542 72.7266H90.9058V76.3628H94.542V72.7266Z" fill="#2A353D"/>
<path d="M94.542 76.3594H90.9058V79.9956H94.542V76.3594Z" fill="#2A353D"/>
<path d="M94.542 87.2734H90.9058V90.9096H94.542V87.2734Z" fill="#2A353D"/>
<path d="M94.542 101.816H90.9058V105.453H94.542V101.816Z" fill="#2A353D"/>
<path d="M94.542 105.449H90.9058V109.085H94.542V105.449Z" fill="#2A353D"/>
<path d="M94.542 112.723H90.9058V116.359H94.542V112.723Z" fill="#2A353D"/>
<path d="M98.1748 0H94.5386V3.63619H98.1748V0Z" fill="#2A353D"/>
<path d="M98.1748 3.63281H94.5386V7.26901H98.1748V3.63281Z" fill="#2A353D"/>
<path d="M98.1748 7.27734H94.5386V10.9135H98.1748V7.27734Z" fill="#2A353D"/>
<path d="M98.1748 10.9062H94.5386V14.5424H98.1748V10.9062Z" fill="#2A353D"/>
<path d="M98.1748 14.5469H94.5386V18.1831H98.1748V14.5469Z" fill="#2A353D"/>
<path d="M98.1748 18.1797H94.5386V21.8159H98.1748V18.1797Z" fill="#2A353D"/>
<path d="M98.1748 21.8203H94.5386V25.4565H98.1748V21.8203Z" fill="#2A353D"/>
<path d="M98.1748 29.0938H94.5386V32.7299H98.1748V29.0938Z" fill="#2A353D"/>
<path d="M98.1748 32.7266H94.5386V36.3628H98.1748V32.7266Z" fill="#2A353D"/>
<path d="M98.1748 43.6367H94.5386V47.2729H98.1748V43.6367Z" fill="#2A353D"/>
<path d="M98.1748 47.2695H94.5386V50.9057H98.1748V47.2695Z" fill="#2A353D"/>
<path d="M98.1748 54.5391H94.5386V58.1753H98.1748V54.5391Z" fill="#2A353D"/>
<path d="M98.1748 58.1836H94.5386V61.8198H98.1748V58.1836Z" fill="#2A353D"/>
<path d="M98.1748 76.3594H94.5386V79.9956H98.1748V76.3594Z" fill="#2A353D"/>
<path d="M98.1748 80H94.5386V83.6362H98.1748V80Z" fill="#2A353D"/>
<path d="M98.1748 83.6328H94.5386V87.269H98.1748V83.6328Z" fill="#2A353D"/>
<path d="M98.1748 87.2734H94.5386V90.9096H98.1748V87.2734Z" fill="#2A353D"/>
<path d="M98.1748 94.5469H94.5386V98.1831H98.1748V94.5469Z" fill="#2A353D"/>
<path d="M98.1748 101.816H94.5386V105.453H98.1748V101.816Z" fill="#2A353D"/>
<path d="M98.1748 105.449H94.5386V109.085H98.1748V105.449Z" fill="#2A353D"/>
<path d="M98.1748 112.723H94.5386V116.359H98.1748V112.723Z" fill="#2A353D"/>
<path d="M98.1748 116.363H94.5386V119.999H98.1748V116.363Z" fill="#2A353D"/>
<path d="M101.813 0H98.1771V3.63619H101.813V0Z" fill="#2A353D"/>
<path d="M101.813 21.8203H98.1771V25.4565H101.813V21.8203Z" fill="#2A353D"/>
<path d="M101.813 29.0938H98.1771V32.7299H101.813V29.0938Z" fill="#2A353D"/>
<path d="M101.813 36.3633H98.1771V39.9995H101.813V36.3633Z" fill="#2A353D"/>
<path d="M101.813 50.9062H98.1771V54.5424H101.813V50.9062Z" fill="#2A353D"/>
<path d="M101.813 76.3594H98.1771V79.9956H101.813V76.3594Z" fill="#2A353D"/>
<path d="M101.813 80H98.1771V83.6362H101.813V80Z" fill="#2A353D"/>
<path d="M101.813 83.6328H98.1771V87.269H101.813V83.6328Z" fill="#2A353D"/>
<path d="M101.813 87.2734H98.1771V90.9096H101.813V87.2734Z" fill="#2A353D"/>
<path d="M101.813 101.816H98.1771V105.453H101.813V101.816Z" fill="#2A353D"/>
<path d="M101.813 109.094H98.1771V112.73H101.813V109.094Z" fill="#2A353D"/>
<path d="M105.447 0H101.811V3.63619H105.447V0Z" fill="#2A353D"/>
<path d="M105.447 7.27734H101.811V10.9135H105.447V7.27734Z" fill="#2A353D"/>
<path d="M105.447 10.9141H101.811V14.5503H105.447V10.9141Z" fill="#2A353D"/>
<path d="M105.447 14.5469H101.811V18.1831H105.447V14.5469Z" fill="#2A353D"/>
<path d="M105.447 21.8203H101.811V25.4565H105.447V21.8203Z" fill="#2A353D"/>
<path d="M105.447 29.0938H101.811V32.7299H105.447V29.0938Z" fill="#2A353D"/>
<path d="M105.447 36.3633H101.811V39.9995H105.447V36.3633Z" fill="#2A353D"/>
<path d="M105.447 40H101.811V43.6362H105.447V40Z" fill="#2A353D"/>
<path d="M105.447 47.2695H101.811V50.9057H105.447V47.2695Z" fill="#2A353D"/>
<path d="M105.447 58.1836H101.811V61.8198H105.447V58.1836Z" fill="#2A353D"/>
<path d="M105.447 83.6328H101.811V87.269H105.447V83.6328Z" fill="#2A353D"/>
<path d="M105.447 87.2734H101.811V90.9096H105.447V87.2734Z" fill="#2A353D"/>
<path d="M105.447 90.9062H101.811V94.5424H105.447V90.9062Z" fill="#2A353D"/>
<path d="M105.447 94.5469H101.811V98.1831H105.447V94.5469Z" fill="#2A353D"/>
<path d="M105.447 98.1758H101.811V101.812H105.447V98.1758Z" fill="#2A353D"/>
<path d="M105.447 101.816H101.811V105.453H105.447V101.816Z" fill="#2A353D"/>
<path d="M105.447 105.449H101.811V109.085H105.447V105.449Z" fill="#2A353D"/>
<path d="M105.447 109.082H101.811V112.718H105.447V109.082Z" fill="#2A353D"/>
<path d="M105.447 112.723H101.811V116.359H105.447V112.723Z" fill="#2A353D"/>
<path d="M105.447 116.363H101.811V119.999H105.447V116.363Z" fill="#2A353D"/>
<path d="M109.085 0H105.449V3.63619H109.085V0Z" fill="#2A353D"/>
<path d="M109.085 7.27734H105.449V10.9135H109.085V7.27734Z" fill="#2A353D"/>
<path d="M109.085 10.9141H105.449V14.5503H109.085V10.9141Z" fill="#2A353D"/>
<path d="M109.085 14.5469H105.449V18.1831H109.085V14.5469Z" fill="#2A353D"/>
<path d="M109.085 21.8203H105.449V25.4565H109.085V21.8203Z" fill="#2A353D"/>
<path d="M109.085 32.7266H105.449V36.3628H109.085V32.7266Z" fill="#2A353D"/>
<path d="M109.085 36.3633H105.449V39.9995H109.085V36.3633Z" fill="#2A353D"/>
<path d="M109.085 43.6367H105.449V47.2729H109.085V43.6367Z" fill="#2A353D"/>
<path d="M109.085 47.2695H105.449V50.9057H109.085V47.2695Z" fill="#2A353D"/>
<path d="M109.085 50.9062H105.449V54.5424H109.085V50.9062Z" fill="#2A353D"/>
<path d="M109.085 54.5391H105.449V58.1753H109.085V54.5391Z" fill="#2A353D"/>
<path d="M109.085 61.8125H105.449V65.4487H109.085V61.8125Z" fill="#2A353D"/>
<path d="M109.085 65.4531H105.449V69.0893H109.085V65.4531Z" fill="#2A353D"/>
<path d="M109.085 69.0859H105.449V72.7221H109.085V69.0859Z" fill="#2A353D"/>
<path d="M109.085 72.7266H105.449V76.3628H109.085V72.7266Z" fill="#2A353D"/>
<path d="M109.085 80H105.449V83.6362H109.085V80Z" fill="#2A353D"/>
<path d="M109.085 83.6328H105.449V87.269H109.085V83.6328Z" fill="#2A353D"/>
<path d="M109.085 87.2734H105.449V90.9096H109.085V87.2734Z" fill="#2A353D"/>
<path d="M109.085 90.9062H105.449V94.5424H109.085V90.9062Z" fill="#2A353D"/>
<path d="M109.085 94.5469H105.449V98.1831H109.085V94.5469Z" fill="#2A353D"/>
<path d="M109.085 105.449H105.449V109.085H109.085V105.449Z" fill="#2A353D"/>
<path d="M109.085 116.363H105.449V119.999H109.085V116.363Z" fill="#2A353D"/>
<path d="M112.727 0H109.091V3.63619H112.727V0Z" fill="#2A353D"/>
<path d="M112.727 7.27734H109.091V10.9135H112.727V7.27734Z" fill="#2A353D"/>
<path d="M112.727 10.9141H109.091V14.5503H112.727V10.9141Z" fill="#2A353D"/>
<path d="M112.727 14.5469H109.091V18.1831H112.727V14.5469Z" fill="#2A353D"/>
<path d="M112.727 21.8203H109.091V25.4565H112.727V21.8203Z" fill="#2A353D"/>
<path d="M112.727 29.0938H109.091V32.7299H112.727V29.0938Z" fill="#2A353D"/>
<path d="M112.727 47.2695H109.091V50.9057H112.727V47.2695Z" fill="#2A353D"/>
<path d="M112.727 61.8125H109.091V65.4487H112.727V61.8125Z" fill="#2A353D"/>
<path d="M112.727 76.3594H109.091V79.9956H112.727V76.3594Z" fill="#2A353D"/>
<path d="M112.727 94.5469H109.091V98.1831H112.727V94.5469Z" fill="#2A353D"/>
<path d="M112.727 105.449H109.091V109.085H112.727V105.449Z" fill="#2A353D"/>
<path d="M112.727 109.082H109.091V112.718H112.727V109.082Z" fill="#2A353D"/>
<path d="M116.358 0H112.722V3.63619H116.358V0Z" fill="#2A353D"/>
<path d="M116.358 21.8203H112.722V25.4565H116.358V21.8203Z" fill="#2A353D"/>
<path d="M116.358 29.0938H112.722V32.7299H116.358V29.0938Z" fill="#2A353D"/>
<path d="M116.358 40H112.722V43.6362H116.358V40Z" fill="#2A353D"/>
<path d="M116.358 47.2695H112.722V50.9057H116.358V47.2695Z" fill="#2A353D"/>
<path d="M116.358 50.9062H112.722V54.5424H116.358V50.9062Z" fill="#2A353D"/>
<path d="M116.358 54.5391H112.722V58.1753H116.358V54.5391Z" fill="#2A353D"/>
<path d="M116.358 65.4531H112.722V69.0893H116.358V65.4531Z" fill="#2A353D"/>
<path d="M116.358 72.7266H112.722V76.3628H116.358V72.7266Z" fill="#2A353D"/>
<path d="M116.358 83.6328H112.722V87.269H116.358V83.6328Z" fill="#2A353D"/>
<path d="M116.358 94.5469H112.722V98.1831H116.358V94.5469Z" fill="#2A353D"/>
<path d="M116.358 105.449H112.722V109.085H116.358V105.449Z" fill="#2A353D"/>
<path d="M116.358 109.094H112.722V112.73H116.358V109.094Z" fill="#2A353D"/>
<path d="M116.358 116.363H112.722V119.999H116.358V116.363Z" fill="#2A353D"/>
<path d="M120 0H116.364V3.63619H120V0Z" fill="#2A353D"/>
<path d="M120 3.63281H116.364V7.26901H120V3.63281Z" fill="#2A353D"/>
<path d="M120 7.27734H116.364V10.9135H120V7.27734Z" fill="#2A353D"/>
<path d="M120 10.9062H116.364V14.5424H120V10.9062Z" fill="#2A353D"/>
<path d="M120 14.5469H116.364V18.1831H120V14.5469Z" fill="#2A353D"/>
<path d="M120 18.1797H116.364V21.8159H120V18.1797Z" fill="#2A353D"/>
<path d="M120 21.8203H116.364V25.4565H120V21.8203Z" fill="#2A353D"/>
<path d="M120 32.7266H116.364V36.3628H120V32.7266Z" fill="#2A353D"/>
<path d="M120 36.3633H116.364V39.9995H120V36.3633Z" fill="#2A353D"/>
<path d="M120 40H116.364V43.6362H120V40Z" fill="#2A353D"/>
<path d="M120 43.6367H116.364V47.2729H120V43.6367Z" fill="#2A353D"/>
<path d="M120 47.2695H116.364V50.9057H120V47.2695Z" fill="#2A353D"/>
<path d="M120 58.1836H116.364V61.8198H120V58.1836Z" fill="#2A353D"/>
<path d="M120 65.4531H116.364V69.0893H120V65.4531Z" fill="#2A353D"/>
<path d="M120 76.3594H116.364V79.9956H120V76.3594Z" fill="#2A353D"/>
<path d="M120 80H116.364V83.6362H120V80Z" fill="#2A353D"/>
<path d="M120 83.6328H116.364V87.269H120V83.6328Z" fill="#2A353D"/>
<path d="M120 90.9062H116.364V94.5424H120V90.9062Z" fill="#2A353D"/>
<path d="M120 98.1758H116.364V101.812H120V98.1758Z" fill="#2A353D"/>
<path d="M120 101.816H116.364V105.453H120V101.816Z" fill="#2A353D"/>
<path d="M120 105.449H116.364V109.085H120V105.449Z" fill="#2A353D"/>
<path d="M120 109.094H116.364V112.73H120V109.094Z" fill="#2A353D"/>
</svg>
