<svg width="24" height="24" viewBox="0 0 24 24" fill="none" xmlns="http://www.w3.org/2000/svg">
<path d="M19.7296 14.9426L14.9421 19.7301C14.769 19.9029 14.5344 20 14.2898 20C14.0452 20 13.8106 19.9029 13.6375 19.7301L4.13641 10.2289C4.08867 10.1833 4.05174 10.1276 4.02831 10.0658C4.00489 10.0041 3.99557 9.93785 4.00103 9.87203L4.72715 5.15839C4.73308 5.04607 4.78036 4.93991 4.85989 4.86038C4.93943 4.78085 5.04558 4.73356 5.1579 4.72764L9.87154 4.00152C9.93736 3.99606 10.0036 4.00538 10.0653 4.0288C10.1271 4.05222 10.1828 4.08916 10.2284 4.1369L19.7296 13.638C19.9024 13.8111 19.9995 14.0457 19.9995 14.2903C19.9995 14.5349 19.9024 14.7695 19.7296 14.9426V14.9426Z" stroke="#505C64" stroke-width="1.5" stroke-linecap="round" stroke-linejoin="round"/>
<path d="M8.49951 9C8.77565 9 8.99951 8.77614 8.99951 8.5C8.99951 8.22386 8.77565 8 8.49951 8C8.22337 8 7.99951 8.22386 7.99951 8.5C7.99951 8.77614 8.22337 9 8.49951 9Z" stroke="#505C64" stroke-width="1.71429" stroke-linecap="round" stroke-linejoin="round"/>
</svg>
