<svg width="24" height="27" viewBox="0 0 24 27" fill="none" xmlns="http://www.w3.org/2000/svg">
<path d="M22.6525 20.9497C22.2512 21.8682 21.7763 22.7137 21.2261 23.491C20.476 24.5508 19.8619 25.2843 19.3886 25.6916C18.655 26.3603 17.8689 26.7027 17.0271 26.7222C16.4228 26.7222 15.6941 26.5518 14.8458 26.2061C13.9947 25.862 13.2126 25.6916 12.4974 25.6916C11.7473 25.6916 10.9429 25.862 10.0825 26.2061C9.22078 26.5518 8.52657 26.7319 7.99581 26.7497C7.18861 26.7838 6.38403 26.4317 5.58093 25.6916C5.06834 25.2486 4.4272 24.4891 3.65914 23.4132C2.83508 22.2642 2.15758 20.9318 1.62682 19.4128C1.05839 17.7721 0.773438 16.1833 0.773438 14.6452C0.773438 12.8833 1.15763 11.3636 1.92716 10.0902C2.53195 9.06727 3.33653 8.26039 4.34352 7.66804C5.35051 7.0757 6.43857 6.77385 7.61031 6.75454C8.25145 6.75454 9.09222 6.95107 10.137 7.33731C11.1789 7.72484 11.8479 7.92137 12.1412 7.92137C12.3605 7.92137 13.1036 7.69157 14.3635 7.23344C15.5549 6.80858 16.5604 6.63266 17.3841 6.70196C19.6163 6.88047 21.2932 7.75243 22.4085 9.32336C20.4122 10.522 19.4247 12.2008 19.4443 14.3545C19.4623 16.0321 20.0764 17.4281 21.2834 18.5365C21.8304 19.0509 22.4412 19.4485 23.1208 19.7309C22.9735 20.1545 22.8179 20.5602 22.6525 20.9497ZM17.5332 0.986908C17.5332 2.30176 17.0484 3.52944 16.0822 4.66576C14.9162 6.01662 13.5059 6.79722 11.9765 6.67404C11.957 6.5163 11.9457 6.35028 11.9457 6.17583C11.9457 4.91357 12.5002 3.5627 13.4849 2.45819C13.9765 1.89895 14.6018 1.43396 15.36 1.06302C16.1166 0.697617 16.8323 0.495542 17.5053 0.460938C17.525 0.636713 17.5332 0.812499 17.5332 0.986891V0.986908Z" fill="#505C64"/>
</svg>
