<svg width="18" height="18" viewBox="0 0 18 18" fill="none" xmlns="http://www.w3.org/2000/svg">
<circle cx="9" cy="9" r="8.25" stroke="#88999C" stroke-width="1.5"/>
<path d="M8 13C7.70526 13 7.47368 12.923 7.30526 12.769C7.13684 12.615 7.05263 12.4047 7.05263 12.1382C7.05263 11.8657 7.13333 11.4985 7.29474 11.0365C7.46316 10.5686 7.62807 10.1451 7.78947 9.76604C7.95789 9.38697 8.04211 9.13524 8.04211 9.01086C8.04211 8.88055 7.99298 8.8154 7.89474 8.8154C7.64912 8.8154 7.25263 9.22409 6.70526 10.0415L6 9.69497C7.03158 8.22606 7.97895 7.49161 8.84211 7.49161C9.43158 7.49161 9.72632 7.80553 9.72632 8.43337C9.72632 8.61698 9.65614 8.91017 9.51579 9.31293L8.75789 11.1431C8.6807 11.3149 8.64211 11.4719 8.64211 11.614C8.64211 11.7502 8.70526 11.8184 8.83158 11.8184C9.07018 11.8184 9.50877 11.4452 10.1474 10.6989L10.5895 11.0454C10.2105 11.6377 9.75789 12.1115 9.23158 12.4669C8.71228 12.8223 8.30175 13 8 13ZM11 4.87068C11 5.1076 10.9053 5.32379 10.7158 5.51925C10.5263 5.71471 10.2702 5.81244 9.94737 5.81244C9.62456 5.81244 9.38246 5.73248 9.22105 5.57256C9.05965 5.40671 8.97895 5.19941 8.97895 4.95064C8.97895 4.70188 9.07719 4.48272 9.27368 4.29319C9.47719 4.09773 9.73684 4 10.0526 4C10.3684 4 10.6035 4.08588 10.7579 4.25765C10.9193 4.42349 11 4.62784 11 4.87068Z" fill="#88999C"/>
</svg>
