<svg width="140" height="140" viewBox="0 0 140 140" fill="none" xmlns="http://www.w3.org/2000/svg">
<circle cx="70" cy="70" r="50" fill="#FCEFD9"/>
<path d="M46.8655 64.8935C44.6857 56.7581 49.5136 48.396 57.6489 46.2162L78.9895 40.498C80.1898 40.1764 81.4235 40.8887 81.7451 42.089L90.7576 75.7238C92.9374 83.8592 88.1096 92.2213 79.9742 94.4012L58.6337 100.119C57.4334 100.441 56.1996 99.7287 55.878 98.5284L46.8655 64.8935Z" fill="#ACBBBE" stroke="#505C64" stroke-width="1.5"/>
<rect x="82" y="66" width="10" height="29" fill="#FCEFD9"/>
<path d="M48 59C48 50.1634 55.1634 43 64 43H86.0933C87.7502 43 89.0933 44.3431 89.0933 46V80.8214C89.0933 89.6579 81.9299 96.8214 73.0933 96.8214H51C49.3431 96.8214 48 95.4782 48 93.8214V59Z" fill="white"/>
<path d="M89.0933 67.5V46C89.0933 44.3431 87.7502 43 86.0933 43H64C55.1634 43 48 50.1634 48 59V93.8214C48 95.4782 49.3431 96.8214 51 96.8214H71C77 96.8214 81 95.5 84 92.5" stroke="#505C64" stroke-width="1.5"/>
<path d="M69.6092 92.1999C69.2603 92.3205 68.9117 92.3489 68.579 92.1999C68.0638 91.9692 68.0007 91.7638 67.8063 91.4272L67.7545 91.299C67.6408 91.0176 67.7553 90.6957 68.0211 90.5493L68.0428 90.5374C68.3182 90.3856 68.6645 90.4836 68.8197 90.7571C68.8955 90.8862 68.9614 90.9411 68.9801 90.9501C69.0503 90.9725 69.1297 90.9761 69.2135 90.9472C69.4599 90.8464 69.6492 90.6257 69.8102 90.3681C69.5804 90.2457 69.3737 90.0997 69.1901 89.9302C67.9193 88.7852 67.0174 86.9401 67.2912 85.2457C67.3841 84.7011 67.548 84.2957 67.8063 83.9579C68.1705 83.4748 68.9427 83.065 69.4844 83.0952C69.9794 83.126 70.8236 83.4977 71.1546 83.9579C71.4241 84.3307 71.5777 84.8892 71.6697 85.2457C71.9652 86.4172 71.9058 87.6362 71.6697 88.8516C71.6343 89.0657 71.4702 89.3402 71.4121 89.6243C71.7436 89.634 71.9405 89.5697 72.1856 89.3296C72.3985 89.1318 72.508 88.861 72.6398 88.4737C72.7856 88.0817 72.8292 87.7559 72.7935 87.4266C72.7486 87.1159 72.9028 86.5794 73.2151 86.5335C73.4388 86.5028 73.8739 86.5975 73.9877 86.7911C74.1434 86.9703 74.8536 87.7073 75.018 87.8214C75.3891 88.0814 75.6515 88.1736 75.7907 88.0789C75.9386 87.9782 75.9776 87.6451 76.0419 87.4266C76.1641 87.0116 76.3284 86.7031 76.3058 86.276C76.2897 86.0486 76.3448 85.5806 76.5633 85.4895C76.7771 85.3846 77.1712 85.3428 77.336 85.5033L77.8511 86.0184C78.2986 86.454 78.6124 86.8451 79.0333 86.9326C79.3046 86.9941 79.5923 86.8312 79.6541 86.7911C79.7158 86.751 79.9116 86.276 79.9116 86.276L79.9503 86.1995C80.0808 85.9409 80.368 85.8013 80.652 85.8584L80.7306 85.8742C81.0343 85.9352 81.2317 86.2299 81.1725 86.534C81.0787 86.9857 80.9761 87.5027 80.4287 87.8627C79.9463 88.1848 79.3452 88.2994 78.7748 88.1859C78.1903 88.0773 77.725 87.7256 77.3439 87.3914C77.3172 87.5404 77.2858 87.6755 77.2404 87.8154C77.0999 88.2678 76.887 88.9627 76.2698 89.3469C75.4855 89.8354 74.762 89.3244 74.3346 89.0373L74.2265 88.9504C74.2265 88.9504 74.015 88.7905 73.7703 88.58C73.7384 88.6687 73.7066 88.7573 73.6795 88.8599C73.5338 89.2519 73.3562 89.7327 72.9492 90.1374C72.3848 90.6742 71.6891 90.9079 70.9507 90.8059C70.685 91.3481 70.2835 91.9357 69.679 92.1758C69.665 92.1806 69.6371 92.1902 69.6092 92.1999ZM69.3213 84.4332C69.1957 84.4766 69.0705 84.5665 68.9876 84.6883C68.8493 84.8759 68.7538 85.1419 68.6918 85.505C68.4844 86.8037 68.9875 88.214 69.9665 89.1026C70.0372 89.1714 70.1218 89.2354 70.2204 89.2945C70.2788 89.0568 70.3142 88.8427 70.35 88.675C70.5456 87.6134 70.5261 86.5174 70.2646 85.4895C70.2062 85.2301 70.1194 84.9339 69.9493 84.7132C69.8264 84.5382 69.648 84.429 69.4845 84.4079C69.4378 84.4085 69.3772 84.4139 69.3213 84.4332Z" fill="#505C64"/>
<path fill-rule="evenodd" clip-rule="evenodd" d="M57.9093 55C57.4072 55 57.0002 55.407 57.0002 55.9091C57.0002 56.4113 57.4072 56.8183 57.9093 56.8183H70.5277C71.0298 56.8183 71.4368 56.4113 71.4368 55.9091C71.4368 55.407 71.0298 55 70.5277 55H57.9093ZM57.9091 60.8183C57.407 60.8183 57 61.2253 57 61.7274C57 62.2296 57.407 62.6366 57.9091 62.6366H81.0909C81.593 62.6366 82 62.2296 82 61.7274C82 61.2253 81.593 60.8183 81.0909 60.8183H57.9091ZM57 67.5457C57 67.0436 57.407 66.6366 57.9091 66.6366H81.0909C81.593 66.6366 82 67.0436 82 67.5457C82 68.0479 81.593 68.4549 81.0909 68.4549H57.9091C57.407 68.4549 57 68.0479 57 67.5457ZM57.9091 72.4549C57.407 72.4549 57 72.8619 57 73.364C57 73.8662 57.407 74.2732 57.9091 74.2732H81.0909C81.593 74.2732 82 73.8662 82 73.364C82 72.8619 81.593 72.4549 81.0909 72.4549H57.9091Z" fill="#ACBBBE"/>
<circle cx="92" cy="81" r="11.25" fill="#0DA882" stroke="#505C64" stroke-width="1.5"/>
<path d="M88 82L91 84L96.5 78" stroke="white" stroke-width="2" stroke-linecap="round" stroke-linejoin="round"/>
</svg>
