<svg width="40" height="40" viewBox="0 0 40 40" fill="none" xmlns="http://www.w3.org/2000/svg">
<rect width="40" height="40" rx="12" fill="#E9EFF0"/>
<path d="M21.1113 24.136V27.8891C21.1113 28.4414 21.559 28.8891 22.1113 28.8891H29.0002C29.5525 28.8891 30.0002 28.4414 30.0002 27.8891V24.136M21.1113 24.136V22.1113C21.1113 21.559 21.559 21.1113 22.1113 21.1113H29.0002C29.5525 21.1113 30.0002 21.559 30.0002 22.1113V24.136M21.1113 24.136H30.0002" stroke="#829199" stroke-width="1.5"/>
<path d="M10 14.136V17.8891C10 18.4414 10.4477 18.8891 11 18.8891H17.8889C18.4412 18.8891 18.8889 18.4414 18.8889 17.8891V14.136M10 14.136V12.1113C10 11.559 10.4477 11.1113 11 11.1113H17.8889C18.4412 11.1113 18.8889 11.559 18.8889 12.1113V14.136M10 14.136H18.8889" stroke="#829199" stroke-width="1.5"/>
<path d="M27.7782 18.8893C27.7782 14.8613 25.5559 12.6552 21.6671 12.2227M12.2227 21.1115C12.2227 25.1396 15.0004 27.2227 18.8893 27.7782" stroke="#829199" stroke-width="1.5"/>
</svg>
