<svg width="36" height="36" viewBox="0 0 36 36" fill="none" xmlns="http://www.w3.org/2000/svg">
<rect width="36" height="36" rx="12" fill="#D9B681"/>
<path d="M11.5736 24.1162C14.057 24.1162 16.1736 22.8495 16.1736 20.4495C16.1736 18.0995 14.157 17.4995 13.057 17.1995L10.8403 16.5662C9.9903 16.3329 8.97363 15.9829 8.97363 14.9829C8.97363 13.9662 10.0736 13.2495 11.407 13.2662C12.7903 13.2995 13.9736 14.0995 14.2236 15.4662L16.0903 15.1329C15.607 12.9329 13.8736 11.6495 11.4236 11.6329C9.00697 11.6162 7.1403 12.8495 7.1403 15.0662C7.1403 17.0162 8.57363 17.7162 9.77363 18.0662L12.857 18.9829C13.7403 19.2495 14.357 19.6995 14.357 20.5495C14.357 21.7662 13.1236 22.4662 11.6736 22.4662C10.107 22.4662 8.8403 21.6162 8.47363 20.1495L6.67363 20.4329C7.05697 22.7162 8.9903 24.1162 11.5736 24.1162ZM17.9495 23.8662H19.5995V15.6495L23.4662 23.8662H24.2662L28.1495 15.6495V23.8662H29.7829V11.8662H28.1995L23.8662 20.8995L19.5329 11.8662H17.9495V23.8662Z" fill="white"/>
</svg>
