<svg width="36" height="36" viewBox="0 0 36 36" fill="none" xmlns="http://www.w3.org/2000/svg">
<rect x="0.5" y="0.5" width="35" height="35" rx="11.5" fill="#D0D6D8" stroke="#FF5721"/>
<path d="M9.68836 25.3C12.6684 25.3 15.2084 23.78 15.2084 20.9C15.2084 18.08 12.7884 17.36 11.4684 17L8.80836 16.24C7.78836 15.96 6.56836 15.54 6.56836 14.34C6.56836 13.12 7.88836 12.26 9.48836 12.28C11.1484 12.32 12.5684 13.28 12.8684 14.92L15.1084 14.52C14.5284 11.88 12.4484 10.34 9.50836 10.32C6.60836 10.3 4.36836 11.78 4.36836 14.44C4.36836 16.78 6.08836 17.62 7.52836 18.04L11.2284 19.14C12.2884 19.46 13.0284 20 13.0284 21.02C13.0284 22.48 11.5484 23.32 9.80836 23.32C7.92836 23.32 6.40836 22.3 5.96836 20.54L3.80836 20.88C4.26836 23.62 6.58836 25.3 9.68836 25.3ZM17.3395 25H19.3195V15.14L23.9595 25H24.9195L29.5795 15.14V25H31.5395V10.6H29.6395L24.4395 21.44L19.2395 10.6H17.3395V25Z" fill="white"/>
</svg>
