<svg width="24" height="24" viewBox="0 0 24 24" fill="none" xmlns="http://www.w3.org/2000/svg">
<g clip-path="url(#clip0_11481_1477)">
<path fill-rule="evenodd" clip-rule="evenodd" d="M17 3C16.4477 3 16 3.44772 16 4C16 4.55228 16.4477 5 17 5C17.5523 5 18 4.55228 18 4C18 3.44772 17.5523 3 17 3ZM13 7C13 6.44772 13.4477 6 14 6C14.5523 6 15 6.44772 15 7C15 7.55228 14.5523 8 14 8C13.4477 8 13 7.55228 13 7ZM13 10C13 9.44772 13.4477 9 14 9C14.5523 9 15 9.44772 15 10C15 10.5523 14.5523 11 14 11C13.4477 11 13 10.5523 13 10ZM16 7C16 6.44772 16.4477 6 17 6C17.5523 6 18 6.44772 18 7C18 7.55228 17.5523 8 17 8C16.4477 8 16 7.55228 16 7ZM17 9C16.4477 9 16 9.44772 16 10C16 10.5523 16.4477 11 17 11C17.5523 11 18 10.5523 18 10C18 9.44772 17.5523 9 17 9ZM19 4C19 3.44772 19.4477 3 20 3C20.5523 3 21 3.44772 21 4C21 4.55228 20.5523 5 20 5C19.4477 5 19 4.55228 19 4ZM20 6C19.4477 6 19 6.44772 19 7C19 7.55228 19.4477 8 20 8C20.5523 8 21 7.55228 21 7C21 6.44772 20.5523 6 20 6ZM19 10C19 9.44772 19.4477 9 20 9C20.5523 9 21 9.44772 21 10C21 10.5523 20.5523 11 20 11C19.4477 11 19 10.5523 19 10ZM13 4C13 3.44772 13.4477 3 14 3C14.5523 3 15 3.44772 15 4C15 4.55228 14.5523 5 14 5C13.4477 5 13 4.55228 13 4Z" fill="#505C64"/>
<path d="M9.64161 9.64879C9.14161 8.64879 8.6416 7.64893 7.6416 6.14893C7.1416 5.39906 4.64167 7.64899 4.14164 9.14898C2.8526 13.0159 10.6417 21.6488 16.1416 21.149C17.1375 21.0585 19.6417 18.8561 19.6416 18.149C19.6416 17.6489 16.1416 15.1489 15.6416 15.1489C15.1416 15.1489 14.7409 16.0994 13.6416 16.649C12.1416 17.399 8.1416 12.6489 8.6416 11.6489C8.95783 11.0164 10.1416 10.6488 9.64161 9.64879Z" stroke="#505C64" stroke-width="1.5"/>
</g>
<defs>
<clipPath id="clip0_11481_1477">
<rect width="24" height="24" fill="white"/>
</clipPath>
</defs>
</svg>
