<svg width="36" height="36" viewBox="0 0 36 36" fill="none" xmlns="http://www.w3.org/2000/svg">
<rect width="36" height="36" rx="12" fill="#D9B681"/>
<path d="M16.137 25.1997C15.857 25.1997 15.5503 25.1797 15.217 25.1397C14.8836 25.1131 14.5836 25.0664 14.317 24.9997V18.8797L12.377 19.5397V17.7997L14.317 17.1397V15.8997L12.377 16.5597V14.8197L14.317 14.1597V10.7197H17.237V13.1597L20.357 12.0797V13.8197L17.237 14.8997V16.1397L20.357 15.0597V16.7797L17.237 17.8597V22.7597C18.077 22.6131 18.7303 22.3331 19.197 21.9197C19.677 21.5064 20.0103 20.9664 20.197 20.2997C20.397 19.6331 20.497 18.8664 20.497 17.9997H23.237C23.237 18.9197 23.117 19.8131 22.877 20.6797C22.637 21.5331 22.2436 22.2997 21.697 22.9797C21.1636 23.6597 20.437 24.1997 19.517 24.5997C18.6103 24.9997 17.4836 25.1997 16.137 25.1997Z" fill="white"/>
</svg>
