<svg width="36" height="36" viewBox="0 0 36 36" fill="none" xmlns="http://www.w3.org/2000/svg">
<path d="M31 4C31.5523 4 32 4.44773 32 5.00001C32 13.6859 32 22.341 32 31.0075C32 31.5598 31.5523 32.0075 31 32.0075C22.3273 32.0075 13.6727 32.0075 5.00001 32.0075C4.44772 32.0075 4 31.5598 4 31.0075C4 22.3408 4 13.6796 4 5.00001C4 4.44772 4.44772 4 5 4C13.6662 4 22.3209 4 31 4ZM27.9354 28.1845C28.0759 28.2057 28.2179 28.0962 28.2022 27.9551C27.985 26.5918 27.7678 25.221 27.5431 23.8577C27.4981 23.5955 27.5581 23.4532 27.8202 23.3558C28.4944 23.1161 29.161 22.8464 29.8277 22.5918C30.123 22.4755 30.4182 22.3593 30.7157 22.242C31.3402 21.9957 31.5482 21.2149 31.131 20.6888C30.6548 20.0882 30.1836 19.4965 29.7004 18.9139C28.9363 17.985 28.9438 18.0075 29.7079 17.0787C30.4126 16.2358 31.0854 15.3674 31.7793 14.4971C31.8696 14.3838 31.8349 14.2111 31.7004 14.1573C30.412 13.6554 29.1236 13.1536 27.8352 12.6592C27.6255 12.5768 27.4831 12.5019 27.5281 12.2472C27.7004 11.206 27.8652 10.1723 28.03 9.13109C28.1329 8.46787 27.5477 7.89194 26.884 7.99206C26.5866 8.03692 26.2933 8.08151 26 8.12734C25.2809 8.2397 24.5543 8.35206 23.8352 8.47191C23.573 8.51685 23.4307 8.43446 23.3408 8.17228C23.206 7.7603 23.0412 7.3633 22.8839 6.9588C22.6704 6.41237 22.457 5.86595 22.2408 5.31397C21.9952 4.68714 21.2127 4.47857 20.687 4.89909C19.9946 5.45288 19.3112 5.99945 18.6316 6.54259C18.2666 6.83423 17.7484 6.8342 17.3834 6.54262C16.6938 5.99172 16.0129 5.44763 15.3319 4.90288C14.805 4.48132 14.0195 4.69117 13.7724 5.31913C13.3974 6.27222 13.0305 7.2074 12.6816 8.14981C12.5768 8.43446 12.4419 8.53183 12.1498 8.4794C11.1011 8.29962 10.0524 8.14232 8.99625 7.97753C8.39341 7.88653 7.88292 8.41318 7.97554 9.01578C8.11672 9.93425 8.25537 10.842 8.3915 11.7494C8.46081 12.2113 8.20021 12.6592 7.76484 12.8285C6.93961 13.1492 6.12394 13.4673 5.30393 13.7891C4.67787 14.0347 4.46974 14.8163 4.89031 15.3411C5.4427 16.0303 5.99081 16.7127 6.53966 17.3969C6.83283 17.7624 6.83263 18.2824 6.53922 18.6477C5.98836 19.3335 5.43939 20.0163 4.89106 20.701C4.47019 21.2266 4.68046 22.0089 5.3076 22.254C6.13266 22.5764 6.95015 22.8956 7.76762 23.214C8.20513 23.3844 8.46534 23.8361 8.39387 24.3001C8.25983 25.1704 8.12882 26.0335 7.99581 26.9032C7.89418 27.5677 8.46317 28.142 9.12797 28.0419C9.28704 28.018 9.44528 27.994 9.603 27.97C10.4719 27.8352 11.3408 27.7004 12.2022 27.5581C12.4419 27.5206 12.5768 27.5805 12.6592 27.8427C12.8539 28.427 13.1011 28.9963 13.3258 29.573C13.4768 29.9539 13.6277 30.3366 13.7795 30.7218C14.0265 31.3488 14.8102 31.5567 15.3363 31.1355C16.0224 30.5861 16.7036 30.0424 17.3924 29.4929C17.7567 29.2022 18.2736 29.2018 18.6381 29.4922C19.6063 30.2636 20.5722 31.0365 21.5465 31.8181C21.6476 31.8991 21.8021 31.8656 21.8502 31.7453C22.3596 30.4419 22.8689 29.1461 23.3633 27.8352C23.4607 27.573 23.603 27.5206 23.8352 27.5581C24.382 27.6479 24.9363 27.7378 25.4831 27.8277C26.2833 27.9362 27.0896 28.057 27.9354 28.1845Z" fill="#1295DB"/>
<path d="M28.2039 28.2249C27.26 28.0825 26.3687 27.9477 25.4773 27.8129C24.9304 27.7305 24.3761 27.6331 23.8293 27.5432C23.5971 27.5058 23.4548 27.5582 23.3574 27.8204C22.8705 29.1312 22.3537 30.4271 21.8443 31.7305C21.8143 31.7979 21.7844 31.8653 21.7394 31.9627C20.4885 30.9664 19.2525 29.9777 18.0091 28.9814C16.7507 29.9852 15.5297 30.9664 14.2713 31.9702C13.9492 31.1462 13.6346 30.3522 13.32 29.5582C13.0952 28.9814 12.8555 28.4121 12.6533 27.8279C12.5634 27.5732 12.4361 27.5058 12.1964 27.5432C11.3275 27.6855 10.4585 27.8204 9.59711 27.9552C9.00535 28.0451 8.4061 28.135 7.78438 28.2249C8.03157 26.6219 8.26378 25.0788 8.51097 23.4908C7.03532 22.914 5.55217 22.3372 4.03906 21.7455C5.04281 20.4945 6.03906 19.2586 7.03532 18.0076C6.03906 16.7642 5.0503 15.5282 4.03906 14.2698C5.53719 13.6855 7.00535 13.1162 8.50348 12.5245C8.26378 10.9589 8.02408 9.40089 7.78438 7.7979C8.19637 7.85782 8.59337 7.90277 8.99037 7.96269C10.0391 8.12749 11.0952 8.29228 12.1439 8.46456C12.4361 8.517 12.5709 8.41962 12.6758 8.13498C13.1851 6.78666 13.717 5.44584 14.2638 4.0376C15.5072 5.03385 16.7357 6.01513 18.0016 7.02636C19.2301 6.04509 20.4735 5.05632 21.7394 4.0376C22.129 5.02636 22.5035 5.98516 22.878 6.94396C23.0353 7.34846 23.2001 7.74546 23.3349 8.15745C23.4173 8.41962 23.5597 8.50202 23.8293 8.45707C24.5484 8.33722 25.2675 8.22486 25.9941 8.1125C26.7132 8.00014 27.4323 7.89528 28.2113 7.77543C28.1439 8.23984 28.0915 8.68179 28.0241 9.11625C27.8593 10.1574 27.6945 11.1912 27.5222 12.2324C27.4773 12.487 27.6196 12.5694 27.8293 12.6443C29.1252 13.1387 30.4061 13.6406 31.6945 14.1425C31.7694 14.1724 31.8443 14.2174 31.9492 14.2623C31.1926 15.2061 30.4585 16.1425 29.702 17.0638C28.9304 17.9927 28.9304 17.9702 29.6945 18.899C30.451 19.8204 31.1851 20.7567 31.9642 21.7305C31.2301 22.0226 30.526 22.2998 29.8218 22.5769C29.1552 22.8391 28.4885 23.1013 27.8143 23.341C27.5447 23.4383 27.4922 23.5807 27.5372 23.8428C27.7619 25.2061 27.9791 26.5769 28.1964 27.9402C28.2113 28.0226 28.2039 28.0975 28.2039 28.2249ZM25.9342 21.7829C25.9192 21.7754 25.9117 21.7679 25.8967 21.7604C26.1514 21.2361 26.5035 20.7342 26.6308 20.1799C26.7582 19.6106 26.6608 18.9889 26.6608 18.3897C26.6758 18.3897 26.6833 18.3822 26.6982 18.3822C26.7806 18.8316 26.863 19.281 26.9679 19.8204C27.3274 19.1986 27.6346 18.6668 27.9342 18.1275C27.9716 18.0676 27.9791 17.9477 27.9492 17.8878C27.6421 17.341 27.3274 16.8016 26.9679 16.1799C26.8705 16.7118 26.7881 17.1462 26.7057 17.5882C26.6683 16.9964 26.7657 16.3897 26.6383 15.8279C26.511 15.2736 26.1589 14.7717 25.9042 14.2473C25.9192 14.2398 25.9267 14.2324 25.9417 14.2174C26.1664 14.487 26.3911 14.7567 26.6683 15.0938C26.6683 14.3822 26.6758 13.753 26.6608 13.1237C26.6608 13.0563 26.5934 12.9589 26.5334 12.9215C26.0016 12.6069 25.4698 12.2998 24.8555 11.9477C25.0428 12.4421 25.1926 12.8466 25.3499 13.2586C24.8106 12.1125 24.0391 11.2061 22.7582 10.7942C22.7806 10.7642 22.8106 10.7342 22.8331 10.7043C23.2226 10.8466 23.6121 10.9964 24.0765 11.1687C23.7394 10.5844 23.4473 10.0751 23.1552 9.58067C23.1027 9.49827 23.0054 9.37842 22.9304 9.37842C22.2937 9.36344 21.6495 9.37093 20.9379 9.37093C21.3274 9.69303 21.6495 9.9552 21.9716 10.2174C21.5522 10.0451 21.1627 9.82786 20.7881 9.59565C20.5185 9.42337 20.2413 9.34846 19.9117 9.36344C19.3799 9.38591 18.8481 9.37093 18.3087 9.37093C18.3087 9.35595 18.3087 9.34097 18.3087 9.3185C18.7881 9.24359 19.2675 9.16868 19.8593 9.07131C19.2076 8.69677 18.6683 8.37468 18.114 8.06756C18.0615 8.0376 17.9716 8.05258 17.9192 8.08254C17.3724 8.38966 16.8256 8.70426 16.1964 9.07131C16.7881 9.16119 17.2825 9.24359 17.7769 9.3185C17.305 9.36344 16.8331 9.38591 16.3686 9.35595C15.9042 9.32599 15.4922 9.42337 15.1027 9.68554C14.8181 9.88029 14.5035 10.0301 14.2039 10.1949C14.1889 10.1724 14.1814 10.1574 14.1664 10.135C14.451 9.89528 14.7357 9.66307 15.1027 9.36344C14.3911 9.36344 13.7994 9.36344 13.2001 9.37093C13.1252 9.37093 13.0054 9.40089 12.9754 9.45333C12.6458 10.0001 12.3237 10.5619 11.9642 11.1837C12.4361 11.0039 12.8256 10.8541 13.2076 10.7118C13.2301 10.7417 13.2525 10.7717 13.2675 10.8016C12.0466 11.2436 11.2226 12.0751 10.7956 13.3035C10.7657 13.281 10.7357 13.2586 10.7132 13.2361C10.863 12.8316 11.0203 12.4271 11.1926 11.9627C10.6009 12.2998 10.069 12.5919 9.55217 12.9065C9.46977 12.9589 9.37989 13.0713 9.37989 13.1612C9.36491 13.7754 9.3724 14.3971 9.3724 15.1162C9.69449 14.7267 9.94917 14.4196 10.2039 14.1125C10.0391 14.532 9.79936 14.8915 9.61959 15.2885C9.49225 15.5582 9.40985 15.8578 9.37989 16.1574C9.34243 16.6443 9.3724 17.1387 9.3724 17.6331C9.35741 17.6331 9.33494 17.6331 9.31996 17.6331C9.25255 17.1912 9.17764 16.7492 9.08775 16.1874C8.71322 16.8316 8.39861 17.3784 8.0915 17.9177C8.06903 17.9627 8.05404 18.0376 8.07652 18.0825C8.39112 18.6443 8.71322 19.2061 9.09524 19.8578C9.18513 19.2885 9.26004 18.8391 9.32745 18.3971C9.3724 18.8616 9.38738 19.326 9.36491 19.7829C9.34992 20.1724 9.42483 20.5095 9.64955 20.8316C9.87427 21.1687 10.0615 21.5357 10.2563 21.8878C10.2338 21.9028 10.2188 21.9103 10.1964 21.9252C9.94168 21.6181 9.687 21.3035 9.36491 20.914C9.36491 21.6331 9.35741 22.2398 9.3724 22.8466C9.3724 22.929 9.43232 23.0488 9.49974 23.0863C10.0316 23.4084 10.5784 23.723 11.1926 24.0751C11.0128 23.5957 10.863 23.2061 10.7207 22.8091C10.9754 23.1387 11.1926 23.4833 11.3799 23.8428C11.5672 24.2099 11.8218 24.4795 12.2039 24.6668C12.5559 24.8391 12.8855 25.0638 13.2301 25.2661C13.2226 25.281 13.2076 25.3035 13.2001 25.3185C12.8106 25.1762 12.4286 25.0264 11.9716 24.8541C12.3162 25.4533 12.6158 25.9852 12.9304 26.517C12.9679 26.5844 13.0503 26.6743 13.1177 26.6818C13.7544 26.6968 14.3911 26.6893 15.1402 26.6893C14.7582 26.3747 14.466 26.135 14.1739 25.8953C14.2638 25.8728 14.3387 25.8878 14.3836 25.9327C15.2975 26.6668 16.3462 26.8166 17.4698 26.7043C17.4922 26.7043 17.5147 26.7043 17.5372 26.7043C17.5372 26.7192 17.5372 26.7267 17.5372 26.7417C17.1177 26.8166 16.6982 26.8915 16.2039 26.9814C16.8106 27.3335 17.3424 27.6481 17.8743 27.9477C17.9417 27.9852 18.069 27.9927 18.1364 27.9552C18.6758 27.6556 19.2076 27.341 19.8218 26.9889C19.305 26.8915 18.878 26.8091 18.451 26.7267C18.8406 26.7043 19.2301 26.6893 19.6121 26.7118C20.0915 26.7417 20.511 26.6443 20.9155 26.3747C21.2376 26.1574 21.5896 25.9777 21.9267 25.7904C21.9342 25.8054 21.9417 25.8204 21.9567 25.8428C21.6271 26.1125 21.305 26.3822 20.9005 26.7118C21.6196 26.7118 22.2263 26.7118 22.8331 26.7043C22.908 26.7043 23.0203 26.6668 23.0578 26.6144C23.3874 26.0601 23.7095 25.4983 24.0765 24.8691C23.5971 25.0488 23.2151 25.1986 22.8256 25.341C23.1627 25.0713 23.5147 24.8541 23.8892 24.6593C24.2338 24.4795 24.4735 24.2324 24.6458 23.8878C24.8406 23.5058 25.0728 23.1462 25.2975 22.7717C25.3125 22.7792 25.32 22.7867 25.3349 22.7942C25.1851 23.1986 25.0353 23.6031 24.8555 24.09C25.4548 23.738 25.9716 23.4458 26.4885 23.1387C26.5634 23.0938 26.6608 22.9964 26.6608 22.9215C26.6758 22.2923 26.6683 21.6631 26.6683 20.944C26.3686 21.2586 26.1514 21.5207 25.9342 21.7829ZM6.18139 21.1687C7.01285 21.6481 7.81434 22.1125 8.6458 22.5919C8.73569 22.0601 8.82558 21.5882 8.893 21.1163C8.93045 20.8691 9.02783 20.5395 8.91547 20.3672C8.53344 19.7904 8.06903 19.2736 7.60461 18.7043C7.12521 19.5432 6.66079 20.3372 6.18139 21.1687ZM17.3125 28.4121C16.7432 27.9552 16.2113 27.5282 15.6795 27.1088C15.6346 27.0713 15.5672 27.0339 15.5147 27.0413C14.8331 27.1462 14.1589 27.2586 13.4173 27.3784C13.9042 28.2249 14.3686 29.0189 14.8406 29.8428C15.6795 29.3485 16.481 28.8915 17.3125 28.4121ZM13.4173 8.64434C14.1514 8.76419 14.8181 8.87655 15.4848 8.98142C15.5372 8.98891 15.6121 8.96644 15.657 8.92898C16.2039 8.50202 16.7432 8.06756 17.3125 7.61063C16.4735 7.13123 15.672 6.66681 14.8406 6.18741C14.3686 7.00389 13.9117 7.79041 13.4173 8.64434ZM6.18139 14.8391C6.67577 15.6855 7.1327 16.4721 7.6121 17.3035C8.06902 16.7267 8.49599 16.2024 8.92296 15.6631C8.96041 15.6106 8.99037 15.5282 8.98288 15.4608C8.87801 14.7942 8.77315 14.135 8.6533 13.4159C7.80685 13.9028 7.00535 14.3597 6.18139 14.8391ZM27.3724 22.5994C28.2263 22.105 29.0278 21.6406 29.8368 21.1687C29.3574 20.3372 28.9005 19.5507 28.4211 18.7192C28.1439 19.0638 27.9267 19.3859 27.6495 19.6631C27.2151 20.1125 26.9005 20.5769 27.1552 21.2361C27.1627 21.2436 27.1552 21.2586 27.1552 21.2736C27.2226 21.693 27.2975 22.12 27.3724 22.5994ZM21.1851 29.8354C21.672 28.9889 22.129 28.1949 22.6084 27.3634C21.9567 27.2661 21.3724 27.1762 20.7881 27.0938C20.6458 27.0713 20.4585 27.0339 20.3687 27.1088C19.8218 27.5207 19.29 27.9552 18.7207 28.4121C19.5597 28.899 20.3537 29.356 21.1851 29.8354ZM18.7207 7.60314C19.29 8.06007 19.8069 8.47955 20.3237 8.88404C20.3761 8.92898 20.4585 8.98142 20.5185 8.97393C21.2001 8.87655 21.8743 8.76419 22.6009 8.64434C22.114 7.80539 21.657 7.01138 21.1776 6.17992C20.3537 6.65932 19.5672 7.11625 18.7207 7.60314ZM9.3724 12.1874C10.0466 11.9252 10.6907 11.6855 11.3275 11.4309C11.3724 11.4159 11.4173 11.3709 11.4323 11.3335C11.687 10.6893 11.9342 10.0376 12.1889 9.38591C11.2226 9.38591 10.3087 9.38591 9.3724 9.38591C9.3724 10.2998 9.3724 11.2061 9.3724 12.1874ZM29.8368 14.8391C29.0054 14.3597 28.2113 13.9028 27.3574 13.4159C27.2525 14.1574 27.1477 14.8316 27.0653 15.4983C27.0578 15.5732 27.1102 15.6706 27.1552 15.7305C27.5597 16.2398 27.9716 16.7492 28.4136 17.296C28.9005 16.4646 29.3574 15.678 29.8368 14.8391ZM9.3724 26.6518C10.3312 26.6518 11.2451 26.6518 12.1964 26.6518C12.069 26.3297 11.9117 26.0376 11.8443 25.7305C11.657 24.8691 11.1552 24.3672 10.3012 24.1724C9.98663 24.105 9.69449 23.9552 9.36491 23.8354C9.3724 24.8091 9.3724 25.7155 9.3724 26.6518ZM26.6533 9.38591C25.7095 9.38591 24.8031 9.38591 23.8443 9.38591C23.9492 9.66307 24.0915 9.91026 24.1364 10.1649C24.3237 11.1537 24.923 11.6855 25.8743 11.9028C26.129 11.9627 26.3686 12.0751 26.6458 12.1724C26.6533 11.2061 26.6533 10.3148 26.6533 9.38591ZM26.6458 23.8279C25.9716 24.0825 25.3499 24.3222 24.7357 24.5619C24.6758 24.5844 24.6083 24.6518 24.5859 24.7192C24.3387 25.3485 24.0915 25.9777 23.8293 26.6443C24.7956 26.6443 25.7095 26.6443 26.6458 26.6443C26.6458 25.723 26.6458 24.8166 26.6458 23.8279Z" fill="white"/>
<path d="M25.931 21.7828C26.1482 21.5206 26.3654 21.2585 26.6576 20.9064C26.6576 21.633 26.6651 22.2622 26.6501 22.8839C26.6501 22.9588 26.5527 23.0562 26.4778 23.1012C25.9684 23.4083 25.4516 23.7004 24.8448 24.0525C25.0246 23.5656 25.1744 23.1611 25.3242 22.7566C25.3092 22.7491 25.3018 22.7416 25.2868 22.7341C25.0695 23.1012 24.8298 23.4682 24.6351 23.8502C24.4628 24.1948 24.2231 24.4495 23.8785 24.6218C23.504 24.809 23.1519 25.0338 22.8149 25.3034C23.1969 25.1611 23.5864 25.0113 24.0658 24.8315C23.6988 25.4607 23.3842 26.0225 23.0471 26.5768C23.0096 26.6367 22.8973 26.6667 22.8224 26.6667C22.2156 26.6742 21.6014 26.6742 20.8898 26.6742C21.2943 26.3446 21.6239 26.0749 21.946 25.8053C21.9385 25.7903 21.931 25.7753 21.916 25.7529C21.5789 25.9476 21.2269 26.1274 20.9048 26.3371C20.5078 26.6068 20.0808 26.7042 19.6014 26.6742C19.2194 26.6517 18.8298 26.6667 18.4403 26.6892C18.8673 26.7716 19.2943 26.854 19.8111 26.9514C19.1969 27.3109 18.6651 27.6255 18.1257 27.9176C18.0583 27.9551 17.931 27.9476 17.8636 27.9102C17.3242 27.6105 16.7924 27.2959 16.1931 26.9439C16.6875 26.854 17.107 26.7791 17.5265 26.7042C17.5265 26.6892 17.5265 26.6817 17.5265 26.6667C17.504 26.6667 17.4815 26.6667 17.4591 26.6667C16.3355 26.7791 15.2868 26.6293 14.3729 25.8952C14.3205 25.8577 14.2456 25.8427 14.1632 25.8577C14.4553 26.0974 14.7475 26.3371 15.1295 26.6517C14.3804 26.6517 13.7437 26.6592 13.107 26.6442C13.0471 26.6442 12.9647 26.5544 12.9197 26.4794C12.6051 25.9476 12.3055 25.4158 11.9609 24.8165C12.4179 24.9888 12.7999 25.1311 13.1894 25.2809C13.1969 25.266 13.2119 25.2435 13.2194 25.2285C12.8823 25.0263 12.5527 24.8015 12.1931 24.6293C11.8186 24.4495 11.5564 24.1798 11.3692 23.8053C11.1819 23.4457 10.9722 23.1012 10.71 22.7716C10.8598 23.1686 11.0096 23.5656 11.1819 24.0375C10.5677 23.6779 10.0209 23.3708 9.48902 23.0487C9.42161 23.0038 9.36168 22.8914 9.36168 22.809C9.35419 22.2023 9.35419 21.5955 9.35419 20.8764C9.67629 21.266 9.93097 21.5806 10.1857 21.8877C10.2081 21.8727 10.2231 21.8652 10.2456 21.8502C10.0433 21.4982 9.86356 21.1311 9.63884 20.794C9.42161 20.472 9.33921 20.1274 9.35419 19.7454C9.37666 19.2884 9.36168 18.824 9.31674 18.3596C9.24932 18.809 9.17442 19.2585 9.08453 19.8203C8.71 19.1611 8.3879 18.6068 8.0658 18.045C8.04333 18.0075 8.05831 17.9251 8.08078 17.8802C8.3879 17.3334 8.70251 16.794 9.07704 16.1499C9.16693 16.7042 9.23434 17.1461 9.30925 17.5955C9.32423 17.5955 9.3467 17.5955 9.36168 17.5955C9.36168 17.1012 9.33172 16.6143 9.36917 16.1199C9.39165 15.8278 9.48153 15.5206 9.60888 15.251C9.78865 14.8615 10.0284 14.4944 10.1931 14.0749C9.93846 14.3821 9.68378 14.6892 9.36168 15.0787C9.36168 14.3596 9.35419 13.7454 9.36917 13.1236C9.36917 13.0337 9.45906 12.9214 9.54146 12.869C10.0658 12.5618 10.5901 12.2622 11.1819 11.9251C11.0096 12.3896 10.8523 12.794 10.7025 13.1985C10.7325 13.221 10.7624 13.2435 10.7849 13.266C11.2119 12.0375 12.0433 11.206 13.2568 10.7641C13.2343 10.7341 13.2119 10.7042 13.1969 10.6742C12.8149 10.8165 12.4328 10.9663 11.9534 11.1461C12.313 10.5244 12.6351 9.96259 12.9647 9.41577C12.9946 9.36334 13.1145 9.33338 13.1894 9.33338C13.7886 9.32588 14.3804 9.32588 15.092 9.32588C14.7325 9.62551 14.4478 9.86521 14.1557 10.0974C14.1707 10.1199 14.1782 10.1349 14.1931 10.1573C14.4928 9.98506 14.8074 9.84274 15.092 9.64798C15.4815 9.38581 15.886 9.28843 16.3579 9.31839C16.8224 9.34836 17.2943 9.32588 17.7662 9.28094C17.2718 9.20603 16.7774 9.12364 16.1857 9.03375C16.8149 8.66671 17.3617 8.3521 17.9085 8.04499C17.9609 8.01502 18.0583 8.00004 18.1033 8.03C18.6501 8.33712 19.1969 8.65922 19.8486 9.03375C19.2568 9.13113 18.7774 9.20603 18.298 9.28094C18.298 9.29592 18.298 9.3109 18.298 9.33338C18.8298 9.33338 19.3692 9.34836 19.901 9.32588C20.2306 9.3109 20.5003 9.3933 20.7774 9.55809C21.1519 9.7903 21.5415 10.0075 21.9609 10.1798C21.6388 9.91765 21.3167 9.65547 20.9272 9.33338C21.6388 9.33338 22.283 9.32588 22.9197 9.34087C22.9946 9.34087 23.092 9.46072 23.1445 9.54311C23.4441 10.045 23.7287 10.5469 24.0658 11.1311C23.6014 10.9588 23.2119 10.8165 22.8224 10.6667C22.7999 10.6967 22.7699 10.7266 22.7475 10.7566C24.0209 11.1686 24.7999 12.0749 25.3392 13.221C25.1894 12.809 25.0321 12.4045 24.8448 11.9102C25.4591 12.2697 25.9984 12.5693 26.5227 12.8839C26.5827 12.9214 26.6501 13.0113 26.6501 13.0862C26.6576 13.7154 26.6576 14.3446 26.6576 15.0562C26.3804 14.7191 26.1557 14.4495 25.931 14.1798C25.916 14.1873 25.9085 14.1948 25.8935 14.2098C26.1482 14.7341 26.5003 15.236 26.6276 15.7903C26.7549 16.3446 26.6576 16.9588 26.695 17.5506C26.7774 17.1087 26.8598 16.6742 26.9572 16.1424C27.3167 16.7641 27.6313 17.3034 27.9385 17.8502C27.9684 17.9102 27.9609 18.0225 27.9235 18.0899C27.6239 18.6293 27.3167 19.1611 26.9572 19.7828C26.8523 19.236 26.7699 18.7941 26.6875 18.3446C26.6725 18.3446 26.6651 18.3521 26.6501 18.3521C26.6501 18.9514 26.7475 19.5731 26.6201 20.1424C26.5003 20.6967 26.1407 21.1985 25.886 21.7229C25.9085 21.7678 25.916 21.7753 25.931 21.7828ZM25.4815 18.045C22.9722 15.5356 20.4703 13.0338 18.0059 10.5693C15.534 13.0412 13.0246 15.5431 10.5827 17.9851C13.0621 20.472 15.5639 22.9813 18.0508 25.4757C20.5227 22.9963 23.0246 20.5019 25.4815 18.045Z" fill="#1295DB"/>
<path d="M6.17969 21.1685C6.65909 20.3371 7.12351 19.5356 7.60291 18.7041C8.05984 19.2734 8.52426 19.7902 8.91377 20.367C9.02613 20.5393 8.92875 20.8614 8.8913 21.1161C8.82388 21.588 8.73399 22.0599 8.64411 22.5917C7.82014 22.1123 7.01115 21.6479 6.17969 21.1685Z" fill="#1295DB"/>
<path d="M17.3092 28.412C16.4777 28.8914 15.6762 29.3558 14.8373 29.8352C14.3654 29.0112 13.901 28.2172 13.4141 27.3708C14.1556 27.2509 14.8298 27.1385 15.5114 27.0337C15.5639 27.0262 15.6313 27.0636 15.6762 27.1011C16.2081 27.5281 16.7399 27.955 17.3092 28.412Z" fill="#1295DB"/>
<path d="M13.4141 8.64443C13.901 7.79799 14.3579 7.00398 14.8373 6.1875C15.6687 6.6669 16.4702 7.13132 17.3092 7.61072C16.7399 8.06765 16.2006 8.50211 15.6538 8.92907C15.6088 8.96653 15.5414 8.989 15.4815 8.98151C14.8148 8.86915 14.1481 8.76428 13.4141 8.64443Z" fill="#1295DB"/>
<path d="M6.17969 14.8387C7.01115 14.3593 7.80516 13.9024 8.64411 13.4155C8.76396 14.1346 8.87632 14.7938 8.9737 15.4605C8.98119 15.5204 8.95871 15.6103 8.91377 15.6627C8.49429 16.1946 8.06733 16.7264 7.60291 17.3032C7.131 16.4792 6.66658 15.6852 6.17969 14.8387Z" fill="#1295DB"/>
<path d="M27.371 22.5994C27.2961 22.12 27.2212 21.7005 27.1538 21.2735C27.1538 21.2586 27.1538 21.2511 27.1538 21.2361C26.8991 20.5769 27.2137 20.1125 27.6482 19.6631C27.9178 19.3784 28.1426 19.0563 28.4197 18.7192C28.8991 19.5507 29.356 20.3372 29.8354 21.1687C29.0265 21.6406 28.225 22.105 27.371 22.5994Z" fill="#1295DB"/>
<path d="M21.1832 29.8353C20.3517 29.3559 19.5652 28.899 18.7188 28.4121C19.288 27.9552 19.8199 27.5132 20.3667 27.1088C20.4566 27.0413 20.6513 27.0788 20.7862 27.0938C21.3704 27.1762 21.9547 27.2661 22.6064 27.3634C22.1195 28.1949 21.6626 28.9964 21.1832 29.8353Z" fill="#1295DB"/>
<path d="M18.7188 7.60291C19.5652 7.11602 20.3592 6.65909 21.1832 6.17969C21.6626 7.00366 22.1195 7.80516 22.6064 8.64411C21.8723 8.76396 21.1981 8.87632 20.524 8.9737C20.4641 8.98119 20.3817 8.92875 20.3292 8.88381C19.7974 8.47931 19.288 8.05984 18.7188 7.60291Z" fill="#1295DB"/>
<path d="M9.37109 12.1872C9.37109 11.206 9.37109 10.3071 9.37109 9.38574C10.3074 9.38574 11.2213 9.38574 12.1876 9.38574C11.9329 10.0449 11.6857 10.6891 11.431 11.3333C11.416 11.3783 11.3711 11.4157 11.3262 11.4307C10.6894 11.6854 10.0453 11.9251 9.37109 12.1872Z" fill="#1295DB"/>
<path d="M29.8366 14.8387C29.3497 15.6777 28.8928 16.4642 28.4134 17.2957C27.9715 16.7489 27.5595 16.247 27.155 15.7301C27.1025 15.6627 27.0501 15.5653 27.0651 15.4979C27.155 14.8238 27.2524 14.1571 27.3572 13.4155C28.2112 13.9024 29.0052 14.3593 29.8366 14.8387Z" fill="#1295DB"/>
<path d="M9.37109 26.6519C9.37109 25.7081 9.37109 24.8017 9.37109 23.8354C9.69319 23.9553 9.99282 24.1051 10.3074 24.1725C11.1614 24.3673 11.6632 24.8692 11.8505 25.7306C11.9179 26.0377 12.0752 26.3298 12.2026 26.6519C11.2438 26.6519 10.3224 26.6519 9.37109 26.6519Z" fill="#1295DB"/>
<path d="M26.6531 9.38574C26.6531 10.3221 26.6531 11.2135 26.6531 12.1723C26.3684 12.0749 26.1287 11.9625 25.8815 11.9026C24.9302 11.6929 24.3235 11.1535 24.1437 10.1648C24.0988 9.91009 23.9564 9.6629 23.8516 9.38574C24.7954 9.38574 25.7092 9.38574 26.6531 9.38574Z" fill="#1295DB"/>
<path d="M26.6446 23.8276C26.6446 24.8164 26.6446 25.7153 26.6446 26.6441C25.7083 26.6441 24.7944 26.6441 23.8281 26.6441C24.0903 25.9775 24.33 25.3482 24.5847 24.719C24.6072 24.6591 24.6746 24.5842 24.7345 24.5617C25.3487 24.322 25.9704 24.0898 26.6446 23.8276Z" fill="#1295DB"/>
<path d="M25.4848 18.0452C23.0279 20.5021 20.526 22.9965 18.0541 25.4684C15.5672 22.974 13.0653 20.4646 10.5859 17.9777C13.0279 15.5358 15.5372 13.0339 18.0092 10.562C20.4736 13.0339 22.9755 15.5358 25.4848 18.0452Z" fill="white"/>
</svg>
