<svg width="36" height="36" viewBox="0 0 36 36" fill="none" xmlns="http://www.w3.org/2000/svg">
<path d="M27.7576 5.27273C29.3973 5.27273 30.7273 6.60273 30.7273 8.24242V27.7576C30.7273 29.3973 29.3973 30.7273 27.7576 30.7273H8.24242C6.60273 30.7273 5.27273 29.3973 5.27273 27.7576V8.24242C5.27273 6.60273 6.60273 5.27273 8.24242 5.27273H27.7576ZM27.7576 4H8.24242C5.89848 4 4 5.90061 4 8.24242V27.7576C4 30.1015 5.89848 32 8.24242 32H27.7576C30.1015 32 32 30.1015 32 27.7576V8.24242C32 5.90061 30.1015 4 27.7576 4Z" fill="#F05623"/>
<path d="M24.3643 8.03027V19.4997C24.3643 21.9221 24.1522 22.2424 19.2734 24.5757V13.1063C19.2734 10.6839 19.4856 10.3636 24.3643 8.03027Z" fill="#F05623"/>
<path d="M16.7276 18.6362V23.1056C16.7276 25.528 16.5155 25.8484 11.6367 28.1817V23.7123C11.6367 21.2899 11.8488 20.9696 16.7276 18.6362Z" fill="#F05623"/>
</svg>
