<svg width="24" height="24" viewBox="0 0 24 24" fill="none" xmlns="http://www.w3.org/2000/svg">
<rect width="24" height="24" rx="8" fill="white"/>
<mask id="mask0_3555_245257" style="mask-type:alpha" maskUnits="userSpaceOnUse" x="0" y="0" width="24" height="24">
<rect width="24" height="24" rx="8" fill="white"/>
</mask>
<g mask="url(#mask0_3555_245257)">
<path d="M26 1.52588e-05H-2V24H26V1.52588e-05Z" fill="#B22234"/>
<path d="M-2 3.00002H26H-2ZM26 6.60002H-2H26ZM-2 10.2H26H-2ZM26 13.8H-2H26ZM-2 17.4H26H-2ZM26 21H-2H26Z" fill="black"/>
<path fill-rule="evenodd" clip-rule="evenodd" d="M-2 2.06836H26V3.93166H-2V2.06836ZM26 7.53166H-2V5.66836H26V7.53166ZM-2 9.26836H26V11.1317H-2V9.26836ZM26 14.7317H-2V12.8684H26V14.7317ZM-2 16.4684H26V18.3317H-2V16.4684ZM-2 20.0684H26V21.9317H-2V20.0684Z" fill="white"/>
<path d="M12.7625 -0.111435H-5.64691V12.9316H12.7625V-0.111435Z" fill="#3C3B6E"/>
<path d="M0.429787 7.11818L0.867875 8.46647L-0.279053 7.63318H1.13863L-0.00829986 8.46647L0.429787 7.11818Z" fill="white"/>
<path d="M0.429787 4.50954L0.867875 5.85783L-0.279053 5.02454H1.13863L-0.00829986 5.85783L0.429787 4.50954Z" fill="white"/>
<path d="M0.429787 9.83852L0.867875 11.1868L-0.279053 10.3535H1.13863L-0.00829986 11.1868L0.429787 9.83852Z" fill="white"/>
<path d="M2.00193 3.05617L2.44002 4.40446L1.29309 3.57117H2.71077L1.56384 4.40446L2.00193 3.05617Z" fill="white"/>
<path d="M2.00193 5.70204L2.44002 7.05034L1.29309 6.21704H2.71077L1.56384 7.05034L2.00193 5.70204Z" fill="white"/>
<path d="M2.00193 8.31068L2.44002 9.65898L1.29309 8.82569H2.71077L1.56384 9.65898L2.00193 8.31068Z" fill="white"/>
<path d="M2.00193 10.9193L2.44002 12.2676L1.29309 11.4343H2.71077L1.56384 12.2676L2.00193 10.9193Z" fill="white"/>
<path d="M5.0593 0.447647L5.49739 1.79594L4.35046 0.96265H5.76814L4.62122 1.79594L5.0593 0.447647Z" fill="white"/>
<path d="M3.48716 1.78908L3.92525 3.13737L2.77832 2.30408H4.196L3.04907 3.13737L3.48716 1.78908Z" fill="white"/>
<path d="M3.48716 7.11818L3.92525 8.46647L2.77832 7.63318H4.196L3.04907 8.46647L3.48716 7.11818Z" fill="white"/>
<path d="M3.48716 4.50954L3.92525 5.85783L2.77832 5.02454H4.196L3.04907 5.85783L3.48716 4.50954Z" fill="white"/>
<path d="M3.48716 9.83852L3.92525 11.1868L2.77832 10.3535H4.196L3.04907 11.1868L3.48716 9.83852Z" fill="white"/>
<path d="M5.0593 3.05617L5.49739 4.40446L4.35046 3.57117H5.76814L4.62122 4.40446L5.0593 3.05617Z" fill="white"/>
<path d="M5.0593 5.70204L5.49739 7.05034L4.35046 6.21704H5.76814L4.62122 7.05034L5.0593 5.70204Z" fill="white"/>
<path d="M5.0593 8.31068L5.49739 9.65898L4.35046 8.82569H5.76814L4.62122 9.65898L5.0593 8.31068Z" fill="white"/>
<path d="M5.0593 10.9193L5.49739 12.2676L4.35046 11.4343H5.76814L4.62122 12.2676L5.0593 10.9193Z" fill="white"/>
<path d="M8.11668 0.447647L8.55476 1.79594L7.40784 0.96265H8.82552L7.67859 1.79594L8.11668 0.447647Z" fill="white"/>
<path d="M6.54453 1.78908L6.98262 3.13737L5.83569 2.30408H7.25337L6.10645 3.13737L6.54453 1.78908Z" fill="white"/>
<path d="M6.54453 7.11818L6.98262 8.46647L5.83569 7.63318H7.25337L6.10645 8.46647L6.54453 7.11818Z" fill="white"/>
<path d="M6.54453 4.50954L6.98262 5.85783L5.83569 5.02454H7.25337L6.10645 5.85783L6.54453 4.50954Z" fill="white"/>
<path d="M6.54453 9.83852L6.98262 11.1868L5.83569 10.3535H7.25337L6.10645 11.1868L6.54453 9.83852Z" fill="white"/>
<path d="M8.11668 3.05617L8.55476 4.40446L7.40784 3.57117H8.82552L7.67859 4.40446L8.11668 3.05617Z" fill="white"/>
<path d="M8.11668 5.70204L8.55476 7.05034L7.40784 6.21704H8.82552L7.67859 7.05034L8.11668 5.70204Z" fill="white"/>
<path d="M8.11668 8.31068L8.55476 9.65898L7.40784 8.82569H8.82552L7.67859 9.65898L8.11668 8.31068Z" fill="white"/>
<path d="M8.11668 10.9193L8.55476 12.2676L7.40784 11.4343H8.82552L7.67859 12.2676L8.11668 10.9193Z" fill="white"/>
<path d="M11.174 0.447647L11.6121 1.79594L10.4651 0.96265H11.8828L10.7359 1.79594L11.174 0.447647Z" fill="white"/>
<path d="M9.60185 1.78908L10.0399 3.13737L8.89301 2.30408H10.3107L9.16376 3.13737L9.60185 1.78908Z" fill="white"/>
<path d="M9.60185 7.11818L10.0399 8.46647L8.89301 7.63318H10.3107L9.16376 8.46647L9.60185 7.11818Z" fill="white"/>
<path d="M9.60185 4.50954L10.0399 5.85783L8.89301 5.02454H10.3107L9.16376 5.85783L9.60185 4.50954Z" fill="white"/>
<path d="M9.60185 9.83852L10.0399 11.1868L8.89301 10.3535H10.3107L9.16376 11.1868L9.60185 9.83852Z" fill="white"/>
<path d="M11.174 3.05617L11.6121 4.40446L10.4651 3.57117H11.8828L10.7359 4.40446L11.174 3.05617Z" fill="white"/>
<path d="M11.174 5.70204L11.6121 7.05034L10.4651 6.21704H11.8828L10.7359 7.05034L11.174 5.70204Z" fill="white"/>
<path d="M11.174 8.31068L11.6121 9.65898L10.4651 8.82569H11.8828L10.7359 9.65898L11.174 8.31068Z" fill="white"/>
<path d="M11.174 10.9193L11.6121 12.2676L10.4651 11.4343H11.8828L10.7359 12.2676L11.174 10.9193Z" fill="white"/>
</g>
</svg>
