<svg width="36" height="36" viewBox="0 0 36 36" fill="none" xmlns="http://www.w3.org/2000/svg">
<rect width="36" height="36" rx="12" fill="#D9B681"/>
<path d="M8.63467 22.1593C10.1912 22.1593 11.6206 21.3652 11.6206 19.7769C11.6206 18.2628 10.3182 17.8922 9.57703 17.6804L8.21114 17.3098C7.70289 17.1722 7.10995 16.9604 7.10995 16.3886C7.10995 15.7957 7.77701 15.4039 8.53937 15.4251C9.32291 15.4357 10.0217 15.891 10.1912 16.6957L11.5676 16.4628C11.2182 15.0439 10.117 14.2392 8.56055 14.2286C7.00406 14.218 5.76522 14.9804 5.76522 16.4522C5.76522 17.7969 6.79229 18.2098 7.46995 18.411L9.43938 18.9828C10.0112 19.1628 10.2865 19.4381 10.2865 19.8722C10.2865 20.5711 9.52409 20.9628 8.70879 20.9628C7.7876 20.9628 7.02524 20.4546 6.80288 19.544L5.46875 19.7452C5.71228 21.2381 6.96171 22.1593 8.63467 22.1593Z" fill="white"/>
<path d="M15.2971 22.1593C17.0019 22.1593 18.1454 20.9205 18.1454 19.1416C18.1454 17.3734 17.0125 16.1239 15.2971 16.1239C13.603 16.1239 12.4489 17.3522 12.4489 19.1416C12.4489 20.9099 13.5712 22.1593 15.2971 22.1593ZM15.2971 20.9628C14.3124 20.9628 13.8042 20.2534 13.8042 19.1416C13.8042 18.0616 14.2701 17.3204 15.2971 17.3204C16.2925 17.3204 16.8007 18.0298 16.8007 19.1416C16.8007 20.211 16.303 20.9628 15.2971 20.9628Z" fill="white"/>
<path d="M18.8854 16.2828H20.156V14.3769H18.8854V16.2828Z" fill="white"/>
<path d="M27.9254 16.1451C27.1842 16.1451 26.5383 16.4839 26.1889 17.0451C25.8819 16.4945 25.3207 16.1451 24.516 16.1451C23.8277 16.1451 23.2348 16.431 22.8642 16.8969V16.2828H21.7312V22.0005H23.0124V18.4851C23.0124 17.7651 23.4465 17.2781 24.0924 17.2781C24.7595 17.2781 25.183 17.7545 25.183 18.5381L25.1724 22.0005H26.4536V18.4851C26.4536 17.7228 26.9195 17.2781 27.5336 17.2781C28.1901 17.2781 28.6137 17.744 28.6137 18.5275V22.0005H29.8843V18.2098C29.8843 16.971 29.1854 16.1451 27.9254 16.1451Z" fill="white"/>
</svg>
