<svg width="36" height="36" viewBox="0 0 36 36" fill="none" xmlns="http://www.w3.org/2000/svg">
<path d="M12.1636 14.5311H5.45326L5.93668 13.2944H12.6471L12.1636 14.5311ZM11.9219 15.1495H5.20853L4.72512 16.3862H11.4355L11.9219 15.1495ZM11.1968 16.9989H4.48341L4 18.2356H10.7043L11.1968 16.9989Z" fill="#009FDF"/>
<path d="M27.9942 21.7938H29.198C29.3691 21.8149 29.5426 21.7922 29.7032 21.7275C29.8638 21.6629 30.0065 21.5584 30.1189 21.4231C30.284 21.1995 30.3672 20.9225 30.3536 20.6414C30.3649 20.4625 30.3332 20.2835 30.2612 20.1204C30.1893 19.9573 30.0794 19.8153 29.9413 19.707C29.7179 19.5557 29.4521 19.4855 29.1859 19.5076H27.9942V21.7938ZM26.4142 23.1736V14.9447H31.5875L31.1331 16.3245H27.9942V18.1465H29.2732C30.3055 18.1465 30.8412 18.4019 31.2113 18.729C31.476 18.9715 31.6841 19.2729 31.8202 19.6106C31.9562 19.9483 32.0166 20.3135 31.9968 20.6787C32.0171 21.0721 31.9421 21.4645 31.7787 21.8202C31.6152 22.176 31.3685 22.4838 31.0608 22.7157C30.5643 23.0708 30.0436 23.1705 28.9843 23.1705L26.4142 23.1736ZM21.8338 23.1736V16.3213H19.5346V14.9447H25.9177L25.4632 16.3245H23.4288V23.1767L21.8338 23.1736ZM15.4628 18.24H16.3656C16.5503 18.253 16.7358 18.2383 16.9164 18.1964C17.1042 18.1343 17.266 18.008 17.3754 17.8382C17.4847 17.6684 17.5351 17.4653 17.5182 17.262C17.5433 17.06 17.4959 16.8555 17.3849 16.6873C17.274 16.519 17.1072 16.3988 16.9164 16.3494C16.7192 16.302 16.5166 16.2831 16.3145 16.2933H15.4628V18.24ZM15.4628 19.6634V21.8218H16.5642C16.8678 21.8577 17.173 21.7707 17.4159 21.5789C17.5279 21.4715 17.6156 21.34 17.6728 21.1935C17.73 21.0471 17.7553 20.8894 17.747 20.7317C17.7518 20.4797 17.6779 20.2328 17.5363 20.0278C17.3016 19.7163 17.0127 19.6571 16.5191 19.6571L15.4628 19.6634ZM18.0088 18.7944V18.8224C18.2771 18.9293 18.5279 19.0785 18.7521 19.2647C18.9788 19.4594 19.158 19.7067 19.2751 19.9864C19.3923 20.2662 19.444 20.5706 19.4262 20.875C19.4262 21.9994 18.8484 22.8123 17.9005 23.0552C17.5226 23.1508 17.1334 23.1896 16.7448 23.1705H13.8828V14.9447H16.4288C16.8332 14.9294 17.2378 14.9681 17.6326 15.0599C18.5535 15.3153 19.1584 15.9725 19.1584 17.0097C19.1659 17.257 19.1247 17.5032 19.0373 17.7335C18.9498 17.9638 18.818 18.1732 18.6498 18.349C18.4712 18.5367 18.2584 18.6859 18.0238 18.7881L18.0088 18.7944Z" fill="#0A2973"/>
</svg>
