<svg width="36" height="36" viewBox="0 0 36 36" fill="none" xmlns="http://www.w3.org/2000/svg">
<rect x="0.5" y="0.5" width="35" height="35" rx="11.5" fill="white"/>
<mask id="mask0_16119_274758" style="mask-type:alpha" maskUnits="userSpaceOnUse" x="0" y="0" width="36" height="36">
<rect width="36" height="36" rx="12" fill="#E0E6EF"/>
</mask>
<g mask="url(#mask0_16119_274758)">
<path d="M5.19861 23L8.37061 18.268L5.28961 13.64H7.20711L9.33911 16.9355L11.4516 13.64H13.3821L10.3011 18.268L13.4601 23H11.5426L9.33911 19.6005L7.12911 23H5.19861ZM14.1072 23L17.0582 13.64H19.3527L22.3037 23H20.6917L18.0137 14.602H18.3647L15.7192 23H14.1072ZM15.7517 20.972V19.5095H20.6657V20.972H15.7517ZM27.2549 23.195C26.5096 23.195 25.8531 23.0433 25.2854 22.74C24.7221 22.4367 24.2801 22.0098 23.9594 21.4595C23.6431 20.9092 23.4849 20.2635 23.4849 19.5225V13.653L25.0709 13.64V19.4835C25.0709 19.8345 25.1294 20.1487 25.2464 20.426C25.3678 20.7033 25.5303 20.9395 25.7339 21.1345C25.9376 21.3252 26.1716 21.4703 26.4359 21.57C26.7003 21.6697 26.9733 21.7195 27.2549 21.7195C27.5453 21.7195 27.8204 21.6697 28.0804 21.57C28.3448 21.466 28.5788 21.3187 28.7824 21.128C28.9861 20.933 29.1464 20.6968 29.2634 20.4195C29.3804 20.1422 29.4389 19.8302 29.4389 19.4835V13.64H31.0249V19.5225C31.0249 20.2635 30.8646 20.9092 30.5439 21.4595C30.2276 22.0098 29.7856 22.4367 29.2179 22.74C28.6546 23.0433 28.0003 23.195 27.2549 23.195Z" fill="#505C64"/>
</g>
<rect x="0.5" y="0.5" width="35" height="35" rx="11.5" stroke="#E9EFF0"/>
</svg>
