<svg width="24" height="24" viewBox="0 0 24 24" fill="none" xmlns="http://www.w3.org/2000/svg">
    <path
        d="M14.3099 16.38L12.9999 17.64V12C12.9999 11.7348 12.8946 11.4804 12.707 11.2929C12.5195 11.1054 12.2652 11 11.9999 11C11.7347 11 11.4804 11.1054 11.2928 11.2929C11.1053 11.4804 10.9999 11.7348 10.9999 12V17.59L9.70994 16.29C9.6167 16.1968 9.50601 16.1228 9.38419 16.0723C9.26237 16.0219 9.1318 15.9959 8.99994 15.9959C8.86808 15.9959 8.73751 16.0219 8.61569 16.0723C8.49387 16.1228 8.38318 16.1968 8.28994 16.29C8.1967 16.3832 8.12274 16.4939 8.07228 16.6158C8.02182 16.7376 7.99585 16.8681 7.99585 17C7.99585 17.1319 8.02182 17.2624 8.07228 17.3842C8.12274 17.5061 8.1967 17.6168 8.28994 17.71L11.2899 20.71C11.3834 20.8027 11.4942 20.876 11.616 20.9258C11.7379 20.9755 11.8683 21.0008 11.9999 21C12.2574 20.999 12.5046 20.8987 12.6899 20.72L15.6899 17.82C15.7961 17.7324 15.883 17.6239 15.9452 17.5013C16.0075 17.3786 16.0438 17.2444 16.0518 17.107C16.0598 16.9697 16.0394 16.8322 15.9919 16.7031C15.9443 16.574 15.8707 16.4561 15.7755 16.3568C15.6803 16.2575 15.5656 16.1788 15.4387 16.1259C15.3117 16.0729 15.1752 16.0466 15.0376 16.0488C14.9001 16.051 14.7645 16.0815 14.6393 16.1385C14.514 16.1955 14.4019 16.2777 14.3099 16.38Z"
        fill="#11BB91"/>
    <path
        d="M17.6699 7.00047C17.2619 5.82152 16.4965 4.79909 15.4802 4.07543C14.464 3.35177 13.2475 2.96289 11.9999 2.96289C10.7523 2.96289 9.5358 3.35177 8.51956 4.07543C7.50332 4.79909 6.73794 5.82152 6.3299 7.00047C5.43145 7.1208 4.58261 7.48312 3.8742 8.04866C3.16578 8.6142 2.62443 9.36169 2.30806 10.2112C1.99169 11.0606 1.91221 11.9801 2.0781 12.8713C2.244 13.7624 2.64904 14.5917 3.2499 15.2705C3.32247 15.3983 3.42235 15.5086 3.5424 15.5934C3.66246 15.6783 3.79974 15.7356 3.94448 15.7613C4.08922 15.7871 4.23785 15.7806 4.3798 15.7423C4.52174 15.704 4.6535 15.6349 4.76569 15.54C4.87789 15.445 4.96776 15.3264 5.02891 15.1927C5.09006 15.059 5.12098 14.9135 5.11947 14.7665C5.11796 14.6195 5.08406 14.4746 5.02018 14.3422C4.9563 14.2098 4.86402 14.0931 4.7499 14.0005C4.36301 13.5679 4.10988 13.0325 4.02118 12.459C3.93249 11.8855 4.01203 11.2985 4.25017 10.7693C4.48831 10.2401 4.87483 9.79136 5.36289 9.4774C5.85094 9.16344 6.41958 8.99777 6.9999 9.00047H7.0999C7.33384 9.00519 7.56204 8.92772 7.74475 8.78154C7.92747 8.63537 8.05314 8.42974 8.0999 8.20047C8.28351 7.29624 8.77408 6.48329 9.48849 5.89937C10.2029 5.31544 11.0972 4.99646 12.0199 4.99646C12.9426 4.99646 13.8369 5.31544 14.5513 5.89937C15.2657 6.48329 15.7563 7.29624 15.9399 8.20047C15.9866 8.42974 16.1123 8.63537 16.295 8.78154C16.4778 8.92772 16.7059 9.00519 16.9399 9.00047H16.9999C17.5802 8.99777 18.1488 9.16344 18.6369 9.4774C19.125 9.79136 19.5115 10.2401 19.7496 10.7693C19.9878 11.2985 20.0673 11.8855 19.9786 12.459C19.8899 13.0325 19.6368 13.5679 19.2499 14.0005C19.1618 14.0993 19.0942 14.2145 19.051 14.3396C19.0078 14.4647 18.9899 14.5972 18.9983 14.7293C19.0066 14.8614 19.0411 14.9905 19.0998 15.1091C19.1584 15.2278 19.24 15.3336 19.3399 15.4205C19.5222 15.5812 19.7568 15.6701 19.9999 15.6705C20.1419 15.6703 20.2822 15.6399 20.4115 15.5813C20.5408 15.5226 20.6562 15.4371 20.7499 15.3305C21.3674 14.6529 21.7868 13.8186 21.9621 12.9188C22.1375 12.019 22.0621 11.0883 21.7441 10.2284C21.4262 9.36859 20.878 8.6127 20.1595 8.0434C19.4409 7.4741 18.5797 7.11331 17.6699 7.00047Z"
        fill="#11BB91"/>
</svg>
