<svg width="15" height="16" viewBox="0 0 15 16" fill="none" xmlns="http://www.w3.org/2000/svg">
    <path fill-rule="evenodd" clip-rule="evenodd"
          d="M2.55187 14.37C2.70187 15.2747 3.48469 15.9375 4.40062 15.9375H10.5994C11.5153 15.9375 12.2981 15.2747 12.4481 14.37L13.125 4.6875H1.875L2.55187 14.37ZM8.4375 7.96875C8.4375 7.71 8.6475 7.5 8.90625 7.5H9.84375C10.1025 7.5 10.3125 7.71 10.3125 7.96875V12.6562C10.3125 12.9141 10.1025 13.125 9.84375 13.125H8.90625C8.6475 13.125 8.4375 12.9141 8.4375 12.6562V7.96875ZM4.6875 7.96875C4.6875 7.71 4.8975 7.5 5.15625 7.5H6.09375C6.3525 7.5 6.5625 7.71 6.5625 7.96875V12.6562C6.5625 12.9141 6.3525 13.125 6.09375 13.125H5.15625C4.8975 13.125 4.6875 12.9141 4.6875 12.6562V7.96875ZM14.0625 1.875H10.3125C10.3125 0.839062 9.47344 0 8.4375 0H6.5625C5.52656 0 4.6875 0.839062 4.6875 1.875H0.9375C0.42 1.875 0 2.29406 0 2.8125C0 3.33094 0.42 3.75 0.9375 3.75H14.0625C14.58 3.75 15 3.33094 15 2.8125C15 2.29406 14.58 1.875 14.0625 1.875Z"
          fill="#FF7070"/>
</svg>
