<svg width="48" height="48" viewBox="0 0 48 48" fill="none" xmlns="http://www.w3.org/2000/svg">
    <rect x="1" y="1" width="46" height="46" rx="16" fill="#F2F7F7"/>
    <path fill-rule="evenodd" clip-rule="evenodd"
          d="M23.5 17C25.1569 17 26.5 15.6569 26.5 14C26.5 12.3431 25.1569 11 23.5 11C21.8431 11 20.5 12.3431 20.5 14C20.5 15.6569 21.8431 17 23.5 17ZM22 23C20.8954 23 20 22.1046 20 21C20 19.8954 20.8954 19 22 19H24C25.1046 19 26 19.8954 26 21V32C27.1046 32 28 32.8954 28 34C28 35.1046 27.1046 36 26 36H22C20.8954 36 20 35.1046 20 34C20 32.8954 20.8954 32 22 32L22 23Z"
          fill="#88999C"/>
</svg>
