<svg width="146" height="49" viewBox="0 0 146 49" fill="none" xmlns="http://www.w3.org/2000/svg">
    <path fill-rule="evenodd" clip-rule="evenodd"
          d="M16.3957 10.0754H10.6702V15.5034L1.52432 24.1642L10.6702 32.8267V38.2176H16.3957L18.5149 40.2253L25.5788 46.8802L32.6055 40.2271L34.7619 38.2195H40.4502V32.8286L42.6066 30.821L49.6333 24.166L42.6066 17.5111L40.4502 15.5034V10.0754H34.7619L32.6055 8.06773L25.5788 1.41278L16.3957 10.0754ZM8.55105 8.06773H17.0278L25.5788 0L34.1299 8.06773H42.6066V16.0611L51.1576 24.1648L42.6066 32.2325V40.2259H34.1299L25.5788 48.2936L17.0278 40.2259H8.55105V32.2325L0 24.1648L8.55105 16.0599V8.06649V8.06773ZM4.4986 24.1648L25.5788 4.27429L46.6218 24.1648L25.5788 44.0553L4.4986 24.1648Z"
          fill="#176C57"/>
    <path fill-rule="evenodd" clip-rule="evenodd"
          d="M40.4501 18.3305C38.1004 21.057 34.9229 23.0386 31.4901 24.0932C29.6281 24.6472 28.0709 24.8566 26.1364 24.9483C24.5861 24.9266 22.9781 25.1677 21.6006 25.9149C19.1159 27.1988 17.3517 29.6235 17.2136 32.4584C16.993 38.2384 22.0567 39.8358 25.5787 44.058L31.7503 38.221L40.4501 29.9674L46.6217 24.1676L40.4501 18.3305ZM10.6701 29.9674C12.969 27.425 15.9135 25.436 19.184 24.3906C22.7767 22.9376 25.8291 23.8751 28.8132 22.7176C31.2813 21.8005 33.2127 19.6008 33.7952 17.0293C34.9155 10.7139 29.5153 8.50922 25.5787 4.27707L19.4071 10.0769L10.6701 18.3293L4.49851 24.1663L10.6701 29.9662V29.9674ZM1.52423 24.1663L10.6701 15.5037V10.0757H16.3956L25.5787 1.41309L34.7618 10.0757H40.4501V15.5037L49.6332 24.1663L40.4501 32.8289V38.2198H34.7618L25.5787 46.8824L16.3956 38.2198H10.6701V32.8289L1.52423 24.1676V24.1663Z"
          fill="#F1A400"/>
    <path fill-rule="evenodd" clip-rule="evenodd"
          d="M87.7041 35.3929L84.3208 28.961L80.9004 35.3929H87.7041ZM56.2139 33.7929V37.8082H66.3264L66.5495 37.7339H66.6239C66.8513 37.67 67.0483 37.548 67.2559 37.4364L67.3674 37.3621L67.5161 37.2134L67.6277 37.0647L67.7764 36.9159L67.8507 36.7685C68.0118 36.603 68.0428 36.3421 68.111 36.1364C68.1407 35.5081 68.0924 35.0161 67.6277 34.5378L67.5161 34.389L67.3674 34.2775L67.1815 34.1288L66.9956 34.0544L66.8097 33.9429L66.7354 33.9057L66.6239 33.8673C63.222 33.4212 59.7241 33.5358 56.2139 33.7929ZM56.2139 27.3611V31.3763H66.3264L66.438 31.3392H66.5495L66.6239 31.302C66.8469 31.2214 67.0855 31.1396 67.2559 30.9674C67.5192 30.8868 67.7318 30.5727 67.8507 30.3353C68.018 30.1581 68.0552 29.8911 68.111 29.6661C68.1395 28.9969 68.0843 28.6344 67.6277 28.1046L67.5161 27.9559L67.3674 27.8072L67.1815 27.7329L66.8097 27.5098L66.7354 27.4726H66.6239L66.5495 27.4354L66.438 27.3982H66.3264L66.2149 27.3598H56.2139V27.3611ZM96.2179 24.9445H100.456L112.391 36.2095V24.9457H116.629V40.2261H112.391L100.456 28.961V40.2261H96.2179V24.9457V24.9445ZM125.663 32.6032L136.63 24.9457H131.945L122.613 31.3776V24.9457H118.338V40.2261H122.613V33.7929L131.945 40.2248H136.63L125.662 32.6032H125.663ZM127.708 8.06543H131.946V14.4973L141.315 8.06543H146L135.032 15.7242L146 23.3458H141.315L131.946 16.9139V23.3458H127.708V8.06667V8.06543ZM118.339 16.9139V23.3458H114.101V16.9152L105.996 8.06667H110.271L116.22 14.4985L122.169 8.06667H126.444L118.339 16.9152V16.9139ZM96.2179 8.06543H100.456V20.9292H112.391V23.3458H96.2179V8.06667V8.06543ZM84.3208 12.0807L87.7041 18.5126H80.9004L84.3208 12.0807ZM90.2694 23.3458H94.5077L86.44 8.06543H82.1645L74.0967 23.3458H78.3351L79.5991 20.9292H88.9681L90.2694 23.3458ZM51.9755 8.06543H56.2139V14.4973H68.111V8.06667H72.3865V23.347H68.111V16.9152H56.2139V23.347H51.9755V8.06667V8.06543ZM51.9755 24.9445H68.5571L68.743 24.9816H68.9661L69.152 25.0201L69.3379 25.0944L69.5238 25.1316L69.7468 25.206C70.2203 25.3652 70.6596 25.6285 71.0481 25.9495C71.8313 26.6683 72.327 27.5172 72.3865 28.5892C72.4795 30.8558 70.5338 32.5871 68.3341 32.6045C70.4068 32.527 72.4014 34.2837 72.3865 36.3967C72.4039 37.4315 71.9298 38.4 71.1968 39.1107C70.8126 39.4651 70.39 39.7551 69.8956 39.9286L69.7468 40.003L69.5238 40.0402L69.3379 40.1145L69.152 40.1517L68.9661 40.1889L68.743 40.2261H51.9755V24.9457V24.9445ZM78.3351 40.2248H74.0967L82.1645 24.9445H86.44L94.5077 40.2248H90.2694L88.9681 37.8082H79.5991L78.3351 40.2248Z"
          fill="#176C57"/>
</svg>
