<svg width="9" height="14" viewBox="0 0 9 14" fill="none" xmlns="http://www.w3.org/2000/svg">
    <path fill-rule="evenodd" clip-rule="evenodd"
          d="M3.00009 3.47501C3.00009 2.94289 3.55292 2.125 4.50011 2.125C5.44729 2.125 6.00012 2.94289 6.00012 3.47501V3.47924V3.48347V3.48772V3.49197V3.49624V3.50051V3.5048V3.50909V3.5134V3.51772V3.52204V3.52638V3.53073V3.53508V3.53945V3.54382V3.54821V3.55261V3.55701V3.56142V3.56585V3.57028V3.57473V3.57918V3.58364V3.58811V3.59259V3.59708V3.60158V3.60608V3.6106V3.61512V3.61966V3.6242V3.62875V3.63331V3.63788V3.64246V3.64705V3.65164V3.65625V3.66086V3.66548V3.67011V3.67474V3.67939V3.68404V3.6887V3.69337V3.69805V3.70273V3.70743V3.71213V3.71684V3.72156V3.72628V3.73101V3.73575V3.7405V3.74525V3.75002V3.75479V3.75956V3.76435V3.76914V3.77394V3.77875V3.78356V3.78838V3.79321V3.79804V3.80288V3.80773V3.81259V3.81745V3.82232V3.82719V3.83207V3.83696V3.84186V3.84676V3.85167V3.85658V3.8615V3.86643V3.87136V3.8763V3.88124V3.88619V3.89115V3.89611V3.90108V3.90606V3.91104V3.91602V3.92102V3.92601V3.93102V3.93602V3.94104V3.94606V3.95108V3.95611V3.96115V3.96619V3.97124V3.97629V3.98134V3.9864V3.99147V3.99654V4.00162V4.0067V4.01178V4.01687V4.02197V4.02707V4.03217V4.03728V4.04239V4.04751V4.05263V4.05776V4.06289V4.06802V4.07316V4.07831V4.08345V4.0886V4.09376V4.09892V4.10408V4.10925V4.11442V4.11959V4.12477V4.12995V4.13513V4.14032V4.14551V4.15071V4.15591V4.16111V4.16631V4.17152V4.17673V4.18195V4.18717V4.19239V4.19761V4.20283V4.20806V4.2133V4.21853V4.22377V4.22901V4.23425V4.23949V4.24474V4.24999V4.25524V4.2605V4.26576V4.27101V4.27628V4.28154V4.2868V4.29207V4.29734V4.30261V4.30789V4.31316V4.31844V4.32372V4.329V4.33428V4.33956V4.34485V4.35013V4.35542V4.36071V4.366V4.37129V4.37658V4.38188V4.38717V4.39247V4.39777V4.40306V4.40836V4.41366V4.41896V4.42426V4.42957V4.43487V4.44017V4.44548V4.45078V4.45608V4.46139V4.46669V4.472V4.47731V4.48261V4.48792V4.49323V4.49853V4.50384V4.50914V4.51445V4.51976V4.52506V4.53037V4.53567V4.54098V4.54628V4.55159V4.55689V4.56219V4.56749V4.5728V4.5781V4.5834V4.58869V4.59399V4.59929V4.60459V4.60988V4.61518V4.62047V4.62576V4.63105V4.63634V4.64163V4.64691V4.6522V4.65748V4.66277V4.66805V4.67332V4.6786V4.68388V4.68915V4.69442V4.69969V4.70496V4.71023V4.71549V4.72075V4.72601V4.73127V4.73652V4.74178V4.74703V4.75227V4.75752V4.76276V4.768V4.77324V4.77847V4.78371V4.78894V4.79416V4.79939V4.80461V4.80983V4.81504V4.82025V4.82546V4.83067V4.83587V4.84107V4.84626V4.85146V4.85665V4.86183V4.86701V4.87219V4.87737V4.88254V4.8877V4.89287V4.89803V4.90318V4.90833V4.91348V4.91863V4.92377V4.9289V4.93403V4.93916V4.94428V4.9494V4.95451V4.95962V4.96473V4.96983V4.97492V4.98002V4.9851V4.99018V4.99526V5.00033V5.0054V5.01046V5.01552V5.02057V5.02562V5.03066V5.0357V5.04073V5.04575V5.05077V5.05579V5.0608V5.0658V5.0708V5.07579V5.08078V5.08576V5.09074V5.09571V5.10067V5.10563V5.11058V5.11553V5.12047V5.12503H3.00009V5.12128V5.11672V5.11216V5.10759V5.10302V5.09844V5.09386V5.08928V5.08469V5.0801V5.0755V5.0709V5.06629V5.06168V5.05707V5.05245V5.04782V5.0432V5.03857V5.03393V5.02929V5.02465V5.02V5.01535V5.01069V5.00603V5.00137V4.9967V4.99203V4.98735V4.98267V4.97799V4.9733V4.96861V4.96391V4.95921V4.95451V4.9498V4.94509V4.94038V4.93566V4.93093V4.92621V4.92148V4.91674V4.912V4.90726V4.90252V4.89777V4.89301V4.88826V4.88349V4.87873V4.87396V4.86919V4.86441V4.85964V4.85485V4.85007V4.84528V4.84048V4.83569V4.83088V4.82608V4.82127V4.81646V4.81165V4.80683V4.80201V4.79718V4.79235V4.78752V4.78268V4.77784V4.773V4.76816V4.76331V4.75845V4.7536V4.74874V4.74388V4.73901V4.73414V4.72927V4.72439V4.71951V4.71463V4.70974V4.70486V4.69996V4.69507V4.69017V4.68527V4.68036V4.67546V4.67054V4.66563V4.66071V4.65579V4.65087V4.64594V4.64101V4.63608V4.63115V4.62621V4.62127V4.61632V4.61137V4.60642V4.60147V4.59651V4.59156V4.58659V4.58163V4.57666V4.57169V4.56672V4.56174V4.55676V4.55178V4.54679V4.54181V4.53682V4.53182V4.52683V4.52183V4.51683V4.51182V4.50682V4.50181V4.4968V4.49178V4.48676V4.48174V4.47672V4.4717V4.46667V4.46164V4.45661V4.45157V4.44653V4.44149V4.43645V4.43141V4.42636V4.42131V4.41626V4.4112V4.40614V4.40108V4.39602V4.39096V4.38589V4.38082V4.37575V4.37067V4.3656V4.36052V4.35544V4.35036V4.34527V4.34018V4.33509V4.33V4.32491V4.31981V4.31471V4.30961V4.30451V4.2994V4.2943V4.28919V4.28408V4.27896V4.27385V4.26873V4.26361V4.25849V4.25336V4.24824V4.24311V4.23798V4.23285V4.22772V4.22258V4.21744V4.2123V4.20716V4.20202V4.19688V4.19173V4.18658V4.18143V4.17628V4.17112V4.16597V4.16081V4.15565V4.15049V4.14533V4.14016V4.135V4.12983V4.12466V4.11949V4.11432V4.10914V4.10397V4.09879V4.09361V4.08843V4.08325V4.07806V4.07288V4.06769V4.0625V4.05731V4.05212V4.04693V4.04173V4.03653V4.03134V4.02614V4.02094V4.01574V4.01053V4.00533V4.00012V3.99492V3.98971V3.9845V3.97929V3.97407V3.96886V3.96365V3.95843V3.95321V3.94799V3.94277V3.93755V3.93233V3.92711V3.92188V3.91666V3.91143V3.9062V3.90097V3.89574V3.89051V3.88528V3.88005V3.87481V3.86958V3.86434V3.85911V3.85387V3.84863V3.84339V3.83815V3.8329V3.82766V3.82242V3.81717V3.81193V3.80668V3.80143V3.79619V3.79094V3.78569V3.78044V3.77519V3.76993V3.76468V3.75943V3.75417V3.74892V3.74366V3.73841V3.73315V3.72789V3.72263V3.71737V3.71211V3.70685V3.70159V3.69633V3.69107V3.68581V3.68054V3.67528V3.67002V3.66475V3.65949V3.65422V3.64896V3.64369V3.63842V3.63316V3.62789V3.62262V3.61735V3.61208V3.60681V3.60154V3.59627V3.591V3.58573V3.58046V3.57519V3.56992V3.56465V3.55938V3.55411V3.54883V3.54356V3.53829V3.53302V3.52774V3.52247V3.5172V3.51193V3.50665V3.50138V3.49611V3.49083V3.48556V3.48029V3.47501ZM1.50009 5.18802V5.18464V5.18014V5.17564V5.17113V5.16662V5.16211V5.15759V5.15307V5.14854V5.14401V5.13947V5.13493V5.13038V5.12583V5.12128V5.11672V5.11216V5.10759V5.10302V5.09844V5.09386V5.08928V5.08469V5.0801V5.0755V5.0709V5.06629V5.06168V5.05707V5.05245V5.04782V5.0432V5.03857V5.03393V5.02929V5.02465V5.02V5.01535V5.01069V5.00603V5.00137V4.9967V4.99203V4.98735V4.98267V4.97799V4.9733V4.96861V4.96391V4.95921V4.95451V4.9498V4.94509V4.94038V4.93566V4.93093V4.92621V4.92148V4.91674V4.912V4.90726V4.90252V4.89777V4.89301V4.88826V4.88349V4.87873V4.87396V4.86919V4.86441V4.85964V4.85485V4.85007V4.84528V4.84048V4.83569V4.83088V4.82608V4.82127V4.81646V4.81165V4.80683V4.80201V4.79718V4.79235V4.78752V4.78268V4.77784V4.773V4.76816V4.76331V4.75845V4.7536V4.74874V4.74388V4.73901V4.73414V4.72927V4.72439V4.71951V4.71463V4.70974V4.70486V4.69996V4.69507V4.69017V4.68527V4.68036V4.67546V4.67054V4.66563V4.66071V4.65579V4.65087V4.64594V4.64101V4.63608V4.63115V4.62621V4.62127V4.61632V4.61137V4.60642V4.60147V4.59651V4.59156V4.58659V4.58163V4.57666V4.57169V4.56672V4.56174V4.55676V4.55178V4.54679V4.54181V4.53682V4.53182V4.52683V4.52183V4.51683V4.51182V4.50682V4.50181V4.4968V4.49178V4.48676V4.48174V4.47672V4.4717V4.46667V4.46164V4.45661V4.45157V4.44653V4.44149V4.43645V4.43141V4.42636V4.42131V4.41626V4.4112V4.40614V4.40108V4.39602V4.39096V4.38589V4.38082V4.37575V4.37067V4.3656V4.36052V4.35544V4.35036V4.34527V4.34018V4.33509V4.33V4.32491V4.31981V4.31471V4.30961V4.30451V4.2994V4.2943V4.28919V4.28408V4.27896V4.27385V4.26873V4.26361V4.25849V4.25336V4.24824V4.24311V4.23798V4.23285V4.22772V4.22258V4.21744V4.2123V4.20716V4.20202V4.19688V4.19173V4.18658V4.18143V4.17628V4.17112V4.16597V4.16081V4.15565V4.15049V4.14533V4.14016V4.135V4.12983V4.12466V4.11949V4.11432V4.10914V4.10397V4.09879V4.09361V4.08843V4.08325V4.07806V4.07288V4.06769V4.0625V4.05731V4.05212V4.04693V4.04173V4.03653V4.03134V4.02614V4.02094V4.01574V4.01053V4.00533V4.00012V3.99492V3.98971V3.9845V3.97929V3.97407V3.96886V3.96365V3.95843V3.95321V3.94799V3.94277V3.93755V3.93233V3.92711V3.92188V3.91666V3.91143V3.9062V3.90097V3.89574V3.89051V3.88528V3.88005V3.87481V3.86958V3.86434V3.85911V3.85387V3.84863V3.84339V3.83815V3.8329V3.82766V3.82242V3.81717V3.81193V3.80668V3.80143V3.79619V3.79094V3.78569V3.78044V3.77519V3.76993V3.76468V3.75943V3.75417V3.74892V3.74366V3.73841V3.73315V3.72789V3.72263V3.71737V3.71211V3.70685V3.70159V3.69633V3.69107V3.68581V3.68054V3.67528V3.67002V3.66475V3.65949V3.65422V3.64896V3.64369V3.63842V3.63316V3.62789V3.62262V3.61735V3.61208V3.60681V3.60154V3.59627V3.591V3.58573V3.58046V3.57519V3.56992V3.56465V3.55938V3.55411V3.54883V3.54356V3.53829V3.53302V3.52774V3.52247V3.5172V3.51193V3.50665V3.50138V3.49611V3.49083V3.48556V3.48029V3.47501C1.50009 2.20712 2.63477 0.625 4.50011 0.625C6.36544 0.625 7.50012 2.20712 7.50012 3.47501V3.47924V3.48347V3.48772V3.49197V3.49624V3.50051V3.5048V3.50909V3.5134V3.51772V3.52204V3.52638V3.53073V3.53508V3.53945V3.54382V3.54821V3.55261V3.55701V3.56142V3.56585V3.57028V3.57473V3.57918V3.58364V3.58811V3.59259V3.59708V3.60158V3.60608V3.6106V3.61512V3.61966V3.6242V3.62875V3.63331V3.63788V3.64246V3.64705V3.65164V3.65625V3.66086V3.66548V3.67011V3.67474V3.67939V3.68404V3.6887V3.69337V3.69805V3.70273V3.70743V3.71213V3.71684V3.72156V3.72628V3.73101V3.73575V3.7405V3.74525V3.75002V3.75479V3.75956V3.76435V3.76914V3.77394V3.77875V3.78356V3.78838V3.79321V3.79804V3.80288V3.80773V3.81259V3.81745V3.82232V3.82719V3.83207V3.83696V3.84186V3.84676V3.85167V3.85658V3.8615V3.86643V3.87136V3.8763V3.88124V3.88619V3.89115V3.89611V3.90108V3.90606V3.91104V3.91602V3.92102V3.92601V3.93102V3.93602V3.94104V3.94606V3.95108V3.95611V3.96115V3.96619V3.97124V3.97629V3.98134V3.9864V3.99147V3.99654V4.00162V4.0067V4.01178V4.01687V4.02197V4.02707V4.03217V4.03728V4.04239V4.04751V4.05263V4.05776V4.06289V4.06802V4.07316V4.07831V4.08345V4.0886V4.09376V4.09892V4.10408V4.10925V4.11442V4.11959V4.12477V4.12995V4.13513V4.14032V4.14551V4.15071V4.15591V4.16111V4.16631V4.17152V4.17673V4.18195V4.18717V4.19239V4.19761V4.20283V4.20806V4.2133V4.21853V4.22377V4.22901V4.23425V4.23949V4.24474V4.24999V4.25524V4.2605V4.26576V4.27101V4.27628V4.28154V4.2868V4.29207V4.29734V4.30261V4.30789V4.31316V4.31844V4.32372V4.329V4.33428V4.33956V4.34485V4.35013V4.35542V4.36071V4.366V4.37129V4.37658V4.38188V4.38717V4.39247V4.39777V4.40306V4.40836V4.41366V4.41896V4.42426V4.42957V4.43487V4.44017V4.44548V4.45078V4.45608V4.46139V4.46669V4.472V4.47731V4.48261V4.48792V4.49323V4.49853V4.50384V4.50914V4.51445V4.51976V4.52506V4.53037V4.53567V4.54098V4.54628V4.55159V4.55689V4.56219V4.56749V4.5728V4.5781V4.5834V4.58869V4.59399V4.59929V4.60459V4.60988V4.61518V4.62047V4.62576V4.63105V4.63634V4.64163V4.64691V4.6522V4.65748V4.66277V4.66805V4.67332V4.6786V4.68388V4.68915V4.69442V4.69969V4.70496V4.71023V4.71549V4.72075V4.72601V4.73127V4.73652V4.74178V4.74703V4.75227V4.75752V4.76276V4.768V4.77324V4.77847V4.78371V4.78894V4.79416V4.79939V4.80461V4.80983V4.81504V4.82025V4.82546V4.83067V4.83587V4.84107V4.84626V4.85146V4.85665V4.86183V4.86701V4.87219V4.87737V4.88254V4.8877V4.89287V4.89803V4.90318V4.90833V4.91348V4.91863V4.92377V4.9289V4.93403V4.93916V4.94428V4.9494V4.95451V4.95962V4.96473V4.96983V4.97492V4.98002V4.9851V4.99018V4.99526V5.00033V5.0054V5.01046V5.01552V5.02057V5.02562V5.03066V5.0357V5.04073V5.04575V5.05077V5.05579V5.0608V5.0658V5.0708V5.07579V5.08078V5.08576V5.09074V5.09571V5.10067V5.10563V5.11058V5.11553V5.12047V5.1254V5.13033V5.13525V5.14017V5.14508V5.14998V5.15487V5.15976V5.16465V5.16952V5.17439V5.17926V5.18411V5.18806C8.3627 5.4101 9.00005 6.19314 9.00005 7.12503V11.3751C9.00005 12.4797 8.10462 13.3751 7.00005 13.3751H2C0.89543 13.3751 0 12.4797 0 11.3751V7.12503C0 6.19308 0.637433 5.41001 1.50009 5.18802ZM6.0002 8.87504C6.0002 9.70347 5.32862 10.3751 4.50019 10.3751C3.67176 10.3751 3.00018 9.70347 3.00018 8.87504C3.00018 8.04661 3.67176 7.37503 4.50019 7.37503C5.32862 7.37503 6.0002 8.04661 6.0002 8.87504Z"
          fill="#FF5721"/>
</svg>
