<svg width="140" height="140" viewBox="0 0 140 140" fill="none" xmlns="http://www.w3.org/2000/svg">
    <circle cx="36.6115" cy="53.8342" r="14.5139" fill="#FDE2A2"/>
    <circle cx="7.96528" cy="54.979" r="4.96528" fill="#FDE2A2"/>
    <circle cx="43.104" cy="100.049" r="4.96528" fill="#FDE2A2"/>
    <circle cx="12.5486" cy="115.326" r="2.67361" fill="#FDE2A2"/>
    <circle cx="101.16" cy="43.5213" r="16.4236" fill="#FDE2A2"/>
    <circle cx="87.0275" cy="11.8194" r="3.81944" fill="#FDE2A2"/>
    <circle cx="70.1944" cy="70.1944" r="38.1944" fill="#FBB100"/>
    <path
        d="M66.9363 87.791C65.8753 87.791 65.0416 87.483 64.4353 86.867C63.829 86.251 63.5258 85.41 63.5258 84.3438C63.5258 83.254 63.8163 81.7851 64.3974 79.9371C65.0037 78.0654 65.5974 76.3715 66.1784 74.8552C66.7847 73.3389 67.0879 72.332 67.0879 71.8345C67.0879 71.3132 66.9111 71.0526 66.5574 71.0526C65.6732 71.0526 64.2458 72.6874 62.2753 75.9569L59.7363 74.5709C63.45 68.6953 66.8605 65.7575 69.9679 65.7575C72.09 65.7575 73.1511 67.0131 73.1511 69.5245C73.1511 70.2589 72.8984 71.4317 72.3932 73.0427L69.6647 80.3636C69.3869 81.0506 69.2479 81.6785 69.2479 82.2471C69.2479 82.792 69.4753 83.0645 69.93 83.0645C70.789 83.0645 72.3679 81.5719 74.6669 78.5867L76.2584 79.9727C74.8942 82.3419 73.2647 84.2372 71.37 85.6587C69.5005 87.0803 68.0226 87.791 66.9363 87.791ZM77.7363 55.2737C77.7363 56.2214 77.3953 57.0862 76.7132 57.868C76.0311 58.6499 75.109 59.0408 73.9469 59.0408C72.7847 59.0408 71.9132 58.7209 71.3321 58.0812C70.7511 57.4179 70.4605 56.5886 70.4605 55.5936C70.4605 54.5985 70.8142 53.7219 71.5216 52.9638C72.2542 52.1819 73.189 51.791 74.3258 51.791C75.4626 51.791 76.309 52.1345 76.8647 52.8216C77.4458 53.485 77.7363 54.3024 77.7363 55.2737Z"
        fill="white"/>
</svg>
