<svg width="140" height="140" viewBox="0 0 140 140" fill="none" xmlns="http://www.w3.org/2000/svg">
    <rect x="8" y="20" width="123" height="100" rx="6" fill="#FA9983"/>
    <path fill-rule="evenodd" clip-rule="evenodd"
          d="M110.618 27.3813C110.618 29.5163 108.887 31.2471 106.752 31.2471C104.617 31.2471 102.886 29.5163 102.886 27.3813C102.886 25.2464 104.617 23.5156 106.752 23.5156C108.887 23.5156 110.618 25.2464 110.618 27.3813ZM98.6689 27.3817C98.6689 29.5166 96.9382 31.2474 94.8032 31.2474C92.6682 31.2474 90.9375 29.5166 90.9375 27.3817C90.9375 25.2467 92.6682 23.516 94.8032 23.516C96.9382 23.516 98.6689 25.2467 98.6689 27.3817ZM118.7 31.2471C120.835 31.2471 122.566 29.5163 122.566 27.3813C122.566 25.2464 120.835 23.5156 118.7 23.5156C116.566 23.5156 114.835 25.2464 114.835 27.3813C114.835 29.5163 116.566 31.2471 118.7 31.2471Z"
          fill="white"/>
    <rect x="12.2168" y="34.7598" width="114.566" height="80.8286" rx="6" fill="white"/>
    <circle cx="50.5229" cy="63.9282" r="3.86571" fill="#FA9983"/>
    <circle cx="88.477" cy="63.9282" r="3.86571" fill="#FA9983"/>
    <path
        d="M83.206 96.9615C83.206 95.4385 82.906 93.9304 82.3232 92.5234C81.7404 91.1164 80.8862 89.8379 79.8093 88.761C78.7324 87.6841 77.4539 86.8299 76.0469 86.2471C74.6399 85.6643 73.1318 85.3643 71.6089 85.3643C70.0859 85.3643 68.5779 85.6643 67.1708 86.2471C65.7638 86.8299 64.4853 87.6841 63.4084 88.761C62.3315 89.8379 61.4773 91.1164 60.8945 92.5234C60.3117 93.9304 60.0117 95.4385 60.0117 96.9615L71.6089 96.9615H83.206Z"
        fill="#FA9983"/>
</svg>
