<svg width="146" height="49" viewBox="0 0 146 49" fill="none" xmlns="http://www.w3.org/2000/svg">
    <path fill-rule="evenodd" clip-rule="evenodd"
          d="M16.3957 10.0754H10.6702V15.5034L1.52432 24.1642L10.6702 32.8267V38.2176H16.3957L18.5149 40.2253L25.5788 46.8802L32.6055 40.2271L34.7619 38.2195H40.4502V32.8286L42.6066 30.821L49.6333 24.166L42.6066 17.5111L40.4502 15.5034V10.0754H34.7619L32.6055 8.06773L25.5788 1.41278L16.3957 10.0754ZM8.55105 8.06773H17.0278L25.5788 0L34.1299 8.06773H42.6066V16.0611L51.1576 24.1648L42.6066 32.2325V40.2259H34.1299L25.5788 48.2936L17.0278 40.2259H8.55105V32.2325L0 24.1648L8.55105 16.0599V8.06649V8.06773ZM4.4986 24.1648L25.5788 4.27429L46.6218 24.1648L25.5788 44.0553L4.4986 24.1648Z"
          fill="#176C57"/>
    <path fill-rule="evenodd" clip-rule="evenodd"
          d="M40.4501 18.3296C38.1004 21.056 34.9229 23.0376 31.49 24.0922C29.628 24.6462 28.0709 24.8556 26.1363 24.9473C24.586 24.9256 22.978 25.1667 21.6006 25.914C19.1158 27.1979 17.3517 29.6225 17.2135 32.4574C16.9929 38.2374 22.0566 39.8348 25.5787 44.0571L31.7503 38.2201L40.4501 29.9664L46.6217 24.1666L40.4501 18.3296ZM10.6701 29.9664C12.969 27.424 15.9135 25.435 19.184 24.3897C22.7766 22.9366 25.829 23.8741 28.8132 22.7166C31.2812 21.7996 33.2126 19.5998 33.7951 17.0283C34.9154 10.7129 29.5152 8.50824 25.5787 4.27609L19.407 10.0759L10.6701 18.3283L4.49845 24.1653L10.6701 29.9652V29.9664ZM1.52417 24.1653L10.6701 15.5028V10.0747H16.3956L25.5787 1.41211L34.7617 10.0747H40.4501V15.5028L49.6331 24.1653L40.4501 32.8279V38.2188H34.7617L25.5787 46.8814L16.3956 38.2188H10.6701V32.8279L1.52417 24.1666V24.1653Z"
          fill="#F1A400"/>
    <path fill-rule="evenodd" clip-rule="evenodd"
          d="M87.7041 35.3938L84.3209 28.962L80.9005 35.3938H87.7041ZM56.2139 33.7939V37.8092H66.3265L66.5496 37.7348H66.6239C66.8513 37.671 67.0484 37.5489 67.2559 37.4374L67.3675 37.3631L67.5162 37.2143L67.6277 37.0656L67.7764 36.9169L67.8508 36.7694C68.0119 36.604 68.0429 36.3431 68.1111 36.1374C68.1408 35.5091 68.0925 35.0171 67.6277 34.5387L67.5162 34.39L67.3675 34.2785L67.1816 34.1298L66.9957 34.0554L66.8098 33.9439L66.7354 33.9067L66.6239 33.8683C63.2221 33.4221 59.7242 33.5368 56.2139 33.7939ZM56.2139 27.362V31.3773H66.3265L66.438 31.3401H66.5496L66.6239 31.303C66.847 31.2224 67.0855 31.1406 67.2559 30.9684C67.5193 30.8878 67.7318 30.5736 67.8508 30.3363C68.0181 30.1591 68.0553 29.892 68.1111 29.6671C68.1396 28.9979 68.0844 28.6354 67.6277 28.1056L67.5162 27.9569L67.3675 27.8082L67.1816 27.7338L66.8098 27.5108L66.7354 27.4736H66.6239L66.5496 27.4364L66.438 27.3992H66.3265L66.2149 27.3608H56.2139V27.362ZM96.218 24.9454H100.456L112.391 36.2105V24.9467H116.629V40.227H112.391L100.456 28.962V40.227H96.218V24.9467V24.9454ZM125.663 32.6042L136.63 24.9467H131.945L122.613 31.3786V24.9467H118.338V40.227H122.613V33.7939L131.945 40.2258H136.63L125.662 32.6042H125.663ZM127.708 8.06641H131.947V14.4983L141.316 8.06641H146L135.032 15.7252L146 23.3468H141.316L131.947 16.9149V23.3468H127.708V8.06765V8.06641ZM118.339 16.9149V23.3468H114.101V16.9161L105.996 8.06765H110.271L116.22 14.4995L122.169 8.06765H126.444L118.339 16.9161V16.9149ZM96.218 8.06641H100.456V20.9302H112.391V23.3468H96.218V8.06765V8.06641ZM84.3209 12.0817L87.7041 18.5136H80.9005L84.3209 12.0817ZM90.2694 23.3468H94.5078L86.44 8.06641H82.1645L74.0968 23.3468H78.3351L79.5992 20.9302H88.9682L90.2694 23.3468ZM51.9756 8.06641H56.2139V14.4983H68.1111V8.06765H72.3866V23.348H68.1111V16.9161H56.2139V23.348H51.9756V8.06765V8.06641ZM51.9756 24.9454H68.5572L68.7431 24.9826H68.9662L69.1521 25.021L69.3379 25.0954L69.5238 25.1326L69.7469 25.2069C70.2203 25.3662 70.6596 25.6295 71.0482 25.9505C71.8314 26.6693 72.3271 27.5182 72.3866 28.5902C72.4795 30.8568 70.5338 32.5881 68.3341 32.6054C70.4068 32.528 72.4014 34.2847 72.3866 36.3977C72.4039 37.4325 71.9299 38.401 71.1969 39.1117C70.8127 39.4661 70.3901 39.7561 69.8956 39.9296L69.7469 40.004L69.5238 40.0411L69.3379 40.1155L69.1521 40.1527L68.9662 40.1899L68.7431 40.227H51.9756V24.9467V24.9454ZM78.3351 40.2258H74.0968L82.1645 24.9454H86.44L94.5078 40.2258H90.2694L88.9682 37.8092H79.5992L78.3351 40.2258Z"
          fill="#176C57"/>
</svg>
