<svg width="140" height="140" viewBox="0 0 140 140" fill="none" xmlns="http://www.w3.org/2000/svg">
    <circle cx="36.6115" cy="53.8342" r="14.5139" fill="#BEECE0"/>
    <circle cx="7.96528" cy="54.979" r="4.96528" fill="#BEECE0"/>
    <circle cx="43.104" cy="100.049" r="4.96528" fill="#BEECE0"/>
    <circle cx="12.5486" cy="115.326" r="2.67361" fill="#BEECE0"/>
    <circle cx="101.16" cy="43.5213" r="16.4236" fill="#BEECE0"/>
    <circle cx="87.0275" cy="11.8194" r="3.81944" fill="#BEECE0"/>
    <circle cx="70.1944" cy="70.1944" r="38.1944" fill="#11BB91"/>
    <path
        d="M59.475 72.9676C58.3603 72.153 56.7962 72.3963 55.9815 73.5111C55.1669 74.6258 55.4102 76.1899 56.525 77.0046L59.475 72.9676ZM67.9306 82.2431L66.4555 84.2615L68.353 85.6481L69.8541 83.8399L67.9306 82.2431ZM86.6596 63.5969C87.5416 62.5346 87.3953 60.9584 86.333 60.0765C85.2707 59.1945 83.6945 59.3408 82.8126 60.4031L86.6596 63.5969ZM56.525 77.0046L66.4555 84.2615L69.4056 80.2246L59.475 72.9676L56.525 77.0046ZM69.8541 83.8399L86.6596 63.5969L82.8126 60.4031L66.007 80.6462L69.8541 83.8399Z"
        fill="white"/>
</svg>
