<svg width="123" height="100" viewBox="0 0 123 100" fill="none" xmlns="http://www.w3.org/2000/svg">
    <rect width="123" height="100" rx="6" fill="#FA9983"/>
    <path fill-rule="evenodd" clip-rule="evenodd"
          d="M102.618 7.38036C102.618 9.51534 100.887 11.2461 98.7519 11.2461C96.6169 11.2461 94.8862 9.51534 94.8862 7.38036C94.8862 5.24539 96.6169 3.51465 98.7519 3.51465C100.887 3.51465 102.618 5.24539 102.618 7.38036ZM90.6689 7.38069C90.6689 9.51567 88.9382 11.2464 86.8032 11.2464C84.6682 11.2464 82.9375 9.51567 82.9375 7.38069C82.9375 5.24572 84.6682 3.51498 86.8032 3.51498C88.9382 3.51498 90.6689 5.24572 90.6689 7.38069ZM110.7 11.2461C112.835 11.2461 114.566 9.51534 114.566 7.38036C114.566 5.24539 112.835 3.51465 110.7 3.51465C108.566 3.51465 106.835 5.24539 106.835 7.38036C106.835 9.51534 108.566 11.2461 110.7 11.2461Z"
          fill="white"/>
    <rect x="4.2168" y="14.7598" width="114.566" height="80.8286" rx="6" fill="white"/>
    <circle cx="42.5229" cy="43.9282" r="3.86571" fill="#FA9983"/>
    <circle cx="80.477" cy="43.9282" r="3.86571" fill="#FA9983"/>
    <path
        d="M75.206 76.9624C75.206 75.4395 74.906 73.9314 74.3232 72.5244C73.7404 71.1174 72.8862 69.8389 71.8093 68.762C70.7324 67.6851 69.4539 66.8309 68.0469 66.2481C66.6399 65.6653 65.1318 65.3653 63.6089 65.3653C62.0859 65.3653 60.5779 65.6653 59.1708 66.2481C57.7638 66.8309 56.4853 67.6851 55.4084 68.762C54.3315 69.8389 53.4773 71.1174 52.8945 72.5244C52.3117 73.9314 52.0117 75.4395 52.0117 76.9624L63.6089 76.9624H75.206Z"
        fill="#FA9983"/>
</svg>
