<svg width="36" height="36" viewBox="0 0 36 36" fill="none" xmlns="http://www.w3.org/2000/svg">
<rect width="36" height="36" rx="12" fill="#D9B681"/>
<path d="M7 24.1387H10.9448C11.1542 24.1387 11.9222 24.1387 12.4982 24.0688C15.4481 23.6848 17.019 21.0666 17.019 17.855C17.019 14.6608 15.4481 12.0251 12.4982 11.6411C11.9048 11.5713 11.1717 11.5713 10.9448 11.5713H7V24.1387ZM8.86765 22.4107V13.2993H10.9448C11.3288 13.2993 11.9397 13.3168 12.3586 13.404C14.2437 13.7531 15.0815 15.6382 15.0815 17.855C15.0815 20.0019 14.2786 21.9568 12.3586 22.3059C11.9397 22.3932 11.3288 22.4107 10.9448 22.4107H8.86765Z" fill="white"/>
<path d="M19.0683 24.1387H20.901V18.7103H27.1847V24.1387H29V11.5713H27.1847V16.9822H20.901V11.5713H19.0683V24.1387Z" fill="white"/>
</svg>
