<svg width="36" height="36" viewBox="0 0 36 36" fill="none" xmlns="http://www.w3.org/2000/svg">
<path fill-rule="evenodd" clip-rule="evenodd" d="M26.9406 17.4684L26.6828 18.9361H23.5168L22.957 21.9374H20.9766L22.3539 14.4897H27.4787L27.221 15.9791H24.055L23.7756 17.4684H26.9406Z" fill="#00427A"/>
<path fill-rule="evenodd" clip-rule="evenodd" d="M11.0706 19.4963H12.6861L12.203 17.8127L11.0706 19.4963ZM10.2521 20.9482L9.58012 21.9374H7.85938L12.7903 14.4897H12.9586L15.0365 21.9374H13.2105L12.9586 20.9482H10.2521Z" fill="#00427A"/>
<path fill-rule="evenodd" clip-rule="evenodd" d="M21.0814 14.4897H16.2911L16.0117 15.9752H17.515L16.3344 21.9374H18.0522L19.2977 15.9752C19.7916 15.9752 20.3071 15.9752 20.8011 15.9752L21.0814 14.4897Z" fill="#00427A"/>
<path fill-rule="evenodd" clip-rule="evenodd" d="M28.4061 14.6377L28.5409 14.7402L28.6687 14.8566L28.7917 14.9878L28.9088 15.1298L29.02 15.2807L29.1213 15.4465L29.2167 15.6151L29.3063 15.7996L29.3879 15.9869L29.4617 16.1872L29.5227 16.3913L29.5797 16.6004L29.6211 16.8164L29.6575 17.0413L29.6811 17.2671L29.6929 17.496V17.7298L29.686 17.9665L29.6624 18.2051L29.626 18.4409L29.5797 18.6796L29.5197 18.9212L29.443 19.1569L29.3545 19.3937L29.2482 19.6294L29.1301 19.8582L28.9954 20.09L28.8458 20.3119L28.6805 20.5318L28.4956 20.7459L28.2949 20.9521L28.0775 21.1513L27.5334 21.6L26.9323 22.0252L26.2879 22.4285L25.5923 22.8132L24.8613 23.1713L24.0968 23.5056L23.298 23.8182L22.4755 24.0993L21.6264 24.3597L20.7656 24.5926L19.888 24.7928L19.0015 24.9693L18.1131 25.1143L17.2228 25.2287L16.3403 25.3125L15.4646 25.3638L14.6038 25.3835L13.7616 25.3698L12.9421 25.3204L12.1501 25.2356L11.3906 25.1182L10.6665 24.9604L9.98175 24.7661L9.34322 24.5363L8.75489 24.2641L8.2187 23.9564L7.74448 23.6032L7.33029 23.2107L6.98398 22.7767L6.71047 22.2984L6.51272 21.7756L6.39564 21.2114L6.3494 20.6117L6.36416 20.0328L6.43598 19.4755L6.56093 18.9399L6.73704 18.4291L6.96037 17.9359L7.22502 17.4625L7.53493 17.0117L7.87632 16.5827L8.25608 16.1674L8.66535 15.7729L9.10024 15.3962L9.56262 15.0391L10.0437 14.6988L10.5356 14.3763L11.0482 14.0695L11.5716 13.7786L12.0999 13.5054L12.6283 13.245L13.1654 13.0004L13.6918 12.7706L14.2161 12.5585L14.7307 12.3533L15.2325 12.1669L15.7146 11.9884L16.176 11.8247L16.6197 11.6738L17.0329 11.5337L17.4176 11.4055L17.7717 11.2871L18.0866 11.1796L18.3571 11.08L17.9134 11.8779L21.4198 10L17.2562 10.2594L18.1869 10.6608L17.8436 10.7614L17.4805 10.8729L17.0949 10.9912L16.6935 11.1185L16.2724 11.2536L15.8375 11.4025L15.3859 11.5564L14.9216 11.7201L14.4523 11.8937L13.9692 12.0782L13.4783 12.2705L12.9854 12.4747L12.4876 12.6877L11.9868 12.9116L11.4889 13.1444L10.9941 13.388L10.4982 13.6434L10.0122 13.9058L9.52915 14.1859L9.052 14.47L8.59353 14.7688L8.14294 15.0775L7.70808 15.3981L7.28995 15.7315L6.88658 16.0718L6.50583 16.4298L6.14181 16.7967L5.80042 17.1754L5.49051 17.566L5.20225 17.9685L4.94153 18.3856L4.71131 18.8127L4.61982 19.0031L4.53324 19.1875L4.45158 19.369L4.37779 19.5514L4.30794 19.731L4.24694 19.9095L4.19185 20.0831L4.14167 20.2537L4.10035 20.4234L4.0669 20.594L4.04132 20.7626L4.01869 20.9264L4.00787 21.0911L4 21.2499L4.00197 21.4116L4.01181 21.5734L4.02853 21.7303L4.05018 21.8851L4.08068 22.0429L4.12495 22.1928L4.1702 22.3477L4.22727 22.4995L4.29318 22.6495L4.365 22.8004L4.44371 22.9483L4.53324 23.0953L4.63162 23.2443L4.74083 23.3862L4.85299 23.5362L4.97892 23.6802L5.11371 23.8232L5.25439 23.9701L5.6617 24.3193L6.13296 24.6349L6.65931 24.918L7.24371 25.1636L7.87632 25.3766L8.55714 25.5562L9.28419 25.708L10.0457 25.8264L10.8445 25.9113L11.6769 25.9714L12.5299 26H13.4153L14.3175 25.9733L15.2364 25.9221L16.1651 25.8432L17.1047 25.7376L18.0502 25.6094L18.9976 25.4576L19.9382 25.2839L20.8758 25.0886L21.8025 24.8667L22.7135 24.631L23.6059 24.3726L24.4766 24.0934L25.3227 23.7996L26.1412 23.4829L26.9244 23.1525L27.6682 22.8083L28.3756 22.4424L29.0367 22.0686L29.6477 21.674L30.2055 21.2706L30.3688 21.1227L30.5233 20.9658L30.6718 20.809L30.8165 20.6453L30.9542 20.4756L31.0801 20.305L31.2011 20.1363L31.3162 19.9579L31.4195 19.7813L31.5189 19.5998L31.6075 19.4203L31.6891 19.2359L31.7609 19.0514L31.8249 18.866L31.877 18.6796L31.9233 18.4981L31.9567 18.3117L31.9823 18.1263L31.9941 17.9438L32 17.7613L31.9931 17.5828L31.9754 17.4043L31.9469 17.2267L31.9056 17.0532L31.8554 16.8835L31.7924 16.7148L31.7177 16.5511L31.6301 16.3913L31.5307 16.2355L31.4195 16.0855L31.2927 15.9386L31.1559 15.7956L31.0831 15.7276L31.0113 15.6664L30.9365 15.6062L30.8647 15.55L30.787 15.4967L30.7112 15.4494L30.6315 15.3981L30.5548 15.3567L30.4721 15.3142L30.3934 15.2748L30.3117 15.2393L30.2291 15.2057L30.0608 15.1406L29.8887 15.0805L29.7116 15.0283L29.5345 14.9769L29.3545 14.9257L29.1685 14.8744L28.9806 14.8221L28.7937 14.7649L28.6018 14.7037L28.4061 14.6377Z" fill="#F47929"/>
</svg>
