<svg width="36" height="36" viewBox="0 0 36 36" fill="none" xmlns="http://www.w3.org/2000/svg">
<mask id="mask0_1179_107118" style="mask-type:alpha" maskUnits="userSpaceOnUse" x="0" y="0" width="36" height="36">
<rect width="36" height="36" rx="12" fill="#E0E6EF"/>
</mask>
<g mask="url(#mask0_1179_107118)">
<rect width="49" height="36" fill="#0A17A7"/>
<path d="M0 -0.333333H-0.874354L-0.221904 0.248736L7.83333 7.43504V9.54674L-0.198875 15.5182L-0.333333 15.6182V15.7857V17V17.6145L0.181763 17.2794L9.43221 11.2619H11.5563L19.5459 17.2017C19.6609 17.2872 19.8004 17.3333 19.9437 17.3333H20.1256C20.7381 17.3333 21.0264 16.5769 20.5695 16.1692L13.1667 9.56496V7.45326L21.0644 1.58175C21.2336 1.45597 21.3333 1.25757 21.3333 1.04674V0V-0.614491L20.8182 -0.279416L11.5678 5.7381H9.44367L1.36554 -0.267507L1.277 -0.333333H1.16667H0Z" fill="#FF2E3B" stroke="white" stroke-width="0.666667"/>
<path fill-rule="evenodd" clip-rule="evenodd" d="M0 6V10.8H8.10526V17.3333C8.10526 17.7015 8.40374 18 8.77193 18H12.0702C12.4384 18 12.7368 17.7015 12.7368 17.3333V10.8H21.3333C21.7015 10.8 22 10.5015 22 10.1333V6.66667C22 6.29848 21.7015 6 21.3333 6H12.7368V0H8.10526V6H0Z" fill="url(#paint0_linear_1179_107118)"/>
<path fill-rule="evenodd" clip-rule="evenodd" d="M0 7.28571H9.33333V6.07143V0H11.6667V6.07143V7.28571H21V9.71429H11.6667V10.9286V17H9.33333V10.9286V9.71429H0V7.28571Z" fill="url(#paint1_linear_1179_107118)"/>
<path fill-rule="evenodd" clip-rule="evenodd" d="M10.1544 28.9751L8.30028 30L8.65439 27.8292L7.15439 26.2918L9.22734 25.9751L10.1544 24L11.0814 25.9751L13.1544 26.2918L11.6544 27.8292L12.0085 30L10.1544 28.9751Z" fill="white"/>
<path fill-rule="evenodd" clip-rule="evenodd" d="M35.1213 30.1213L33.6213 30.4142L34.0607 29.4142L33.6213 28.4142L35.1213 28.7071L36.6213 28.4142L36.182 29.4142L36.6213 30.4142L35.1213 30.1213Z" fill="white"/>
<path fill-rule="evenodd" clip-rule="evenodd" d="M35.1213 9.18198L33.6213 9.62132L34.0607 8.12132L33.6213 6.62132L35.1213 7.06066L36.6213 6.62132L36.182 8.12132L36.6213 9.62132L35.1213 9.18198Z" fill="white"/>
<path fill-rule="evenodd" clip-rule="evenodd" d="M28.1213 18.182L26.6213 18.6213L27.0607 17.1213L26.6213 15.6213L28.1213 16.0607L29.6213 15.6213L29.182 17.1213L29.6213 18.6213L28.1213 18.182Z" fill="white"/>
</g>
<defs>
<linearGradient id="paint0_linear_1179_107118" x1="0" y1="0" x2="0" y2="18" gradientUnits="userSpaceOnUse">
<stop stop-color="white"/>
<stop offset="1" stop-color="#F0F0F0"/>
</linearGradient>
<linearGradient id="paint1_linear_1179_107118" x1="0" y1="0" x2="0" y2="17" gradientUnits="userSpaceOnUse">
<stop stop-color="#FF2E3B"/>
<stop offset="1" stop-color="#FC0D1B"/>
</linearGradient>
</defs>
</svg>
