<svg width="36" height="36" viewBox="0 0 36 36" fill="none" xmlns="http://www.w3.org/2000/svg">
<rect width="36" height="36" rx="12" fill="#D0D6D8"/>
<path d="M16.0609 25H18.2209L13.5409 10.6H10.5409L5.86094 25H8.02094L9.08094 21.76H15.0009L16.0609 25ZM9.72094 19.8L12.0209 12.7L14.3609 19.8H9.72094ZM29.7944 20.9C29.7944 18.9 28.7944 17.76 26.3544 17.04L23.7144 16.26C22.2344 15.82 21.5944 15.24 21.5944 14.34C21.5944 13.14 22.7944 12.26 24.3744 12.28C26.0344 12.32 27.2944 13.36 27.5744 14.92L29.7144 14.52C29.2344 12.26 27.7144 10.8 25.5144 10.42V8.62H23.4144V10.38C21.0144 10.68 19.5144 12.22 19.5144 14.44C19.5144 16.2 20.5344 17.44 22.4944 18.04L25.8744 19.1C27.1944 19.5 27.7344 20.06 27.7344 21.02C27.7344 22.36 26.4744 23.32 24.6744 23.32C22.8344 23.32 21.4344 22.26 21.0344 20.54L18.9744 20.88C19.3544 23.22 21.0344 24.82 23.4144 25.22V26.98H25.5144V25.24C28.1144 24.92 29.7944 23.26 29.7944 20.9Z" fill="white"/>
</svg>
