<svg width="36" height="36" viewBox="0 0 36 36" fill="none" xmlns="http://www.w3.org/2000/svg">
<mask id="mask0_16119_272608" style="mask-type:alpha" maskUnits="userSpaceOnUse" x="0" y="0" width="36" height="36">
<rect width="36" height="36" rx="12" fill="#E0E6EF"/>
</mask>
<g mask="url(#mask0_16119_272608)">
<path fill-rule="evenodd" clip-rule="evenodd" d="M-6.45508 0H41.5449V36H-6.45508V0Z" fill="#229E45"/>
<path fill-rule="evenodd" clip-rule="evenodd" d="M17.6506 32.6998L40.2631 18.0223L17.5156 3.2998L-5.17188 18.0523L17.6506 32.6998Z" fill="#F8E509"/>
<path fill-rule="evenodd" clip-rule="evenodd" d="M27.5045 18C27.5045 23.2725 23.222 27.5475 17.9345 27.5475C16.0451 27.5445 14.1989 26.9814 12.6294 25.9294C11.0599 24.8773 9.83753 23.3836 9.11685 21.6369C8.39618 19.8903 8.20953 17.9692 8.58052 16.1165C8.9515 14.2638 9.86345 12.5626 11.2011 11.2282C12.5387 9.89366 14.242 8.98572 16.0956 8.6191C17.9491 8.25248 19.8698 8.44364 21.6147 9.16842C23.3597 9.89321 24.8506 11.1191 25.8989 12.691C26.9473 14.263 27.506 16.1105 27.5045 18Z" fill="#2B49A3"/>
<path fill-rule="evenodd" clip-rule="evenodd" d="M14.7941 23.7232L14.4941 23.5507L14.1941 23.7007L14.2616 23.3632L14.0216 23.1082L14.3591 23.0707L14.5241 22.7707L14.6666 23.0857L14.9966 23.1457L14.7491 23.3707M21.1991 25.3432L20.9066 25.1707L20.6066 25.3207L20.6666 24.9832L20.4341 24.7357L20.7716 24.6982L20.9291 24.3907L21.0791 24.7057L21.4091 24.7657L21.1541 24.9982M18.4391 22.7482L18.1841 22.5982L17.9216 22.7332L17.9816 22.4407L17.7716 22.2232L18.0716 22.1932L18.2066 21.9232L18.3266 22.2007L18.6191 22.2532L18.3941 22.4557M24.9191 21.8182L24.6641 21.6682L24.4016 21.8032L24.4616 21.5107L24.2591 21.3007L24.5516 21.2707L24.6866 21.0082L24.8066 21.2782L25.0916 21.3307L24.8741 21.5257M18.3266 19.8757L18.0266 19.7107L17.7266 19.8607L17.7866 19.5157L17.5541 19.2682L17.8916 19.2307L18.0491 18.9232L18.1991 19.2382L18.5291 19.2982L18.2741 19.5382M10.4291 16.9132L10.1291 16.7482L9.82906 16.8982L9.90406 16.5532L9.65656 16.3057L10.0016 16.2682L10.1516 15.9607L10.3016 16.2757L10.6316 16.3357L10.3841 16.5682M11.3816 20.8582L11.0816 20.6857L10.7816 20.8357L10.8491 20.4982L10.6091 20.2507L10.9466 20.2057L11.1041 19.9057L11.2541 20.2207L11.5841 20.2807L11.3366 20.5132M21.2366 15.4657L20.9666 15.3157L20.6966 15.4507L20.7566 15.1507L20.5466 14.9257L20.8466 14.8882L20.9891 14.6182L21.1166 14.9032L21.4166 14.9557L21.1916 15.1582M20.6891 18.0307L20.4866 17.9107L20.2691 18.0157L20.3141 17.7757L20.1491 17.6032L20.3891 17.5732L20.5016 17.3632L20.5991 17.5882L20.8241 17.6257L20.6591 17.7907M9.99406 21.5707L9.79156 21.4582L9.58906 21.5557L9.63406 21.3307L9.47656 21.1657L9.70156 21.1357L9.80656 20.9332L9.90406 21.1432L10.1291 21.1882L9.95656 21.3382M24.9716 22.4857L24.8066 22.4032L24.6416 22.4782L24.6791 22.3057L24.5516 22.1857L24.7316 22.1632L24.8216 22.0132L24.8966 22.1632L25.0841 22.2007L24.9416 22.3132" fill="#FFFFEF"/>
<path fill-rule="evenodd" clip-rule="evenodd" d="M9.99406 21.5701L9.79156 21.4576L9.58906 21.5551L9.63406 21.3301L9.47656 21.1651L9.70156 21.1351L9.80656 20.9326L9.90406 21.1426L10.1291 21.1876L9.95656 21.3376" fill="#FFFFEF"/>
<path fill-rule="evenodd" clip-rule="evenodd" d="M9.99406 21.5697L9.79156 21.4572L9.58906 21.5547L9.63406 21.3297L9.47656 21.1647L9.70156 21.1347L9.80656 20.9322L9.90406 21.1422L10.1291 21.1872L9.95656 21.3372M13.1291 21.5622L12.9341 21.4572L12.7316 21.5547L12.7766 21.3297L12.6191 21.1647L12.8441 21.1347L12.9491 20.9322L13.0466 21.1422L13.2716 21.1797L13.0991 21.3372M12.7391 22.6122L12.5441 22.4997L12.3416 22.6047L12.3866 22.3797L12.2291 22.2072L12.4541 22.1772L12.5591 21.9747L12.6566 22.1847L12.8816 22.2297L12.7091 22.3797M19.2641 20.7147L19.0691 20.5947L18.8591 20.6997L18.9041 20.4747L18.7541 20.3022L18.9791 20.2797L19.0841 20.0772L19.1741 20.2872L19.3991 20.3247L19.2341 20.4822M17.3516 20.7072L17.1491 20.5947L16.9466 20.6997L16.9916 20.4747L16.8416 20.3022L17.0666 20.2797L17.1716 20.0697L17.2616 20.2872L17.4866 20.3247L17.3216 20.4822M12.1616 20.0472L12.0341 19.9722L11.9066 20.0322L11.9366 19.8897L11.8391 19.7847L11.9816 19.7697L12.0416 19.6422L12.1016 19.7772L12.2441 19.7997L12.1391 19.8972M24.7241 23.3022L24.5291 23.1897L24.3266 23.2947L24.3716 23.0697L24.2141 22.8972L24.4391 22.8672L24.5441 22.6647L24.6416 22.8747L24.8666 22.9197L24.6941 23.0697M23.1341 23.5197L22.9691 23.4147L22.7966 23.5047L22.8341 23.3097L22.7066 23.1747L22.8941 23.1522L22.9841 22.9797L23.0591 23.1597L23.2466 23.1897L23.1041 23.3247M23.8841 23.4972L23.7341 23.4072L23.5766 23.4822L23.6066 23.3097L23.4866 23.1822L23.6591 23.1597L23.7416 23.0097L23.8166 23.1597L23.9891 23.1972L23.8616 23.3172M26.0441 21.6072L25.8941 21.5322L25.7441 21.6072L25.7816 21.4347L25.6616 21.3072L25.8341 21.2847L25.9091 21.1347L25.9841 21.2922L26.1416 21.3222L26.0216 21.4422M23.1116 24.5772L22.9241 24.4722L22.7216 24.5622L22.7666 24.3522L22.6166 24.2022L22.8416 24.1797L22.9391 23.9922L23.0291 24.1872L23.2541 24.2247L23.0816 24.3672M23.1266 25.4322L22.9466 25.3272L22.7666 25.4247L22.8116 25.2147L22.6691 25.0647L22.8716 25.0347L22.9616 24.8472L23.0441 25.0422L23.2466 25.0797L23.0966 25.2297M21.6716 23.4972L21.5291 23.4072L21.3791 23.4822L21.4091 23.3172L21.2966 23.1897L21.4616 23.1747L21.5366 23.0247L21.6116 23.1747L21.7766 23.2047L21.6566 23.3247M20.3216 23.4972L20.1716 23.4072L20.0216 23.4822L20.0591 23.3172L19.9391 23.1897L20.1116 23.1747L20.1866 23.0247L20.2616 23.1747L20.4191 23.2047L20.2991 23.3247M18.0191 21.4797L17.8691 21.3972L17.7191 21.4722L17.7566 21.2997L17.6366 21.1797L17.8016 21.1572L17.8766 21.0072L17.9516 21.1572L18.1166 21.1947L17.9966 21.3072M18.2741 25.5822L18.1541 25.5147L18.0191 25.5822L18.0491 25.4322L17.9516 25.3272L18.0941 25.3122L18.1616 25.1847L18.2216 25.3197L18.3641 25.3422L18.2591 25.4397M14.7941 18.9447L14.4941 18.7722L14.1941 18.9222L14.2616 18.5847L14.0216 18.3372L14.3591 18.2922L14.5241 17.9922L14.6666 18.3072L14.9966 18.3672L14.7491 18.5997" fill="#FFFFEF"/>
<path fill-rule="evenodd" clip-rule="evenodd" d="M26.8745 21.4349C27.0603 20.9527 27.2058 20.456 27.3095 19.9499C22.2245 15.4874 16.562 13.1999 9.40703 13.6724C9.14753 14.1745 8.93415 14.6991 8.76953 15.2399C17.2445 14.4299 23.4695 18.1799 26.8745 21.4349Z" fill="white"/>
<path d="M24.5952 18.9292L24.7677 19.0267C24.7419 19.0777 24.734 19.1358 24.7452 19.1917C24.7627 19.246 24.8003 19.2916 24.8502 19.3192C24.9027 19.3567 24.9552 19.3792 25.0002 19.3717C25.0452 19.3717 25.0752 19.3492 25.0977 19.3192C25.1107 19.2993 25.1161 19.2753 25.1127 19.2517C25.1065 19.224 25.0936 19.1983 25.0752 19.1767C25.0602 19.1542 25.0227 19.1017 24.9627 19.0417C24.901 18.9781 24.8548 18.9011 24.8277 18.8167C24.8089 18.7529 24.8138 18.6844 24.8413 18.6238C24.8689 18.5633 24.9172 18.5146 24.9777 18.4867C25.0322 18.464 25.0925 18.4587 25.1502 18.4717C25.2207 18.488 25.287 18.5186 25.3452 18.5617C25.4502 18.6367 25.5177 18.7117 25.5402 18.8017C25.5505 18.8438 25.5519 18.8876 25.5441 18.9303C25.5364 18.9729 25.5197 19.0135 25.4952 19.0492L25.3152 18.9367C25.3377 18.8917 25.3452 18.8467 25.3302 18.8092C25.3227 18.7717 25.2927 18.7342 25.2402 18.7042C25.2016 18.6732 25.1545 18.6549 25.1052 18.6517C25.0916 18.6513 25.0781 18.6545 25.0662 18.6611C25.0543 18.6677 25.0444 18.6774 25.0377 18.6892C25.0227 18.7117 25.0227 18.7342 25.0302 18.7642C25.0377 18.7942 25.0752 18.8542 25.1502 18.9292C25.2252 19.0042 25.2702 19.0717 25.3002 19.1167C25.3269 19.1659 25.3391 19.2217 25.3351 19.2775C25.3311 19.3334 25.3112 19.3869 25.2777 19.4317C25.2426 19.4827 25.1929 19.5219 25.1352 19.5442C25.0789 19.5701 25.016 19.578 24.9552 19.5667C24.8877 19.5517 24.8202 19.5217 24.7452 19.4692C24.6327 19.3942 24.5652 19.3117 24.5427 19.2217C24.5182 19.1197 24.5344 19.0121 24.5877 18.9217L24.5952 18.9292ZM23.7252 18.3592L23.9127 18.4567C23.8894 18.5085 23.8841 18.5666 23.8977 18.6217C23.9168 18.6732 23.9542 18.7159 24.0027 18.7417C24.0627 18.7792 24.1077 18.7942 24.1527 18.7867C24.1977 18.7867 24.2277 18.7642 24.2502 18.7267C24.2615 18.7089 24.2668 18.6878 24.2652 18.6667C24.2652 18.6442 24.2502 18.6142 24.2277 18.5917C24.1892 18.5453 24.1492 18.5003 24.1077 18.4567C24.0252 18.3742 23.9727 18.3067 23.9577 18.2467C23.9454 18.2081 23.9417 18.1673 23.9469 18.1271C23.9521 18.087 23.966 18.0484 23.9877 18.0142C24.0162 17.9679 24.058 17.9313 24.1077 17.9092C24.1592 17.8855 24.2166 17.8776 24.2727 17.8867C24.342 17.8984 24.4083 17.9239 24.4677 17.9617C24.5802 18.0367 24.6477 18.1117 24.6702 18.1942C24.6838 18.2364 24.6882 18.281 24.683 18.325C24.6779 18.369 24.6632 18.4114 24.6402 18.4492L24.4527 18.3442C24.4752 18.2917 24.4827 18.2542 24.4677 18.2167C24.4527 18.1792 24.4227 18.1417 24.3702 18.1117C24.3287 18.0819 24.2787 18.0662 24.2277 18.0667C24.2153 18.0675 24.2034 18.0714 24.193 18.0779C24.1825 18.0845 24.1738 18.0935 24.1677 18.1042C24.1527 18.1267 24.1527 18.1492 24.1602 18.1792C24.1677 18.2092 24.2127 18.2692 24.2877 18.3442C24.3627 18.4192 24.4152 18.4792 24.4377 18.5242C24.4677 18.5713 24.4837 18.6259 24.4837 18.6817C24.4837 18.7375 24.4677 18.7922 24.4377 18.8392C24.4053 18.8915 24.3584 18.9333 24.3027 18.9592C24.2464 18.9851 24.1835 18.993 24.1227 18.9817C24.0455 18.9687 23.9716 18.9406 23.9052 18.8992C23.8082 18.8475 23.7335 18.7622 23.6952 18.6592C23.6662 18.5591 23.6769 18.4516 23.7252 18.3592ZM22.6602 18.0742L23.2077 17.1742L23.8677 17.5867L23.7777 17.7367L23.2977 17.4367L23.1777 17.6392L23.6277 17.9167L23.5302 18.0667L23.0802 17.7892L22.9302 18.0367L23.4327 18.3367L23.3427 18.4867L22.6677 18.0742H22.6602ZM21.1077 16.7992L21.1902 16.6492L21.5952 16.8517L21.4077 17.2267C21.3477 17.2417 21.2727 17.2492 21.1827 17.2417C21.0962 17.2322 21.0123 17.2068 20.9352 17.1667C20.8444 17.1225 20.7668 17.0553 20.7102 16.9717C20.6586 16.8941 20.6324 16.8024 20.6352 16.7092C20.639 16.6123 20.6646 16.5174 20.7102 16.4317C20.7552 16.3415 20.8223 16.2641 20.9052 16.2067C20.9844 16.1519 21.0788 16.1231 21.1752 16.1242C21.2502 16.1242 21.3252 16.1467 21.4152 16.1992C21.5352 16.2517 21.6102 16.3267 21.6477 16.4092C21.6867 16.4911 21.6946 16.5844 21.6702 16.6717L21.4677 16.6117C21.4801 16.5615 21.4748 16.5085 21.4527 16.4617C21.4302 16.4167 21.3927 16.3867 21.3327 16.3567C21.2977 16.3368 21.2589 16.3244 21.2188 16.3206C21.1787 16.3167 21.1383 16.3213 21.1002 16.3342C21.0252 16.3567 20.9577 16.4242 20.9052 16.5292C20.8527 16.6342 20.8302 16.7317 20.8527 16.8142C20.863 16.8533 20.8818 16.8897 20.9077 16.9208C20.9336 16.9519 20.966 16.977 21.0027 16.9942C21.0402 17.0167 21.0852 17.0317 21.1302 17.0317C21.1749 17.0385 21.2204 17.0385 21.2652 17.0317L21.3252 16.9117L21.1077 16.7992ZM14.3427 15.1267L14.4927 14.0767L14.8077 14.1292L14.8902 14.8642L15.1827 14.1892L15.4977 14.2342L15.3477 15.2692L15.1452 15.2392L15.2727 14.4217L14.9427 15.2092L14.7402 15.1792L14.6577 14.3317L14.5377 15.1567L14.3427 15.1267ZM13.2852 14.9992L13.3827 13.9492L14.1552 14.0242L14.1402 14.2042L13.5777 14.1517L13.5552 14.3767L14.0802 14.4292L14.0577 14.6092L13.5327 14.5567L13.5102 14.8417L14.0952 14.8942L14.0802 15.0742L13.2852 14.9992Z" fill="#309E3A"/>
<path d="M9.78303 14.3466C9.78303 14.2341 9.80553 14.1516 9.83553 14.0766C9.86183 14.0233 9.89738 13.9751 9.94054 13.9341C9.979 13.8953 10.0249 13.8647 10.0755 13.8441C10.1505 13.8216 10.2255 13.8066 10.3005 13.8066C10.458 13.8066 10.578 13.8666 10.6755 13.9566C10.7219 14.014 10.7565 14.08 10.7771 14.1508C10.7977 14.2216 10.8039 14.2959 10.7955 14.3691C10.7955 14.5341 10.743 14.6691 10.6455 14.7666C10.5954 14.813 10.5362 14.8482 10.4716 14.8702C10.407 14.8922 10.3385 14.9003 10.2705 14.8941C10.2035 14.8948 10.137 14.8819 10.0751 14.8561C10.0133 14.8303 9.95726 14.7922 9.91053 14.7441C9.81721 14.6337 9.77137 14.4908 9.78303 14.3466Z" fill="#309E3A"/>
<path d="M10 14.3465C10 14.459 10.0225 14.549 10.075 14.6165C10.1275 14.6765 10.195 14.714 10.285 14.714C10.3239 14.7167 10.363 14.7107 10.3993 14.6964C10.4356 14.6822 10.4683 14.66 10.495 14.6315C10.5475 14.5715 10.57 14.4815 10.5775 14.354C10.5775 14.234 10.5625 14.144 10.5025 14.084C10.4781 14.0537 10.4472 14.0293 10.4122 14.0124C10.3772 13.9956 10.3389 13.9867 10.3 13.9865C10.2605 13.9852 10.2213 13.9926 10.185 14.0082C10.1487 14.0237 10.1163 14.047 10.09 14.0765C10.03 14.1365 10.0075 14.2265 10 14.3465Z" fill="#F7FFFF"/>
<path d="M11.0215 14.8879L11.0365 13.8379H11.4865C11.599 13.8379 11.674 13.8529 11.7265 13.8754C11.779 13.8904 11.8165 13.9279 11.8465 13.9729C11.8765 14.0179 11.8915 14.0779 11.8915 14.1454C11.8921 14.2175 11.8653 14.2872 11.8165 14.3404C11.761 14.3923 11.6897 14.424 11.614 14.4304L11.7265 14.5204C11.7565 14.5504 11.794 14.6104 11.839 14.6929L11.9665 14.9029H11.7115L11.5615 14.6629L11.4565 14.5129C11.4383 14.4923 11.415 14.4767 11.389 14.4679C11.3549 14.4579 11.3195 14.4529 11.284 14.4529H11.239V14.8879H11.0215Z" fill="#309E3A"/>
<path d="M11.2461 14.2886H11.3961C11.5011 14.2886 11.5686 14.2886 11.5911 14.2736C11.6136 14.2736 11.6361 14.2511 11.6511 14.2361C11.6661 14.2211 11.6736 14.1836 11.6736 14.1611C11.6736 14.1161 11.6661 14.0861 11.6436 14.0711C11.6286 14.0486 11.5986 14.0336 11.5686 14.0261H11.4186L11.2461 14.0186V14.2811V14.2886Z" fill="white"/>
<path d="M12.2185 13.8896L12.6085 13.9121C12.691 13.9121 12.7585 13.9196 12.8035 13.9346C12.8619 13.9558 12.9136 13.992 12.9535 14.0396C12.9967 14.0921 13.0275 14.1536 13.0435 14.2196C13.066 14.2871 13.0735 14.3696 13.066 14.4671C13.0659 14.5437 13.0533 14.6197 13.0285 14.6921C12.9985 14.7671 12.9535 14.8271 12.901 14.8721C12.8573 14.9082 12.806 14.9338 12.751 14.9471C12.706 14.9621 12.6385 14.9621 12.5635 14.9621L12.166 14.9396L12.2185 13.8896Z" fill="#309E3A"/>
<path d="M12.4203 14.0771L12.3828 14.7746H12.6678C12.7053 14.7746 12.7353 14.7596 12.7578 14.7371C12.7803 14.7146 12.8028 14.6846 12.8178 14.6396C12.8328 14.5946 12.8478 14.5271 12.8478 14.4446L12.8403 14.2571C12.8296 14.2176 12.8089 14.1815 12.7803 14.1521C12.7554 14.1271 12.7244 14.109 12.6903 14.0996C12.6336 14.087 12.5759 14.0795 12.5178 14.0771H12.4203Z" fill="white"/>
<path d="M17.3652 15.7651L17.6127 14.7451L17.9427 14.8201L18.1827 14.8951C18.2352 14.9251 18.2802 14.9701 18.3027 15.0376C18.3327 15.0976 18.3327 15.1651 18.3177 15.2476C18.3027 15.3076 18.2802 15.3601 18.2427 15.3976C18.2152 15.4306 18.1808 15.457 18.1419 15.4752C18.103 15.4933 18.0606 15.5027 18.0177 15.5026C17.9652 15.5026 17.8902 15.4876 17.7927 15.4651L17.6652 15.4276L17.5752 15.8176L17.3652 15.7651Z" fill="#309E3A"/>
<path d="M17.7709 14.9707L17.7109 15.2557L17.8234 15.2857C17.8984 15.3007 17.9584 15.3157 17.9884 15.3082C18.0176 15.3042 18.0448 15.2912 18.0663 15.271C18.0878 15.2509 18.1025 15.2246 18.1084 15.1957C18.1084 15.1582 18.1084 15.1282 18.0934 15.0982C18.077 15.0677 18.0505 15.0439 18.0184 15.0307L17.8759 14.9932L17.7784 14.9707H17.7709Z" fill="white"/>
<path d="M18.3398 16.0584L18.6923 15.0684L19.1048 15.2184C19.2173 15.2559 19.2848 15.2934 19.3298 15.3234C19.3673 15.3609 19.3973 15.3984 19.4048 15.4584C19.4123 15.5184 19.4198 15.5709 19.4048 15.6309C19.3748 15.7059 19.3298 15.7584 19.2698 15.7959C19.2098 15.8259 19.1348 15.8334 19.0448 15.8184C19.0748 15.8559 19.1048 15.8934 19.1198 15.9384L19.1798 16.1409L19.2248 16.3734L18.9923 16.2909L18.9173 16.0209C18.9037 15.9598 18.8862 15.8997 18.8648 15.8409C18.8549 15.8175 18.8395 15.7969 18.8198 15.7809C18.8048 15.7584 18.7748 15.7434 18.7223 15.7284L18.6848 15.7134L18.5348 16.1334L18.3398 16.0584Z" fill="#309E3A"/>
<path d="M18.7438 15.5551L18.8863 15.6076C18.9838 15.6451 19.0438 15.6601 19.0738 15.6601C19.0963 15.6601 19.1188 15.6601 19.1413 15.6376C19.1638 15.6226 19.1788 15.6001 19.1863 15.5701C19.2013 15.5401 19.2013 15.5101 19.1863 15.4801C19.1752 15.451 19.1539 15.427 19.1263 15.4126L18.9763 15.3601L18.8263 15.3076L18.7363 15.5551H18.7438Z" fill="white"/>
<path d="M19.568 16.0193C19.5937 15.9314 19.6371 15.8498 19.6955 15.7793C19.7334 15.734 19.7791 15.6959 19.8305 15.6668C19.8769 15.6405 19.9277 15.6227 19.9805 15.6143C20.0555 15.6143 20.1305 15.6143 20.213 15.6443C20.28 15.6608 20.3427 15.6915 20.3971 15.7342C20.4514 15.7768 20.496 15.8305 20.528 15.8918C20.588 16.0118 20.588 16.1543 20.543 16.3193C20.5058 16.461 20.4142 16.5823 20.288 16.6568C20.1755 16.7243 20.0405 16.7318 19.898 16.6868C19.8311 16.6697 19.7685 16.6389 19.7143 16.5963C19.6601 16.5537 19.6153 16.5002 19.583 16.4393C19.5529 16.3737 19.5361 16.3028 19.5336 16.2308C19.531 16.1587 19.5427 16.0868 19.568 16.0193Z" fill="#309E3A"/>
<path d="M19.7773 16.08C19.7473 16.1925 19.7398 16.29 19.7773 16.365C19.8148 16.44 19.8673 16.485 19.9498 16.515C20.0248 16.5375 20.0998 16.53 20.1748 16.485C20.2498 16.4475 20.2948 16.365 20.3323 16.245C20.3698 16.1325 20.3698 16.0425 20.3323 15.9675C20.3175 15.9319 20.2951 15.9 20.2666 15.8741C20.238 15.8482 20.2042 15.8289 20.1673 15.8175C20.1304 15.8048 20.0912 15.8002 20.0524 15.8041C20.0135 15.808 19.976 15.8202 19.9423 15.84C19.8673 15.885 19.8148 15.96 19.7773 16.08Z" fill="white"/>
<path d="M21.6172 17.4827L22.0972 16.5527L22.4947 16.7552C22.5696 16.7912 22.6381 16.8393 22.6972 16.8977C22.7347 16.9352 22.7572 16.9802 22.7572 17.0402C22.7572 17.1002 22.7572 17.1527 22.7272 17.2052C22.6984 17.2727 22.6446 17.3264 22.5772 17.3552C22.5022 17.3702 22.4272 17.3702 22.3447 17.3402C22.3747 17.3852 22.3897 17.4302 22.4047 17.4677C22.4197 17.5127 22.4272 17.5802 22.4347 17.6777L22.4497 17.9177L22.2247 17.8052L22.1947 17.5277C22.1911 17.4648 22.1836 17.4022 22.1722 17.3402C22.1671 17.3122 22.1541 17.2862 22.1347 17.2652L22.0447 17.2127L22.0072 17.1902L21.8047 17.5802L21.6172 17.4827Z" fill="#309E3A"/>
<path d="M22.082 17.0398L22.2245 17.1148C22.3145 17.1598 22.3745 17.1898 22.397 17.1898C22.4195 17.1898 22.4495 17.1898 22.472 17.1748C22.4945 17.1673 22.5095 17.1448 22.5245 17.1148C22.5395 17.0848 22.547 17.0548 22.5395 17.0248C22.5303 16.9949 22.5119 16.9687 22.487 16.9498C22.4431 16.9229 22.3981 16.8978 22.352 16.8748L22.202 16.7998L22.082 17.0398Z" fill="white"/>
<path d="M25.502 19.4027C25.5505 19.3256 25.6143 19.2592 25.6895 19.2077C25.74 19.1754 25.7959 19.1525 25.8545 19.1402C25.9089 19.1291 25.9651 19.1291 26.0195 19.1402C26.0945 19.1552 26.162 19.1852 26.2295 19.2302C26.2879 19.2665 26.338 19.3147 26.3768 19.3715C26.4155 19.4283 26.442 19.4926 26.4545 19.5602C26.477 19.6877 26.4395 19.8302 26.3495 19.9727C26.2742 20.0966 26.1528 20.1856 26.012 20.2202C25.9449 20.2347 25.8754 20.2348 25.8082 20.2206C25.741 20.2064 25.6775 20.1781 25.622 20.1377C25.5636 20.1013 25.5135 20.0532 25.4747 19.9964C25.436 19.9396 25.4095 19.8753 25.397 19.8077C25.3745 19.6727 25.412 19.5377 25.502 19.4027Z" fill="#309E3A"/>
<path d="M25.6904 19.522C25.6154 19.6195 25.5929 19.7095 25.6079 19.792C25.6134 19.83 25.627 19.8664 25.6477 19.8987C25.6684 19.9311 25.6957 19.9586 25.7279 19.9795C25.8029 20.032 25.8779 20.047 25.9529 20.0245C26.0279 20.002 26.1029 19.9495 26.1704 19.8445C26.2379 19.7395 26.2679 19.6495 26.2529 19.5745C26.2454 19.4995 26.2004 19.432 26.1329 19.3795C26.0654 19.327 25.9829 19.3195 25.9079 19.342C25.8329 19.357 25.7579 19.417 25.6829 19.522H25.6904Z" fill="white"/>
<path d="M16.1816 15.3375L16.3541 14.6025L16.8941 14.73L16.8716 14.85L16.4741 14.76L16.4366 14.925L16.8041 15.0075L16.7741 15.135L16.4066 15.045L16.3616 15.2475L16.7741 15.345L16.7441 15.465L16.1816 15.3375Z" fill="#309E3A"/>
</g>
</svg>
