<svg width="36" height="36" viewBox="0 0 36 36" fill="none" xmlns="http://www.w3.org/2000/svg">
<rect width="36" height="36" rx="12" fill="#D9B681"/>
<path d="M12.6006 24.0863C15.2368 24.0863 17.0154 22.657 17.6983 20.402L16.015 19.9414C15.5544 21.5295 14.4269 22.5141 12.6006 22.5141C10.1709 22.5141 8.94805 20.7514 8.94805 18.131C8.96393 15.5107 10.1709 13.748 12.6006 13.748C14.4269 13.748 15.5544 14.7326 16.015 16.3206L17.6983 15.8601C17.0154 13.605 15.2368 12.1758 12.6006 12.1758C9.18626 12.1758 7.20117 14.5896 7.20117 18.131C7.20117 21.6724 9.18626 24.0863 12.6006 24.0863Z" fill="white"/>
<path d="M28.0004 20.5925C28.0004 19.0045 27.2064 18.0993 25.2689 17.5276L23.1727 16.9082C21.9975 16.5588 21.4893 16.0983 21.4893 15.3837C21.4893 14.4308 22.4422 13.7321 23.6968 13.748C25.0149 13.7797 26.0153 14.6055 26.2377 15.8442L27.9369 15.5266C27.5558 13.7321 26.3488 12.5728 24.602 12.2711V10.8418H22.9345V12.2393C21.0288 12.4775 19.8377 13.7003 19.8377 15.4631C19.8377 16.8606 20.6477 17.8452 22.204 18.3216L24.8878 19.1633C25.9359 19.4809 26.3647 19.9256 26.3647 20.6878C26.3647 21.7518 25.3642 22.5141 23.935 22.5141C22.4739 22.5141 21.3623 21.6724 21.0447 20.3067L19.409 20.5767C19.7107 22.4347 21.0447 23.7052 22.9345 24.0228V25.4203H24.602V24.0387C26.6664 23.7846 28.0004 22.4665 28.0004 20.5925Z" fill="white"/>
</svg>
