<svg width="36" height="36" viewBox="0 0 36 36" fill="none" xmlns="http://www.w3.org/2000/svg">
<rect width="36" height="36" rx="12" fill="#F3F3F3"/>
<path fill-rule="evenodd" clip-rule="evenodd" d="M22 9C21.4477 9 21 9.44772 21 10C21 10.5523 21.4477 11 22 11C22.5523 11 23 10.5523 23 10C23 9.44772 22.5523 9 22 9ZM18 13C18 12.4477 18.4477 12 19 12C19.5523 12 20 12.4477 20 13C20 13.5523 19.5523 14 19 14C18.4477 14 18 13.5523 18 13ZM18 16C18 15.4477 18.4477 15 19 15C19.5523 15 20 15.4477 20 16C20 16.5523 19.5523 17 19 17C18.4477 17 18 16.5523 18 16ZM21 13C21 12.4477 21.4477 12 22 12C22.5523 12 23 12.4477 23 13C23 13.5523 22.5523 14 22 14C21.4477 14 21 13.5523 21 13ZM22 15C21.4477 15 21 15.4477 21 16C21 16.5523 21.4477 17 22 17C22.5523 17 23 16.5523 23 16C23 15.4477 22.5523 15 22 15ZM24 10C24 9.44772 24.4477 9 25 9C25.5523 9 26 9.44772 26 10C26 10.5523 25.5523 11 25 11C24.4477 11 24 10.5523 24 10ZM25 12C24.4477 12 24 12.4477 24 13C24 13.5523 24.4477 14 25 14C25.5523 14 26 13.5523 26 13C26 12.4477 25.5523 12 25 12ZM24 16C24 15.4477 24.4477 15 25 15C25.5523 15 26 15.4477 26 16C26 16.5523 25.5523 17 25 17C24.4477 17 24 16.5523 24 16ZM18 10C18 9.44772 18.4477 9 19 9C19.5523 9 20 9.44772 20 10C20 10.5523 19.5523 11 19 11C18.4477 11 18 10.5523 18 10Z" fill="#505C64"/>
<path d="M14.6416 15.6488C14.1416 14.6488 13.6416 13.6489 12.6416 12.1489C12.1416 11.3991 9.64167 13.649 9.14164 15.149C7.8526 19.0159 15.6417 27.6488 21.1416 27.149C22.1375 27.0585 24.6417 24.8561 24.6416 24.149C24.6416 23.6489 21.1416 21.1489 20.6416 21.1489C20.1416 21.1489 19.7409 22.0994 18.6416 22.649C17.1416 23.399 13.1416 18.6489 13.6416 17.6489C13.9578 17.0164 15.1416 16.6488 14.6416 15.6488Z" stroke="#505C64" stroke-width="1.5"/>
</svg>
