<svg width="12" height="12" viewBox="0 0 12 12" fill="none" xmlns="http://www.w3.org/2000/svg">
<path d="M8.36611 7.83594H8.63281C9.73738 7.83594 10.6328 6.94051 10.6328 5.83594V3.16927C10.6328 2.0647 9.73738 1.16927 8.63281 1.16927H5.96615C4.86158 1.16927 3.96615 2.0647 3.96615 3.16927V3.43594" stroke="#829199" stroke-width="1.2" stroke-linecap="round" stroke-linejoin="round"/>
<path d="M3.36719 10.8385L6.03386 10.8385C7.13842 10.8385 8.03385 9.94311 8.03385 8.83854L8.03385 7.86418L8.03386 6.17188C8.03386 5.06731 7.13842 4.17187 6.03385 4.17187L4.56377 4.17187L3.36719 4.17187C2.26262 4.17187 1.36719 5.0673 1.36719 6.17187L1.36719 8.83854C1.36719 9.94311 2.26262 10.8385 3.36719 10.8385Z" stroke="#829199" stroke-width="1.2" stroke-linecap="round" stroke-linejoin="round"/>
</svg>
