<svg width="24" height="24" viewBox="0 0 24 24" fill="none" xmlns="http://www.w3.org/2000/svg">
<path d="M19.75 8.95916C19.75 8.54495 19.4142 8.20916 19 8.20916C18.5858 8.20916 18.25 8.54495 18.25 8.95916H19.75ZM14 4.75C14.4142 4.75 14.75 4.41421 14.75 4C14.75 3.58579 14.4142 3.25 14 3.25V4.75ZM18.25 8.95916V17.2H19.75V8.95916H18.25ZM16.2 19.25H7.8V20.75H16.2V19.25ZM5.75 17.2V6.8H4.25V17.2H5.75ZM7.8 4.75H14V3.25H7.8V4.75ZM7.8 19.25C6.66782 19.25 5.75 18.3322 5.75 17.2H4.25C4.25 19.1606 5.83939 20.75 7.8 20.75V19.25ZM18.25 17.2C18.25 18.3322 17.3322 19.25 16.2 19.25V20.75C18.1606 20.75 19.75 19.1606 19.75 17.2H18.25ZM5.75 6.8C5.75 5.66782 6.66782 4.75 7.8 4.75V3.25C5.83939 3.25 4.25 4.83939 4.25 6.8H5.75Z" fill="#505C64"/>
<path d="M19.4337 7.91013L15.0899 3.56633L14.0292 4.62699L18.373 8.97079L19.4337 7.91013ZM13.25 4.32843V8.67223H14.75V4.32843H13.25ZM14.3278 9.75H18.6716V8.25H14.3278V9.75ZM13.25 8.67223C13.25 9.26746 13.7325 9.75 14.3278 9.75V8.25C14.561 8.25 14.75 8.43904 14.75 8.67223H13.25ZM15.0899 3.56633C14.4109 2.88737 13.25 3.36824 13.25 4.32843H14.75C14.75 4.70459 14.2952 4.89298 14.0292 4.62699L15.0899 3.56633ZM18.373 8.97079C18.107 8.7048 18.2954 8.25 18.6716 8.25V9.75C19.6318 9.75 20.1126 8.58909 19.4337 7.91013L18.373 8.97079Z" fill="#505C64"/>
<path d="M8.07305 16.4873C8.07305 16.6253 8.18498 16.7373 8.32305 16.7373H8.77005C8.90812 16.7373 9.02005 16.6253 9.02005 16.4873V14.7776L10.6601 16.6519C10.7076 16.7062 10.7761 16.7373 10.8482 16.7373H11.3874C11.6023 16.7373 11.717 16.4841 11.5754 16.3225L9.90176 14.4135L11.4693 12.5648C11.607 12.4024 11.4915 12.1531 11.2786 12.1531H10.7708C10.6962 12.1531 10.6255 12.1865 10.578 12.244L9.02005 14.1317V12.4031C9.02005 12.2651 8.90812 12.1531 8.77005 12.1531H8.32305C8.18498 12.1531 8.07305 12.2651 8.07305 12.4031V16.4873ZM12.2149 16.6042C12.2149 16.6777 12.2745 16.7373 12.348 16.7373H15.6148C15.7529 16.7373 15.8648 16.6253 15.8648 16.4873V16.0901C15.8648 15.952 15.7529 15.8401 15.6148 15.8401H13.8473L15.9086 12.354C15.9207 12.3335 15.9271 12.3101 15.9271 12.2863C15.9271 12.2127 15.8675 12.1531 15.794 12.1531H12.6517C12.5137 12.1531 12.4017 12.2651 12.4017 12.4031V12.7941C12.4017 12.9321 12.5137 13.0441 12.6517 13.0441H14.307L12.2335 16.5363C12.2213 16.5568 12.2149 16.5803 12.2149 16.6042Z" fill="#505C64" stroke="#505C64" stroke-width="0.1"/>
</svg>
