<svg width="36" height="36" viewBox="0 0 36 36" fill="none" xmlns="http://www.w3.org/2000/svg">
<rect width="36" height="36" rx="12" fill="#F3F3F3"/>
<path d="M22 12V11C22 10.4477 21.5523 10 21 10H15C14.4477 10 14 10.4477 14 11V12" stroke="#505C64" stroke-width="1.5"/>
<path d="M11 12.75H25C25.6904 12.75 26.25 13.3096 26.25 14V24C26.25 24.6904 25.6904 25.25 25 25.25H11C10.3096 25.25 9.75 24.6904 9.75 24V14C9.75 13.3096 10.3096 12.75 11 12.75Z" stroke="#505C64" stroke-width="1.5"/>
<path d="M10 18.5H17M17 18.5V17.5C17 17.2239 17.2239 17 17.5 17H19C19.2761 17 19.5 17.2239 19.5 17.5V18.5M17 18.5V19.5C17 19.7761 17.2239 20 17.5 20H19C19.2761 20 19.5 19.7761 19.5 19.5V18.5M19.5 18.5H26" stroke="#505C64" stroke-width="1.5"/>
</svg>
