<svg width="24" height="24" viewBox="0 0 24 24" fill="none" xmlns="http://www.w3.org/2000/svg">
<g clip-path="url(#clip0_14154_78627)">
<path d="M12.0773 14.2829C11.5192 14.2829 10.9159 14.0484 10.5761 13.6995L10.3089 13.425C10.2409 13.3552 10.1273 13.352 10.0552 13.4182L9.0561 14.3374C9.02159 14.3693 9.00144 14.4131 9.00006 14.4593C8.99881 14.5055 9.01639 14.5504 9.0491 14.584L9.31639 14.8586C9.77726 15.3319 10.4473 15.6931 11.1723 15.8623V16.8256C11.1723 16.9219 11.2526 17 11.3517 17H12.7273C12.8264 17 12.9067 16.9219 12.9067 16.8256V15.8963C14.2022 15.6562 14.9999 14.8444 14.9999 13.7518C15.0145 12.0308 13.4723 11.5768 12.4518 11.2764C11.2257 10.9154 11.0405 10.7347 11.0405 10.3011C11.0405 9.83998 11.8232 9.71696 12.2856 9.71696C12.725 9.71696 13.268 9.85772 13.5768 10.0516L13.9033 10.2567C13.9866 10.3089 14.0976 10.2856 14.1513 10.2047L14.8977 9.08162C14.9515 9.00063 14.9276 8.89272 14.8443 8.84045L14.5178 8.6354C14.0839 8.36284 13.504 8.16284 12.9066 8.07714V7.17442C12.9066 7.07814 12.8263 7 12.7271 7L11.3516 7C11.2525 7 11.1722 7.07814 11.1722 7.17442V8.16947C10.0171 8.48022 9.30598 9.28696 9.30598 10.3011C9.30598 12.1118 10.9604 12.5989 11.9489 12.89C13.105 13.2304 13.2685 13.3778 13.2654 13.7448C13.2656 14.1696 12.5187 14.2829 12.0773 14.2829Z" fill="#505C64"/>
<path fill-rule="evenodd" clip-rule="evenodd" d="M20.2816 14.7842C19.2412 18.2421 16.1522 20.7295 12.3357 20.7295C8.85413 20.7295 5.85441 18.664 4.55754 15.7063L5.53613 15.3504C5.92767 15.208 5.98355 14.6773 5.63025 14.4565L3.03832 12.8366C2.7639 12.6651 2.40132 12.7955 2.29898 13.1025L1.32701 16.0184C1.19474 16.4152 1.57913 16.7893 1.97222 16.6464L3.14532 16.2198C4.65751 19.7655 8.21894 22.2295 12.3357 22.2295C16.8474 22.2295 20.4967 19.2757 21.718 15.2163C21.8373 14.8197 21.6125 14.4014 21.2159 14.282C20.8192 14.1627 20.4009 14.3875 20.2816 14.7842Z" fill="#505C64"/>
<path fill-rule="evenodd" clip-rule="evenodd" d="M4.05433 9.19533C5.09472 5.73738 8.18375 3.25 12.0002 3.25C15.4474 3.25 18.4221 5.27482 19.7394 8.18572L18.4638 8.64957C18.0723 8.79195 18.0164 9.32266 18.3697 9.54347L20.9616 11.1634C21.2361 11.3349 21.5986 11.2045 21.701 10.8975L22.6729 7.98162C22.8052 7.58481 22.4208 7.21067 22.0277 7.35361L21.1526 7.67182C19.6194 4.17333 16.0829 1.75 12.0002 1.75C7.48852 1.75 3.83928 4.70374 2.61794 8.76317C2.4986 9.15982 2.7234 9.57811 3.12005 9.69745C3.5167 9.81678 3.93499 9.59198 4.05433 9.19533Z" fill="#505C64"/>
</g>
<defs>
<clipPath id="clip0_14154_78627">
<rect width="24" height="24" fill="white"/>
</clipPath>
</defs>
</svg>
