<svg width="36" height="36" viewBox="0 0 36 36" fill="none" xmlns="http://www.w3.org/2000/svg">
<rect width="36" height="36" rx="12" fill="#F3F3F3"/>
<path d="M26.7523 23.594C26.7523 23.9593 26.6704 24.2883 26.5066 24.5812C26.346 24.8741 26.1146 25.115 25.8123 25.3039C25.5131 25.4929 25.1636 25.6172 24.7636 25.6771V26.5131H23.6252V25.6629C23.0616 25.5621 22.5955 25.3275 22.2271 24.9591C21.8618 24.5907 21.635 24.1246 21.5469 23.5609L22.6711 23.3814C22.7309 23.6396 22.8364 23.8648 22.9876 24.0569C23.1387 24.2458 23.3261 24.3923 23.5497 24.4962C23.7733 24.597 24.0189 24.6473 24.2866 24.6473C24.5416 24.6473 24.7715 24.6048 24.9762 24.5198C25.1809 24.4348 25.3399 24.3183 25.4533 24.1703C25.5698 24.0222 25.628 23.8554 25.628 23.6696C25.628 23.4743 25.5682 23.3137 25.4486 23.1878C25.3289 23.0618 25.1368 22.9579 24.8723 22.876L23.2332 22.3658C22.764 22.221 22.4081 22.0021 22.1657 21.7093C21.9232 21.4164 21.8019 21.0558 21.8019 20.6276C21.8019 20.278 21.8744 19.9663 22.0192 19.6923C22.1672 19.4183 22.3782 19.1948 22.6522 19.0216C22.9262 18.8452 23.2505 18.7303 23.6252 18.6767V17.8359H24.7636V18.7004C25.2706 18.798 25.691 19.0121 26.0248 19.3428C26.3586 19.6734 26.5869 20.1017 26.7097 20.6276L25.543 20.8401C25.4989 20.6165 25.4092 20.4182 25.2738 20.245C25.1415 20.0718 24.9746 19.9379 24.7731 19.8435C24.5715 19.749 24.3495 19.7018 24.1071 19.7018C23.8866 19.7018 23.6867 19.7395 23.5072 19.8151C23.3308 19.8907 23.1907 19.9946 23.0868 20.1269C22.9828 20.2591 22.9309 20.4071 22.9309 20.5709C22.9309 20.7598 23.0049 20.9204 23.1529 21.0527C23.304 21.1818 23.5418 21.2936 23.8662 21.3881L25.0896 21.7423C25.4832 21.8589 25.8012 22.0006 26.0437 22.1675C26.2893 22.3312 26.4688 22.5296 26.5822 22.7626C26.6956 22.9957 26.7523 23.2728 26.7523 23.594Z" fill="#505C64"/>
<path d="M12.7599 26.0706V26.543H14.2019V27.055H12.7599V27.701H12.12V27.055H11.6699V26.543H12.12V26.0706H11.6699V25.519H12.12V23.3125H13.7794C13.8897 23.3125 14.0019 23.3206 14.1162 23.3369C14.3571 23.3735 14.5602 23.4557 14.7255 23.5837C14.8929 23.7097 15.0174 23.8702 15.099 24.0653C15.1827 24.2603 15.2246 24.4767 15.2246 24.7144C15.2246 25.0781 15.1296 25.3778 14.9398 25.6134C14.752 25.8491 14.4775 25.9934 14.1162 26.0462C14.0162 26.0625 13.9039 26.0706 13.7794 26.0706H12.7599ZM12.7599 23.9129V25.519H13.7549C13.857 25.519 13.9488 25.5078 14.0305 25.4854C14.2101 25.4407 14.3448 25.3513 14.4346 25.2173C14.5265 25.0832 14.5724 24.9206 14.5724 24.7296C14.5724 24.5427 14.5275 24.3761 14.4377 24.2298C14.3499 24.0815 14.2142 23.986 14.0305 23.9434C13.9529 23.923 13.8611 23.9129 13.7549 23.9129H12.7599Z" fill="#505C64"/>
<path d="M13.4473 10.3779V12.072H22.0824V10.3779H13.4473ZM16.8748 21.1718H18.6548V14.5456H22.0824V12.8515H13.4473V14.5456H16.8748V21.1718Z" fill="#505C64"/>
</svg>
