<svg width="36" height="36" viewBox="0 0 36 36" fill="none" xmlns="http://www.w3.org/2000/svg">
<rect width="36" height="36" rx="12" fill="#F3F3F3"/>
<path fill-rule="evenodd" clip-rule="evenodd" d="M10.65 10C9.18645 10 8 11.1864 8 12.65V20.0137C8 21.4773 9.18644 22.6637 10.65 22.6637H10.8874C10.8334 22.8785 10.8047 23.1035 10.8047 23.3348C10.8047 24.7524 11.898 25.967 13.3251 25.967C14.7521 25.967 15.8454 24.7524 15.8454 23.3348C15.8454 23.1035 15.8168 22.8785 15.7627 22.6637H20.273C20.1984 22.904 20.1582 23.1595 20.1582 23.4242C20.1582 24.8212 21.2793 25.967 22.6786 25.967C24.0778 25.967 25.1989 24.8212 25.1989 23.4242C25.1989 23.1595 25.1588 22.904 25.0842 22.6637H25.3537C26.8173 22.6637 28.0037 21.4773 28.0037 20.0137V19.7201C28.0037 18.9662 27.6826 18.248 27.1208 17.7452L25.8074 16.57L25.037 12.9747C24.8246 11.9834 23.9485 11.2751 22.9347 11.2751H21.5482C21.3785 10.5445 20.7233 10 19.941 10H10.65ZM21.4582 23.4242C21.4582 23.1368 21.5534 22.8736 21.7132 22.6637H23.644C23.8038 22.8736 23.8989 23.1368 23.8989 23.4242C23.8989 24.1179 23.3453 24.667 22.6786 24.667C22.0119 24.667 21.4582 24.1179 21.4582 23.4242ZM14.3793 22.6637H12.2708C12.1659 22.8591 12.1047 23.0877 12.1047 23.3348C12.1047 24.1066 12.6861 24.667 13.3251 24.667C13.964 24.667 14.5454 24.1066 14.5454 23.3348C14.5454 23.0877 14.4842 22.8591 14.3793 22.6637ZM23.7658 13.247L24.4121 16.2632H21.591V12.5751H22.9347C23.3355 12.5751 23.6819 12.8551 23.7658 13.247ZM21.591 21.3637V17.5632H24.9678L26.2539 18.714C26.5401 18.9701 26.7037 19.336 26.7037 19.7201V20.0137C26.7037 20.7593 26.0993 21.3637 25.3537 21.3637H21.591ZM20.291 16.9132V21.3637H10.65C9.90441 21.3637 9.3 20.7593 9.3 20.0137V12.65C9.3 11.9044 9.90442 11.3 10.65 11.3H19.941C20.1343 11.3 20.291 11.4567 20.291 11.65V11.9251V16.9132ZM14.7278 13.65C14.4517 13.65 14.2278 13.8739 14.2278 14.15C14.2278 14.4261 14.4517 14.65 14.7278 14.65H18.001C18.2771 14.65 18.501 14.4261 18.501 14.15C18.501 13.8739 18.2771 13.65 18.001 13.65H14.7278ZM13.0913 15.8525C12.8151 15.8525 12.5913 16.0764 12.5913 16.3525C12.5913 16.6286 12.8151 16.8525 13.0913 16.8525H18.001C18.2771 16.8525 18.501 16.6286 18.501 16.3525C18.501 16.0764 18.2771 15.8525 18.001 15.8525H13.0913ZM11.4547 18.055C11.1785 18.055 10.9547 18.2788 10.9547 18.555C10.9547 18.8311 11.1785 19.055 11.4547 19.055H18.001C18.2771 19.055 18.501 18.8311 18.501 18.555C18.501 18.2788 18.2771 18.055 18.001 18.055H11.4547Z" fill="#505C64"/>
</svg>
