<svg width="36" height="36" viewBox="0 0 36 36" fill="none" xmlns="http://www.w3.org/2000/svg">
<mask id="mask0_1179_107314" style="mask-type:alpha" maskUnits="userSpaceOnUse" x="0" y="0" width="36" height="36">
<rect width="36" height="36" rx="12" fill="#E0E6EF"/>
</mask>
<g mask="url(#mask0_1179_107314)">
<rect x="-7" width="50" height="36" rx="2" fill="white"/>
<mask id="mask1_1179_107314" style="mask-type:alpha" maskUnits="userSpaceOnUse" x="-7" y="0" width="50" height="36">
<rect x="-7" width="50" height="36" rx="2" fill="white"/>
</mask>
<g mask="url(#mask1_1179_107314)">
<rect x="-7" width="50" height="36" fill="#043CAE"/>
<path fill-rule="evenodd" clip-rule="evenodd" d="M16.3164 7.69685L18 7.19979L19.6836 7.69685L19.1905 5.99979L19.6836 4.30273L18 4.79979L16.3164 4.30273L16.8095 5.99979L16.3164 7.69685ZM16.3164 31.6968L18 31.1998L19.6836 31.6968L19.1905 29.9998L19.6836 28.3027L18 28.7998L16.3164 28.3027L16.8095 29.9998L16.3164 31.6968ZM29.9043 19.1998L28.2207 19.6968L28.7138 17.9998L28.2207 16.3027L29.9043 16.7998L31.5879 16.3027L31.0948 17.9998L31.5879 19.6968L29.9043 19.1998ZM4.41211 19.6968L6.0957 19.1998L7.77928 19.6968L7.28617 17.9998L7.77928 16.3027L6.0957 16.7998L4.41211 16.3027L4.90522 17.9998L4.41211 19.6968ZM28.3105 13.1998L26.627 13.6968L27.1201 11.9998L26.627 10.3027L28.3105 10.7998L29.9941 10.3027L29.501 11.9998L29.9941 13.6968L28.3105 13.1998ZM6.00781 25.6968L7.6914 25.1998L9.37499 25.6968L8.88188 23.9998L9.37499 22.3027L7.6914 22.7998L6.00781 22.3027L6.50092 23.9998L6.00781 25.6968ZM23.9531 8.80721L22.2695 9.30427L22.7626 7.60721L22.2695 5.91016L23.9531 6.40721L25.6367 5.91016L25.1436 7.60721L25.6367 9.30427L23.9531 8.80721ZM10.3652 30.0894L12.0488 29.5924L13.7324 30.0894L13.2393 28.3924L13.7324 26.6953L12.0488 27.1924L10.3652 26.6953L10.8583 28.3924L10.3652 30.0894ZM28.3105 25.1998L26.627 25.6968L27.1201 23.9998L26.627 22.3027L28.3105 22.7998L29.9941 22.3027L29.501 23.9998L29.9941 25.6968L28.3105 25.1998ZM6.00781 13.6968L7.6914 13.1998L9.37499 13.6968L8.88188 11.9998L9.37499 10.3027L7.6914 10.7998L6.00781 10.3027L6.50092 11.9998L6.00781 13.6968ZM23.9531 29.5924L22.2695 30.0894L22.7626 28.3924L22.2695 26.6953L23.9531 27.1924L25.6367 26.6953L25.1436 28.3924L25.6367 30.0894L23.9531 29.5924ZM10.3652 9.30427L12.0488 8.80721L13.7324 9.30427L13.2393 7.60721L13.7324 5.91016L12.0488 6.40721L10.3652 5.91016L10.8583 7.60721L10.3652 9.30427Z" fill="#FFD429"/>
</g>
</g>
</svg>
