<svg width="36" height="36" viewBox="0 0 36 36" fill="none" xmlns="http://www.w3.org/2000/svg">
<rect width="36" height="36" rx="12" fill="#D0D6D8"/>
<path d="M20.271 23.32C18.091 23.32 16.671 22.18 16.051 20.3H21.211V18.62H15.731C15.711 18.36 15.691 18.08 15.691 17.8C15.691 17.52 15.711 17.26 15.731 17H21.211V15.32H16.051C16.671 13.44 18.071 12.26 20.271 12.28C21.171 12.28 22.071 12.52 22.791 13L23.911 11.26C22.851 10.62 21.591 10.3 20.271 10.3C16.871 10.3 14.591 12.22 13.791 15.32H11.891V17H13.491C13.471 17.26 13.451 17.52 13.451 17.8C13.451 18.08 13.471 18.36 13.491 18.62H11.891V20.3H13.771C14.591 23.32 16.891 25.3 20.271 25.3C21.571 25.3 22.851 24.98 23.911 24.32L22.811 22.6C22.071 23.08 21.171 23.34 20.271 23.32Z" fill="white"/>
</svg>
