<svg width="24" height="24" viewBox="0 0 24 24" fill="none" xmlns="http://www.w3.org/2000/svg">
<rect y="3.05176e-05" width="24" height="24" rx="8" fill="#000099"/>
<mask id="mask0_3850_954" style="mask-type:alpha" maskUnits="userSpaceOnUse" x="0" y="0" width="24" height="24">
<rect width="24" height="24" rx="8" fill="white"/>
</mask>
<g mask="url(#mask0_3850_954)">
<path fill-rule="evenodd" clip-rule="evenodd" d="M19.3714 13.6277L18.6522 13.0882L17.9017 13.6241L18.1929 12.7736L17.4518 12.2253L18.3501 12.2393L18.6423 11.3649L18.9074 12.2237L19.8292 12.2315L19.0938 12.7486L19.3714 13.6277Z" fill="#FFCC00" stroke="#E6F32E" stroke-opacity="0.20886" stroke-width="0.0441049"/>
<path fill-rule="evenodd" clip-rule="evenodd" d="M18.6399 10.3941L17.9207 9.85455L17.1703 10.3904L17.4614 9.54L16.7203 8.99162L17.6187 9.00568L17.9108 8.13129L18.1759 8.99006L19.0977 8.99787L18.3624 9.515L18.6399 10.3941Z" fill="#FFCC00" stroke="#E6F32E" stroke-opacity="0.20886" stroke-width="0.0441049"/>
<path fill-rule="evenodd" clip-rule="evenodd" d="M16.3302 8.04545L15.611 7.50592L14.8605 8.04181L15.1517 7.19137L14.4106 6.64299L15.3089 6.65705L15.6011 5.78265L15.8662 6.64142L16.788 6.64923L16.0526 7.16637L16.3302 8.04545Z" fill="#FFCC00" stroke="#E6F32E" stroke-opacity="0.20886" stroke-width="0.0441049"/>
<path fill-rule="evenodd" clip-rule="evenodd" d="M16.1377 19.2478L15.4185 18.7083L14.6681 19.2442L14.9592 18.3938L14.2181 17.8454L15.1165 17.8594L15.4086 16.985L15.6737 17.8438L16.5955 17.8516L15.8602 18.3688L16.1377 19.2478Z" fill="#FFCC00" stroke="#E6F32E" stroke-opacity="0.20886" stroke-width="0.0441049"/>
<path fill-rule="evenodd" clip-rule="evenodd" d="M18.5243 16.7843L17.8051 16.2448L17.0546 16.7807L17.3457 15.9303L16.6047 15.3819L17.503 15.3959L17.7952 14.5215L18.0603 15.3803L18.982 15.3881L18.2467 15.9053L18.5243 16.7843Z" fill="#FFCC00" stroke="#E6F32E" stroke-opacity="0.20886" stroke-width="0.0441049"/>
<path fill-rule="evenodd" clip-rule="evenodd" d="M6.09019 13.6277L5.37099 13.0882L4.62055 13.6241L4.91167 12.7736L4.17059 12.2253L5.06894 12.2393L5.3611 11.3649L5.62618 12.2237L6.54796 12.2315L5.81262 12.7486L6.09019 13.6277Z" fill="#FFCC00" stroke="#E6F32E" stroke-opacity="0.20886" stroke-width="0.0441049"/>
<path fill-rule="evenodd" clip-rule="evenodd" d="M12.7117 20.1719L11.9925 19.6324L11.2421 20.1683L11.5332 19.3178L10.7921 18.7695L11.6905 18.7835L11.9826 17.9091L12.2477 18.7679L13.1695 18.7757L12.4341 19.2928L12.7117 20.1719Z" fill="#FFCC00" stroke="#E6F32E" stroke-opacity="0.20886" stroke-width="0.0441049"/>
<path fill-rule="evenodd" clip-rule="evenodd" d="M9.32384 19.2478L8.60464 18.7083L7.85419 19.2442L8.14531 18.3938L7.40424 17.8454L8.30258 17.8594L8.59474 16.985L8.85982 17.8438L9.7816 17.8516L9.04626 18.3688L9.32384 19.2478Z" fill="#FFCC00" stroke="#E6F32E" stroke-opacity="0.20886" stroke-width="0.0441049"/>
<path fill-rule="evenodd" clip-rule="evenodd" d="M7.01433 16.7843L6.29513 16.2448L5.54468 16.7807L5.8358 15.9303L5.09473 15.3819L5.99308 15.3959L6.28523 14.5215L6.55031 15.3803L7.4721 15.3881L6.73675 15.9053L7.01433 16.7843Z" fill="#FFCC00" stroke="#E6F32E" stroke-opacity="0.20886" stroke-width="0.0441049"/>
<path fill-rule="evenodd" clip-rule="evenodd" d="M12.7117 6.96745L11.9925 6.42792L11.2421 6.9638L11.5332 6.11337L10.7921 5.56498L11.6905 5.57904L11.9826 4.70465L12.2477 5.56342L13.1695 5.57123L12.4341 6.08837L12.7117 6.96745Z" fill="#FFCC00" stroke="#E6F32E" stroke-opacity="0.20886" stroke-width="0.0441049"/>
<path fill-rule="evenodd" clip-rule="evenodd" d="M9.16991 8.04545L8.45071 7.50592L7.70026 8.04181L7.99138 7.19137L7.25031 6.64299L8.14865 6.65705L8.44081 5.78265L8.70589 6.64142L9.62767 6.64923L8.89233 7.16637L9.16991 8.04545Z" fill="#FFCC00" stroke="#E6F32E" stroke-opacity="0.20886" stroke-width="0.0441049"/>
<path fill-rule="evenodd" clip-rule="evenodd" d="M6.8986 10.3941L6.17941 9.85455L5.42896 10.3904L5.72008 9.54L4.979 8.99162L5.87735 9.00568L6.16951 8.13129L6.43459 8.99006L7.35637 8.99787L6.62103 9.515L6.8986 10.3941Z" fill="#FFCC00" stroke="#E6F32E" stroke-opacity="0.20886" stroke-width="0.0441049"/>
</g>
</svg>
