<svg width="36" height="36" viewBox="0 0 36 36" fill="none" xmlns="http://www.w3.org/2000/svg">
<path fill-rule="evenodd" clip-rule="evenodd" d="M15.0946 13.2425C15.6889 13.4464 16.2172 13.5823 16.8115 13.7862C17.4719 13.9901 17.4059 13.9901 17.538 14.6697C17.67 15.2814 17.8021 15.825 17.8681 16.4367V16.5726V16.4367C18.4625 13.7183 18.0663 14.126 20.6417 13.3105C18.8587 13.5823 16.9436 13.5823 15.0946 13.2425ZM22.4247 15.825L21.6323 14.194C21.6983 15.2814 22.2927 16.6406 21.038 16.9124L18.7266 17.728C19.7172 17.66 20.6417 17.3882 21.038 17.592C21.5002 17.8639 21.2361 18.3396 21.104 18.6794L19.0568 23.5047C20.3776 21.0581 21.5002 19.2231 23.0851 17.592C23.7455 16.9804 24.538 16.5047 25.3964 15.825C24.67 15.961 24.538 16.0289 23.8115 16.1649C23.4153 16.3687 22.6229 16.3008 22.4247 15.825ZM12.321 12.9707C12.9814 13.0386 13.5757 13.1066 14.2361 13.1066C12.9814 12.8348 11.7927 12.495 10.9342 11.8833C11.0002 12.0872 11.1323 12.2911 11.1983 12.495C11.3304 12.6988 11.3304 12.6988 11.1983 12.9027C10.9342 13.4464 10.604 13.9901 10.3398 14.5338L11.6606 13.1746C11.9247 12.9027 11.9247 12.9027 12.321 12.9707ZM14.9625 17.66C15.3587 17.3882 16.2832 17.66 17.2738 17.7959L14.9625 16.9124C13.7078 16.6406 14.3021 15.2814 14.3681 14.194L13.5757 15.825C13.3776 16.3008 12.5851 16.3687 12.1229 16.3008C11.3964 16.1649 11.2644 16.0969 10.538 15.961C11.3964 16.6406 12.1889 17.0483 12.8493 17.728C14.5002 19.2911 15.6229 21.194 16.8776 23.6406L14.8304 18.8153C14.7644 18.4076 14.4342 17.9318 14.9625 17.66ZM24.67 12.427C24.7361 12.2911 24.8021 12.0872 24.9342 11.9513C24.0097 12.6309 22.821 12.9027 21.6323 13.1746C22.2266 13.1066 22.5568 13.1066 23.1512 13.0386C23.5474 12.9707 23.8776 12.9707 24.1417 13.2425L25.5285 14.6697C25.2644 14.126 25.0002 13.6503 24.7361 13.1066C24.4719 12.6988 24.4719 12.7668 24.67 12.427Z" fill="#FF006E"/>
<path fill-rule="evenodd" clip-rule="evenodd" d="M17.934 4C13.5755 4 4.39623 4.54369 4 10.6602C4.33019 18.3398 9.67925 27.7864 16.217 31.6602C16.8113 31.8641 17.4057 32 18 32C18.5943 32 19.1887 31.8641 19.783 31.6602C26.3208 27.7864 31.6698 18.3398 32 10.6602C31.5377 4.40777 22.4245 4 17.934 4ZM26.1226 16.3689C23.217 19.699 20.9057 22.2816 17.934 25.5437V25.6116H17.8679L9.61321 16.301C8.95283 15.5534 8.35849 14.6019 9.01887 13.7864C9.67924 12.9709 10.1415 12.3592 10.8019 11.5437L15.2264 10.3883H20.6415L25 11.5437L26.783 13.7864C27.6415 14.8058 27.0472 15.3495 26.1226 16.3689Z" fill="#FF006E"/>
</svg>
