<svg width="24" height="24" viewBox="0 0 24 24" fill="none" xmlns="http://www.w3.org/2000/svg">
<circle cx="12" cy="12" r="12" fill="#E1E5EA"/>
<path d="M11.3236 14.6704L11.6013 15.367L11.7447 15.3099L11.8539 15.2007L11.3236 14.6704ZM9.32467 12.6714L8.79434 12.1411L8.68515 12.2503L8.62798 12.3937L9.32467 12.6714ZM7.99983 15.9952L7.30314 15.7175C7.19217 15.9959 7.25759 16.3136 7.4695 16.5255C7.68142 16.7374 7.99914 16.8029 8.27753 16.6919L7.99983 15.9952ZM15.1729 8.23744L15.7576 8.82216L16.8182 7.7615L16.2335 7.17678L15.1729 8.23744ZM15.7576 9.17571L10.7933 14.14L11.8539 15.2007L16.8182 10.2364L15.7576 9.17571ZM11.8539 14.14L9.855 12.1411L8.79434 13.2017L10.7933 15.2007L11.8539 14.14ZM9.855 13.2017L14.8193 8.23744L13.7587 7.17678L8.79434 12.1411L9.855 13.2017ZM8.62798 12.3937L7.30314 15.7175L8.69653 16.2729L10.0214 12.9491L8.62798 12.3937ZM8.27753 16.6919L11.6013 15.367L11.0459 13.9737L7.72213 15.2985L8.27753 16.6919ZM15.7576 8.82216C15.8552 8.91979 15.8552 9.07808 15.7576 9.17571L16.8182 10.2364C17.5017 9.55295 17.5017 8.44491 16.8182 7.7615L15.7576 8.82216ZM16.2335 7.17678C15.5501 6.49336 14.4421 6.49336 13.7587 7.17678L14.8193 8.23744C14.9169 8.13981 15.0752 8.13981 15.1729 8.23744L16.2335 7.17678Z" fill="#505C64"/>
</svg>
