<svg width="36" height="36" viewBox="0 0 36 36" fill="none" xmlns="http://www.w3.org/2000/svg">
<rect width="36" height="36" rx="12" fill="#F3F3F3"/>
<path d="M9 16.8991H9.95739V14.9195H12.2242V16.8991H13.1816V12.1H12.2242V14.073H9.95739V12.1H9V16.8991Z" fill="#505C64"/>
<path d="M15.2257 16.9991C15.519 16.9991 15.7654 16.9569 15.9649 16.8724C16.1667 16.7858 16.352 16.648 16.521 16.4592V16.8991H17.3587V14.6995C17.3587 14.5351 17.3517 14.3862 17.3376 14.2529C17.3235 14.1196 17.2789 13.9863 17.2038 13.853C17.0701 13.613 16.873 13.4442 16.6125 13.3464C16.352 13.2487 16.054 13.1998 15.7185 13.1998C15.2609 13.1998 14.8995 13.2931 14.6344 13.4797C14.3692 13.6664 14.1885 13.9085 14.0923 14.2063L14.9582 14.4662C15.0192 14.3018 15.126 14.1874 15.2785 14.1229C15.431 14.0585 15.5777 14.0263 15.7185 14.0263C15.9437 14.0263 16.1115 14.0663 16.2218 14.1463C16.3321 14.224 16.3966 14.3474 16.4154 14.5162C16.0587 14.5651 15.7443 14.6129 15.4721 14.6595C15.1999 14.704 14.9723 14.7573 14.7892 14.8195C14.4842 14.9261 14.2695 15.0717 14.1451 15.2561C14.0207 15.4383 13.9586 15.6549 13.9586 15.906C13.9586 16.1059 14.0067 16.2892 14.1029 16.4559C14.2014 16.6203 14.3446 16.7525 14.5323 16.8525C14.7224 16.9502 14.9535 16.9991 15.2257 16.9991ZM15.4298 16.2859C15.2656 16.2859 15.1354 16.2515 15.0391 16.1826C14.9429 16.1115 14.8948 16.0148 14.8948 15.8926C14.8948 15.8015 14.9253 15.7238 14.9864 15.6593C15.0474 15.5927 15.1483 15.5327 15.2891 15.4794C15.397 15.4416 15.5296 15.4072 15.6868 15.3761C15.8464 15.3427 16.0869 15.3005 16.4084 15.2494C16.406 15.3361 16.399 15.4316 16.3872 15.536C16.3755 15.6382 16.3497 15.7282 16.3098 15.806C16.284 15.8571 16.2347 15.9204 16.162 15.9959C16.0916 16.0715 15.9954 16.1392 15.8733 16.1992C15.7537 16.257 15.6058 16.2859 15.4298 16.2859Z" fill="#505C64"/>
<path d="M18.3443 16.8991H19.3017V12H18.3443V16.8991Z" fill="#505C64"/>
<path d="M20.8427 18.4988H21.7297L23.8768 13.2998H22.9194L21.9268 15.7493L20.9272 13.2998H19.9346L21.4692 16.8691L20.8427 18.4988Z" fill="#505C64"/>
<path d="M24.3647 16.8991H25.3432V15.1661L26.6596 16.8991H27.9057L26.4414 15.0994L27.8141 13.2998H26.6315L25.3432 15.0328V12.1H24.3718L24.3647 16.8991Z" fill="#505C64"/>
<path d="M13.8918 23.2235C13.2836 23.2235 12.8084 23.0507 12.4663 22.705C12.1242 22.3594 11.9531 21.8764 11.9531 21.2561C11.9531 20.6845 12.0777 20.1683 12.3269 19.7075C12.5761 19.2466 12.9161 18.8855 13.347 18.6241C13.7778 18.3626 14.2593 18.2319 14.7915 18.2319C15.1547 18.2319 15.4419 18.2984 15.6531 18.4313C15.8643 18.5598 15.9699 18.7393 15.9699 18.9697C15.9699 19.1602 15.9044 19.3175 15.7735 19.4416C15.6468 19.5612 15.4842 19.6211 15.2857 19.6211C15.0914 19.6211 14.9119 19.5679 14.7471 19.4615C14.5824 19.3552 14.4515 19.1979 14.3543 18.9896C14.1178 19.0871 13.9045 19.2511 13.7144 19.4815C13.5286 19.7075 13.3829 19.9777 13.2773 20.2924C13.1717 20.6025 13.1189 20.9348 13.1189 21.2893C13.1189 21.7058 13.1886 22.0315 13.328 22.2664C13.4716 22.4968 13.6722 22.612 13.9298 22.612C14.1284 22.612 14.3079 22.5566 14.4684 22.4458C14.6289 22.3351 14.7556 22.1844 14.8485 21.9939C14.9457 21.8033 15.0006 21.5929 15.0132 21.3624C15.4905 21.3624 15.7292 21.5485 15.7292 21.9208C15.7292 22.1556 15.6468 22.3727 15.4821 22.5721C15.3173 22.7715 15.0935 22.931 14.8105 23.0507C14.5317 23.1659 14.2255 23.2235 13.8918 23.2235Z" fill="#505C64"/>
<path d="M17.2769 23.2235C17.0741 23.2235 16.9242 23.1592 16.827 23.0307C16.7341 22.9022 16.6877 22.7028 16.6877 22.4325C16.6877 22.2198 16.7383 21.7812 16.8397 21.1165C16.9453 20.4519 17.0741 19.6698 17.2262 18.7703L16.8967 18.3117C17.0488 18.1921 17.2156 18.0946 17.3973 18.0192C17.5831 17.9439 17.752 17.9062 17.9041 17.9062C18.0688 17.9062 18.1871 17.9395 18.2589 18.0059C18.3307 18.0724 18.3666 18.1832 18.3666 18.3383C18.3666 18.4313 18.3497 18.5665 18.3159 18.7437C18.2864 18.921 18.2399 19.1647 18.1765 19.4748C18.054 20.0553 17.9548 20.5782 17.8788 21.0434C17.807 21.5087 17.7711 21.9451 17.7711 22.3528C17.7711 22.5079 17.7837 22.6297 17.8091 22.7183C17.8386 22.807 17.883 22.8845 17.9421 22.951C17.8492 23.0396 17.7436 23.106 17.6253 23.1504C17.5071 23.1991 17.3909 23.2235 17.2769 23.2235Z" fill="#505C64"/>
<path d="M22.5845 22.4458C22.5845 22.6895 22.6394 22.8579 22.7492 22.951C22.5507 23.1326 22.3395 23.2235 22.1157 23.2235C21.9171 23.2235 21.7672 23.1703 21.6658 23.064C21.5645 22.9576 21.5074 22.7937 21.4948 22.5721L21.4377 22.5389C21.2772 22.7471 21.0808 22.9133 20.8485 23.0374C20.6205 23.1614 20.3797 23.2235 20.1263 23.2235C19.7841 23.2235 19.5307 23.1371 19.366 22.9643C19.2013 22.787 19.1189 22.5145 19.1189 22.1467C19.1189 21.9784 19.1316 21.8011 19.1569 21.615C19.1865 21.4289 19.2266 21.1941 19.2773 20.9105C19.3195 20.6756 19.3512 20.4807 19.3723 20.3256C19.3977 20.1705 19.4103 20.0309 19.4103 19.9069C19.4103 19.6587 19.3744 19.4704 19.3026 19.3419C19.442 19.2621 19.5856 19.1979 19.7335 19.1491C19.8855 19.096 20.008 19.0694 20.1009 19.0694C20.2572 19.0694 20.3691 19.1048 20.4367 19.1757C20.5085 19.2466 20.5444 19.3641 20.5444 19.528C20.5444 19.6343 20.5275 19.785 20.4937 19.98C20.4599 20.1705 20.4093 20.4319 20.3417 20.7643C20.2952 20.9991 20.2509 21.2295 20.2086 21.4555C20.1706 21.677 20.1516 21.8366 20.1516 21.934C20.1516 22.3373 20.3185 22.5389 20.6521 22.5389C20.8169 22.5389 20.9774 22.4857 21.1336 22.3794C21.2941 22.2686 21.4335 22.1179 21.5518 21.9274C21.6067 21.5773 21.7376 20.9282 21.9446 19.98L21.6278 19.4815C22.0375 19.2068 22.3839 19.0694 22.6669 19.0694C22.8231 19.0694 22.933 19.1048 22.9963 19.1757C23.0639 19.2422 23.0977 19.3552 23.0977 19.5147C23.0977 19.5767 23.0491 19.8227 22.952 20.2525C22.8421 20.731 22.7534 21.152 22.6859 21.5153C22.6183 21.8742 22.5845 22.1844 22.5845 22.4458Z" fill="#505C64"/>
<path d="M26.7264 19.0694C26.9587 19.0694 27.1635 19.1336 27.3409 19.2621C27.5225 19.3862 27.6619 19.5634 27.7591 19.7939C27.8562 20.0243 27.9048 20.2924 27.9048 20.5981C27.9048 21.0988 27.7844 21.5508 27.5436 21.954C27.3029 22.3528 26.9692 22.6652 26.5426 22.8911C26.116 23.1127 25.6345 23.2235 25.0981 23.2235C24.7306 23.2235 24.4624 23.1393 24.2935 22.9709C24.1287 22.8025 24.0464 22.5256 24.0464 22.1401C24.0464 21.923 24.0844 21.5729 24.1604 21.0899C24.2365 20.607 24.3695 19.836 24.5596 18.7769L24.2365 18.3183C24.3927 18.1987 24.5596 18.1012 24.737 18.0259C24.9186 17.9506 25.0875 17.9129 25.2438 17.9129C25.4085 17.9129 25.5247 17.9461 25.5923 18.0126C25.6641 18.0791 25.7 18.1898 25.7 18.3449C25.7 18.4468 25.6852 18.5709 25.6556 18.7171C25.6261 18.8633 25.5754 19.096 25.5036 19.415L25.3579 20.0664L25.4212 20.0996C25.5564 19.7761 25.738 19.5236 25.9661 19.3419C26.1984 19.1602 26.4518 19.0694 26.7264 19.0694ZM24.965 22.6386C25.3114 22.612 25.6261 22.5145 25.9091 22.3461C26.1963 22.1777 26.4222 21.9584 26.587 21.6881C26.7517 21.4134 26.8341 21.1165 26.8341 20.7975C26.8341 20.5494 26.7834 20.3566 26.682 20.2192C26.5849 20.0819 26.4455 20.0132 26.2639 20.0132C26.0358 20.0132 25.8225 20.124 25.624 20.3455C25.4254 20.5626 25.2649 20.8706 25.1424 21.2694C25.0242 21.6682 24.965 22.1246 24.965 22.6386Z" fill="#505C64"/>
</svg>
