<svg width="36" height="36" viewBox="0 0 36 36" fill="none" xmlns="http://www.w3.org/2000/svg">
<rect width="36" height="36" rx="12" fill="#F3F3F3"/>
<path d="M13.9266 15.5411L17.7724 12.4193L21.6183 15.5411H24.5449L17.7724 10L11 15.5411H13.9266Z" fill="#505C64"/>
<path d="M23.3143 13.0784V10H20.8516V11.1605L23.3143 13.0784Z" fill="#505C64"/>
<path d="M14.3184 16.7775L12.5977 16.773C11.8615 16.773 11.6172 17.2482 11.6172 17.5915C11.6172 18.1988 12.1069 18.5552 13.0594 18.505C13.4079 20.2508 13.7575 21.7964 14.1044 23.5454L22.5731 23.5454C23.0394 21.2198 23.4676 19.1001 23.9307 16.7729C22.3643 16.7565 20.8334 16.7729 19.6427 16.7729H19.5941C18.8579 16.7729 18.6139 17.3021 18.6125 17.6046C18.611 17.9071 18.8579 18.5121 19.5941 18.5121H21.9871C21.7564 19.6734 21.524 20.8338 21.2901 21.9934L15.3515 21.9934C15.0062 20.2587 14.6619 18.52 14.3184 16.7775Z" fill="#505C64"/>
<path d="M15.0395 26.0088C15.592 26.0088 16.04 25.5608 16.04 25.0083C16.04 24.4557 15.592 24.0078 15.0395 24.0078C14.487 24.0078 14.0391 24.4557 14.0391 25.0083C14.0391 25.5608 14.487 26.0088 15.0395 26.0088Z" fill="#505C64"/>
<path d="M21.4809 26.0088C22.0337 26.0088 22.4814 25.5608 22.4814 25.0083C22.4814 24.4557 22.0337 24.0078 21.4809 24.0078C20.9284 24.0078 20.4805 24.4557 20.4805 25.0083C20.4805 25.5608 20.9284 26.0088 21.4809 26.0088Z" fill="#505C64"/>
</svg>
