<svg width="36" height="36" viewBox="0 0 36 36" fill="none" xmlns="http://www.w3.org/2000/svg">
<path fill-rule="evenodd" clip-rule="evenodd" d="M8 7C7.44772 7 7 7.44772 7 8V21.0527C12.1219 15.9308 18.0318 12.9102 20.6584 12.9102C22.7142 12.9102 27.0328 15.2986 29.0635 16.6319V8C29.0635 7.44772 28.6158 7 28.0635 7H8ZM29.0635 18.6942C27.1717 16.9127 22.4539 13.6981 20.6584 13.6981C18.1368 13.6981 10.2833 18.82 7 24.8612V28.5889C7 29.1412 7.44772 29.5889 8 29.5889H28.0635C28.6158 29.5889 29.0635 29.1412 29.0635 28.5889V18.6942Z" fill="#008B8A"/>
</svg>
