<svg width="24" height="24" viewBox="0 0 24 24" fill="none" xmlns="http://www.w3.org/2000/svg">
<path d="M8 7.4V5.8C8 5.35817 8.35816 5 8.8 5H19.2C19.6418 5 20 5.35817 20 5.8V13C20 13.4418 19.6418 13.8 19.2 13.8H18.4" stroke="#ACBBBE" stroke-width="1.5" stroke-linecap="round" stroke-linejoin="round"/>
<path d="M15.2 9.7998H4.8C4.35817 9.7998 4 10.158 4 10.5998V17.7998C4 18.2416 4.35817 18.5998 4.8 18.5998H15.2C15.6418 18.5998 16 18.2416 16 17.7998V10.5998C16 10.158 15.6418 9.7998 15.2 9.7998Z" stroke="#ACBBBE" stroke-width="1.5" stroke-linecap="round" stroke-linejoin="round"/>
<path d="M4 13.4004H16" stroke="#ACBBBE" stroke-width="1.5" stroke-linecap="round" stroke-linejoin="round"/>
<path d="M16 11.4004V16.2004" stroke="#ACBBBE" stroke-width="1.5" stroke-linecap="round" stroke-linejoin="round"/>
<path d="M4 11.4004V16.2004" stroke="#ACBBBE" stroke-width="1.5" stroke-linecap="round" stroke-linejoin="round"/>
<path d="M6.80005 15.7998H10" stroke="#ACBBBE" stroke-width="1.5" stroke-linecap="round" stroke-linejoin="round"/>
<path d="M12.4 15.7998H13.2" stroke="#ACBBBE" stroke-width="1.5" stroke-linecap="round" stroke-linejoin="round"/>
</svg>
