<svg width="24" height="24" viewBox="0 0 24 24" fill="none" xmlns="http://www.w3.org/2000/svg">
<path d="M8 8.4C8 7.07452 9.07452 6 10.4 6H14C15.3255 6 16.4 7.07452 16.4 8.4V9.2H8V8.4Z" stroke="#ACBBBE" stroke-width="1.5" stroke-linecap="round" stroke-linejoin="round"/>
<path d="M4 12.7998L11.806 14.7513C11.9334 14.7832 12.0666 14.7832 12.194 14.7513L20 12.7998V17.9998C20 18.4416 19.6418 18.7998 19.2 18.7998H4.8C4.35817 18.7998 4 18.4416 4 17.9998V12.7998Z" stroke="#ACBBBE" stroke-width="1.5" stroke-linecap="round" stroke-linejoin="round"/>
<path d="M20 13.6002V10.0002C20 9.55836 19.6418 9.2002 19.2 9.2002H4.8C4.35817 9.2002 4 9.55836 4 10.0002V13.6002" stroke="#ACBBBE" stroke-width="1.5" stroke-linecap="round" stroke-linejoin="round"/>
<path d="M12.75 12C12.75 12.4142 12.4142 12.75 12 12.75C11.5858 12.75 11.25 12.4142 11.25 12C11.25 11.5858 11.5858 11.25 12 11.25C12.4142 11.25 12.75 11.5858 12.75 12Z" fill="#ACBBBE" stroke="#ACBBBE" stroke-width="0.5"/>
</svg>
