<svg width="24" height="24" viewBox="0 0 24 24" fill="none" xmlns="http://www.w3.org/2000/svg">
<path d="M13.3434 12.9293L13.2727 13L13.3434 13.0707L16.454 16.1813C16.5421 16.2694 16.586 16.3488 16.603 16.4203C16.6199 16.4911 16.6127 16.5631 16.5832 16.6408C16.5215 16.8031 16.3694 16.9744 16.1719 17.1719C15.9743 17.3695 15.8031 17.5215 15.6407 17.5832C15.563 17.6128 15.491 17.62 15.4203 17.6031C15.3488 17.586 15.2693 17.5422 15.1812 17.4541L12.0706 14.3435L11.9999 14.2728L11.9292 14.3435L8.81866 17.4541C8.73053 17.5422 8.65109 17.586 8.5796 17.6031C8.50884 17.62 8.43684 17.6128 8.35912 17.5832C8.1968 17.5215 8.02555 17.3695 7.828 17.1719C7.63045 16.9744 7.47838 16.8031 7.41669 16.6408C7.38715 16.5631 7.37997 16.4911 7.39685 16.4203C7.41391 16.3488 7.45774 16.2694 7.54586 16.1813L10.6564 13.0707L10.7271 13L10.6564 12.9293L7.54586 9.81873C7.45754 9.7304 7.41363 9.65086 7.39655 9.57934C7.37965 9.50858 7.38684 9.43663 7.4164 9.35898C7.47817 9.19674 7.63038 9.02569 7.828 8.82807C8.02562 8.63045 8.19667 8.47824 8.35891 8.41647C8.43656 8.38691 8.50851 8.37972 8.57927 8.39662C8.65079 8.4137 8.73033 8.45761 8.81866 8.54593L11.9292 11.6565L11.9999 11.7272L12.0706 11.6565L15.1812 8.54593C15.2695 8.45761 15.3491 8.4137 15.4206 8.39662C15.4914 8.37972 15.5633 8.38691 15.641 8.41648C15.8032 8.47824 15.9742 8.63045 16.1719 8.82807C16.3695 9.02569 16.5217 9.19674 16.5835 9.35898C16.613 9.43663 16.6202 9.50858 16.6033 9.57934C16.5862 9.65086 16.5423 9.7304 16.454 9.81873L13.3434 12.9293Z" fill="#FF5721" stroke="#FFFEFE" stroke-width="0.2"/>
</svg>
