<svg width="24" height="24" viewBox="0 0 24 24" fill="none" xmlns="http://www.w3.org/2000/svg">
<path d="M6.34314 16C4.89543 16.424 4 17.0098 4 17.6568C4 18.9509 7.58172 20 12 20C16.4183 20 20 18.9509 20 17.6568C20 17.0098 19.1046 16.424 17.6568 16" stroke="#ACBBBE" stroke-width="1.5" stroke-linecap="round" stroke-linejoin="round"/>
<path d="M12 16C12 16 17 12.7112 17 8.90908C17 6.19787 14.7614 4 12 4C9.23858 4 7 6.19787 7 8.90908C7 12.7112 12 16 12 16Z" stroke="#ACBBBE" stroke-width="1.5" stroke-linejoin="round"/>
<path d="M12 11C13.1046 11 14 10.1046 14 9C14 7.89544 13.1046 7 12 7C10.8954 7 10 7.89544 10 9C10 10.1046 10.8954 11 12 11Z" stroke="#ACBBBE" stroke-width="1.5" stroke-linejoin="round"/>
</svg>
