<svg width="36" height="36" viewBox="0 0 36 36" fill="none" xmlns="http://www.w3.org/2000/svg">
<rect width="36" height="36" rx="12" fill="#E9EFF0"/>
<rect x="15.1206" y="14.0684" width="4.76048" height="7.861" fill="#F78643"/>
<path d="M15.6113 18.0004C15.6101 16.4666 16.3065 15.0175 17.4998 14.0706C15.4725 12.4598 12.5612 12.6944 10.812 14.6096C9.06268 16.5247 9.06268 19.4774 10.812 21.3926C12.5612 23.3077 15.4725 23.5424 17.4998 21.9316C16.3061 20.9843 15.6096 19.5346 15.6113 18.0004Z" fill="#F2485B"/>
<path d="M25.5 18.0004C25.5 19.9143 24.419 21.6603 22.7162 22.4967C21.0134 23.3331 18.9878 23.1131 17.4995 21.9302C18.6923 20.9824 19.3888 19.5335 19.3888 17.9997C19.3888 16.4658 18.6923 15.0169 17.4995 14.0692C18.9878 12.8862 21.0134 12.6662 22.7162 13.5026C24.419 14.339 25.5 16.085 25.5 17.999V18.0004Z" fill="#FFBD5B"/>
</svg>
