<svg width="17" height="18" viewBox="0 0 17 18" fill="none" xmlns="http://www.w3.org/2000/svg">
<path d="M7.10852 13.3049L7.38622 14.0016L7.52966 13.9445L7.63885 13.8353L7.10852 13.3049ZM3.90179 10.0982L3.37146 9.56788L3.26227 9.67707L3.20509 9.82051L3.90179 10.0982ZM1.77645 15.4303L1.07975 15.1526C0.968789 15.431 1.0342 15.7487 1.24612 15.9606C1.45803 16.1725 1.77576 16.2379 2.05415 16.127L1.77645 15.4303ZM13.1768 2.23744L14.9693 4.02995L16.03 2.96929L14.2374 1.17678L13.1768 2.23744ZM14.9693 4.38351L6.57819 12.7746L7.63885 13.8353L16.03 5.44417L14.9693 4.38351ZM7.63885 12.7746L4.43212 9.56788L3.37146 10.6285L6.57819 13.8353L7.63885 12.7746ZM4.43212 10.6285L12.8232 2.23744L11.7626 1.17678L3.37146 9.56788L4.43212 10.6285ZM3.20509 9.82051L1.07975 15.1526L2.47314 15.708L4.59848 10.3759L3.20509 9.82051ZM2.05415 16.127L7.38622 14.0016L6.83082 12.6082L1.49875 14.7336L2.05415 16.127ZM14.9693 4.02995C15.0669 4.12758 15.0669 4.28587 14.9693 4.38351L16.03 5.44417C16.7134 4.76075 16.7134 3.65271 16.03 2.96929L14.9693 4.02995ZM14.2374 1.17678C13.554 0.49336 12.446 0.493358 11.7626 1.17678L12.8232 2.23744C12.9209 2.13981 13.0791 2.13981 13.1768 2.23744L14.2374 1.17678Z" fill="#829199"/>
</svg>
