<svg width="36" height="36" viewBox="0 0 36 36" fill="none" xmlns="http://www.w3.org/2000/svg">
<path d="M24.5 13L25.0303 13.5303L25.5607 13L25.0303 12.4697L24.5 13ZM21.0303 8.46967C20.7374 8.17678 20.2626 8.17678 19.9697 8.46967C19.6768 8.76256 19.6768 9.23744 19.9697 9.53033L21.0303 8.46967ZM19.9697 16.4697C19.6768 16.7626 19.6768 17.2374 19.9697 17.5303C20.2626 17.8232 20.7374 17.8232 21.0303 17.5303L19.9697 16.4697ZM24.5 12.25L11 12.25L11 13.75L24.5 13.75L24.5 12.25ZM25.0303 12.4697L21.0303 8.46967L19.9697 9.53033L23.9697 13.5303L25.0303 12.4697ZM23.9697 12.4697L19.9697 16.4697L21.0303 17.5303L25.0303 13.5303L23.9697 12.4697Z" fill="#11BB91"/>
<path d="M11 23L10.4697 22.4697L9.93934 23L10.4697 23.5303L11 23ZM14.4697 27.5303C14.7626 27.8232 15.2374 27.8232 15.5303 27.5303C15.8232 27.2374 15.8232 26.7626 15.5303 26.4697L14.4697 27.5303ZM15.5303 19.5303C15.8232 19.2374 15.8232 18.7626 15.5303 18.4697C15.2374 18.1768 14.7626 18.1768 14.4697 18.4697L15.5303 19.5303ZM11 23.75L24.5 23.75L24.5 22.25L11 22.25L11 23.75ZM10.4697 23.5303L14.4697 27.5303L15.5303 26.4697L11.5303 22.4697L10.4697 23.5303ZM11.5303 23.5303L15.5303 19.5303L14.4697 18.4697L10.4697 22.4697L11.5303 23.5303Z" fill="#11BB91"/>
</svg>
