<svg width="24" height="24" viewBox="0 0 24 24" fill="none" xmlns="http://www.w3.org/2000/svg">
<path d="M24 0H0V24H24V0Z" fill="white" fill-opacity="0.01"/>
<path d="M16.8 15.1998C18.5674 15.1998 20 13.7671 20 11.9998C20 10.2325 18.5674 8.7998 16.8 8.7998" stroke="#ACBBBE" stroke-width="1.5" stroke-linejoin="round"/>
<path d="M7.2 8.7998C5.43269 8.7998 4 10.2325 4 11.9998C4 13.7671 5.43269 15.1998 7.2 15.1998" stroke="#ACBBBE" stroke-width="1.5" stroke-linejoin="round"/>
<path d="M7.19995 15.2V15V14V12V8.8C7.19995 6.14903 9.34899 4 12 4C14.6509 4 16.8 6.14903 16.8 8.8V15.2C16.8 17.851 14.6509 20 12 20" stroke="#ACBBBE" stroke-width="1.5" stroke-linecap="round" stroke-linejoin="round"/>
</svg>
