<svg width="24" height="24" viewBox="0 0 24 24" fill="none" xmlns="http://www.w3.org/2000/svg">
<circle cx="12" cy="12" r="12" fill="#F2AA1A"/>
<path d="M11 17C10.7053 17 10.4737 16.9144 10.3053 16.7433C10.1368 16.5722 10.0526 16.3386 10.0526 16.0424C10.0526 15.7397 10.1333 15.3317 10.2947 14.8184C10.4632 14.2985 10.6281 13.8279 10.7895 13.4067C10.9579 12.9855 11.0421 12.7058 11.0421 12.5676C11.0421 12.4228 10.993 12.3504 10.8947 12.3504C10.6491 12.3504 10.2526 12.8045 9.70526 13.7127L9 13.3277C10.0316 11.6956 10.9789 10.8796 11.8421 10.8796C12.4316 10.8796 12.7263 11.2284 12.7263 11.926C12.7263 12.13 12.6561 12.4557 12.5158 12.9033L11.7579 14.9368C11.6807 15.1277 11.6421 15.3021 11.6421 15.46C11.6421 15.6114 11.7053 15.6871 11.8316 15.6871C12.0702 15.6871 12.5088 15.2725 13.1474 14.4432L13.5895 14.8282C13.2105 15.4863 12.7579 16.0128 12.2316 16.4077C11.7123 16.8026 11.3018 17 11 17ZM14 7.96742C14 8.23067 13.9053 8.47088 13.7158 8.68806C13.5263 8.90523 13.2702 9.01382 12.9474 9.01382C12.6246 9.01382 12.3825 8.92498 12.2211 8.74729C12.0596 8.56301 11.9789 8.33268 11.9789 8.05627C11.9789 7.77986 12.0772 7.53636 12.2737 7.32577C12.4772 7.10859 12.7368 7 13.0526 7C13.3684 7 13.6035 7.09543 13.7579 7.28628C13.9193 7.47055 14 7.6976 14 7.96742Z" fill="white"/>
</svg>
