<svg width="36" height="36" viewBox="0 0 36 36" fill="none" xmlns="http://www.w3.org/2000/svg">
<path fill-rule="evenodd" clip-rule="evenodd" d="M18.0008 7.29443C10.269 7.29443 4 13.4369 4 21.0179C4.00121 23.6111 4.74264 26.1448 6.12921 28.2944H12.8817C11.8358 27.4905 10.9847 26.4409 10.3975 25.23C9.81006 24.0191 9.50273 22.6809 9.50026 21.3231C9.53102 18.9861 10.4401 16.7558 12.0308 15.1146C13.6216 13.4734 15.766 12.5533 18 12.5533C20.2342 12.5533 22.3786 13.4734 23.9691 15.1146C25.5599 16.7558 26.4689 18.9861 26.5 21.3231C26.4972 22.6809 26.1899 24.0191 25.6027 25.23C25.0152 26.4409 24.1644 27.4905 23.1183 28.2944H29.8718C31.2579 26.1447 31.9989 23.611 32 21.0179C31.9992 13.4369 25.7359 7.29443 18.0008 7.29443Z" fill="#EF4635"/>
<path fill-rule="evenodd" clip-rule="evenodd" d="M13.8008 23.8052C14.1085 24.8249 14.6965 25.7114 15.4813 26.3393C16.2664 26.9674 17.209 27.3052 18.1756 27.3052C19.1426 27.3052 20.0852 26.9674 20.8702 26.3393C21.655 25.7114 22.243 24.8249 22.5508 23.8052H13.8008Z" fill="#EF4635"/>
</svg>
