<svg width="36" height="36" viewBox="0 0 36 36" fill="none" xmlns="http://www.w3.org/2000/svg">
<rect x="0.5" y="0.5" width="35" height="35" rx="11.5" fill="#D0D6D8" stroke="#FF5721"/>
<rect x="15.1211" y="14.0693" width="4.7605" height="7.86014" fill="#D0D0D0"/>
<path d="M15.6113 17.9998C15.6101 16.4663 16.3065 15.0173 17.4998 14.0705C15.4725 12.4598 12.5613 12.6944 10.812 14.6094C9.06268 16.5243 9.06268 19.4767 10.812 21.3917C12.5613 23.3066 15.4725 23.5412 17.4998 21.9306C16.3061 20.9834 15.6097 19.5339 15.6113 17.9998Z" fill="#B1B1B1"/>
<path d="M25.5006 17.9998C25.5005 19.9136 24.4195 21.6594 22.7167 22.4957C21.0139 23.332 18.9883 23.112 17.5 21.9292C18.6928 20.9815 19.3893 19.5328 19.3893 17.9991C19.3893 16.4655 18.6928 15.0167 17.5 14.069C18.9883 12.8862 21.0139 12.6663 22.7167 13.5026C24.4195 14.3389 25.5005 16.0846 25.5006 17.9984V17.9998Z" fill="white"/>
</svg>
