<svg width="36" height="36" viewBox="0 0 36 36" fill="none" xmlns="http://www.w3.org/2000/svg">
<path d="M0 12C0 5.37258 5.37258 0 12 0H24C30.6274 0 36 5.37258 36 12V24C36 30.6274 30.6274 36 24 36H12C5.37258 36 0 30.6274 0 24V12Z" fill="#F3F3F3"/>
<path d="M12.75 12C12.75 11.3096 13.3096 10.75 14 10.75H22C22.6904 10.75 23.25 11.3096 23.25 12V13.5V26C23.25 26.6904 22.6904 27.25 22 27.25H14C13.3096 27.25 12.75 26.6904 12.75 26V12Z" stroke="#505C64" stroke-width="1.5"/>
<path d="M19 25.5L17 25.5" stroke="#505C64" stroke-width="0.7" stroke-linecap="round"/>
<path d="M23 11.5L22.6883 8.88179C22.6284 8.37878 22.2019 8 21.6953 8H14.3047C13.7981 8 13.3716 8.37878 13.3117 8.88179L13 11.5" stroke="#505C64" stroke-width="1.5"/>
<path d="M16 19L17.5 20L20 17" stroke="#505C64" stroke-linecap="round"/>
</svg>
