<svg width="36" height="36" viewBox="0 0 36 36" fill="none" xmlns="http://www.w3.org/2000/svg">
<path d="M23 21.75L23.5303 22.2803L24.0607 21.75L23.5303 21.2197L23 21.75ZM12.5 10C12.5 9.58579 12.1642 9.25 11.75 9.25C11.3358 9.25 11 9.58579 11 10L12.5 10ZM19.5303 17.2197C19.2374 16.9268 18.7626 16.9268 18.4697 17.2197C18.1768 17.5126 18.1768 17.9874 18.4697 18.2803L19.5303 17.2197ZM18.4697 25.2197C18.1768 25.5126 18.1768 25.9874 18.4697 26.2803C18.7626 26.5732 19.2374 26.5732 19.5303 26.2803L18.4697 25.2197ZM23.5303 21.2197L19.5303 17.2197L18.4697 18.2803L22.4697 22.2803L23.5303 21.2197ZM22.4697 21.2197L18.4697 25.2197L19.5303 26.2803L23.5303 22.2803L22.4697 21.2197ZM23 21L15.75 21L15.75 22.5L23 22.5L23 21ZM12.5 17.75L12.5 10L11 10L11 17.75L12.5 17.75ZM15.75 21C13.9551 21 12.5 19.5449 12.5 17.75L11 17.75C11 20.3734 13.1266 22.5 15.75 22.5L15.75 21Z" fill="#ACBBBE"/>
</svg>
