<svg width="36" height="36" viewBox="0 0 36 36" fill="none" xmlns="http://www.w3.org/2000/svg">
<path d="M18.6134 4H8C7.44772 4 7 4.44771 7 5V31C7 31.5523 7.44772 32 8 32H29C29.5523 32 30 31.5523 30 31V14.4424C30 14.1606 29.8811 13.892 29.6727 13.7024L19.2861 4.26006C19.102 4.09272 18.8622 4 18.6134 4Z" fill="#FFF0EF"/>
<path d="M19 12.65V4L30 14H20.35C19.6044 14 19 13.3956 19 12.65Z" fill="#FFCBC7"/>
<path d="M12.3728 26V20.96H14.5008C14.5498 20.96 14.6151 20.9623 14.6968 20.967C14.7808 20.9693 14.8555 20.9763 14.9208 20.988C15.2218 21.0347 15.468 21.1338 15.6593 21.2855C15.853 21.4372 15.9953 21.6285 16.0863 21.8595C16.1773 22.0882 16.2228 22.3437 16.2228 22.626C16.2228 22.9083 16.1761 23.165 16.0828 23.396C15.9918 23.6247 15.8495 23.8148 15.6558 23.9665C15.4645 24.1182 15.2195 24.2173 14.9208 24.264C14.8555 24.2733 14.7808 24.2803 14.6968 24.285C14.6128 24.2897 14.5475 24.292 14.5008 24.292H13.3248V26H12.3728ZM13.3248 23.403H14.4588C14.5078 23.403 14.5615 23.4007 14.6198 23.396C14.6781 23.3913 14.7318 23.382 14.7808 23.368C14.9091 23.333 15.0083 23.2747 15.0783 23.193C15.1483 23.109 15.1961 23.0168 15.2218 22.9165C15.2498 22.8138 15.2638 22.717 15.2638 22.626C15.2638 22.535 15.2498 22.4393 15.2218 22.339C15.1961 22.2363 15.1483 22.1442 15.0783 22.0625C15.0083 21.9785 14.9091 21.919 14.7808 21.884C14.7318 21.87 14.6781 21.8607 14.6198 21.856C14.5615 21.8513 14.5078 21.849 14.4588 21.849H13.3248V23.403ZM16.9255 26V20.96H18.5565C18.5962 20.96 18.6779 20.9612 18.8015 20.9635C18.9252 20.9658 19.0442 20.974 19.1585 20.988C19.5645 21.037 19.9087 21.1782 20.191 21.4115C20.4734 21.6448 20.688 21.9412 20.835 22.3005C20.982 22.6598 21.0555 23.053 21.0555 23.48C21.0555 23.907 20.982 24.3002 20.835 24.6595C20.688 25.0188 20.4734 25.3152 20.191 25.5485C19.9087 25.7818 19.5645 25.923 19.1585 25.972C19.0442 25.986 18.9252 25.9942 18.8015 25.9965C18.6779 25.9988 18.5962 26 18.5565 26H16.9255ZM17.8915 25.104H18.5565C18.6195 25.104 18.7047 25.1028 18.812 25.1005C18.9194 25.0958 19.0162 25.0853 19.1025 25.069C19.3219 25.0247 19.5004 24.922 19.638 24.761C19.778 24.6 19.8807 24.4063 19.946 24.18C20.0137 23.9537 20.0475 23.7203 20.0475 23.48C20.0475 23.228 20.0125 22.9888 19.9425 22.7625C19.8749 22.5362 19.771 22.3448 19.631 22.1885C19.491 22.0322 19.3149 21.933 19.1025 21.891C19.0162 21.8723 18.9194 21.8618 18.812 21.8595C18.7047 21.8572 18.6195 21.856 18.5565 21.856H17.8915V25.104ZM21.8953 26V20.96H24.9753V21.912H22.8473V23.004H24.5553V23.956H22.8473V26H21.8953Z" fill="#E14F48"/>
</svg>
