<svg width="36" height="36" viewBox="0 0 36 36" fill="none" xmlns="http://www.w3.org/2000/svg">
<rect width="36" height="36" rx="12" fill="#F3F3F3"/>
<path d="M12.3914 21.6804H9.95898C9.4067 21.6804 8.95898 21.2327 8.95898 20.6804V11.7773C8.95898 11.2251 9.4067 10.7773 9.95898 10.7773H23.405C23.9573 10.7773 24.405 11.2251 24.405 11.7773V14.866" stroke="#505C64" stroke-width="1.3"/>
<rect x="12.3355" y="15.0602" width="15.0546" height="10.5116" rx="1.35" stroke="#505C64" stroke-width="1.3"/>
<path fill-rule="evenodd" clip-rule="evenodd" d="M23.0435 23.1497C22.8024 23.3658 22.4837 23.4972 22.1344 23.4972C21.3817 23.4972 20.7715 22.8871 20.7715 22.1344C20.7715 21.3817 21.3817 20.7715 22.1344 20.7715C22.4837 20.7715 22.8024 20.9029 23.0435 21.119C23.2847 20.9029 23.6034 20.7715 23.9527 20.7715C24.7054 20.7715 25.3156 21.3817 25.3156 22.1344C25.3156 22.8871 24.7054 23.4972 23.9527 23.4972C23.6034 23.4972 23.2847 23.3658 23.0435 23.1497Z" fill="#505C64"/>
<path d="M8.95898 13.5039H24.405V15.0039H8.95898V13.5039Z" fill="#505C64"/>
</svg>
