<svg width="36" height="36" viewBox="0 0 36 36" fill="none" xmlns="http://www.w3.org/2000/svg">
<path d="M26.0009 21.6284C26.4648 21.8099 26.6464 22.5159 26.6867 22.8184C26.7674 23.3832 26.606 23.6051 26.4245 23.6051C26.243 23.6051 25.9807 23.3832 25.7185 22.9596C25.4563 22.5159 25.3353 22.0318 25.4765 21.7898C25.5572 21.6082 25.7589 21.5276 26.0009 21.6284ZM23.2376 23.6656C23.52 23.6656 23.8629 23.7866 24.1453 24.0488C24.71 24.5127 24.8714 25.0573 24.589 25.4607C24.4277 25.6624 24.1453 25.7834 23.8427 25.7834C23.5402 25.7834 23.2175 25.6826 22.9956 25.4809C22.4914 25.0371 22.3502 24.3312 22.6729 23.9278C22.7939 23.7664 22.9956 23.6656 23.2376 23.6656Z" fill="#FF8300"/>
<path d="M16.9058 28.9099C10.0278 28.9099 4.46094 23.343 4.46094 16.465C4.46094 9.58707 10.0278 4 16.9058 4C23.7837 4 29.3506 9.5669 29.3506 16.4449C29.3506 18.7846 28.7052 20.9629 27.5959 22.8387C27.5555 22.8992 27.4748 22.8791 27.4547 22.7984C27.0109 19.7326 25.1553 18.0584 22.4525 17.5542C22.2105 17.5139 22.1903 17.3727 22.4929 17.3323C23.3198 17.2517 24.5099 17.2718 25.115 17.3928C25.1553 17.0903 25.1755 16.7676 25.1755 16.4247C25.1755 11.8864 21.4844 8.19535 16.9461 8.19535C12.4079 8.19535 8.71679 11.8864 8.71679 16.4247C8.71679 20.9629 12.4079 24.654 16.9461 24.654H17.3092C17.1882 23.9279 17.1277 23.1816 17.1478 22.4353C17.168 21.9311 17.2688 21.8504 17.4907 22.2538C18.6404 24.2304 20.254 26.0054 23.4408 26.7114C26.0428 27.2963 28.6447 27.9619 31.4483 31.532C31.7105 31.8345 31.3273 32.1572 31.0247 31.9152C28.1606 29.3738 25.5587 28.5468 23.1988 28.5468C20.5565 28.567 18.7413 28.9099 16.9058 28.9099Z" fill="#FF8300"/>
</svg>
