<svg width="24" height="24" viewBox="0 0 24 24" fill="none" xmlns="http://www.w3.org/2000/svg">
<path d="M24 0H0V24H24V0Z" fill="white" fill-opacity="0.01"/>
<path d="M12 20C14.2091 20 16.2091 19.1046 17.6568 17.6568C19.1046 16.2091 20 14.2091 20 12C20 9.79088 19.1046 7.79088 17.6568 6.34314C16.2091 4.89543 14.2091 4 12 4C9.79088 4 7.79088 4.89543 6.34314 6.34314C4.89543 7.79088 4 9.79088 4 12C4 14.2091 4.89543 16.2091 6.34314 17.6568C7.79088 19.1046 9.79088 20 12 20Z" stroke="#88999C" stroke-width="1.5" stroke-linejoin="round"/>
<path d="M12 13.85V12.25C13.3255 12.25 14.4 11.1754 14.4 9.84995C14.4 8.52447 13.3255 7.44995 12 7.44995C10.6745 7.44995 9.59998 8.52447 9.59998 9.84995" stroke="#88999C" stroke-width="1.5" stroke-linecap="round" stroke-linejoin="round"/>
<path d="M12.75 16.45C12.75 16.8642 12.4142 17.2 12 17.2C11.5858 17.2 11.25 16.8642 11.25 16.45C11.25 16.0357 11.5858 15.7 12 15.7C12.4142 15.7 12.75 16.0357 12.75 16.45Z" fill="#88999C" stroke="#88999C" stroke-width="0.5"/>
</svg>
