<svg width="36" height="36" viewBox="0 0 36 36" fill="none" xmlns="http://www.w3.org/2000/svg">
<path fill-rule="evenodd" clip-rule="evenodd" d="M28.9366 25.0366C29.6411 24.0251 30.8732 22.1138 29.9839 21.7982C29.3377 21.3876 29.1334 20.6493 29.2728 19.6567C29.9206 19.6718 30.5259 19.1147 30.6302 18.4919C30.6869 18.156 30.6518 17.7718 30.5616 17.3928C30.4544 16.9432 30.2628 16.5569 30.0727 16.1735C29.8651 15.7548 29.6591 15.3395 29.5665 14.8489C29.483 14.4066 29.4226 13.6744 29.6694 13.2426C29.8759 12.8802 30.2441 12.6878 30.6414 12.8531C30.742 13.2932 31.0983 13.7219 31.5791 13.5785C31.7193 13.537 31.846 13.4404 31.9175 13.3007C32.2284 12.5957 31.5933 12.0718 31.1304 11.8604C30.3663 11.5117 29.445 11.7623 28.9277 12.4168C28.9366 11.9691 28.8256 11.5849 28.6005 11.2392C28.4968 11.0799 28.2017 10.6843 28.0049 10.6549C28.1897 9.97099 27.3228 9.53921 26.9263 10.082C26.8338 10.0352 26.3605 10.0004 26.2696 10.0185C26.1928 9.95967 26.0899 9.93929 25.9915 9.9725C25.8588 10.0178 25.6963 10.1627 25.6434 10.2918C25.4727 10.2858 25.3251 10.2979 25.223 10.3454C25.021 10.4398 24.9353 10.5862 25.0054 10.8021C24.7884 11.0338 24.7713 11.951 24.8794 12.065C25.0106 12.2024 25.4422 12.3005 25.6568 12.2869C25.6444 12.7938 25.5364 12.8131 25.3512 12.8462C25.2029 12.8727 25.0052 12.908 24.7676 13.2094C24.3024 13.1535 23.3252 12.3783 23.3669 12.1284C23.4273 11.7442 23.3565 11.3245 23.1493 10.9953C22.9771 10.7206 22.6707 10.4979 22.3375 10.519V8.29443H13.6625V10.5205C13.3293 10.4994 13.0229 10.7221 12.85 10.9969C12.6427 11.3267 12.5719 11.7464 12.6323 12.1299C12.6741 12.3798 11.6968 13.155 11.2317 13.2109C10.9944 12.9095 10.797 12.8742 10.649 12.8477C10.4642 12.8146 10.3563 12.7953 10.3439 12.2884C10.5578 12.302 10.9902 12.2039 11.1206 12.0665C11.2295 11.9533 11.2116 11.0354 10.9954 10.8036C11.0647 10.5877 10.9782 10.4413 10.777 10.3469C10.6749 10.2994 10.5273 10.2865 10.3566 10.2933C10.3037 10.1642 10.1404 10.0185 10.0085 9.97401C9.91008 9.94004 9.80721 9.96118 9.73043 10.0201C9.63875 10.0004 9.16542 10.0359 9.07373 10.0827C8.67643 9.53921 7.80952 9.97175 7.99438 10.6549C7.79759 10.6851 7.50315 11.0806 7.39954 11.2399C7.17443 11.5857 7.06336 11.9691 7.07231 12.4175C6.55499 11.7623 5.63292 11.5124 4.86962 11.8612C4.40672 12.0725 3.77164 12.5972 4.08247 13.3015C4.15329 13.4404 4.28075 13.537 4.42014 13.5785C4.90093 13.7219 5.25724 13.2932 5.35936 12.8531C5.75666 12.6878 6.12415 12.8802 6.33062 13.2426C6.57736 13.6751 6.51698 14.4066 6.43349 14.8489C6.34085 15.3397 6.13479 15.7553 5.92708 16.1743C5.73702 16.5576 5.54558 16.9438 5.43837 17.3928C5.34743 17.771 5.31389 18.1553 5.36979 18.4919C5.4749 19.1147 6.07942 19.6718 6.72718 19.6567C6.86657 20.6493 6.66308 21.3868 6.01606 21.7982C5.12903 22.113 6.35522 24.0191 7.06113 25.0313C6.34702 25.2118 5.6441 25.4088 4.9546 25.6232L5.74548 27.2944C9.47476 26.1116 13.6207 25.451 17.9911 25.451C22.3606 25.451 26.5074 26.1116 30.2359 27.2944L31.0275 25.6232C30.3425 25.411 29.6448 25.2155 28.9366 25.0366ZM22.1914 23.8915C20.8169 23.7669 19.414 23.702 17.9903 23.702C16.5733 23.702 15.1779 23.7662 13.8108 23.8892C13.8891 23.3548 13.9144 22.6633 11.9898 22.8913C11.2786 22.3953 11.0722 22.0579 12.5585 19.9934C13.0415 19.3457 12.5682 18.4685 11.1631 18.2315C10.794 18.1685 10.4484 18.17 10.0805 18.1716L10.0204 18.1719C10.0831 18.1486 10.1455 18.1262 10.2073 18.104C10.6746 17.9365 11.1102 17.7803 11.4143 17.3257C11.4255 17.309 11.4341 17.2899 11.4418 17.2729C11.4547 17.2444 11.465 17.2218 11.4799 17.226C12.1602 17.4601 12.6617 17.7032 13.3894 18.056L13.5693 18.1432C14.0292 18.7214 14.923 19.2717 15.6356 18.6014C16.3161 19.0536 17.1294 19.3178 18.0007 19.3178C18.8714 19.3178 19.6839 19.0536 20.3652 18.6006C21.0778 19.2732 21.9715 18.7222 22.4315 18.1432L22.6166 18.0536C23.3421 17.7021 23.8428 17.4596 24.5208 17.226C24.5358 17.2218 24.546 17.2444 24.5589 17.2729C24.5666 17.2899 24.5753 17.309 24.5864 17.3257C24.8904 17.7801 25.3263 17.9363 25.7935 18.1038C25.8555 18.1261 25.9182 18.1485 25.9811 18.1719L25.9209 18.1716C25.5523 18.17 25.2067 18.1685 24.8376 18.2315C23.4325 18.4685 22.9607 19.3449 23.443 19.9934C24.9286 22.0579 24.7228 22.3953 24.011 22.8913C22.0848 22.6626 22.1132 23.3563 22.1914 23.8915ZM20.5717 21.9228V21.2095H20.7357L20.7371 21.9228H20.5717ZM20.2765 21.9228V21.2095H20.4397L20.4412 21.9228H20.2765ZM19.9336 21.3363H19.4923V21.7884H19.9336V21.6699L20.0976 21.6692V21.753C20.0976 21.8179 20.0857 21.8624 20.0618 21.8866C20.0372 21.91 19.991 21.922 19.9232 21.922H19.5027C19.4357 21.922 19.3894 21.9092 19.3634 21.8866C19.3402 21.8617 19.3283 21.8179 19.3283 21.753V21.377C19.3283 21.3129 19.3402 21.2683 19.3634 21.2449C19.3887 21.2208 19.4349 21.2087 19.5027 21.2087H19.9232C19.991 21.2087 20.0372 21.2208 20.0618 21.2449C20.0857 21.2691 20.0976 21.3129 20.0976 21.377V21.445L19.9336 21.448V21.3363ZM18.3489 21.9228L18.6835 21.5567L18.3436 21.2095H18.5605L18.7857 21.4518L18.9996 21.2095H19.1882L18.8811 21.5371L19.2605 21.9228H19.0376L18.7797 21.6465L18.5427 21.9228H18.3489ZM17.2963 21.9228V21.2095H17.429L17.76 21.6405L18.085 21.2095H18.2162V21.9228H18.0649V21.482C18.0649 21.4691 18.0649 21.4586 18.0656 21.4503C18.0666 21.4432 18.0673 21.434 18.068 21.4233L18.0693 21.4065C18.0649 21.4148 18.0611 21.4231 18.0574 21.4306C18.0537 21.4382 18.0499 21.4457 18.0462 21.4518C18.038 21.4669 18.0321 21.4767 18.0283 21.4812L17.7637 21.8375H17.7309L17.467 21.4797C17.4588 21.4684 17.4506 21.4555 17.4424 21.4404C17.4335 21.4253 17.4275 21.4148 17.4245 21.4065C17.426 21.4216 17.4275 21.4352 17.429 21.448V21.482V21.9228H17.2963ZM16.9654 21.3363H16.5241V21.7884H16.9654V21.6699L17.1294 21.6692V21.753C17.1294 21.8179 17.1174 21.8624 17.0936 21.8866C17.069 21.91 17.0228 21.922 16.9549 21.922H16.5353C16.4674 21.922 16.4212 21.9092 16.3959 21.8866C16.372 21.8617 16.3608 21.8179 16.3608 21.753V21.377C16.3608 21.3129 16.3728 21.2683 16.3959 21.2449C16.4212 21.2208 16.4674 21.2087 16.5353 21.2087H16.9549C17.0228 21.2087 17.069 21.2208 17.0936 21.2449C17.1182 21.2691 17.1294 21.3129 17.1294 21.377V21.445L16.9654 21.448V21.3363ZM15.2621 21.9228V21.2095H15.3948L15.7258 21.6405L16.0508 21.2095H16.182V21.9228H16.0306V21.482C16.0306 21.4691 16.0306 21.4586 16.0314 21.4503C16.0321 21.4397 16.0336 21.4246 16.0351 21.4065C16.0321 21.4121 16.0294 21.4177 16.0268 21.423L16.0232 21.4306L16.0127 21.4518C16.0038 21.4669 15.9978 21.4767 15.9949 21.4812L15.731 21.8375H15.6982L15.4343 21.4797C15.4261 21.4684 15.4179 21.4555 15.4097 21.4404L15.4063 21.4348C15.3991 21.4226 15.3938 21.4137 15.3918 21.4065C15.3926 21.4216 15.3941 21.4352 15.3955 21.448V21.482V21.9228H15.2621ZM9.51501 24.4901C10.1732 24.3648 10.8403 24.2538 11.5149 24.158C10.9082 23.6703 10.3752 23.1578 9.963 22.6044C9.73789 22.3501 9.7841 22.0632 9.93989 21.762C10.4475 20.9407 10.1777 20.2915 9.51874 20.3444C9.77349 21.1033 9.06136 21.5138 8.37672 21.9084C7.54486 22.3879 6.75357 22.844 7.78641 23.8734C8.86129 23.5375 9.49116 23.8243 9.51501 24.4901ZM26.0363 22.6044C25.624 23.1593 25.0896 23.6726 24.4813 24.1602C25.1567 24.2568 25.8246 24.3678 26.4842 24.4939C26.5066 23.8258 27.1357 23.5375 28.2129 23.8734C29.2457 22.844 28.4544 22.3879 27.6225 21.9084C26.9379 21.5138 26.2258 21.1033 26.4805 20.3444C25.8223 20.2915 25.5525 20.9407 26.0594 21.762C26.2152 22.0632 26.2614 22.3501 26.0363 22.6044ZM28.4365 14.4979C28.5141 15.1455 28.8031 15.6729 29.1047 16.2236C29.1505 16.3072 29.1966 16.3913 29.2423 16.4764C29.4875 16.9324 29.7141 17.4079 29.776 17.8782C29.8088 18.1266 29.6068 18.5229 29.3198 18.5093C28.0503 18.4481 28.3589 14.9418 28.4365 14.4979ZM22.3368 14.9252V13.3853C22.462 13.4275 22.6014 13.429 22.7244 13.3815C22.7924 13.4905 22.856 13.6065 22.9202 13.7235C23.1488 14.1401 23.3843 14.5692 23.847 14.7425C23.7859 15.1162 23.7829 15.3117 23.841 15.7714C23.7992 15.9312 23.2389 16.2474 22.8505 16.4667C22.6993 16.552 22.5742 16.6226 22.5157 16.6636C22.4411 16.49 22.2883 16.3662 22.1057 16.333C22.2555 15.8907 22.3368 15.4174 22.3368 14.9252ZM13.8928 16.333C13.7564 15.9284 13.6766 15.4974 13.6647 15.0505V13.3837C13.5387 13.4275 13.3986 13.4298 13.2741 13.3815C13.2061 13.4905 13.1425 13.6065 13.0783 13.7235C12.8497 14.1401 12.6142 14.5692 12.1515 14.7425C12.2134 15.1169 12.2156 15.3117 12.1575 15.7714C12.1999 15.9306 12.7597 16.247 13.148 16.4664C13.2992 16.5519 13.4243 16.6226 13.4828 16.6636C13.5581 16.49 13.7102 16.3662 13.8928 16.333ZM6.89173 16.2296C7.19555 15.6768 7.48623 15.1478 7.56353 14.4979C7.64031 14.9418 7.94891 18.4481 6.68022 18.5093C6.39324 18.5229 6.19049 18.1266 6.22329 17.8782C6.28515 17.4079 6.51176 16.9324 6.757 16.4764C6.80176 16.3933 6.84689 16.3112 6.89173 16.2296ZM18.527 18.0632C19.183 17.9613 19.8061 17.6699 20.2765 17.1875C20.9086 16.5383 21.1784 15.6559 21.1784 14.7576V9.46297H18.524V9.07723H21.5921V14.7085C21.5921 15.7231 21.2873 16.7203 20.5724 17.454C20.0245 18.0164 19.2933 18.3493 18.527 18.4542V18.0632ZM18.5263 16.4281L18.527 18.4542C17.4111 18.6067 16.2215 18.273 15.4231 17.454C14.9565 16.9762 14.665 16.3851 14.5189 15.7503C14.4444 15.4204 14.4101 15.0784 14.4101 14.7342V9.07723H18.524L18.5233 10.6504C18.5233 12.299 18.2102 13.2675 16.5159 13.6736V13.7083C17.6131 13.9122 18.5263 14.4051 18.5263 16.4281ZM14.0672 14.7357V8.70433H21.9291V14.7357C21.9291 15.9661 21.5198 17.0011 20.8132 17.7265C19.3365 19.2408 16.6598 19.2408 15.1838 17.7265C14.4772 17.0011 14.0672 15.9669 14.0672 14.7357Z" fill="black"/>
</svg>
