<svg width="107" height="32" viewBox="0 0 107 32" fill="none" xmlns="http://www.w3.org/2000/svg">
<path d="M0 16C0 7.16344 7.16344 0 16 0H91C99.8366 0 107 7.16344 107 16C107 24.8366 99.8366 32 91 32H16C7.16345 32 0 24.8366 0 16Z" fill="#FFEBEA" fill-opacity="0.5"/>
<path d="M20 12L12 20M12 12L20 20" stroke="#FF5721" stroke-width="1.5" stroke-linecap="round" stroke-linejoin="round"/>
<path d="M36.446 20.68C35.598 20.68 34.866 20.492 34.25 20.116C33.634 19.74 33.164 19.214 32.84 18.538C32.52 17.858 32.36 17.072 32.36 16.18C32.36 15.288 32.52 14.504 32.84 13.828C33.164 13.148 33.634 12.62 34.25 12.244C34.866 11.868 35.598 11.68 36.446 11.68C37.294 11.68 38.024 11.868 38.636 12.244C39.252 12.62 39.72 13.148 40.04 13.828C40.364 14.504 40.526 15.288 40.526 16.18C40.526 17.072 40.364 17.858 40.04 18.538C39.72 19.214 39.252 19.74 38.636 20.116C38.024 20.492 37.294 20.68 36.446 20.68ZM36.482 19.486C37.074 19.486 37.572 19.35 37.976 19.078C38.384 18.802 38.688 18.416 38.888 17.92C39.092 17.424 39.194 16.844 39.194 16.18C39.194 15.508 39.09 14.924 38.882 14.428C38.674 13.932 38.362 13.55 37.946 13.282C37.53 13.01 37.018 12.874 36.41 12.874C35.814 12.874 35.312 13.012 34.904 13.288C34.5 13.564 34.196 13.952 33.992 14.452C33.792 14.948 33.692 15.53 33.692 16.198C33.692 16.866 33.796 17.446 34.004 17.938C34.216 18.43 34.53 18.812 34.946 19.084C35.362 19.352 35.874 19.486 36.482 19.486ZM44.7708 20.5H43.5168V15.148H41.3028V14.02H46.9848V15.148H44.7708V20.5ZM49.5161 20.5H48.2381L48.2441 14.02H49.5161V17.14L52.0601 14.02H53.6561L50.9681 17.26L53.9321 20.5H52.2281L49.5161 17.38V20.5ZM53.9398 19.438C54.0518 19.458 54.1418 19.468 54.2098 19.468C54.3658 19.468 54.4898 19.432 54.5818 19.36C54.6738 19.288 54.7438 19.184 54.7918 19.048C54.8398 18.912 54.8858 18.726 54.9298 18.49C55.0218 17.978 55.0998 17.356 55.1638 16.624C55.2318 15.892 55.2938 15.024 55.3498 14.02H60.0058V20.5H58.7458V15.202H56.4778C56.3378 17.038 56.1978 18.31 56.0578 19.018C55.9538 19.566 55.7958 19.964 55.5838 20.212C55.3718 20.46 55.0578 20.584 54.6418 20.584C54.4218 20.584 54.1878 20.556 53.9398 20.5V19.438ZM64.6223 20.68C63.9863 20.68 63.4283 20.536 62.9483 20.248C62.4683 19.956 62.0983 19.552 61.8383 19.036C61.5783 18.516 61.4483 17.922 61.4483 17.254C61.4483 16.582 61.5803 15.988 61.8443 15.472C62.1083 14.956 62.4803 14.556 62.9603 14.272C63.4403 13.984 63.9943 13.84 64.6223 13.84C65.2583 13.84 65.8163 13.984 66.2963 14.272C66.7803 14.56 67.1523 14.964 67.4123 15.484C67.6723 16 67.8023 16.59 67.8023 17.254C67.8023 17.926 67.6703 18.522 67.4063 19.042C67.1463 19.558 66.7763 19.96 66.2963 20.248C65.8163 20.536 65.2583 20.68 64.6223 20.68ZM64.6223 19.498C65.2223 19.498 65.6803 19.296 65.9963 18.892C66.3123 18.484 66.4703 17.938 66.4703 17.254C66.4703 16.562 66.3123 16.018 65.9963 15.622C65.6803 15.222 65.2223 15.022 64.6223 15.022C64.0143 15.022 63.5543 15.222 63.2423 15.622C62.9343 16.022 62.7803 16.566 62.7803 17.254C62.7803 17.95 62.9383 18.498 63.2543 18.898C63.5703 19.298 64.0263 19.498 64.6223 19.498ZM70.4888 20.5H69.2348V14.02H70.4888V16.666H73.6508V14.02H74.9048V20.5H73.6508V17.848H70.4888V20.5ZM77.6924 17.614C77.7444 18.218 77.9264 18.684 78.2384 19.012C78.5504 19.336 78.9784 19.498 79.5224 19.498C79.9104 19.498 80.2484 19.41 80.5364 19.234C80.8244 19.058 81.0484 18.802 81.2084 18.466L82.4384 18.856C82.1904 19.428 81.8104 19.876 81.2984 20.2C80.7864 20.52 80.2144 20.68 79.5824 20.68C78.9424 20.68 78.3784 20.54 77.8904 20.26C77.4024 19.976 77.0224 19.58 76.7504 19.072C76.4824 18.56 76.3484 17.974 76.3484 17.314C76.3484 16.614 76.4804 16.002 76.7444 15.478C77.0084 14.954 77.3804 14.55 77.8604 14.266C78.3404 13.982 78.8944 13.84 79.5224 13.84C80.1424 13.84 80.6784 13.978 81.1304 14.254C81.5824 14.53 81.9284 14.926 82.1684 15.442C82.4124 15.954 82.5344 16.56 82.5344 17.26C82.5344 17.336 82.5304 17.454 82.5224 17.614H77.6924ZM79.5704 14.95C79.0384 14.95 78.6164 15.094 78.3044 15.382C77.9964 15.666 77.8024 16.084 77.7224 16.636H81.2384C81.1704 16.064 80.9984 15.64 80.7224 15.364C80.4504 15.088 80.0664 14.95 79.5704 14.95ZM85.2366 20.5H83.9826V14.02H85.2366V16.666H88.3986V14.02H89.6526V20.5H88.3986V17.848H85.2366V20.5ZM94.2702 20.68C93.6342 20.68 93.0762 20.536 92.5962 20.248C92.1162 19.956 91.7462 19.552 91.4862 19.036C91.2262 18.516 91.0962 17.922 91.0962 17.254C91.0962 16.582 91.2282 15.988 91.4922 15.472C91.7562 14.956 92.1282 14.556 92.6082 14.272C93.0882 13.984 93.6422 13.84 94.2702 13.84C94.9062 13.84 95.4642 13.984 95.9442 14.272C96.4282 14.56 96.8002 14.964 97.0602 15.484C97.3202 16 97.4502 16.59 97.4502 17.254C97.4502 17.926 97.3182 18.522 97.0542 19.042C96.7942 19.558 96.4242 19.96 95.9442 20.248C95.4642 20.536 94.9062 20.68 94.2702 20.68ZM94.2702 19.498C94.8702 19.498 95.3282 19.296 95.6442 18.892C95.9602 18.484 96.1182 17.938 96.1182 17.254C96.1182 16.562 95.9602 16.018 95.6442 15.622C95.3282 15.222 94.8702 15.022 94.2702 15.022C93.6622 15.022 93.2022 15.222 92.8902 15.622C92.5822 16.022 92.4282 16.566 92.4282 17.254C92.4282 17.95 92.5862 18.498 92.9022 18.898C93.2182 19.298 93.6742 19.498 94.2702 19.498Z" fill="#FF5721"/>
</svg>
