<svg width="36" height="36" viewBox="0 0 36 36" fill="none" xmlns="http://www.w3.org/2000/svg">
<rect x="0.5" y="0.5" width="35" height="35" rx="11.5" fill="#D0D6D8" stroke="#FF5721"/>
<path d="M19.4831 19.66C19.6431 19.66 20.1031 19.64 20.6031 19.58C23.0031 19.2 24.2031 17.54 24.2031 15.2C24.2031 12.88 23.0031 11.06 20.6031 10.68C20.1031 10.6 19.6431 10.6 19.4831 10.6H14.0631V17.84H12.6031V19.66H14.0631V21.2H12.6031V22.88H14.0631V25H16.1631V22.88H20.8631V21.2H16.1631V19.66H19.4831ZM16.1631 12.58H19.4031C19.5831 12.58 19.9831 12.58 20.3231 12.66C21.6031 12.98 22.0831 14.16 22.0831 15.26C22.0831 16.44 21.5431 17.42 20.3231 17.74C19.9431 17.84 19.6231 17.84 19.4031 17.84H16.1631V12.58Z" fill="white"/>
</svg>
