<svg width="36" height="36" viewBox="0 0 36 36" fill="none" xmlns="http://www.w3.org/2000/svg">
<rect width="36" height="36" rx="12" fill="#D9B681"/>
<path d="M19.4835 19.6596C19.6435 19.6596 20.1035 19.6396 20.6035 19.5796C23.0035 19.1996 24.2035 17.5396 24.2035 15.1996C24.2035 12.8796 23.0035 11.0596 20.6035 10.6796C20.1035 10.5996 19.6435 10.5996 19.4835 10.5996H14.0635V17.8396H12.6035V19.6596H14.0635V21.1996H12.6035V22.8796H14.0635V24.9996H16.1635V22.8796H20.8635V21.1996H16.1635V19.6596H19.4835ZM16.1635 12.5796H19.4035C19.5835 12.5796 19.9835 12.5796 20.3235 12.6596C21.6035 12.9796 22.0835 14.1596 22.0835 15.2596C22.0835 16.4396 21.5435 17.4196 20.3235 17.7396C19.9435 17.8396 19.6235 17.8396 19.4035 17.8396H16.1635V12.5796Z" fill="white"/>
</svg>
