<svg width="36" height="36" viewBox="0 0 36 36" fill="none" xmlns="http://www.w3.org/2000/svg">
<path d="M29.7226 9.24735C29.4175 8.82954 29.1157 8.41172 28.8499 7.99062L12.537 17.3865L4.66276 12.8596C4.48231 13.3465 4.37075 13.8598 4.33466 14.3796L12.6125 19.1861L29.7226 9.24735Z" fill="#2F9A41"/>
<path d="M12.537 20.9231L4.07876 16.0541C4.01642 16.3535 3.99017 16.6594 4.0033 16.9654C4.0033 24.7163 10.2699 31 17.9998 31C25.7297 31 31.9996 24.7163 31.9996 16.9654C32.016 14.7447 31.4944 12.5537 30.4838 10.5765L12.537 20.9231Z" fill="#2F9A41"/>
<path d="M27.7114 6.81286C27.3111 6.43453 26.8944 6.07922 26.458 5.74694L12.537 13.8499L5.82416 10.0073C5.59778 10.4251 5.36811 10.8824 5.10235 11.3759L12.4615 15.6363L27.7114 6.81286Z" fill="#2F9A41"/>
<path d="M25.0932 4.83563C24.5649 4.5198 24.017 4.24016 23.4527 4L12.537 10.3034L7.64509 7.53662C7.31699 7.8656 6.9889 8.29658 6.6608 8.71439L12.5009 12.0635L25.0932 4.83563Z" fill="#2F9A41"/>
</svg>
