<svg width="36" height="36" viewBox="0 0 36 36" fill="none" xmlns="http://www.w3.org/2000/svg">
<rect width="36" height="36" rx="12" fill="#D0D6D8"/>
<path d="M10.7784 25H12.9184V19.8L17.4384 25H20.2784L15.3384 19.6L19.8184 14.2H17.1584L12.9184 19.4V10.6H10.7984L10.7784 25ZM24.1467 14.82C23.7467 15.08 23.4067 15.48 23.1467 15.92V14.2H21.2867V25H23.3867V19.54C23.3867 18.28 23.7467 17.14 24.7667 16.5C25.4667 16.02 26.4067 15.98 27.1067 16.16V14.2C26.1467 14.02 24.9667 14.2 24.1467 14.82Z" fill="white"/>
<path d="M9.39844 27H27.6067V28H9.39844V27Z" fill="white"/>
</svg>
