<svg width="36" height="36" viewBox="0 0 36 36" fill="none" xmlns="http://www.w3.org/2000/svg">
<rect width="36" height="36" rx="12" fill="#E9EFF0"/>
<path d="M11.9568 19.125L12.4312 18.4098L12.9133 19.125L13.5714 18.6678L12.9975 18.0116L13.8698 17.7904L13.6173 17.0383L12.7832 17.3701L12.8444 16.5H12.0256L12.0792 17.3701L11.2528 17.0383L11.0002 17.7904L11.8649 18.0116L11.291 18.6678L11.9568 19.125Z" fill="#88999C"/>
<path d="M15.6669 19.125L16.1413 18.4098L16.6234 19.125L17.2815 18.6678L16.7076 18.0116L17.58 17.7904L17.3274 17.0383L16.4934 17.3701L16.5546 16.5H15.7358L15.7893 17.3701L14.9629 17.0383L14.7104 17.7904L15.5751 18.0116L15.0012 18.6678L15.6669 19.125Z" fill="#88999C"/>
<path d="M19.377 19.125L19.8515 18.4098L20.3336 19.125L20.9917 18.6678L20.4178 18.0116L21.2901 17.7904L21.0376 17.0383L20.2035 17.3701L20.2647 16.5H19.4459L19.4995 17.3701L18.673 17.0383L18.4205 17.7904L19.2852 18.0116L18.7113 18.6678L19.377 19.125Z" fill="#88999C"/>
<path d="M23.0872 19.125L23.5616 18.4098L24.0437 19.125L24.7018 18.6678L24.1279 18.0116L25.0002 17.7904L24.7477 17.0383L23.9136 17.3701L23.9748 16.5H23.1561L23.2096 17.3701L22.3832 17.0383L22.1307 17.7904L22.9954 18.0116L22.4214 18.6678L23.0872 19.125Z" fill="#88999C"/>
<rect x="7.75" y="12.75" width="20.5" height="10.5" rx="5.25" stroke="#88999C" stroke-width="1.5"/>
</svg>
