<svg width="36" height="36" viewBox="0 0 36 36" fill="none" xmlns="http://www.w3.org/2000/svg">
<rect width="36" height="36" rx="12" fill="#FCE2D3"/>
<path fill-rule="evenodd" clip-rule="evenodd" d="M15.6224 11.5601C15.0355 11.9702 14.6667 12.5601 14.6667 13.3781V14.1941V14.5434H13.1667V14.1941V13.3781C13.1667 12.019 13.8186 10.9907 14.7631 10.3306C15.6836 9.68719 16.8663 9.39823 18.0054 9.40642C19.1449 9.41461 20.3232 9.7206 21.2389 10.365C22.1755 11.0241 22.8333 12.0418 22.8333 13.3781V13.3918V13.4053V13.4187V13.4321V13.4454V13.4586V13.4717V13.4847V13.4976V13.5104V13.5232V13.5359V13.5484V13.5609V13.5733V13.5857V13.5979V13.61V13.6221V13.6341V13.646V13.6578V13.6696V13.6812V13.6928V13.7043V13.7157V13.727V13.7382V13.7494V13.7605V13.7715V13.7824V13.7932V13.804V13.8147V13.8252V13.8358V13.8462V13.8566V13.8668V13.877V13.8872V13.8972V13.9072V13.9171V13.9269V13.9366V13.9463V13.9559V13.9654V13.9748V13.9842V13.9934V14.0027V14.0118V14.0208V14.0298V14.0387V14.0476V14.0563V14.065V14.0736V14.0822V14.0907V14.0991V14.1074V14.1156V14.1238V14.1319V14.14V14.148V14.1559V14.1637V14.1715V14.1792V14.1868V14.1943V14.2018V14.2092V14.2166V14.2239V14.2311V14.2382V14.2453V14.2523V14.2593V14.2662V14.273V14.2797V14.2864V14.293V14.2996V14.3061V14.3125V14.3188V14.3251V14.3314V14.3375V14.3436V14.3497V14.3557V14.3616V14.3674V14.3732V14.379V14.3846V14.3902V14.3958V14.4013V14.4067V14.4121V14.4174V14.4226V14.4278V14.4329V14.438V14.443V14.448V14.4529V14.4577V14.4625V14.4672V14.4719V14.4765V14.4781V14.4781V14.4781V14.4782V14.4782V14.4782V14.4783V14.4783V14.4784V14.4785V14.4786V14.4786V14.4787V14.4788V14.4789V14.479V14.4792V14.4793V14.4795V14.4795V14.4798V14.4798V14.4801V14.4801V14.4805V14.4808V14.4809V14.481V14.4812V14.4813V14.4816V14.4817V14.4821V14.4822V14.4825V14.4828V14.483V14.4833V14.4835V14.4839V14.484V14.4845V14.4846V14.4852V14.4852V14.4855V14.4858V14.4859V14.4864V14.4866V14.487V14.4874V14.4877V14.4881V14.4884V14.489V14.4891V14.4898V14.4898V14.49V14.4905V14.4907V14.4913V14.4917V14.4921V14.4926V14.4929V14.4937V14.4937V14.4944V14.4945V14.4947V14.4954V14.4958V14.4963V14.4969V14.4972V14.498V14.4981V14.4987V14.499V14.4992V14.5V14.5005V14.5009V14.5017V14.5019V14.5029V14.503V14.503V14.5039V14.5044V14.505V14.5058V14.506V14.5071V14.5072V14.5081V14.5087V14.5092V14.5102V14.5103V14.5114V14.5115V14.5117V14.5126V14.5133V14.5138V14.5149V14.5149V14.5155V14.5161V14.5166V14.5173V14.5183V14.5185V14.5195V14.5197V14.52V14.5209V14.5218V14.5222V14.5234V14.5235V14.5236V14.5247V14.5255V14.526V14.5273V14.5274V14.5275V14.5286V14.5294V14.5299V14.5312V14.5313V14.5314V14.5325V14.5334V14.5339V14.5352V14.5355V14.5366V14.5376V14.5379V14.539V14.5393V14.5398V14.5407V14.542V14.5421V14.5427V14.5435V14.5442V14.5449V14.5449H23.8333C24.4777 14.5449 25 15.0673 25 15.7116V25.0449C25 25.6893 24.4777 26.2116 23.8333 26.2116H12.1667C11.5223 26.2116 11 25.6893 11 25.0449V15.7116C11 15.0673 11.5223 14.5449 12.1667 14.5449H21.3333V14.5449V14.5442V14.5435V14.5427V14.5421V14.542V14.5407V14.5398V14.5393V14.539V14.5379V14.5376V14.5366V14.5355V14.5352V14.5339V14.5334V14.5325V14.5314V14.5313V14.5312V14.5299V14.5294V14.5286V14.5275V14.5274V14.5273V14.526V14.5255V14.5247V14.5236V14.5235V14.5234V14.5222V14.5218V14.5209V14.52V14.5197V14.5195V14.5185V14.5183V14.5173V14.5166V14.5161V14.5155V14.5149V14.5149V14.5138V14.5133V14.5126V14.5117V14.5115V14.5114V14.5103V14.5102V14.5092V14.5087V14.5081V14.5072V14.5071V14.506V14.5058V14.505V14.5044V14.5039V14.503V14.503V14.5029V14.5019V14.5017V14.5009V14.5005V14.5V14.4992V14.499V14.4987V14.4981V14.498V14.4972V14.4969V14.4963V14.4958V14.4954V14.4947V14.4945V14.4944V14.4937V14.4937V14.4929V14.4926V14.4921V14.4917V14.4913V14.4907V14.4905V14.49V14.4898V14.4898V14.4891V14.489V14.4884V14.4881V14.4877V14.4874V14.487V14.4866V14.4864V14.4859V14.4858V14.4855V14.4852V14.4852V14.4846V14.4845V14.484V14.4839V14.4835V14.4833V14.483V14.4828V14.4825V14.4822V14.4821V14.4817V14.4816V14.4813V14.4812V14.481V14.4809V14.4808V14.4805V14.4801V14.4801V14.4798V14.4798V14.4795V14.4795V14.4793V14.4792V14.479V14.4789V14.4788V14.4787V14.4786V14.4786V14.4785V14.4784V14.4783V14.4783V14.4782V14.4782V14.4782V14.4781V14.4781V14.4781V14.4765V14.4719V14.4672V14.4625V14.4577V14.4529V14.448V14.443V14.438V14.4329V14.4278V14.4226V14.4174V14.4121V14.4067V14.4013V14.3958V14.3902V14.3846V14.379V14.3732V14.3674V14.3616V14.3557V14.3497V14.3436V14.3375V14.3314V14.3251V14.3188V14.3125V14.3061V14.2996V14.293V14.2864V14.2797V14.273V14.2662V14.2593V14.2523V14.2453V14.2382V14.2311V14.2239V14.2166V14.2092V14.2018V14.1943V14.1868V14.1792V14.1715V14.1637V14.1559V14.148V14.14V14.1319V14.1238V14.1156V14.1074V14.0991V14.0907V14.0822V14.0736V14.065V14.0563V14.0476V14.0387V14.0298V14.0208V14.0118V14.0027V13.9934V13.9842V13.9748V13.9654V13.9559V13.9463V13.9366V13.9269V13.9171V13.9072V13.8972V13.8872V13.877V13.8668V13.8566V13.8462V13.8358V13.8252V13.8147V13.804V13.7932V13.7824V13.7715V13.7605V13.7494V13.7382V13.727V13.7157V13.7043V13.6928V13.6812V13.6696V13.6578V13.646V13.6341V13.6221V13.61V13.5979V13.5857V13.5733V13.5609V13.5484V13.5359V13.5232V13.5104V13.4976V13.4847V13.4717V13.4586V13.4454V13.4321V13.4187V13.4053V13.3918V13.3781C21.3333 12.596 20.9703 12.0101 20.3757 11.5917C19.7601 11.1585 18.8968 10.9129 17.9946 10.9064C17.0921 10.8999 16.2331 11.1332 15.6224 11.5601ZM12.5 16.0449V24.7116H23.5V16.0449H12.5ZM18.75 19.2116C18.75 18.7974 18.4142 18.4616 18 18.4616C17.5858 18.4616 17.25 18.7974 17.25 19.2116V21.5449C17.25 21.9591 17.5858 22.2949 18 22.2949C18.4142 22.2949 18.75 21.9591 18.75 21.5449V19.2116Z" fill="#FF5721"/>
</svg>
