<svg width="36" height="36" viewBox="0 0 36 36" fill="none" xmlns="http://www.w3.org/2000/svg">
<path d="M17.3783 4.21045C9.7511 4.55223 3.85975 11.0198 4.20166 18.618C4.54357 26.2424 11.0135 32.1316 18.6144 31.7898C26.2416 31.448 32.133 24.9804 31.7911 17.3823C31.4491 9.9682 25.3474 4.21045 18.0095 4.21045C17.7991 4.21045 17.5887 4.21045 17.3783 4.21045Z" fill="url(#paint0_radial_6799_343256)"/>
<path d="M17.745 4.02629C17.6135 4.02629 17.482 4.02629 17.3768 4.02629C9.64443 4.39437 3.64788 10.9146 4.01609 18.6441C4.358 26.1108 10.4861 31.9474 17.8765 32H18.1132C18.2974 32 18.4552 32 18.6393 31.9737C26.0823 31.6319 31.8948 25.5587 32 18.1972V17.8028C32 17.6451 32 17.5136 31.9737 17.3559C31.6318 9.94178 25.5826 4.13146 18.2711 4H17.745V4.02629ZM19.0338 30.3174C19.0338 30.0019 19.4809 29.923 19.4809 29.923C23.6101 29.108 22.4003 26.4 20.9537 25.0066C20.3488 24.4282 14.5627 19.4592 14.5627 19.4592C9.06582 14.7268 9.51293 11.046 9.51293 11.046C9.77594 6.49765 13.7473 5.36714 16.7719 5.63005C17.1138 5.65634 17.3242 5.86667 17.2453 6.18216C17.1664 6.49765 16.7193 6.52394 16.7193 6.52394C15.7725 6.57653 14.9046 6.68169 14.247 7.12864C11.8274 8.75869 12.5375 11.5455 15.7725 14.6216C16.167 15.016 16.6141 15.4103 17.0612 15.831C17.0612 15.831 17.7187 16.4094 19.0075 17.6451C21.506 19.9324 22.8474 21.1681 22.8474 21.1681C27.2396 24.8225 25.7404 28.1615 24.0572 29.3183C22.7685 30.2122 21.3745 30.6066 19.5072 30.7117H19.4546C19.2968 30.6854 19.0338 30.5803 19.0338 30.3174ZM20.0595 16.83C18.6393 16.5408 18.35 15.2526 18.35 15.2526C18.2448 14.8056 18.1921 14.2272 18.2974 13.4911C18.4815 11.9662 18.9023 11.2563 19.3757 10.0732C20.0069 8.46948 18.4815 7.5493 18.7182 6.97089C19.0601 6.18216 20.1647 7.18122 21.4008 7.2601C22.4529 7.31268 23.0841 7.26009 23.8994 7.36526C24.9777 7.52301 26.2928 7.89108 26.8714 8.54836C27.3974 9.17934 26.5821 9.94178 25.6089 9.44225C24.8988 9.10047 24.0046 9.3108 24.5306 10.0469C25.1618 10.7568 25.4774 10.7831 26.1087 10.9408C27.8971 11.4141 27.9234 13.123 26.7136 13.9906C25.3459 14.9897 23.952 14.569 23.3997 12.5972C23.1104 11.6244 22.4266 11.1249 21.7164 11.3878C21.0063 11.677 21.4271 12.9653 21.9794 14.1484C22.9263 16.5408 21.0326 16.7775 20.2962 16.7775C20.1647 16.8563 20.0858 16.8563 20.0595 16.83ZM14.8257 29.8704C13.2739 29.7127 11.4329 29.2394 9.82854 27.846C8.3557 26.5577 7.43518 24.7962 6.98807 23.2714C6.54095 21.6939 6.33055 19.8535 7.09327 19.985C7.32997 20.0376 7.72448 21.0366 8.1716 21.7991C8.61871 22.5615 8.98692 22.9822 9.32883 23.2451C9.48663 23.3502 10.0126 22.1934 10.7754 21.5099C11.2225 21.1418 11.7222 21.0103 11.8011 22.1146C11.9063 23.4554 11.6433 25.0591 12.0378 25.0591C12.406 25.0591 13.2476 24.77 15.0624 24.6385C15.7462 24.5859 16.1407 24.7174 15.4832 25.6376C15.1676 26.0845 14.7205 26.7418 13.6947 27.4779C15.2465 28.9239 17.1138 28.7662 17.1401 29.3709C17.1664 29.739 16.4563 29.923 15.5621 29.923C15.2991 29.923 15.0624 29.8967 14.8257 29.8704Z" fill="url(#paint1_radial_6799_343256)"/>
<defs>
<radialGradient id="paint0_radial_6799_343256" cx="0" cy="0" r="1" gradientUnits="userSpaceOnUse" gradientTransform="translate(20.708 14.4584) scale(13.1128 13.108)">
<stop stop-color="white"/>
<stop offset="1" stop-color="#CF9C51"/>
</radialGradient>
<radialGradient id="paint1_radial_6799_343256" cx="0" cy="0" r="1" gradientUnits="userSpaceOnUse" gradientTransform="translate(20.3306 14.4718) scale(29.323 29.3123)">
<stop stop-color="#00C0F3"/>
<stop offset="0.2191" stop-color="#0097D6"/>
<stop offset="0.573" stop-color="#0066B3"/>
<stop offset="1" stop-color="#0066B3"/>
</radialGradient>
</defs>
</svg>
