<svg width="40" height="40" viewBox="0 0 40 40" fill="none" xmlns="http://www.w3.org/2000/svg">
<rect width="40" height="40" rx="12" fill="#E9EFF0"/>
<path d="M20.6696 8.66992C20.0751 10.4121 18.1818 11.3433 16.4385 10.7488" stroke="#829199" stroke-width="1.5" stroke-linecap="round" stroke-linejoin="round"/>
<path d="M28.0063 14.694C26.2641 14.0996 25.333 12.2062 25.9275 10.4629" stroke="#829199" stroke-width="1.5" stroke-linecap="round" stroke-linejoin="round"/>
<path d="M17.2227 17.721C17.2227 15.8921 18.7271 14.3877 20.556 14.3877C22.3849 14.3877 23.8893 15.8921 23.8893 17.721" stroke="#829199" stroke-width="1.5" stroke-linecap="round" stroke-linejoin="round"/>
<path d="M13.8896 18.2771L17.1933 8.54216C17.371 8.01861 17.9398 7.73858 18.4631 7.91707L28.1311 11.2146C28.6559 11.3936 28.9349 11.9655 28.7529 12.4893L26.7419 18.2771" stroke="#829199" stroke-width="1.5" stroke-linecap="round" stroke-linejoin="round"/>
<path d="M28.8889 26.1725V28.9436C28.8889 29.4959 28.4412 29.9436 27.8889 29.9436L11 29.9436C10.4477 29.9436 10 29.4959 10 28.9436L10 18.2769V17.0547C10 16.5024 10.4477 16.0547 11 16.0547H14.4444" stroke="#829199" stroke-width="1.5" stroke-linecap="round" stroke-linejoin="round"/>
<path d="M10 18.2764L27.8889 18.2764C28.4412 18.2764 28.8889 18.7241 28.8889 19.2764V22.573" stroke="#829199" stroke-width="1.5" stroke-linecap="round" stroke-linejoin="round"/>
<path fill-rule="evenodd" clip-rule="evenodd" d="M25 24.1106V24.1106C25 24.8772 25.6222 25.4995 26.3889 25.4995H29.4444V22.7217H26.3889C25.6222 22.7217 25 23.3439 25 24.1106Z" stroke="#829199" stroke-width="1.5" stroke-linecap="round" stroke-linejoin="round"/>
</svg>
