<svg width="36" height="36" viewBox="0 0 36 36" fill="none" xmlns="http://www.w3.org/2000/svg">
<mask id="mask0_1179_107240" style="mask-type:alpha" maskUnits="userSpaceOnUse" x="0" y="0" width="36" height="36">
<rect width="36" height="36" rx="12" fill="#E0E6EF"/>
</mask>
<g mask="url(#mask0_1179_107240)">
<mask id="mask1_1179_107240" style="mask-type:alpha" maskUnits="userSpaceOnUse" x="-7" y="0" width="51" height="36">
<rect x="-6.34961" y="0.25" width="49.7" height="35.3571" rx="1.75" fill="white" stroke="white" stroke-width="0.5"/>
</mask>
<g mask="url(#mask1_1179_107240)">
<path fill-rule="evenodd" clip-rule="evenodd" d="M-6.59961 11.9524H43.6004V0H-6.59961V11.9524Z" fill="#D9101C"/>
<path fill-rule="evenodd" clip-rule="evenodd" d="M-6.59961 35.8567H43.6004V23.9043H-6.59961V35.8567Z" fill="#0F7811"/>
<path fill-rule="evenodd" clip-rule="evenodd" d="M17.3045 15.538C17.3045 16.1981 16.7694 16.7332 16.1093 16.7332C15.4492 16.7332 14.9141 16.1981 14.9141 15.538C14.9141 14.8779 15.4492 14.3428 16.1093 14.3428C16.7694 14.3428 17.3045 14.8779 17.3045 15.538ZM19.6952 17.9286C19.6952 18.1449 19.6377 18.6041 19.5373 19.124H21.4188C21.787 19.124 22.0855 19.4225 22.0855 19.7907V20.8478C22.0855 21.216 21.787 21.5145 21.4188 21.5145H15.5807C15.2125 21.5145 14.9141 21.216 14.9141 20.8478V19.7907C14.9141 19.4225 15.2125 19.124 15.5807 19.124H17.4625C17.3621 18.6041 17.3047 18.1449 17.3047 17.9286C17.3047 17.2685 17.8398 16.7334 18.4999 16.7334C19.16 16.7334 19.6952 17.2685 19.6952 17.9286ZM22.0858 15.538C22.0858 16.1981 21.5507 16.7332 20.8905 16.7332C20.2304 16.7332 19.6953 16.1981 19.6953 15.538C19.6953 14.8779 20.2304 14.3428 20.8905 14.3428C21.5507 14.3428 22.0858 14.8779 22.0858 15.538ZM25.6718 19.1239C26.3319 19.1239 26.867 18.5887 26.867 17.9286C26.867 17.2685 26.3319 16.7334 25.6718 16.7334C25.0117 16.7334 24.4766 17.2685 24.4766 17.9286C24.4766 18.5887 25.0117 19.1239 25.6718 19.1239ZM12.5233 17.9286C12.5233 18.5887 11.9882 19.1238 11.3281 19.1238C10.6679 19.1238 10.1328 18.5887 10.1328 17.9286C10.1328 17.2685 10.6679 16.7333 11.3281 16.7333C11.9882 16.7333 12.5233 17.2685 12.5233 17.9286Z" fill="#FAD14E"/>
</g>
</g>
</svg>
