<svg width="24" height="24" viewBox="0 0 24 24" fill="none" xmlns="http://www.w3.org/2000/svg">
<g clip-path="url(#clip0_11481_29886)">
<path d="M15 4.62739C14.819 3.61407 13.6296 3.02858 12.5 3.00102M10 8.29407C10.3298 9.37138 11.4209 9.88021 12.5 9.91902M12.5 9.91902C13.7581 9.96427 15 9.37061 15 8.29407C15 6.23547 10.3571 6.6274 10.3571 4.62744C10.3571 3.4763 11.4002 2.97419 12.5 3.00102M12.5 9.91902V11M12.5 3.00102V2" stroke="#505C64" stroke-width="1.5" stroke-linecap="round"/>
<path d="M9.5 20H20M20 20L17.5 17.5M20 20L17.5 22.5" stroke="#505C64" stroke-width="1.5" stroke-linecap="round"/>
<path d="M5 15.5L7.5 13M5 15.5L7.5 18M5 15.5H15.5" stroke="#505C64" stroke-width="1.5" stroke-linecap="round"/>
</g>
<defs>
<clipPath id="clip0_11481_29886">
<rect width="24" height="24" fill="white"/>
</clipPath>
</defs>
</svg>
