<svg width="24" height="24" viewBox="0 0 24 24" fill="none" xmlns="http://www.w3.org/2000/svg">
<g clip-path="url(#clip0_11481_2145)">
<path fill-rule="evenodd" clip-rule="evenodd" d="M3 6.21094L13.6667 6.21094C13.9428 6.21094 14.1667 6.4348 14.1667 6.71094V10.2109H15.6667V6.71094C15.6667 5.60637 14.7712 4.71094 13.6667 4.71094L3 4.71094C1.89543 4.71094 1 5.60637 1 6.71094L1 12.7943C1 13.8988 1.89543 14.7943 3 14.7943L8.33398 14.7943L8.33398 13.2943L3 13.2943C2.72386 13.2943 2.5 13.0704 2.5 12.7943L2.5 6.71094C2.5 6.4348 2.72386 6.21094 3 6.21094Z" fill="#505C64"/>
<rect x="8.75" y="10.75" width="13.5" height="8.5" rx="1.25" stroke="#505C64" stroke-width="1.5"/>
<path d="M2 8H14" stroke="#505C64" stroke-width="1.5" stroke-linecap="round" stroke-linejoin="round"/>
<circle cx="12" cy="16" r="1" fill="#505C64"/>
</g>
<defs>
<clipPath id="clip0_11481_2145">
<rect width="24" height="24" fill="white"/>
</clipPath>
</defs>
</svg>
