<svg width="36" height="36" viewBox="0 0 36 36" fill="none" xmlns="http://www.w3.org/2000/svg">
<rect width="36" height="36" rx="12" fill="#D0D6D8"/>
<path d="M16.1373 25.2C15.8573 25.2 15.5507 25.18 15.2173 25.14C14.884 25.1133 14.584 25.0667 14.3173 25V18.88L12.3773 19.54V17.8L14.3173 17.14V15.9L12.3773 16.56V14.82L14.3173 14.16V10.72H17.2373V13.16L20.3573 12.08V13.82L17.2373 14.9V16.14L20.3573 15.06V16.78L17.2373 17.86V22.76C18.0773 22.6133 18.7307 22.3333 19.1973 21.92C19.6773 21.5067 20.0107 20.9667 20.1973 20.3C20.3973 19.6333 20.4973 18.8667 20.4973 18H23.2373C23.2373 18.92 23.1173 19.8133 22.8773 20.68C22.6373 21.5333 22.244 22.3 21.6973 22.98C21.164 23.66 20.4373 24.2 19.5173 24.6C18.6107 25 17.484 25.2 16.1373 25.2Z" fill="white"/>
</svg>
