<svg width="36" height="36" viewBox="0 0 36 36" fill="none" xmlns="http://www.w3.org/2000/svg">
<rect width="36" height="36" rx="12" fill="#E92434"/>
<path fill-rule="evenodd" clip-rule="evenodd" d="M27.2379 19.3832L25.0332 22.0562L25.1834 18.5946L21.96 17.3238L25.2986 16.3969L25.5111 12.9386L27.4243 15.8274L30.779 14.9608L28.6228 17.673L30.4837 20.5958L27.2379 19.3832Z" fill="white"/>
<path fill-rule="evenodd" clip-rule="evenodd" d="M24.325 24.6316C22.3488 27.1685 19.2649 28.8002 15.8 28.8002C9.83532 28.8002 5 23.9649 5 18.0002C5 12.0355 9.83532 7.2002 15.8 7.2002C19.2637 7.2002 22.3466 8.83074 24.3229 11.3661C22.7983 10.259 20.8821 9.59961 18.8008 9.59961C13.8302 9.59961 9.80078 13.3604 9.80078 17.9996C9.80078 22.6388 13.8302 26.3996 18.8008 26.3996C20.883 26.3996 22.8001 25.7396 24.325 24.6316Z" fill="white"/>
</svg>
