<svg width="36" height="36" viewBox="0 0 36 36" fill="none" xmlns="http://www.w3.org/2000/svg">
<mask id="mask0_1179_107144" style="mask-type:alpha" maskUnits="userSpaceOnUse" x="0" y="0" width="36" height="36">
<rect width="36" height="36" rx="12" fill="#E0E6EF"/>
</mask>
<g mask="url(#mask0_1179_107144)">
<rect x="-3.92578" y="-0.484375" width="52.011" height="37.1507" rx="3.09589" fill="white"/>
<mask id="mask1_1179_107144" style="mask-type:alpha" maskUnits="userSpaceOnUse" x="-4" y="-1" width="53" height="38">
<rect x="-3.92578" y="-0.484375" width="52.011" height="37.1507" rx="3.09589" fill="white"/>
</mask>
<g mask="url(#mask1_1179_107144)">
<path fill-rule="evenodd" clip-rule="evenodd" d="M48.0852 -0.484375H-3.92578V1.99234H48.0852V-0.484375ZM48.0852 4.46875H-3.92578V6.94547H48.0852V4.46875ZM-3.92578 9.42285H48.0852V11.8996H-3.92578V9.42285ZM48.0852 14.376H-3.92578V16.8527H48.0852V14.376ZM-3.92578 19.3291H48.0852V21.8058H-3.92578V19.3291ZM48.0852 24.2832H-3.92578V26.7599H48.0852V24.2832ZM-3.92578 29.2363H48.0852V31.7131H-3.92578V29.2363ZM48.0852 34.1895H-3.92578V36.6662H48.0852V34.1895Z" fill="#D02F44"/>
<rect x="-3.92578" y="-0.484375" width="22.2904" height="17.337" fill="#46467F"/>
<g filter="url(#filter0_d_1179_107144)">
<path fill-rule="evenodd" clip-rule="evenodd" d="M1.0275 3.23055C1.0275 3.91447 0.473065 4.4689 -0.210861 4.4689C-0.894787 4.4689 -1.44922 3.91447 -1.44922 3.23055C-1.44922 2.54662 -0.894787 1.99219 -0.210861 1.99219C0.473065 1.99219 1.0275 2.54662 1.0275 3.23055ZM5.98062 3.23055C5.98062 3.91447 5.42619 4.4689 4.74226 4.4689C4.05834 4.4689 3.50391 3.91447 3.50391 3.23055C3.50391 2.54662 4.05834 1.99219 4.74226 1.99219C5.42619 1.99219 5.98062 2.54662 5.98062 3.23055ZM9.69539 4.4689C10.3793 4.4689 10.9338 3.91447 10.9338 3.23055C10.9338 2.54662 10.3793 1.99219 9.69539 1.99219C9.01146 1.99219 8.45703 2.54662 8.45703 3.23055C8.45703 3.91447 9.01146 4.4689 9.69539 4.4689ZM15.8888 3.23055C15.8888 3.91447 15.3344 4.4689 14.6505 4.4689C13.9665 4.4689 13.4121 3.91447 13.4121 3.23055C13.4121 2.54662 13.9665 1.99219 14.6505 1.99219C15.3344 1.99219 15.8888 2.54662 15.8888 3.23055ZM2.2657 6.94547C2.94963 6.94547 3.50406 6.39103 3.50406 5.70711C3.50406 5.02318 2.94963 4.46875 2.2657 4.46875C1.58178 4.46875 1.02734 5.02318 1.02734 5.70711C1.02734 6.39103 1.58178 6.94547 2.2657 6.94547ZM8.45718 5.70711C8.45718 6.39103 7.90275 6.94547 7.21883 6.94547C6.5349 6.94547 5.98047 6.39103 5.98047 5.70711C5.98047 5.02318 6.5349 4.46875 7.21883 4.46875C7.90275 4.46875 8.45718 5.02318 8.45718 5.70711ZM12.172 6.94547C12.8559 6.94547 13.4103 6.39103 13.4103 5.70711C13.4103 5.02318 12.8559 4.46875 12.172 4.46875C11.488 4.46875 10.9336 5.02318 10.9336 5.70711C10.9336 6.39103 11.488 6.94547 12.172 6.94547ZM15.8888 8.18367C15.8888 8.8676 15.3344 9.42203 14.6505 9.42203C13.9665 9.42203 13.4121 8.8676 13.4121 8.18367C13.4121 7.49974 13.9665 6.94531 14.6505 6.94531C15.3344 6.94531 15.8888 7.49974 15.8888 8.18367ZM9.69539 9.42203C10.3793 9.42203 10.9338 8.8676 10.9338 8.18367C10.9338 7.49974 10.3793 6.94531 9.69539 6.94531C9.01146 6.94531 8.45703 7.49974 8.45703 8.18367C8.45703 8.8676 9.01146 9.42203 9.69539 9.42203ZM5.98062 8.18367C5.98062 8.8676 5.42619 9.42203 4.74226 9.42203C4.05834 9.42203 3.50391 8.8676 3.50391 8.18367C3.50391 7.49974 4.05834 6.94531 4.74226 6.94531C5.42619 6.94531 5.98062 7.49974 5.98062 8.18367ZM-0.210861 9.42203C0.473065 9.42203 1.0275 8.8676 1.0275 8.18367C1.0275 7.49974 0.473065 6.94531 -0.210861 6.94531C-0.894787 6.94531 -1.44922 7.49974 -1.44922 8.18367C-1.44922 8.8676 -0.894787 9.42203 -0.210861 9.42203ZM3.50406 10.6602C3.50406 11.3442 2.94963 11.8986 2.2657 11.8986C1.58178 11.8986 1.02734 11.3442 1.02734 10.6602C1.02734 9.97631 1.58178 9.42188 2.2657 9.42188C2.94963 9.42188 3.50406 9.97631 3.50406 10.6602ZM7.21883 11.8986C7.90275 11.8986 8.45718 11.3442 8.45718 10.6602C8.45718 9.97631 7.90275 9.42188 7.21883 9.42188C6.5349 9.42188 5.98047 9.97631 5.98047 10.6602C5.98047 11.3442 6.5349 11.8986 7.21883 11.8986ZM13.4103 10.6602C13.4103 11.3442 12.8559 11.8986 12.172 11.8986C11.488 11.8986 10.9336 11.3442 10.9336 10.6602C10.9336 9.97631 11.488 9.42188 12.172 9.42188C12.8559 9.42188 13.4103 9.97631 13.4103 10.6602ZM14.6505 14.3752C15.3344 14.3752 15.8888 13.8207 15.8888 13.1368C15.8888 12.4529 15.3344 11.8984 14.6505 11.8984C13.9665 11.8984 13.4121 12.4529 13.4121 13.1368C13.4121 13.8207 13.9665 14.3752 14.6505 14.3752ZM10.9338 13.1368C10.9338 13.8207 10.3793 14.3752 9.69539 14.3752C9.01146 14.3752 8.45703 13.8207 8.45703 13.1368C8.45703 12.4529 9.01146 11.8984 9.69539 11.8984C10.3793 11.8984 10.9338 12.4529 10.9338 13.1368ZM4.74226 14.3752C5.42619 14.3752 5.98062 13.8207 5.98062 13.1368C5.98062 12.4529 5.42619 11.8984 4.74226 11.8984C4.05834 11.8984 3.50391 12.4529 3.50391 13.1368C3.50391 13.8207 4.05834 14.3752 4.74226 14.3752ZM1.0275 13.1368C1.0275 13.8207 0.473065 14.3752 -0.210861 14.3752C-0.894787 14.3752 -1.44922 13.8207 -1.44922 13.1368C-1.44922 12.4529 -0.894787 11.8984 -0.210861 11.8984C0.473065 11.8984 1.0275 12.4529 1.0275 13.1368Z" fill="url(#paint0_linear_1179_107144)"/>
</g>
</g>
</g>
<defs>
<filter id="filter0_d_1179_107144" x="-1.44922" y="1.99219" width="17.3379" height="13.9308" filterUnits="userSpaceOnUse" color-interpolation-filters="sRGB">
<feFlood flood-opacity="0" result="BackgroundImageFix"/>
<feColorMatrix in="SourceAlpha" type="matrix" values="0 0 0 0 0 0 0 0 0 0 0 0 0 0 0 0 0 0 127 0" result="hardAlpha"/>
<feOffset dy="1.54795"/>
<feColorMatrix type="matrix" values="0 0 0 0 0 0 0 0 0 0 0 0 0 0 0 0 0 0 0.06 0"/>
<feBlend mode="normal" in2="BackgroundImageFix" result="effect1_dropShadow_1179_107144"/>
<feBlend mode="normal" in="SourceGraphic" in2="effect1_dropShadow_1179_107144" result="shape"/>
</filter>
<linearGradient id="paint0_linear_1179_107144" x1="-1.44922" y1="1.99219" x2="-1.44922" y2="14.3752" gradientUnits="userSpaceOnUse">
<stop stop-color="white"/>
<stop offset="1" stop-color="#F0F0F0"/>
</linearGradient>
</defs>
</svg>
