<svg width="36" height="36" viewBox="0 0 36 36" fill="none" xmlns="http://www.w3.org/2000/svg">
<rect width="36" height="36" rx="12" fill="#D9B681"/>
<path d="M22.9079 20.9001C22.9079 18.9001 21.9079 17.7601 19.4679 17.0401L16.8279 16.2601C15.3479 15.8201 14.7079 15.2401 14.7079 14.3401C14.7079 13.1401 15.9079 12.2601 17.4879 12.2801C19.1479 12.3201 20.4079 13.3601 20.6879 14.9201L22.8279 14.5201C22.3479 12.2601 20.8279 10.8001 18.6279 10.4201V8.62012H16.5279V10.3801C14.1279 10.6801 12.6279 12.2201 12.6279 14.4401C12.6279 16.2001 13.6479 17.4401 15.6079 18.0401L18.9879 19.1001C20.3079 19.5001 20.8479 20.0601 20.8479 21.0201C20.8479 22.3601 19.5879 23.3201 17.7879 23.3201C15.9479 23.3201 14.5479 22.2601 14.1479 20.5401L12.0879 20.8801C12.4679 23.2201 14.1479 24.8201 16.5279 25.2201V26.9801H18.6279V25.2401C21.2279 24.9201 22.9079 23.2601 22.9079 20.9001Z" fill="white"/>
</svg>
