<svg width="36" height="36" viewBox="0 0 36 36" fill="none" xmlns="http://www.w3.org/2000/svg">
<rect width="36" height="36" rx="12" fill="#D0D6D8"/>
<path d="M22.9077 20.9C22.9077 18.9 21.9077 17.76 19.4677 17.04L16.8277 16.26C15.3477 15.82 14.7077 15.24 14.7077 14.34C14.7077 13.14 15.9077 12.26 17.4877 12.28C19.1477 12.32 20.4077 13.36 20.6877 14.92L22.8277 14.52C22.3477 12.26 20.8277 10.8 18.6277 10.42V8.62H16.5277V10.38C14.1277 10.68 12.6277 12.22 12.6277 14.44C12.6277 16.2 13.6477 17.44 15.6077 18.04L18.9877 19.1C20.3077 19.5 20.8477 20.06 20.8477 21.02C20.8477 22.36 19.5877 23.32 17.7877 23.32C15.9477 23.32 14.5477 22.26 14.1477 20.54L12.0877 20.88C12.4677 23.22 14.1477 24.82 16.5277 25.22V26.98H18.6277V25.24C21.2277 24.92 22.9077 23.26 22.9077 20.9Z" fill="white"/>
</svg>
