<svg width="36" height="36" viewBox="0 0 36 36" fill="none" xmlns="http://www.w3.org/2000/svg">
<rect width="36" height="36" rx="12" fill="#D0D6D8"/>
<path d="M8.11822 23.18C9.88222 23.18 11.5022 22.28 11.5022 20.48C11.5022 18.764 10.0262 18.344 9.18622 18.104L7.63822 17.684C7.06222 17.528 6.39022 17.288 6.39022 16.64C6.39022 15.968 7.14622 15.524 8.01022 15.548C8.89822 15.56 9.69022 16.076 9.88222 16.988L11.4422 16.724C11.0462 15.116 9.79822 14.204 8.03422 14.192C6.27022 14.18 4.86622 15.044 4.86622 16.712C4.86622 18.236 6.03022 18.704 6.79822 18.932L9.03022 19.58C9.67822 19.784 9.99022 20.096 9.99022 20.588C9.99022 21.38 9.12622 21.824 8.20222 21.824C7.15822 21.824 6.29422 21.248 6.04222 20.216L4.53022 20.444C4.80622 22.136 6.22222 23.18 8.11822 23.18ZM15.6689 23.18C17.6009 23.18 18.8969 21.776 18.8969 19.76C18.8969 17.756 17.6129 16.34 15.6689 16.34C13.7489 16.34 12.4409 17.732 12.4409 19.76C12.4409 21.764 13.7129 23.18 15.6689 23.18ZM15.6689 21.824C14.5529 21.824 13.9769 21.02 13.9769 19.76C13.9769 18.536 14.5049 17.696 15.6689 17.696C16.7969 17.696 17.3729 18.5 17.3729 19.76C17.3729 20.972 16.8089 21.824 15.6689 21.824ZM19.7356 16.52H21.1756V14.36H19.7356V16.52ZM29.9808 16.364C29.1408 16.364 28.4088 16.748 28.0128 17.384C27.6648 16.76 27.0288 16.364 26.1168 16.364C25.3368 16.364 24.6648 16.688 24.2448 17.216V16.52H22.9608V23H24.4128V19.016C24.4128 18.2 24.9048 17.648 25.6368 17.648C26.3928 17.648 26.8728 18.188 26.8728 19.076L26.8608 23H28.3128V19.016C28.3128 18.152 28.8408 17.648 29.5368 17.648C30.2808 17.648 30.7608 18.176 30.7608 19.064V23H32.2008V18.704C32.2008 17.3 31.4088 16.364 29.9808 16.364Z" fill="white"/>
</svg>
