<svg width="36" height="36" viewBox="0 0 36 36" fill="none" xmlns="http://www.w3.org/2000/svg">
<rect x="0.5" y="0.5" width="35" height="35" rx="11.5" fill="#D0D6D8" stroke="#FF5721"/>
<path fill-rule="evenodd" clip-rule="evenodd" d="M16.0358 14.1316L14.4829 21.8687L16.3455 21.8716L17.8953 14.1349L16.0358 14.1316ZM27.2554 19.1529L26.7031 16.245L25.7114 19.1485L27.2554 19.1529ZM27.5553 20.7375L25.1744 20.7326L24.784 21.8901L22.8311 21.8859L25.6331 14.7181C25.7675 14.3736 26.068 14.1509 26.4275 14.1509L28.0139 14.1547L29.5006 21.898L27.776 21.8952L27.5553 20.7375ZM22.9319 19.3591C22.9227 20.9661 21.6426 22.0042 19.6899 22C18.857 21.9883 18.0579 21.8007 17.6215 21.5853L17.9622 19.8896C18.3936 20.1065 18.9357 20.3947 19.8712 20.3828C20.4055 20.3738 20.9796 20.1474 20.9845 19.6274C20.9898 19.2882 20.7457 19.0439 20.0217 18.6624C19.3185 18.2914 18.3843 17.668 18.3971 16.554C18.411 15.0469 19.7073 13.9971 21.5444 14C22.2603 14.0024 22.8376 14.1708 23.2838 14.3463L22.9557 15.9875C22.1234 15.573 21.3897 15.6019 21.1212 15.6377C20.5847 15.7123 20.3377 16.0078 20.3324 16.2845C20.3119 17.197 22.944 17.3144 22.9319 19.3591ZM13.2856 14.1251L11.3396 19.3897L10.5661 14.9092C10.4739 14.4087 10.111 14.1194 9.70905 14.1194L6.54509 14.1119L6.5 14.3354C7.14886 14.4904 7.88831 14.7364 8.33345 14.9977C8.60664 15.1592 8.68514 15.2974 8.77347 15.6796L10.2464 21.8596L12.2137 21.8638L15.2397 14.1291L13.2856 14.1251Z" fill="white"/>
</svg>
