<svg width="16" height="16" viewBox="0 0 16 16" fill="none" xmlns="http://www.w3.org/2000/svg">
<circle cx="8" cy="8" r="7" fill="#FF5721"/>
<path fill-rule="evenodd" clip-rule="evenodd" d="M7.00909 5.63248C7.00909 5.07768 6.55934 4.62793 6.00455 4.62793C5.44975 4.62793 5 5.07768 5 5.63248V10.5865C5 11.1413 5.44975 11.591 6.00455 11.591C6.55934 11.591 7.00909 11.1413 7.00909 10.5865V5.63248ZM11.0372 5.63248C11.0372 5.07768 10.5874 4.62793 10.0327 4.62793C9.47786 4.62793 9.02811 5.07768 9.02811 5.63248V10.5865C9.02811 11.1413 9.47786 11.591 10.0327 11.591C10.5874 11.591 11.0372 11.1413 11.0372 10.5865V5.63248Z" fill="white"/>
</svg>
