<svg width="36" height="36" viewBox="0 0 36 36" fill="none" xmlns="http://www.w3.org/2000/svg">
<rect x="0.5" y="0.5" width="35" height="35" rx="11.5" fill="white"/>
<mask id="mask0_16119_274783" style="mask-type:alpha" maskUnits="userSpaceOnUse" x="0" y="0" width="36" height="36">
<rect width="36" height="36" rx="12" fill="#E0E6EF"/>
</mask>
<g mask="url(#mask0_16119_274783)">
<path d="M4.61609 23L7.78809 18.268L4.70709 13.64H6.62459L8.75659 16.9355L10.8691 13.64H12.7996L9.71859 18.268L12.8776 23H10.9601L8.75659 19.6005L6.54659 23H4.61609ZM13.5246 23L16.4756 13.64H18.7701L21.7211 23H20.1091L17.4311 14.602H17.7821L15.1366 23H13.5246ZM15.1691 20.972V19.5095H20.0831V20.972H15.1691ZM26.7634 23.195C26.1568 23.195 25.5869 23.0888 25.0539 22.8765C24.5253 22.6598 24.0594 22.3435 23.6564 21.9275C23.2578 21.5115 22.9458 21.0023 22.7204 20.4C22.4951 19.7933 22.3824 19.1 22.3824 18.32C22.3824 17.2973 22.5731 16.4242 22.9544 15.7005C23.3358 14.9725 23.8579 14.4157 24.5209 14.03C25.1839 13.64 25.9314 13.445 26.7634 13.445C27.9161 13.445 28.8283 13.7137 29.4999 14.251C30.1759 14.784 30.6331 15.5337 30.8714 16.5L29.2724 16.7535C29.0948 16.1988 28.8044 15.7568 28.4014 15.4275C27.9984 15.0938 27.4849 14.927 26.8609 14.927C26.2326 14.9183 25.7104 15.0548 25.2944 15.3365C24.8784 15.6182 24.5643 16.0147 24.3519 16.526C24.1439 17.0373 24.0399 17.6353 24.0399 18.32C24.0399 19.0047 24.1439 19.6005 24.3519 20.1075C24.5599 20.6102 24.8719 21.0023 25.2879 21.284C25.7083 21.5657 26.2326 21.7108 26.8609 21.7195C27.3333 21.7238 27.7471 21.6393 28.1024 21.466C28.4578 21.2883 28.7481 21.0218 28.9734 20.6665C29.1988 20.3068 29.3504 19.8583 29.4284 19.321H27.7774V18.0925H31.0924C31.1011 18.1618 31.1076 18.2637 31.1119 18.398C31.1163 18.5323 31.1184 18.6125 31.1184 18.6385C31.1184 19.5225 30.9429 20.309 30.5919 20.998C30.2453 21.6827 29.7469 22.22 29.0969 22.61C28.4469 23 27.6691 23.195 26.7634 23.195Z" fill="#505C64"/>
</g>
<rect x="0.5" y="0.5" width="35" height="35" rx="11.5" stroke="#E9EFF0"/>
</svg>
