<?xml version="1.0" encoding="UTF-8" standalone="no"?>
<svg
   xmlns:dc="http://purl.org/dc/elements/1.1/"
   xmlns:cc="http://creativecommons.org/ns#"
   xmlns:rdf="http://www.w3.org/1999/02/22-rdf-syntax-ns#"
   xmlns:svg="http://www.w3.org/2000/svg"
   xmlns="http://www.w3.org/2000/svg"
   xmlns:sodipodi="http://sodipodi.sourceforge.net/DTD/sodipodi-0.dtd"
   xmlns:inkscape="http://www.inkscape.org/namespaces/inkscape"
   version="1.0"
   width="279"
   height="279"
   viewBox="0 0 1610 2100"
   preserveAspectRatio="xMidYMid meet"
   id="svg2253"
   sodipodi:docname="Evil_geniuses_logo.svg"
   inkscape:version="0.92.5 (2060ec1f9f, 2020-04-08)">
  <metadata
     id="metadata2259">
    <rdf:RDF>
      <cc:Work
         rdf:about="">
        <dc:format>image/svg+xml</dc:format>
        <dc:type
           rdf:resource="http://purl.org/dc/dcmitype/StillImage" />
        <dc:title></dc:title>
      </cc:Work>
    </rdf:RDF>
  </metadata>
  <defs
     id="defs2257" />
  <sodipodi:namedview
     pagecolor="#ffffff"
     bordercolor="#666666"
     borderopacity="1"
     objecttolerance="10"
     gridtolerance="10"
     guidetolerance="10"
     inkscape:pageopacity="0"
     inkscape:pageshadow="2"
     inkscape:window-width="1920"
     inkscape:window-height="1017"
     id="namedview2255"
     showgrid="false"
     inkscape:zoom="1.9748954"
     inkscape:cx="263.8486"
     inkscape:cy="163.10665"
     inkscape:window-x="-8"
     inkscape:window-y="-8"
     inkscape:window-maximized="1"
     inkscape:current-layer="svg2253" />
  <g
     id="layer101"
     transform="matrix(0.29278964,0,0,0.29278964,-1.794669,-5.7862)"
     style="fill:#e9a401;stroke:none">
    <path
       d="m 2965,7260 c -3,-8 -4,-498 -3,-1089 l 3,-1074 130,-32 c 145,-36 256,-78 360,-135 229,-126 434,-328 564,-555 l 51,-90 -450,-3 -450,-2 v -625 -625 h 1113 1113 l 23,119 c 60,328 64,636 10,951 -84,496 -289,932 -616,1317 -139,163 -1841,1860 -1848,1843 z"
       id="path2246"
       inkscape:connector-curvature="0" />
    <path
       d="M 2405,6339 C 1564,6215 859,5750 434,5038 102,4481 -18,3819 96,3180 177,2732 367,2314 656,1950 720,1869 2536,40 2552,40 c 5,0 7,489 6,1086 l -3,1087 -100,22 c -187,43 -349,110 -492,205 -195,130 -371,321 -472,510 l -42,80 h 450 451 v 625 625 h -450 -450 l 24,48 c 49,96 150,236 239,328 201,211 421,337 712,409 l 130,32 v 624 624 l -45,2 c -25,0 -72,-3 -105,-8 z"
       id="path2248"
       inkscape:connector-curvature="0" />
    <path
       d="m 3713,2560 c -179,-159 -396,-268 -648,-325 l -100,-22 V 1584 955 l 45,3 c 157,11 415,64 594,124 246,82 435,173 646,313 170,113 272,197 421,345 147,147 228,246 350,429 89,134 243,426 233,443 -3,4 -335,8 -739,8 h -734 z"
       id="path2250"
       inkscape:connector-curvature="0" />
  </g>
</svg>
